<?xml version="1.0" standalone="no"?>
<!DOCTYPE svg PUBLIC "-//W3C//DTD SVG 1.1//EN" "http://www.w3.org/Graphics/SVG/1.1/DTD/svg11.dtd">
<svg width="220.0mm" height="310.00000000000006mm"
 viewBox="0 0 220.0 310.00000000000006"
 xmlns="http://www.w3.org/2000/svg" version="1.1"
 xmlns:xlink="http://www.w3.org/1999/xlink">
<desc>Output from Flights of Ideas SVG Sketchup Plugin</desc>

  <path id="face0-cut"
 style="fill:none;stroke:#0000FF;stroke-width:1;stroke-miterlimit:4;stroke-dasharray:none;stroke-linejoin:round;stroke-linecap:round"
        d="M 203.0,10.0 L 16.99999999999997,10.000000000000028 L 15.188266684282326,10.238519215956842 L 13.5,10.937822173512728 L 12.050252531694127,12.050252531692308 L 10.93782217350892,13.499999999999972 L 10.238519215976481,15.188266684281501 L 10.0,16.999999999999716 L 10.000000000000028,293.00000000000006 L 10.23851921597651,294.8117333157177 L 10.937822173508977,296.5000000000001 L 12.050252531694156,297.9497474683058 L 13.5,299.0621778264911 L 15.188266684282382,299.76148078402355 L 16.99999999999997,300.0 L 203.00000000000003,300.00000000000006 L 204.81173331571762,299.7614807840234 L 206.5,299.0621778264911 L 207.94974746830582,297.9497474683058 L 209.06217782649105,296.49999999999994 L 209.76148078402346,294.8117333157177 L 210.0,293.00000000000006 L 210.0,17.00000000000003 L 209.7614807840235,15.188266684282382 L 209.06217782649108,13.5 L 207.94974746830584,12.050252531694184 L 206.5,10.937822173508948 L 204.81173331571765,10.238519215976538 L 203.0,10.0 M 24.00000000000003,173.0 L 24.0,203.0 L 16.99999999999997,203.0 L 17.00000000000003,173.0 L 24.00000000000003,173.0 M 24.00000000000003,106.99999999999994 L 24.0,136.99999999999994 L 17.0,137.00000000000006 L 17.0,107.0 L 24.00000000000003,106.99999999999994 M 24.00000000000003,46.999999999999886 L 24.00000000000003,76.99999999999994 L 16.99999999999997,77.0 L 17.0,46.99999999999997 L 24.00000000000003,46.999999999999886 M 17.000000000000085,233.0000000000001 L 24.0,232.99999999999994 L 24.00000000000003,263.0 L 17.000000000000057,263.0 L 17.000000000000085,233.0000000000001 M 176.49999999999994,95.40192378864657 L 177.12132034355955,95.87867965644023 L 177.5980762113532,96.49999999999989 L 177.8977774788671,97.22354286469226 L 177.99999999999991,97.99999999999983 L 177.8977774788671,98.7764571353074 L 177.5980762113532,99.49999999999989 L 177.12132034355957,100.12132034355949 L 176.49999999999994,100.5980762113532 L 175.77645713530748,100.89777747886706 L 174.99999999999991,100.99999999999983 L 174.22354286469235,100.89777747886706 L 173.49999999999994,100.5980762113532 L 172.87867965644026,100.12132034355949 L 172.40192378864663,99.49999999999989 L 172.10222252113272,98.7764571353074 L 171.99999999999991,97.99999999999983 L 172.10222252113272,97.22354286469226 L 172.40192378864663,96.49999999999989 L 172.87867965644028,95.87867965644023 L 173.49999999999994,95.40192378864657 L 174.22354286469238,95.10222252113266 L 174.99999999999991,94.99999999999983 L 175.77645713530748,95.10222252113266 L 176.49999999999994,95.40192378864657 M 88.99999999999997,69.99999999999986 L 164.99999999999991,69.99999999999986 L 164.99999999999994,125.99999999999977 L 88.99999999999999,125.99999999999977 L 88.99999999999997,69.99999999999986 M 75.99999999999999,97.99999999999983 L 76.10222252113277,97.22354286469232 L 76.40192378864668,96.49999999999989 L 76.87867965644031,95.87867965644023 L 77.49999999999994,95.40192378864657 L 78.2235428646924,95.1022225211326 L 78.99999999999994,94.99999999999983 L 79.77645713530752,95.10222252113266 L 80.49999999999996,95.40192378864657 L 81.12132034355963,95.87867965644023 L 81.59807621135329,96.49999999999994 L 81.89777747886714,97.22354286469226 L 81.99999999999993,97.99999999999983 L 81.89777747886717,98.7764571353074 L 81.5980762113533,99.49999999999989 L 81.12132034355963,100.12132034355955 L 80.49999999999996,100.5980762113532 L 79.77645713530752,100.89777747886706 L 78.99999999999996,100.99999999999983 L 78.2235428646924,100.89777747886706 L 77.49999999999994,100.5980762113532 L 76.87867965644034,100.12132034355949 L 76.40192378864668,99.49999999999989 L 76.10222252113276,98.7764571353074 L 75.99999999999999,97.99999999999983 M 196.0,77.0 L 196.0,46.99999999999997 L 203.00000000000003,46.99999999999997 L 203.00000000000003,77.0 L 196.0,77.0 M 135.99999999999997,293.00000000000006 L 135.99999999999997,286.0 L 165.99999999999997,286.0 L 165.99999999999997,293.00000000000006 L 135.99999999999997,293.00000000000006 M 165.99999999999994,23.99999999999997 L 135.99999999999997,23.999999999999943 L 135.99999999999997,16.99999999999997 L 165.99999999999994,17.0 L 165.99999999999994,23.99999999999997 M 54.00000000000006,286.0 L 83.99999999999997,286.0 L 83.99999999999997,293.00000000000006 L 54.00000000000006,293.0000000000001 L 54.00000000000006,286.0 M 54.0,23.9999999999998 L 54.0,16.999999999999602 L 84.00000000000001,17.000000000000284 L 84.00000000000001,24.000000000000085 L 54.0,23.9999999999998 M 203.0,263.0 L 196.00000000000003,263.0 L 196.0,233.00000000000006 L 203.0,233.00000000000006 L 203.0,263.0 M 195.99999999999997,173.0 L 203.0,173.0 L 203.0,203.0 L 196.0,203.0 L 195.99999999999997,173.0 M 196.0,107.0 L 203.00000000000003,107.0 L 203.00000000000003,136.99999999999994 L 196.0,136.99999999999994 L 196.0,107.0 M 185.5,277.7499999999999 L 184.91765714851934,277.6733331091504 L 184.375,277.44855715851503 L 183.9090097423303,277.0909902576697 L 183.55144284148508,276.62499999999994 L 183.3266668908496,276.0823428514807 L 183.25,275.50000000000006 L 183.3266668908496,274.91765714851937 L 183.55144284148503,274.375 L 183.90900974233028,273.90900974233034 L 184.375,273.5514428414851 L 184.91765714851937,273.3266668908496 L 185.50000000000003,273.25 L 186.08234285148066,273.3266668908496 L 186.625,273.55144284148497 L 187.09099025766972,273.90900974233034 L 187.44855715851497,274.37499999999994 L 187.67333310915038,274.91765714851937 L 187.74999999999997,275.50000000000006 L 187.6733331091504,276.0823428514807 L 187.44855715851497,276.62499999999994 L 187.09099025766974,277.0909902576697 L 186.62499999999997,277.44855715851503 L 186.08234285148072,277.6733331091504 L 185.5,277.7499999999999 M 32.25,275.49999999999994 L 32.326666890849566,274.9176571485193 L 32.551442841485,274.3750000000001 L 32.909009742330255,273.9090097423302 L 33.37499999999997,273.5514428414851 L 33.91765714851928,273.3266668908496 L 34.49999999999994,273.25 L 35.08234285148066,273.3266668908496 L 35.625000000000085,273.5514428414851 L 36.090990257669716,273.90900974233034 L 36.448557158515,274.37499999999994 L 36.67333310915032,274.9176571485193 L 36.75,275.50000000000006 L 36.673333109150434,276.0823428514807 L 36.44855715851497,276.62499999999994 L 36.09099025766977,277.0909902576697 L 35.625,277.4485571585149 L 35.08234285148069,277.6733331091504 L 34.49999999999994,277.7499999999999 L 33.91765714851931,277.6733331091504 L 33.37499999999994,277.44855715851503 L 32.90900974233023,277.09099025766966 L 32.551442841485056,276.62500000000006 L 32.326666890849594,276.08234285148063 L 32.25,275.49999999999994 M 33.91765714851931,32.32666689084962 L 34.5,32.249999999999915 L 35.08234285148066,32.32666689084948 L 35.625,32.55144284148497 L 36.090990257669716,32.909009742330284 L 36.44855715851497,33.374999999999915 L 36.67333310915038,33.91765714851934 L 36.75,34.49999999999997 L 36.673333109150406,35.082342851480774 L 36.44855715851497,35.625 L 36.090990257669716,36.09099025766977 L 35.62499999999997,36.44855715851486 L 35.08234285148069,36.67333310915029 L 34.49999999999997,36.749999999999744 L 33.91765714851931,36.67333310915029 L 33.375,36.44855715851503 L 32.909009742330284,36.09099025766977 L 32.551442841485,35.62499999999994 L 32.326666890849566,35.08234285148046 L 32.25,34.49999999999997 L 32.326666890849594,33.91765714851928 L 32.551442841485,33.37499999999997 L 32.909009742330255,32.90900974233014 L 33.37499999999997,32.55144284148497 L 33.91765714851931,32.32666689084962 M 185.5,32.25 L 186.0823428514807,32.32666689084962 L 186.625,32.55144284148503 L 187.09099025766974,32.909009742330284 L 187.448557158515,33.37500000000003 L 187.6733331091504,33.91765714851934 L 187.75,34.50000000000003 L 187.67333310915043,35.08234285148069 L 187.448557158515,35.625 L 187.09099025766974,36.090990257669745 L 186.625,36.448557158515 L 186.0823428514807,36.673333109150434 L 185.5,36.75000000000003 L 184.91765714851934,36.673333109150434 L 184.375,36.448557158515 L 183.90900974233028,36.090990257669745 L 183.55144284148503,35.625 L 183.3266668908496,35.08234285148069 L 183.25,34.50000000000003 L 183.3266668908496,33.91765714851934 L 183.55144284148503,33.37500000000003 L 183.90900974233028,32.909009742330284 L 184.37500000000003,32.55144284148503 L 184.91765714851934,32.32666689084962 L 185.5,32.25 M 164.50000000000006,180.94744111674243 L 169.05634918610406,184.443650813896 L 172.55255888325772,189.00000000000006 L 174.75036817835957,194.3059810077446 L 175.50000000000006,200.00000000000006 L 174.75036817835957,205.69401899225545 L 172.55255888325772,211.0 L 169.05634918610411,215.55634918610411 L 166.5233341294913,217.50000000000017 L 164.56849607022957,219.0000000000001 L 169.0563491861041,222.44365081389606 L 172.55255888325772,227.00000000000006 L 174.75036817835954,232.30598100774472 L 175.50000000000009,238.0000000000001 L 174.75036817835954,243.69401899225568 L 172.5525588832577,249.0000000000001 L 169.05634918610411,253.55634918610428 L 164.50000000000009,257.0525588832577 L 159.1940189922555,259.2503681783596 L 153.50000000000003,260.00000000000034 L 147.8059810077446,259.2503681783596 L 142.50000000000006,257.0525588832579 L 137.94365081389603,253.55634918610428 L 134.44744111674243,249.0000000000001 L 132.42498983477722,244.11737068584102 L 130.55634918610417,246.55263059191435 L 126.00000000000013,250.0488402890678 L 120.69401899225555,252.24664958416975 L 115.0000000000001,252.99628140581024 L 109.30598100774466,252.24664958416975 L 104.00000000000006,250.04884028906798 L 99.44365081389604,246.55263059191435 L 95.94744111674243,241.99628140581024 L 93.74963182164058,236.69030039806574 L 93.00000000000014,230.99628140581018 L 93.7496318216406,225.30226241355479 L 95.94744111674245,219.9962814058103 L 99.44365081389608,215.43993221970612 L 103.92908084662064,211.99814070290523 L 101.97424278735885,210.49814070290523 L 99.44365081389601,208.55634918610423 L 95.9474411167425,204.00000000000017 L 93.74963182164056,198.69401899225562 L 93.00000000000007,193.0000000000001 L 93.74963182164053,187.30598100774472 L 95.94744111674243,182.00000000000017 L 98.5017923069894,178.67110471772298 L 95.30598100774446,178.2503681783594 L 89.99999999999996,176.05255888325752 L 85.44365081389597,172.5563491861039 L 81.94744111674227,167.99999999999983 L 79.74963182164045,162.69401899225534 L 78.99999999999996,156.9999999999999 L 79.74963182164042,151.30598100774438 L 81.94744111674231,145.9999999999999 L 85.44365081389597,141.44365081389583 L 90.00000000000001,137.9474411167423 L 95.30598100774455,135.74963182164038 L 100.99999999999994,134.9999999999999 L 106.69401899225538,135.74963182164038 L 112.00000000000001,137.9474411167423 L 116.55634918610404,141.44365081389589 L 120.05255888325762,145.9999999999999 L 122.07400985445656,150.8802143503405 L 123.94365081389597,148.44365081389589 L 128.5,144.94744111674225 L 133.80598100774455,142.74963182164038 L 139.5,141.9999999999999 L 145.19401899225545,142.74963182164038 L 150.5,144.9474411167423 L 155.05634918610403,148.44365081389589 L 158.55255888325763,152.99999999999994 L 160.75036817835948,158.3059810077445 L 161.49999999999997,163.99999999999994 L 160.7503681783595,169.69401899225545 L 158.55255888325766,174.9999999999999 L 155.99820769301064,178.32889528227696 L 159.1940189922555,178.7496318216406 L 164.50000000000006,180.94744111674243 "
  />
  <path id="face0-interior"
 style="fill:none;stroke:#FF0000;stroke-width:1;stroke-miterlimit:4;stroke-dasharray:none;stroke-linejoin:round;stroke-linecap:round"
        d="M 203.0,10.0 M 16.99999999999997,10.000000000000028 M 15.188266684282326,10.238519215956842 M 13.5,10.937822173512728 M 12.050252531694127,12.050252531692308 M 10.93782217350892,13.499999999999972 M 10.238519215976481,15.188266684281501 M 10.0,16.999999999999716 M 10.000000000000028,293.00000000000006 M 10.23851921597651,294.8117333157177 M 10.937822173508977,296.5000000000001 M 12.050252531694156,297.9497474683058 M 13.5,299.0621778264911 M 15.188266684282382,299.76148078402355 M 16.99999999999997,300.0 M 203.00000000000003,300.00000000000006 M 204.81173331571762,299.7614807840234 M 206.5,299.0621778264911 M 207.94974746830582,297.9497474683058 M 209.06217782649105,296.49999999999994 M 209.76148078402346,294.8117333157177 M 210.0,293.00000000000006 M 210.0,17.00000000000003 M 209.7614807840235,15.188266684282382 M 209.06217782649108,13.5 M 207.94974746830584,12.050252531694184 M 206.5,10.937822173508948 M 204.81173331571765,10.238519215976538 M 24.00000000000003,173.0 M 24.0,203.0 M 16.99999999999997,203.0 M 17.00000000000003,173.0 M 24.00000000000003,106.99999999999994 M 24.0,136.99999999999994 M 17.0,137.00000000000006 M 17.0,107.0 M 24.00000000000003,46.999999999999886 M 24.00000000000003,76.99999999999994 M 16.99999999999997,77.0 M 17.0,46.99999999999997 M 17.000000000000085,233.0000000000001 M 24.0,232.99999999999994 M 24.00000000000003,263.0 M 17.000000000000057,263.0 M 176.49999999999994,95.40192378864657 M 177.12132034355955,95.87867965644023 M 177.5980762113532,96.49999999999989 M 177.8977774788671,97.22354286469226 M 177.99999999999991,97.99999999999983 M 177.8977774788671,98.7764571353074 M 177.5980762113532,99.49999999999989 M 177.12132034355957,100.12132034355949 M 176.49999999999994,100.5980762113532 M 175.77645713530748,100.89777747886706 M 174.99999999999991,100.99999999999983 M 174.22354286469235,100.89777747886706 M 173.49999999999994,100.5980762113532 M 172.87867965644026,100.12132034355949 M 172.40192378864663,99.49999999999989 M 172.10222252113272,98.7764571353074 M 171.99999999999991,97.99999999999983 M 172.10222252113272,97.22354286469226 M 172.40192378864663,96.49999999999989 M 172.87867965644028,95.87867965644023 M 173.49999999999994,95.40192378864657 M 174.22354286469238,95.10222252113266 M 174.99999999999991,94.99999999999983 M 175.77645713530748,95.10222252113266 M 88.99999999999997,69.99999999999986 M 164.99999999999991,69.99999999999986 M 164.99999999999994,125.99999999999977 M 88.99999999999999,125.99999999999977 M 75.99999999999999,97.99999999999983 M 76.10222252113277,97.22354286469232 M 76.40192378864668,96.49999999999989 M 76.87867965644031,95.87867965644023 M 77.49999999999994,95.40192378864657 M 78.2235428646924,95.1022225211326 M 78.99999999999994,94.99999999999983 M 79.77645713530752,95.10222252113266 M 80.49999999999996,95.40192378864657 M 81.12132034355963,95.87867965644023 M 81.59807621135329,96.49999999999994 M 81.89777747886714,97.22354286469226 M 81.99999999999993,97.99999999999983 M 81.89777747886717,98.7764571353074 M 81.5980762113533,99.49999999999989 M 81.12132034355963,100.12132034355955 M 80.49999999999996,100.5980762113532 M 79.77645713530752,100.89777747886706 M 78.99999999999996,100.99999999999983 M 78.2235428646924,100.89777747886706 M 77.49999999999994,100.5980762113532 M 76.87867965644034,100.12132034355949 M 76.40192378864668,99.49999999999989 M 76.10222252113276,98.7764571353074 M 196.0,77.0 M 196.0,46.99999999999997 M 203.00000000000003,46.99999999999997 M 203.00000000000003,77.0 M 135.99999999999997,293.00000000000006 M 135.99999999999997,286.0 M 165.99999999999997,286.0 M 165.99999999999997,293.00000000000006 M 165.99999999999994,23.99999999999997 M 135.99999999999997,23.999999999999943 M 135.99999999999997,16.99999999999997 M 165.99999999999994,17.0 M 54.00000000000006,286.0 M 83.99999999999997,286.0 M 83.99999999999997,293.00000000000006 M 54.00000000000006,293.0000000000001 M 54.0,23.9999999999998 M 54.0,16.999999999999602 M 84.00000000000001,17.000000000000284 M 84.00000000000001,24.000000000000085 M 203.0,263.0 M 196.00000000000003,263.0 M 196.0,233.00000000000006 M 203.0,233.00000000000006 M 195.99999999999997,173.0 M 203.0,173.0 M 203.0,203.0 M 196.0,203.0 M 196.0,107.0 M 203.00000000000003,107.0 M 203.00000000000003,136.99999999999994 M 196.0,136.99999999999994 M 185.5,277.7499999999999 M 184.91765714851934,277.6733331091504 M 184.375,277.44855715851503 M 183.9090097423303,277.0909902576697 M 183.55144284148508,276.62499999999994 M 183.3266668908496,276.0823428514807 M 183.25,275.50000000000006 M 183.3266668908496,274.91765714851937 M 183.55144284148503,274.375 M 183.90900974233028,273.90900974233034 M 184.375,273.5514428414851 M 184.91765714851937,273.3266668908496 M 185.50000000000003,273.25 M 186.08234285148066,273.3266668908496 M 186.625,273.55144284148497 M 187.09099025766972,273.90900974233034 M 187.44855715851497,274.37499999999994 M 187.67333310915038,274.91765714851937 M 187.74999999999997,275.50000000000006 M 187.6733331091504,276.0823428514807 M 187.44855715851497,276.62499999999994 M 187.09099025766974,277.0909902576697 M 186.62499999999997,277.44855715851503 M 186.08234285148072,277.6733331091504 M 32.25,275.49999999999994 M 32.326666890849566,274.9176571485193 M 32.551442841485,274.3750000000001 M 32.909009742330255,273.9090097423302 M 33.37499999999997,273.5514428414851 M 33.91765714851928,273.3266668908496 M 34.49999999999994,273.25 M 35.08234285148066,273.3266668908496 M 35.625000000000085,273.5514428414851 M 36.090990257669716,273.90900974233034 M 36.448557158515,274.37499999999994 M 36.67333310915032,274.9176571485193 M 36.75,275.50000000000006 M 36.673333109150434,276.0823428514807 M 36.44855715851497,276.62499999999994 M 36.09099025766977,277.0909902576697 M 35.625,277.4485571585149 M 35.08234285148069,277.6733331091504 M 34.49999999999994,277.7499999999999 M 33.91765714851931,277.6733331091504 M 33.37499999999994,277.44855715851503 M 32.90900974233023,277.09099025766966 M 32.551442841485056,276.62500000000006 M 32.326666890849594,276.08234285148063 M 33.91765714851931,32.32666689084962 M 34.5,32.249999999999915 M 35.08234285148066,32.32666689084948 M 35.625,32.55144284148497 M 36.090990257669716,32.909009742330284 M 36.44855715851497,33.374999999999915 M 36.67333310915038,33.91765714851934 M 36.75,34.49999999999997 M 36.673333109150406,35.082342851480774 M 36.44855715851497,35.625 M 36.090990257669716,36.09099025766977 M 35.62499999999997,36.44855715851486 M 35.08234285148069,36.67333310915029 M 34.49999999999997,36.749999999999744 M 33.91765714851931,36.67333310915029 M 33.375,36.44855715851503 M 32.909009742330284,36.09099025766977 M 32.551442841485,35.62499999999994 M 32.326666890849566,35.08234285148046 M 32.25,34.49999999999997 M 32.326666890849594,33.91765714851928 M 32.551442841485,33.37499999999997 M 32.909009742330255,32.90900974233014 M 33.37499999999997,32.55144284148497 M 185.5,32.25 M 186.0823428514807,32.32666689084962 M 186.625,32.55144284148503 M 187.09099025766974,32.909009742330284 M 187.448557158515,33.37500000000003 M 187.6733331091504,33.91765714851934 M 187.75,34.50000000000003 M 187.67333310915043,35.08234285148069 M 187.448557158515,35.625 M 187.09099025766974,36.090990257669745 M 186.625,36.448557158515 M 186.0823428514807,36.673333109150434 M 185.5,36.75000000000003 M 184.91765714851934,36.673333109150434 M 184.375,36.448557158515 M 183.90900974233028,36.090990257669745 M 183.55144284148503,35.625 M 183.3266668908496,35.08234285148069 M 183.25,34.50000000000003 M 183.3266668908496,33.91765714851934 M 183.55144284148503,33.37500000000003 M 183.90900974233028,32.909009742330284 M 184.37500000000003,32.55144284148503 M 184.91765714851934,32.32666689084962 M 164.50000000000006,180.94744111674243 M 169.05634918610406,184.443650813896 M 172.55255888325772,189.00000000000006 M 174.75036817835957,194.3059810077446 M 175.50000000000006,200.00000000000006 M 174.75036817835957,205.69401899225545 M 172.55255888325772,211.0 M 169.05634918610411,215.55634918610411 M 166.5233341294913,217.50000000000017 M 164.56849607022957,219.0000000000001 M 169.0563491861041,222.44365081389606 M 172.55255888325772,227.00000000000006 M 174.75036817835954,232.30598100774472 M 175.50000000000009,238.0000000000001 M 174.75036817835954,243.69401899225568 M 172.5525588832577,249.0000000000001 M 169.05634918610411,253.55634918610428 M 164.50000000000009,257.0525588832577 M 159.1940189922555,259.2503681783596 M 153.50000000000003,260.00000000000034 M 147.8059810077446,259.2503681783596 M 142.50000000000006,257.0525588832579 M 137.94365081389603,253.55634918610428 M 134.44744111674243,249.0000000000001 M 132.42498983477722,244.11737068584102 M 130.55634918610417,246.55263059191435 M 126.00000000000013,250.0488402890678 M 120.69401899225555,252.24664958416975 M 115.0000000000001,252.99628140581024 M 109.30598100774466,252.24664958416975 M 104.00000000000006,250.04884028906798 M 99.44365081389604,246.55263059191435 M 95.94744111674243,241.99628140581024 M 93.74963182164058,236.69030039806574 M 93.00000000000014,230.99628140581018 M 93.7496318216406,225.30226241355479 M 95.94744111674245,219.9962814058103 M 99.44365081389608,215.43993221970612 M 103.92908084662064,211.99814070290523 M 101.97424278735885,210.49814070290523 M 99.44365081389601,208.55634918610423 M 95.9474411167425,204.00000000000017 M 93.74963182164056,198.69401899225562 M 93.00000000000007,193.0000000000001 M 93.74963182164053,187.30598100774472 M 95.94744111674243,182.00000000000017 M 98.5017923069894,178.67110471772298 M 95.30598100774446,178.2503681783594 M 89.99999999999996,176.05255888325752 M 85.44365081389597,172.5563491861039 M 81.94744111674227,167.99999999999983 M 79.74963182164045,162.69401899225534 M 78.99999999999996,156.9999999999999 M 79.74963182164042,151.30598100774438 M 81.94744111674231,145.9999999999999 M 85.44365081389597,141.44365081389583 M 90.00000000000001,137.9474411167423 M 95.30598100774455,135.74963182164038 M 100.99999999999994,134.9999999999999 M 106.69401899225538,135.74963182164038 M 112.00000000000001,137.9474411167423 M 116.55634918610404,141.44365081389589 M 120.05255888325762,145.9999999999999 M 122.07400985445656,150.8802143503405 M 123.94365081389597,148.44365081389589 M 128.5,144.94744111674225 M 133.80598100774455,142.74963182164038 M 139.5,141.9999999999999 M 145.19401899225545,142.74963182164038 M 150.5,144.9474411167423 M 155.05634918610403,148.44365081389589 M 158.55255888325763,152.99999999999994 M 160.75036817835948,158.3059810077445 M 161.49999999999997,163.99999999999994 M 160.7503681783595,169.69401899225545 M 158.55255888325766,174.9999999999999 M 155.99820769301064,178.32889528227696 M 159.1940189922555,178.7496318216406 "
  />
  <path id="face0-interior"
 style="fill:none;stroke:#00FF00;stroke-width:1;stroke-miterlimit:4;stroke-dasharray:none;stroke-linejoin:round;stroke-linecap:round"
        d="M 203.0,10.0 M 16.99999999999997,10.000000000000028 M 15.188266684282326,10.238519215956842 M 13.5,10.937822173512728 M 12.050252531694127,12.050252531692308 M 10.93782217350892,13.499999999999972 M 10.238519215976481,15.188266684281501 M 10.0,16.999999999999716 M 10.000000000000028,293.00000000000006 M 10.23851921597651,294.8117333157177 M 10.937822173508977,296.5000000000001 M 12.050252531694156,297.9497474683058 M 13.5,299.0621778264911 M 15.188266684282382,299.76148078402355 M 16.99999999999997,300.0 M 203.00000000000003,300.00000000000006 M 204.81173331571762,299.7614807840234 M 206.5,299.0621778264911 M 207.94974746830582,297.9497474683058 M 209.06217782649105,296.49999999999994 M 209.76148078402346,294.8117333157177 M 210.0,293.00000000000006 M 210.0,17.00000000000003 M 209.7614807840235,15.188266684282382 M 209.06217782649108,13.5 M 207.94974746830584,12.050252531694184 M 206.5,10.937822173508948 M 204.81173331571765,10.238519215976538 M 24.00000000000003,173.0 M 24.0,203.0 M 16.99999999999997,203.0 M 17.00000000000003,173.0 M 24.00000000000003,106.99999999999994 M 24.0,136.99999999999994 M 17.0,137.00000000000006 M 17.0,107.0 M 24.00000000000003,46.999999999999886 M 24.00000000000003,76.99999999999994 M 16.99999999999997,77.0 M 17.0,46.99999999999997 M 17.000000000000085,233.0000000000001 M 24.0,232.99999999999994 M 24.00000000000003,263.0 M 17.000000000000057,263.0 M 176.49999999999994,95.40192378864657 M 177.12132034355955,95.87867965644023 M 177.5980762113532,96.49999999999989 M 177.8977774788671,97.22354286469226 M 177.99999999999991,97.99999999999983 M 177.8977774788671,98.7764571353074 M 177.5980762113532,99.49999999999989 M 177.12132034355957,100.12132034355949 M 176.49999999999994,100.5980762113532 M 175.77645713530748,100.89777747886706 M 174.99999999999991,100.99999999999983 M 174.22354286469235,100.89777747886706 M 173.49999999999994,100.5980762113532 M 172.87867965644026,100.12132034355949 M 172.40192378864663,99.49999999999989 M 172.10222252113272,98.7764571353074 M 171.99999999999991,97.99999999999983 M 172.10222252113272,97.22354286469226 M 172.40192378864663,96.49999999999989 M 172.87867965644028,95.87867965644023 M 173.49999999999994,95.40192378864657 M 174.22354286469238,95.10222252113266 M 174.99999999999991,94.99999999999983 M 175.77645713530748,95.10222252113266 M 88.99999999999997,69.99999999999986 M 164.99999999999991,69.99999999999986 M 164.99999999999994,125.99999999999977 M 88.99999999999999,125.99999999999977 M 75.99999999999999,97.99999999999983 M 76.10222252113277,97.22354286469232 M 76.40192378864668,96.49999999999989 M 76.87867965644031,95.87867965644023 M 77.49999999999994,95.40192378864657 M 78.2235428646924,95.1022225211326 M 78.99999999999994,94.99999999999983 M 79.77645713530752,95.10222252113266 M 80.49999999999996,95.40192378864657 M 81.12132034355963,95.87867965644023 M 81.59807621135329,96.49999999999994 M 81.89777747886714,97.22354286469226 M 81.99999999999993,97.99999999999983 M 81.89777747886717,98.7764571353074 M 81.5980762113533,99.49999999999989 M 81.12132034355963,100.12132034355955 M 80.49999999999996,100.5980762113532 M 79.77645713530752,100.89777747886706 M 78.99999999999996,100.99999999999983 M 78.2235428646924,100.89777747886706 M 77.49999999999994,100.5980762113532 M 76.87867965644034,100.12132034355949 M 76.40192378864668,99.49999999999989 M 76.10222252113276,98.7764571353074 M 196.0,77.0 M 196.0,46.99999999999997 M 203.00000000000003,46.99999999999997 M 203.00000000000003,77.0 M 135.99999999999997,293.00000000000006 M 135.99999999999997,286.0 M 165.99999999999997,286.0 M 165.99999999999997,293.00000000000006 M 165.99999999999994,23.99999999999997 M 135.99999999999997,23.999999999999943 M 135.99999999999997,16.99999999999997 M 165.99999999999994,17.0 M 54.00000000000006,286.0 M 83.99999999999997,286.0 M 83.99999999999997,293.00000000000006 M 54.00000000000006,293.0000000000001 M 54.0,23.9999999999998 M 54.0,16.999999999999602 M 84.00000000000001,17.000000000000284 M 84.00000000000001,24.000000000000085 M 203.0,263.0 M 196.00000000000003,263.0 M 196.0,233.00000000000006 M 203.0,233.00000000000006 M 195.99999999999997,173.0 M 203.0,173.0 M 203.0,203.0 M 196.0,203.0 M 196.0,107.0 M 203.00000000000003,107.0 M 203.00000000000003,136.99999999999994 M 196.0,136.99999999999994 M 185.5,277.7499999999999 M 184.91765714851934,277.6733331091504 M 184.375,277.44855715851503 M 183.9090097423303,277.0909902576697 M 183.55144284148508,276.62499999999994 M 183.3266668908496,276.0823428514807 M 183.25,275.50000000000006 M 183.3266668908496,274.91765714851937 M 183.55144284148503,274.375 M 183.90900974233028,273.90900974233034 M 184.375,273.5514428414851 M 184.91765714851937,273.3266668908496 M 185.50000000000003,273.25 M 186.08234285148066,273.3266668908496 M 186.625,273.55144284148497 M 187.09099025766972,273.90900974233034 M 187.44855715851497,274.37499999999994 M 187.67333310915038,274.91765714851937 M 187.74999999999997,275.50000000000006 M 187.6733331091504,276.0823428514807 M 187.44855715851497,276.62499999999994 M 187.09099025766974,277.0909902576697 M 186.62499999999997,277.44855715851503 M 186.08234285148072,277.6733331091504 M 32.25,275.49999999999994 M 32.326666890849566,274.9176571485193 M 32.551442841485,274.3750000000001 M 32.909009742330255,273.9090097423302 M 33.37499999999997,273.5514428414851 M 33.91765714851928,273.3266668908496 M 34.49999999999994,273.25 M 35.08234285148066,273.3266668908496 M 35.625000000000085,273.5514428414851 M 36.090990257669716,273.90900974233034 M 36.448557158515,274.37499999999994 M 36.67333310915032,274.9176571485193 M 36.75,275.50000000000006 M 36.673333109150434,276.0823428514807 M 36.44855715851497,276.62499999999994 M 36.09099025766977,277.0909902576697 M 35.625,277.4485571585149 M 35.08234285148069,277.6733331091504 M 34.49999999999994,277.7499999999999 M 33.91765714851931,277.6733331091504 M 33.37499999999994,277.44855715851503 M 32.90900974233023,277.09099025766966 M 32.551442841485056,276.62500000000006 M 32.326666890849594,276.08234285148063 M 33.91765714851931,32.32666689084962 M 34.5,32.249999999999915 M 35.08234285148066,32.32666689084948 M 35.625,32.55144284148497 M 36.090990257669716,32.909009742330284 M 36.44855715851497,33.374999999999915 M 36.67333310915038,33.91765714851934 M 36.75,34.49999999999997 M 36.673333109150406,35.082342851480774 M 36.44855715851497,35.625 M 36.090990257669716,36.09099025766977 M 35.62499999999997,36.44855715851486 M 35.08234285148069,36.67333310915029 M 34.49999999999997,36.749999999999744 M 33.91765714851931,36.67333310915029 M 33.375,36.44855715851503 M 32.909009742330284,36.09099025766977 M 32.551442841485,35.62499999999994 M 32.326666890849566,35.08234285148046 M 32.25,34.49999999999997 M 32.326666890849594,33.91765714851928 M 32.551442841485,33.37499999999997 M 32.909009742330255,32.90900974233014 M 33.37499999999997,32.55144284148497 M 185.5,32.25 M 186.0823428514807,32.32666689084962 M 186.625,32.55144284148503 M 187.09099025766974,32.909009742330284 M 187.448557158515,33.37500000000003 M 187.6733331091504,33.91765714851934 M 187.75,34.50000000000003 M 187.67333310915043,35.08234285148069 M 187.448557158515,35.625 M 187.09099025766974,36.090990257669745 M 186.625,36.448557158515 M 186.0823428514807,36.673333109150434 M 185.5,36.75000000000003 M 184.91765714851934,36.673333109150434 M 184.375,36.448557158515 M 183.90900974233028,36.090990257669745 M 183.55144284148503,35.625 M 183.3266668908496,35.08234285148069 M 183.25,34.50000000000003 M 183.3266668908496,33.91765714851934 M 183.55144284148503,33.37500000000003 M 183.90900974233028,32.909009742330284 M 184.37500000000003,32.55144284148503 M 184.91765714851934,32.32666689084962 M 164.50000000000006,180.94744111674243 M 169.05634918610406,184.443650813896 M 172.55255888325772,189.00000000000006 M 174.75036817835957,194.3059810077446 M 175.50000000000006,200.00000000000006 M 174.75036817835957,205.69401899225545 M 172.55255888325772,211.0 M 169.05634918610411,215.55634918610411 M 166.5233341294913,217.50000000000017 M 164.56849607022957,219.0000000000001 M 169.0563491861041,222.44365081389606 M 172.55255888325772,227.00000000000006 M 174.75036817835954,232.30598100774472 M 175.50000000000009,238.0000000000001 M 174.75036817835954,243.69401899225568 M 172.5525588832577,249.0000000000001 M 169.05634918610411,253.55634918610428 M 164.50000000000009,257.0525588832577 M 159.1940189922555,259.2503681783596 M 153.50000000000003,260.00000000000034 M 147.8059810077446,259.2503681783596 M 142.50000000000006,257.0525588832579 M 137.94365081389603,253.55634918610428 M 134.44744111674243,249.0000000000001 M 132.42498983477722,244.11737068584102 M 130.55634918610417,246.55263059191435 M 126.00000000000013,250.0488402890678 M 120.69401899225555,252.24664958416975 M 115.0000000000001,252.99628140581024 M 109.30598100774466,252.24664958416975 M 104.00000000000006,250.04884028906798 M 99.44365081389604,246.55263059191435 M 95.94744111674243,241.99628140581024 M 93.74963182164058,236.69030039806574 M 93.00000000000014,230.99628140581018 M 93.7496318216406,225.30226241355479 M 95.94744111674245,219.9962814058103 M 99.44365081389608,215.43993221970612 M 103.92908084662064,211.99814070290523 M 101.97424278735885,210.49814070290523 M 99.44365081389601,208.55634918610423 M 95.9474411167425,204.00000000000017 M 93.74963182164056,198.69401899225562 M 93.00000000000007,193.0000000000001 M 93.74963182164053,187.30598100774472 M 95.94744111674243,182.00000000000017 M 98.5017923069894,178.67110471772298 M 95.30598100774446,178.2503681783594 M 89.99999999999996,176.05255888325752 M 85.44365081389597,172.5563491861039 M 81.94744111674227,167.99999999999983 M 79.74963182164045,162.69401899225534 M 78.99999999999996,156.9999999999999 M 79.74963182164042,151.30598100774438 M 81.94744111674231,145.9999999999999 M 85.44365081389597,141.44365081389583 M 90.00000000000001,137.9474411167423 M 95.30598100774455,135.74963182164038 M 100.99999999999994,134.9999999999999 M 106.69401899225538,135.74963182164038 M 112.00000000000001,137.9474411167423 M 116.55634918610404,141.44365081389589 M 120.05255888325762,145.9999999999999 M 122.07400985445656,150.8802143503405 M 123.94365081389597,148.44365081389589 M 128.5,144.94744111674225 M 133.80598100774455,142.74963182164038 M 139.5,141.9999999999999 M 145.19401899225545,142.74963182164038 M 150.5,144.9474411167423 M 155.05634918610403,148.44365081389589 M 158.55255888325763,152.99999999999994 M 160.75036817835948,158.3059810077445 M 161.49999999999997,163.99999999999994 M 160.7503681783595,169.69401899225545 M 158.55255888325766,174.9999999999999 M 155.99820769301064,178.32889528227696 M 159.1940189922555,178.7496318216406 "
  />
</svg>
