  0
SECTION
  2
HEADER
  9
$ACADVER
  1
AC1009
  9
$EXTMIN
 10
0.0
 20
0.0
 30
0.0
  9
$EXTMAX
 10
1000.0
 20
1000.0
 30
0.0
  9
$FILLMODE
 70
 0
  9
$SPLFRAME
 70
 1
  0
ENDSEC
  0
SECTION
  2
TABLES
  0
TABLE
  2
LAYER
 70
1
  0
LAYER
  2
0
 70
     0
 62
     7
  6
CONTINUOUS
  0
ENDTAB
  0
ENDSEC
  0
SECTION
  2
ENTITIES
  0
POLYLINE
  8
0
 62
     5
 66
     1
 10
0
 20
0
 30
0.0
 70
     1
 40
2.83465
 41
2.83465
  0
VERTEX
  8
0
 10
7.99214
 20
11.8146
 30
0.0
 40
0.0393701
 41
0.0393701
  0
VERTEX
  8
0
 10
0.669271
 20
11.8146
 30
0.0
 40
0.0393701
 41
0.0393701
  0
VERTEX
  8
0
 10
0.597982
 20
11.8052
 30
0.0
 40
0.0393701
 41
0.0393701
  0
VERTEX
  8
0
 10
0.531521
 20
11.7777
 30
0.0
 40
0.0393701
 41
0.0393701
  0
VERTEX
  8
0
 10
0.474393
 20
11.7339
 30
0.0
 40
0.0393701
 41
0.0393701
  0
VERTEX
  8
0
 10
0.43061
 20
11.6768
 30
0.0
 40
0.0393701
 41
0.0393701
  0
VERTEX
  8
0
 10
0.403103
 20
11.6103
 30
0.0
 40
0.0393701
 41
0.0393701
  0
VERTEX
  8
0
 10
0.393718
 20
11.5391
 30
0.0
 40
0.0393701
 41
0.0393701
  0
VERTEX
  8
0
 10
0.393718
 20
0.672906
 30
0.0
 40
0.0393701
 41
0.0393701
  0
VERTEX
  8
0
 10
0.403103
 20
0.601563
 30
0.0
 40
0.0393701
 41
0.0393701
  0
VERTEX
  8
0
 10
0.43061
 20
0.535101
 30
0.0
 40
0.0393701
 41
0.0393701
  0
VERTEX
  8
0
 10
0.474393
 20
0.478028
 30
0.0
 40
0.0393701
 41
0.0393701
  0
VERTEX
  8
0
 10
0.531521
 20
0.434244
 30
0.0
 40
0.0393701
 41
0.0393701
  0
VERTEX
  8
0
 10
0.597982
 20
0.406685
 30
0.0
 40
0.0393701
 41
0.0393701
  0
VERTEX
  8
0
 10
0.669271
 20
0.397299
 30
0.0
 40
0.0393701
 41
0.0393701
  0
VERTEX
  8
0
 10
7.99214
 20
0.397299
 30
0.0
 40
0.0393701
 41
0.0393701
  0
VERTEX
  8
0
 10
8.06347
 20
0.406685
 30
0.0
 40
0.0393701
 41
0.0393701
  0
VERTEX
  8
0
 10
8.12993
 20
0.434244
 30
0.0
 40
0.0393701
 41
0.0393701
  0
VERTEX
  8
0
 10
8.18701
 20
0.478028
 30
0.0
 40
0.0393701
 41
0.0393701
  0
VERTEX
  8
0
 10
8.23079
 20
0.535101
 30
0.0
 40
0.0393701
 41
0.0393701
  0
VERTEX
  8
0
 10
8.25831
 20
0.601563
 30
0.0
 40
0.0393701
 41
0.0393701
  0
VERTEX
  8
0
 10
8.26774
 20
0.672906
 30
0.0
 40
0.0393701
 41
0.0393701
  0
VERTEX
  8
0
 10
8.26774
 20
11.5391
 30
0.0
 40
0.0393701
 41
0.0393701
  0
VERTEX
  8
0
 10
8.25831
 20
11.6103
 30
0.0
 40
0.0393701
 41
0.0393701
  0
VERTEX
  8
0
 10
8.23079
 20
11.6768
 30
0.0
 40
0.0393701
 41
0.0393701
  0
VERTEX
  8
0
 10
8.18701
 20
11.7339
 30
0.0
 40
0.0393701
 41
0.0393701
  0
VERTEX
  8
0
 10
8.12993
 20
11.7777
 30
0.0
 40
0.0393701
 41
0.0393701
  0
VERTEX
  8
0
 10
8.06347
 20
11.8052
 30
0.0
 40
0.0393701
 41
0.0393701
  0
VERTEX
  8
0
 10
7.99214
 20
11.8146
 30
0.0
 40
0.0393701
 41
0.0393701
  0
SEQEND
 8
0
  0
POLYLINE
  8
0
 62
     5
 66
     1
 10
0
 20
0
 30
0.0
 70
     1
 40
2.83465
 41
2.83465
  0
VERTEX
  8
0
 10
0.944879
 20
5.39729
 30
0.0
 40
0.0393701
 41
0.0393701
  0
VERTEX
  8
0
 10
0.944879
 20
4.21619
 30
0.0
 40
0.0393701
 41
0.0393701
  0
VERTEX
  8
0
 10
0.669271
 20
4.21619
 30
0.0
 40
0.0393701
 41
0.0393701
  0
VERTEX
  8
0
 10
0.669271
 20
5.39729
 30
0.0
 40
0.0393701
 41
0.0393701
  0
VERTEX
  8
0
 10
0.944879
 20
5.39729
 30
0.0
 40
0.0393701
 41
0.0393701
  0
SEQEND
 8
0
  0
POLYLINE
  8
0
 62
     5
 66
     1
 10
0
 20
0
 30
0.0
 70
     1
 40
2.83465
 41
2.83465
  0
VERTEX
  8
0
 10
0.944879
 20
7.99571
 30
0.0
 40
0.0393701
 41
0.0393701
  0
VERTEX
  8
0
 10
0.944879
 20
6.81461
 30
0.0
 40
0.0393701
 41
0.0393701
  0
VERTEX
  8
0
 10
0.669271
 20
6.81461
 30
0.0
 40
0.0393701
 41
0.0393701
  0
VERTEX
  8
0
 10
0.669271
 20
7.99571
 30
0.0
 40
0.0393701
 41
0.0393701
  0
VERTEX
  8
0
 10
0.944879
 20
7.99571
 30
0.0
 40
0.0393701
 41
0.0393701
  0
SEQEND
 8
0
  0
POLYLINE
  8
0
 62
     5
 66
     1
 10
0
 20
0
 30
0.0
 70
     1
 40
2.83465
 41
2.83465
  0
VERTEX
  8
0
 10
0.944879
 20
10.358
 30
0.0
 40
0.0393701
 41
0.0393701
  0
VERTEX
  8
0
 10
0.944879
 20
9.17681
 30
0.0
 40
0.0393701
 41
0.0393701
  0
VERTEX
  8
0
 10
0.669271
 20
9.17681
 30
0.0
 40
0.0393701
 41
0.0393701
  0
VERTEX
  8
0
 10
0.669271
 20
10.358
 30
0.0
 40
0.0393701
 41
0.0393701
  0
VERTEX
  8
0
 10
0.944879
 20
10.358
 30
0.0
 40
0.0393701
 41
0.0393701
  0
SEQEND
 8
0
  0
POLYLINE
  8
0
 62
     5
 66
     1
 10
0
 20
0
 30
0.0
 70
     1
 40
2.83465
 41
2.83465
  0
VERTEX
  8
0
 10
0.669271
 20
3.0351
 30
0.0
 40
0.0393701
 41
0.0393701
  0
VERTEX
  8
0
 10
0.944879
 20
3.0351
 30
0.0
 40
0.0393701
 41
0.0393701
  0
VERTEX
  8
0
 10
0.944879
 20
1.854
 30
0.0
 40
0.0393701
 41
0.0393701
  0
VERTEX
  8
0
 10
0.669271
 20
1.854
 30
0.0
 40
0.0393701
 41
0.0393701
  0
VERTEX
  8
0
 10
0.669271
 20
3.0351
 30
0.0
 40
0.0393701
 41
0.0393701
  0
SEQEND
 8
0
  0
POLYLINE
  8
0
 62
     5
 66
     1
 10
0
 20
0
 30
0.0
 70
     1
 40
2.83465
 41
2.83465
  0
VERTEX
  8
0
 10
6.94883
 20
8.45236
 30
0.0
 40
0.0393701
 41
0.0393701
  0
VERTEX
  8
0
 10
6.97331
 20
8.4336
 30
0.0
 40
0.0393701
 41
0.0393701
  0
VERTEX
  8
0
 10
6.99203
 20
8.40912
 30
0.0
 40
0.0393701
 41
0.0393701
  0
VERTEX
  8
0
 10
7.00385
 20
8.38064
 30
0.0
 40
0.0393701
 41
0.0393701
  0
VERTEX
  8
0
 10
7.00786
 20
8.35004
 30
0.0
 40
0.0393701
 41
0.0393701
  0
VERTEX
  8
0
 10
7.00385
 20
8.3195
 30
0.0
 40
0.0393701
 41
0.0393701
  0
VERTEX
  8
0
 10
6.99203
 20
8.29101
 30
0.0
 40
0.0393701
 41
0.0393701
  0
VERTEX
  8
0
 10
6.97331
 20
8.26654
 30
0.0
 40
0.0393701
 41
0.0393701
  0
VERTEX
  8
0
 10
6.94883
 20
8.24778
 30
0.0
 40
0.0393701
 41
0.0393701
  0
VERTEX
  8
0
 10
6.92036
 20
8.236
 30
0.0
 40
0.0393701
 41
0.0393701
  0
VERTEX
  8
0
 10
6.88976
 20
8.23193
 30
0.0
 40
0.0393701
 41
0.0393701
  0
VERTEX
  8
0
 10
6.85921
 20
8.236
 30
0.0
 40
0.0393701
 41
0.0393701
  0
VERTEX
  8
0
 10
6.83074
 20
8.24778
 30
0.0
 40
0.0393701
 41
0.0393701
  0
VERTEX
  8
0
 10
6.80626
 20
8.26654
 30
0.0
 40
0.0393701
 41
0.0393701
  0
VERTEX
  8
0
 10
6.78749
 20
8.29101
 30
0.0
 40
0.0393701
 41
0.0393701
  0
VERTEX
  8
0
 10
6.77567
 20
8.3195
 30
0.0
 40
0.0393701
 41
0.0393701
  0
VERTEX
  8
0
 10
6.77165
 20
8.35004
 30
0.0
 40
0.0393701
 41
0.0393701
  0
VERTEX
  8
0
 10
6.77567
 20
8.38064
 30
0.0
 40
0.0393701
 41
0.0393701
  0
VERTEX
  8
0
 10
6.78749
 20
8.40912
 30
0.0
 40
0.0393701
 41
0.0393701
  0
VERTEX
  8
0
 10
6.80626
 20
8.4336
 30
0.0
 40
0.0393701
 41
0.0393701
  0
VERTEX
  8
0
 10
6.83074
 20
8.45236
 30
0.0
 40
0.0393701
 41
0.0393701
  0
VERTEX
  8
0
 10
6.85921
 20
8.46414
 30
0.0
 40
0.0393701
 41
0.0393701
  0
VERTEX
  8
0
 10
6.88976
 20
8.46815
 30
0.0
 40
0.0393701
 41
0.0393701
  0
VERTEX
  8
0
 10
6.92036
 20
8.46414
 30
0.0
 40
0.0393701
 41
0.0393701
  0
VERTEX
  8
0
 10
6.94883
 20
8.45236
 30
0.0
 40
0.0393701
 41
0.0393701
  0
SEQEND
 8
0
  0
POLYLINE
  8
0
 62
     5
 66
     1
 10
0
 20
0
 30
0.0
 70
     1
 40
2.83465
 41
2.83465
  0
VERTEX
  8
0
 10
3.50396
 20
9.45242
 30
0.0
 40
0.0393701
 41
0.0393701
  0
VERTEX
  8
0
 10
6.49604
 20
9.45242
 30
0.0
 40
0.0393701
 41
0.0393701
  0
VERTEX
  8
0
 10
6.49604
 20
7.24772
 30
0.0
 40
0.0393701
 41
0.0393701
  0
VERTEX
  8
0
 10
3.50396
 20
7.24772
 30
0.0
 40
0.0393701
 41
0.0393701
  0
VERTEX
  8
0
 10
3.50396
 20
9.45242
 30
0.0
 40
0.0393701
 41
0.0393701
  0
SEQEND
 8
0
  0
POLYLINE
  8
0
 62
     5
 66
     1
 10
0
 20
0
 30
0.0
 70
     1
 40
2.83465
 41
2.83465
  0
VERTEX
  8
0
 10
2.99214
 20
8.35004
 30
0.0
 40
0.0393701
 41
0.0393701
  0
VERTEX
  8
0
 10
2.99615
 20
8.38064
 30
0.0
 40
0.0393701
 41
0.0393701
  0
VERTEX
  8
0
 10
3.00797
 20
8.40912
 30
0.0
 40
0.0393701
 41
0.0393701
  0
VERTEX
  8
0
 10
3.02669
 20
8.4336
 30
0.0
 40
0.0393701
 41
0.0393701
  0
VERTEX
  8
0
 10
3.05117
 20
8.45236
 30
0.0
 40
0.0393701
 41
0.0393701
  0
VERTEX
  8
0
 10
3.07964
 20
8.46414
 30
0.0
 40
0.0393701
 41
0.0393701
  0
VERTEX
  8
0
 10
3.11025
 20
8.46815
 30
0.0
 40
0.0393701
 41
0.0393701
  0
VERTEX
  8
0
 10
3.14079
 20
8.46414
 30
0.0
 40
0.0393701
 41
0.0393701
  0
VERTEX
  8
0
 10
3.16928
 20
8.45236
 30
0.0
 40
0.0393701
 41
0.0393701
  0
VERTEX
  8
0
 10
3.19374
 20
8.4336
 30
0.0
 40
0.0393701
 41
0.0393701
  0
VERTEX
  8
0
 10
3.21251
 20
8.40912
 30
0.0
 40
0.0393701
 41
0.0393701
  0
VERTEX
  8
0
 10
3.22433
 20
8.38064
 30
0.0
 40
0.0393701
 41
0.0393701
  0
VERTEX
  8
0
 10
3.22835
 20
8.35004
 30
0.0
 40
0.0393701
 41
0.0393701
  0
VERTEX
  8
0
 10
3.22433
 20
8.3195
 30
0.0
 40
0.0393701
 41
0.0393701
  0
VERTEX
  8
0
 10
3.21251
 20
8.29101
 30
0.0
 40
0.0393701
 41
0.0393701
  0
VERTEX
  8
0
 10
3.19374
 20
8.26654
 30
0.0
 40
0.0393701
 41
0.0393701
  0
VERTEX
  8
0
 10
3.16928
 20
8.24778
 30
0.0
 40
0.0393701
 41
0.0393701
  0
VERTEX
  8
0
 10
3.14079
 20
8.236
 30
0.0
 40
0.0393701
 41
0.0393701
  0
VERTEX
  8
0
 10
3.11025
 20
8.23193
 30
0.0
 40
0.0393701
 41
0.0393701
  0
VERTEX
  8
0
 10
3.07964
 20
8.236
 30
0.0
 40
0.0393701
 41
0.0393701
  0
VERTEX
  8
0
 10
3.05117
 20
8.24778
 30
0.0
 40
0.0393701
 41
0.0393701
  0
VERTEX
  8
0
 10
3.02669
 20
8.26654
 30
0.0
 40
0.0393701
 41
0.0393701
  0
VERTEX
  8
0
 10
3.00797
 20
8.29101
 30
0.0
 40
0.0393701
 41
0.0393701
  0
VERTEX
  8
0
 10
2.99615
 20
8.3195
 30
0.0
 40
0.0393701
 41
0.0393701
  0
VERTEX
  8
0
 10
2.99214
 20
8.35004
 30
0.0
 40
0.0393701
 41
0.0393701
  0
SEQEND
 8
0
  0
POLYLINE
  8
0
 62
     5
 66
     1
 10
0
 20
0
 30
0.0
 70
     1
 40
2.83465
 41
2.83465
  0
VERTEX
  8
0
 10
7.71653
 20
9.17681
 30
0.0
 40
0.0393701
 41
0.0393701
  0
VERTEX
  8
0
 10
7.71653
 20
10.358
 30
0.0
 40
0.0393701
 41
0.0393701
  0
VERTEX
  8
0
 10
7.99214
 20
10.358
 30
0.0
 40
0.0393701
 41
0.0393701
  0
VERTEX
  8
0
 10
7.99214
 20
9.17681
 30
0.0
 40
0.0393701
 41
0.0393701
  0
VERTEX
  8
0
 10
7.71653
 20
9.17681
 30
0.0
 40
0.0393701
 41
0.0393701
  0
SEQEND
 8
0
  0
POLYLINE
  8
0
 62
     5
 66
     1
 10
0
 20
0
 30
0.0
 70
     1
 40
2.83465
 41
2.83465
  0
VERTEX
  8
0
 10
5.35433
 20
0.672906
 30
0.0
 40
0.0393701
 41
0.0393701
  0
VERTEX
  8
0
 10
5.35433
 20
0.948514
 30
0.0
 40
0.0393701
 41
0.0393701
  0
VERTEX
  8
0
 10
6.53543
 20
0.948514
 30
0.0
 40
0.0393701
 41
0.0393701
  0
VERTEX
  8
0
 10
6.53543
 20
0.672906
 30
0.0
 40
0.0393701
 41
0.0393701
  0
VERTEX
  8
0
 10
5.35433
 20
0.672906
 30
0.0
 40
0.0393701
 41
0.0393701
  0
SEQEND
 8
0
  0
POLYLINE
  8
0
 62
     5
 66
     1
 10
0
 20
0
 30
0.0
 70
     1
 40
2.83465
 41
2.83465
  0
VERTEX
  8
0
 10
6.53543
 20
11.2635
 30
0.0
 40
0.0393701
 41
0.0393701
  0
VERTEX
  8
0
 10
5.35433
 20
11.2635
 30
0.0
 40
0.0393701
 41
0.0393701
  0
VERTEX
  8
0
 10
5.35433
 20
11.5391
 30
0.0
 40
0.0393701
 41
0.0393701
  0
VERTEX
  8
0
 10
6.53543
 20
11.5391
 30
0.0
 40
0.0393701
 41
0.0393701
  0
VERTEX
  8
0
 10
6.53543
 20
11.2635
 30
0.0
 40
0.0393701
 41
0.0393701
  0
SEQEND
 8
0
  0
POLYLINE
  8
0
 62
     5
 66
     1
 10
0
 20
0
 30
0.0
 70
     1
 40
2.83465
 41
2.83465
  0
VERTEX
  8
0
 10
2.12597
 20
0.948514
 30
0.0
 40
0.0393701
 41
0.0393701
  0
VERTEX
  8
0
 10
3.30707
 20
0.948514
 30
0.0
 40
0.0393701
 41
0.0393701
  0
VERTEX
  8
0
 10
3.30707
 20
0.672906
 30
0.0
 40
0.0393701
 41
0.0393701
  0
VERTEX
  8
0
 10
2.12597
 20
0.672906
 30
0.0
 40
0.0393701
 41
0.0393701
  0
VERTEX
  8
0
 10
2.12597
 20
0.948514
 30
0.0
 40
0.0393701
 41
0.0393701
  0
SEQEND
 8
0
  0
POLYLINE
  8
0
 62
     5
 66
     1
 10
0
 20
0
 30
0.0
 70
     1
 40
2.83465
 41
2.83465
  0
VERTEX
  8
0
 10
2.12597
 20
11.2635
 30
0.0
 40
0.0393701
 41
0.0393701
  0
VERTEX
  8
0
 10
2.12597
 20
11.5391
 30
0.0
 40
0.0393701
 41
0.0393701
  0
VERTEX
  8
0
 10
3.30707
 20
11.5391
 30
0.0
 40
0.0393701
 41
0.0393701
  0
VERTEX
  8
0
 10
3.30707
 20
11.2635
 30
0.0
 40
0.0393701
 41
0.0393701
  0
VERTEX
  8
0
 10
2.12597
 20
11.2635
 30
0.0
 40
0.0393701
 41
0.0393701
  0
SEQEND
 8
0
  0
POLYLINE
  8
0
 62
     5
 66
     1
 10
0
 20
0
 30
0.0
 70
     1
 40
2.83465
 41
2.83465
  0
VERTEX
  8
0
 10
7.99214
 20
1.854
 30
0.0
 40
0.0393701
 41
0.0393701
  0
VERTEX
  8
0
 10
7.71653
 20
1.854
 30
0.0
 40
0.0393701
 41
0.0393701
  0
VERTEX
  8
0
 10
7.71653
 20
3.0351
 30
0.0
 40
0.0393701
 41
0.0393701
  0
VERTEX
  8
0
 10
7.99214
 20
3.0351
 30
0.0
 40
0.0393701
 41
0.0393701
  0
VERTEX
  8
0
 10
7.99214
 20
1.854
 30
0.0
 40
0.0393701
 41
0.0393701
  0
SEQEND
 8
0
  0
POLYLINE
  8
0
 62
     5
 66
     1
 10
0
 20
0
 30
0.0
 70
     1
 40
2.83465
 41
2.83465
  0
VERTEX
  8
0
 10
7.71653
 20
5.39729
 30
0.0
 40
0.0393701
 41
0.0393701
  0
VERTEX
  8
0
 10
7.99214
 20
5.39729
 30
0.0
 40
0.0393701
 41
0.0393701
  0
VERTEX
  8
0
 10
7.99214
 20
4.21619
 30
0.0
 40
0.0393701
 41
0.0393701
  0
VERTEX
  8
0
 10
7.71653
 20
4.21619
 30
0.0
 40
0.0393701
 41
0.0393701
  0
VERTEX
  8
0
 10
7.71653
 20
5.39729
 30
0.0
 40
0.0393701
 41
0.0393701
  0
SEQEND
 8
0
  0
POLYLINE
  8
0
 62
     5
 66
     1
 10
0
 20
0
 30
0.0
 70
     1
 40
2.83465
 41
2.83465
  0
VERTEX
  8
0
 10
7.71653
 20
7.99571
 30
0.0
 40
0.0393701
 41
0.0393701
  0
VERTEX
  8
0
 10
7.99214
 20
7.99571
 30
0.0
 40
0.0393701
 41
0.0393701
  0
VERTEX
  8
0
 10
7.99214
 20
6.81461
 30
0.0
 40
0.0393701
 41
0.0393701
  0
VERTEX
  8
0
 10
7.71653
 20
6.81461
 30
0.0
 40
0.0393701
 41
0.0393701
  0
VERTEX
  8
0
 10
7.71653
 20
7.99571
 30
0.0
 40
0.0393701
 41
0.0393701
  0
SEQEND
 8
0
  0
POLYLINE
  8
0
 62
     5
 66
     1
 10
0
 20
0
 30
0.0
 70
     1
 40
2.83465
 41
2.83465
  0
VERTEX
  8
0
 10
7.30317
 20
1.27327
 30
0.0
 40
0.0393701
 41
0.0393701
  0
VERTEX
  8
0
 10
7.28022
 20
1.27631
 30
0.0
 40
0.0393701
 41
0.0393701
  0
VERTEX
  8
0
 10
7.25885
 20
1.28516
 30
0.0
 40
0.0393701
 41
0.0393701
  0
VERTEX
  8
0
 10
7.2405
 20
1.29926
 30
0.0
 40
0.0393701
 41
0.0393701
  0
VERTEX
  8
0
 10
7.22646
 20
1.3176
 30
0.0
 40
0.0393701
 41
0.0393701
  0
VERTEX
  8
0
 10
7.21761
 20
1.33898
 30
0.0
 40
0.0393701
 41
0.0393701
  0
VERTEX
  8
0
 10
7.21457
 20
1.36187
 30
0.0
 40
0.0393701
 41
0.0393701
  0
VERTEX
  8
0
 10
7.21761
 20
1.38482
 30
0.0
 40
0.0393701
 41
0.0393701
  0
VERTEX
  8
0
 10
7.22646
 20
1.40614
 30
0.0
 40
0.0393701
 41
0.0393701
  0
VERTEX
  8
0
 10
7.2405
 20
1.42453
 30
0.0
 40
0.0393701
 41
0.0393701
  0
VERTEX
  8
0
 10
7.25885
 20
1.43858
 30
0.0
 40
0.0393701
 41
0.0393701
  0
VERTEX
  8
0
 10
7.28022
 20
1.44743
 30
0.0
 40
0.0393701
 41
0.0393701
  0
VERTEX
  8
0
 10
7.30317
 20
1.45047
 30
0.0
 40
0.0393701
 41
0.0393701
  0
VERTEX
  8
0
 10
7.32607
 20
1.44743
 30
0.0
 40
0.0393701
 41
0.0393701
  0
VERTEX
  8
0
 10
7.34744
 20
1.43858
 30
0.0
 40
0.0393701
 41
0.0393701
  0
VERTEX
  8
0
 10
7.36578
 20
1.42453
 30
0.0
 40
0.0393701
 41
0.0393701
  0
VERTEX
  8
0
 10
7.37989
 20
1.40614
 30
0.0
 40
0.0393701
 41
0.0393701
  0
VERTEX
  8
0
 10
7.38872
 20
1.38482
 30
0.0
 40
0.0393701
 41
0.0393701
  0
VERTEX
  8
0
 10
7.39171
 20
1.36187
 30
0.0
 40
0.0393701
 41
0.0393701
  0
VERTEX
  8
0
 10
7.38872
 20
1.33898
 30
0.0
 40
0.0393701
 41
0.0393701
  0
VERTEX
  8
0
 10
7.37989
 20
1.3176
 30
0.0
 40
0.0393701
 41
0.0393701
  0
VERTEX
  8
0
 10
7.36578
 20
1.29926
 30
0.0
 40
0.0393701
 41
0.0393701
  0
VERTEX
  8
0
 10
7.34744
 20
1.28516
 30
0.0
 40
0.0393701
 41
0.0393701
  0
VERTEX
  8
0
 10
7.32607
 20
1.27631
 30
0.0
 40
0.0393701
 41
0.0393701
  0
VERTEX
  8
0
 10
7.30317
 20
1.27327
 30
0.0
 40
0.0393701
 41
0.0393701
  0
SEQEND
 8
0
  0
POLYLINE
  8
0
 62
     5
 66
     1
 10
0
 20
0
 30
0.0
 70
     1
 40
2.83465
 41
2.83465
  0
VERTEX
  8
0
 10
1.26969
 20
1.36187
 30
0.0
 40
0.0393701
 41
0.0393701
  0
VERTEX
  8
0
 10
1.27268
 20
1.38482
 30
0.0
 40
0.0393701
 41
0.0393701
  0
VERTEX
  8
0
 10
1.28158
 20
1.40614
 30
0.0
 40
0.0393701
 41
0.0393701
  0
VERTEX
  8
0
 10
1.29563
 20
1.42453
 30
0.0
 40
0.0393701
 41
0.0393701
  0
VERTEX
  8
0
 10
1.31397
 20
1.43858
 30
0.0
 40
0.0393701
 41
0.0393701
  0
VERTEX
  8
0
 10
1.33534
 20
1.44743
 30
0.0
 40
0.0393701
 41
0.0393701
  0
VERTEX
  8
0
 10
1.35829
 20
1.45047
 30
0.0
 40
0.0393701
 41
0.0393701
  0
VERTEX
  8
0
 10
1.38118
 20
1.44743
 30
0.0
 40
0.0393701
 41
0.0393701
  0
VERTEX
  8
0
 10
1.40256
 20
1.43858
 30
0.0
 40
0.0393701
 41
0.0393701
  0
VERTEX
  8
0
 10
1.4209
 20
1.42453
 30
0.0
 40
0.0393701
 41
0.0393701
  0
VERTEX
  8
0
 10
1.435
 20
1.40614
 30
0.0
 40
0.0393701
 41
0.0393701
  0
VERTEX
  8
0
 10
1.44385
 20
1.38482
 30
0.0
 40
0.0393701
 41
0.0393701
  0
VERTEX
  8
0
 10
1.44683
 20
1.36187
 30
0.0
 40
0.0393701
 41
0.0393701
  0
VERTEX
  8
0
 10
1.44385
 20
1.33898
 30
0.0
 40
0.0393701
 41
0.0393701
  0
VERTEX
  8
0
 10
1.435
 20
1.3176
 30
0.0
 40
0.0393701
 41
0.0393701
  0
VERTEX
  8
0
 10
1.4209
 20
1.29926
 30
0.0
 40
0.0393701
 41
0.0393701
  0
VERTEX
  8
0
 10
1.40256
 20
1.28516
 30
0.0
 40
0.0393701
 41
0.0393701
  0
VERTEX
  8
0
 10
1.38118
 20
1.27631
 30
0.0
 40
0.0393701
 41
0.0393701
  0
VERTEX
  8
0
 10
1.35829
 20
1.27327
 30
0.0
 40
0.0393701
 41
0.0393701
  0
VERTEX
  8
0
 10
1.33534
 20
1.27631
 30
0.0
 40
0.0393701
 41
0.0393701
  0
VERTEX
  8
0
 10
1.31397
 20
1.28516
 30
0.0
 40
0.0393701
 41
0.0393701
  0
VERTEX
  8
0
 10
1.29563
 20
1.29926
 30
0.0
 40
0.0393701
 41
0.0393701
  0
VERTEX
  8
0
 10
1.28158
 20
1.3176
 30
0.0
 40
0.0393701
 41
0.0393701
  0
VERTEX
  8
0
 10
1.27268
 20
1.33898
 30
0.0
 40
0.0393701
 41
0.0393701
  0
VERTEX
  8
0
 10
1.26969
 20
1.36187
 30
0.0
 40
0.0393701
 41
0.0393701
  0
SEQEND
 8
0
  0
POLYLINE
  8
0
 62
     5
 66
     1
 10
0
 20
0
 30
0.0
 70
     1
 40
2.83465
 41
2.83465
  0
VERTEX
  8
0
 10
1.33534
 20
10.9357
 30
0.0
 40
0.0393701
 41
0.0393701
  0
VERTEX
  8
0
 10
1.35829
 20
10.9386
 30
0.0
 40
0.0393701
 41
0.0393701
  0
VERTEX
  8
0
 10
1.38118
 20
10.9357
 30
0.0
 40
0.0393701
 41
0.0393701
  0
VERTEX
  8
0
 10
1.40256
 20
10.9268
 30
0.0
 40
0.0393701
 41
0.0393701
  0
VERTEX
  8
0
 10
1.4209
 20
10.9127
 30
0.0
 40
0.0393701
 41
0.0393701
  0
VERTEX
  8
0
 10
1.435
 20
10.8944
 30
0.0
 40
0.0393701
 41
0.0393701
  0
VERTEX
  8
0
 10
1.44385
 20
10.873
 30
0.0
 40
0.0393701
 41
0.0393701
  0
VERTEX
  8
0
 10
1.44683
 20
10.85
 30
0.0
 40
0.0393701
 41
0.0393701
  0
VERTEX
  8
0
 10
1.44385
 20
10.8272
 30
0.0
 40
0.0393701
 41
0.0393701
  0
VERTEX
  8
0
 10
1.435
 20
10.8058
 30
0.0
 40
0.0393701
 41
0.0393701
  0
VERTEX
  8
0
 10
1.4209
 20
10.7874
 30
0.0
 40
0.0393701
 41
0.0393701
  0
VERTEX
  8
0
 10
1.40256
 20
10.7733
 30
0.0
 40
0.0393701
 41
0.0393701
  0
VERTEX
  8
0
 10
1.38118
 20
10.7645
 30
0.0
 40
0.0393701
 41
0.0393701
  0
VERTEX
  8
0
 10
1.35829
 20
10.7615
 30
0.0
 40
0.0393701
 41
0.0393701
  0
VERTEX
  8
0
 10
1.33534
 20
10.7645
 30
0.0
 40
0.0393701
 41
0.0393701
  0
VERTEX
  8
0
 10
1.31397
 20
10.7733
 30
0.0
 40
0.0393701
 41
0.0393701
  0
VERTEX
  8
0
 10
1.29563
 20
10.7874
 30
0.0
 40
0.0393701
 41
0.0393701
  0
VERTEX
  8
0
 10
1.28158
 20
10.8058
 30
0.0
 40
0.0393701
 41
0.0393701
  0
VERTEX
  8
0
 10
1.27268
 20
10.8272
 30
0.0
 40
0.0393701
 41
0.0393701
  0
VERTEX
  8
0
 10
1.26969
 20
10.85
 30
0.0
 40
0.0393701
 41
0.0393701
  0
VERTEX
  8
0
 10
1.27268
 20
10.873
 30
0.0
 40
0.0393701
 41
0.0393701
  0
VERTEX
  8
0
 10
1.28158
 20
10.8944
 30
0.0
 40
0.0393701
 41
0.0393701
  0
VERTEX
  8
0
 10
1.29563
 20
10.9127
 30
0.0
 40
0.0393701
 41
0.0393701
  0
VERTEX
  8
0
 10
1.31397
 20
10.9268
 30
0.0
 40
0.0393701
 41
0.0393701
  0
VERTEX
  8
0
 10
1.33534
 20
10.9357
 30
0.0
 40
0.0393701
 41
0.0393701
  0
SEQEND
 8
0
  0
POLYLINE
  8
0
 62
     5
 66
     1
 10
0
 20
0
 30
0.0
 70
     1
 40
2.83465
 41
2.83465
  0
VERTEX
  8
0
 10
7.30317
 20
10.9386
 30
0.0
 40
0.0393701
 41
0.0393701
  0
VERTEX
  8
0
 10
7.32607
 20
10.9357
 30
0.0
 40
0.0393701
 41
0.0393701
  0
VERTEX
  8
0
 10
7.34744
 20
10.9268
 30
0.0
 40
0.0393701
 41
0.0393701
  0
VERTEX
  8
0
 10
7.36578
 20
10.9127
 30
0.0
 40
0.0393701
 41
0.0393701
  0
VERTEX
  8
0
 10
7.37989
 20
10.8944
 30
0.0
 40
0.0393701
 41
0.0393701
  0
VERTEX
  8
0
 10
7.38872
 20
10.873
 30
0.0
 40
0.0393701
 41
0.0393701
  0
VERTEX
  8
0
 10
7.39171
 20
10.85
 30
0.0
 40
0.0393701
 41
0.0393701
  0
VERTEX
  8
0
 10
7.38872
 20
10.8272
 30
0.0
 40
0.0393701
 41
0.0393701
  0
VERTEX
  8
0
 10
7.37989
 20
10.8058
 30
0.0
 40
0.0393701
 41
0.0393701
  0
VERTEX
  8
0
 10
7.36578
 20
10.7874
 30
0.0
 40
0.0393701
 41
0.0393701
  0
VERTEX
  8
0
 10
7.34744
 20
10.7733
 30
0.0
 40
0.0393701
 41
0.0393701
  0
VERTEX
  8
0
 10
7.32607
 20
10.7645
 30
0.0
 40
0.0393701
 41
0.0393701
  0
VERTEX
  8
0
 10
7.30317
 20
10.7615
 30
0.0
 40
0.0393701
 41
0.0393701
  0
VERTEX
  8
0
 10
7.28022
 20
10.7645
 30
0.0
 40
0.0393701
 41
0.0393701
  0
VERTEX
  8
0
 10
7.25885
 20
10.7733
 30
0.0
 40
0.0393701
 41
0.0393701
  0
VERTEX
  8
0
 10
7.2405
 20
10.7874
 30
0.0
 40
0.0393701
 41
0.0393701
  0
VERTEX
  8
0
 10
7.22646
 20
10.8058
 30
0.0
 40
0.0393701
 41
0.0393701
  0
VERTEX
  8
0
 10
7.21761
 20
10.8272
 30
0.0
 40
0.0393701
 41
0.0393701
  0
VERTEX
  8
0
 10
7.21457
 20
10.85
 30
0.0
 40
0.0393701
 41
0.0393701
  0
VERTEX
  8
0
 10
7.21761
 20
10.873
 30
0.0
 40
0.0393701
 41
0.0393701
  0
VERTEX
  8
0
 10
7.22646
 20
10.8944
 30
0.0
 40
0.0393701
 41
0.0393701
  0
VERTEX
  8
0
 10
7.2405
 20
10.9127
 30
0.0
 40
0.0393701
 41
0.0393701
  0
VERTEX
  8
0
 10
7.25885
 20
10.9268
 30
0.0
 40
0.0393701
 41
0.0393701
  0
VERTEX
  8
0
 10
7.28022
 20
10.9357
 30
0.0
 40
0.0393701
 41
0.0393701
  0
VERTEX
  8
0
 10
7.30317
 20
10.9386
 30
0.0
 40
0.0393701
 41
0.0393701
  0
SEQEND
 8
0
  0
POLYLINE
  8
0
 62
     5
 66
     1
 10
0
 20
0
 30
0.0
 70
     1
 40
2.83465
 41
2.83465
  0
VERTEX
  8
0
 10
6.4764
 20
5.08442
 30
0.0
 40
0.0393701
 41
0.0393701
  0
VERTEX
  8
0
 10
6.65576
 20
4.94678
 30
0.0
 40
0.0393701
 41
0.0393701
  0
VERTEX
  8
0
 10
6.7934
 20
4.76742
 30
0.0
 40
0.0393701
 41
0.0393701
  0
VERTEX
  8
0
 10
6.87993
 20
4.55849
 30
0.0
 40
0.0393701
 41
0.0393701
  0
VERTEX
  8
0
 10
6.90944
 20
4.33431
 30
0.0
 40
0.0393701
 41
0.0393701
  0
VERTEX
  8
0
 10
6.87993
 20
4.11014
 30
0.0
 40
0.0393701
 41
0.0393701
  0
VERTEX
  8
0
 10
6.7934
 20
3.90126
 30
0.0
 40
0.0393701
 41
0.0393701
  0
VERTEX
  8
0
 10
6.65576
 20
3.72185
 30
0.0
 40
0.0393701
 41
0.0393701
  0
VERTEX
  8
0
 10
6.55604
 20
3.64535
 30
0.0
 40
0.0393701
 41
0.0393701
  0
VERTEX
  8
0
 10
6.47906
 20
3.58626
 30
0.0
 40
0.0393701
 41
0.0393701
  0
VERTEX
  8
0
 10
6.65576
 20
3.45068
 30
0.0
 40
0.0393701
 41
0.0393701
  0
VERTEX
  8
0
 10
6.7934
 20
3.27132
 30
0.0
 40
0.0393701
 41
0.0393701
  0
VERTEX
  8
0
 10
6.87993
 20
3.06244
 30
0.0
 40
0.0393701
 41
0.0393701
  0
VERTEX
  8
0
 10
6.90944
 20
2.83826
 30
0.0
 40
0.0393701
 41
0.0393701
  0
VERTEX
  8
0
 10
6.87993
 20
2.6141
 30
0.0
 40
0.0393701
 41
0.0393701
  0
VERTEX
  8
0
 10
6.7934
 20
2.40517
 30
0.0
 40
0.0393701
 41
0.0393701
  0
VERTEX
  8
0
 10
6.65576
 20
2.22581
 30
0.0
 40
0.0393701
 41
0.0393701
  0
VERTEX
  8
0
 10
6.4764
 20
2.08817
 30
0.0
 40
0.0393701
 41
0.0393701
  0
VERTEX
  8
0
 10
6.26747
 20
2.00163
 30
0.0
 40
0.0393701
 41
0.0393701
  0
VERTEX
  8
0
 10
6.04329
 20
1.97211
 30
0.0
 40
0.0393701
 41
0.0393701
  0
VERTEX
  8
0
 10
5.81912
 20
2.00163
 30
0.0
 40
0.0393701
 41
0.0393701
  0
VERTEX
  8
0
 10
5.61025
 20
2.08817
 30
0.0
 40
0.0393701
 41
0.0393701
  0
VERTEX
  8
0
 10
5.43083
 20
2.22581
 30
0.0
 40
0.0393701
 41
0.0393701
  0
VERTEX
  8
0
 10
5.29318
 20
2.40517
 30
0.0
 40
0.0393701
 41
0.0393701
  0
VERTEX
  8
0
 10
5.2136
 20
2.59744
 30
0.0
 40
0.0393701
 41
0.0393701
  0
VERTEX
  8
0
 10
5.14003
 20
2.50151
 30
0.0
 40
0.0393701
 41
0.0393701
  0
VERTEX
  8
0
 10
4.96061
 20
2.36388
 30
0.0
 40
0.0393701
 41
0.0393701
  0
VERTEX
  8
0
 10
4.75174
 20
2.27735
 30
0.0
 40
0.0393701
 41
0.0393701
  0
VERTEX
  8
0
 10
4.52756
 20
2.24783
 30
0.0
 40
0.0393701
 41
0.0393701
  0
VERTEX
  8
0
 10
4.30339
 20
2.27735
 30
0.0
 40
0.0393701
 41
0.0393701
  0
VERTEX
  8
0
 10
4.09451
 20
2.36388
 30
0.0
 40
0.0393701
 41
0.0393701
  0
VERTEX
  8
0
 10
3.9151
 20
2.50151
 30
0.0
 40
0.0393701
 41
0.0393701
  0
VERTEX
  8
0
 10
3.77746
 20
2.68093
 30
0.0
 40
0.0393701
 41
0.0393701
  0
VERTEX
  8
0
 10
3.69092
 20
2.88981
 30
0.0
 40
0.0393701
 41
0.0393701
  0
VERTEX
  8
0
 10
3.6614
 20
3.11399
 30
0.0
 40
0.0393701
 41
0.0393701
  0
VERTEX
  8
0
 10
3.69092
 20
3.33817
 30
0.0
 40
0.0393701
 41
0.0393701
  0
VERTEX
  8
0
 10
3.77746
 20
3.54704
 30
0.0
 40
0.0393701
 41
0.0393701
  0
VERTEX
  8
0
 10
3.9151
 20
3.72646
 30
0.0
 40
0.0393701
 41
0.0393701
  0
VERTEX
  8
0
 10
4.09169
 20
3.86193
 30
0.0
 40
0.0393701
 41
0.0393701
  0
VERTEX
  8
0
 10
4.01476
 20
3.92101
 30
0.0
 40
0.0393701
 41
0.0393701
  0
VERTEX
  8
0
 10
3.9151
 20
3.99744
 30
0.0
 40
0.0393701
 41
0.0393701
  0
VERTEX
  8
0
 10
3.77746
 20
4.17681
 30
0.0
 40
0.0393701
 41
0.0393701
  0
VERTEX
  8
0
 10
3.69092
 20
4.38574
 30
0.0
 40
0.0393701
 41
0.0393701
  0
VERTEX
  8
0
 10
3.6614
 20
4.60992
 30
0.0
 40
0.0393701
 41
0.0393701
  0
VERTEX
  8
0
 10
3.69092
 20
4.8341
 30
0.0
 40
0.0393701
 41
0.0393701
  0
VERTEX
  8
0
 10
3.77746
 20
5.04297
 30
0.0
 40
0.0393701
 41
0.0393701
  0
VERTEX
  8
0
 10
3.87804
 20
5.17404
 30
0.0
 40
0.0393701
 41
0.0393701
  0
VERTEX
  8
0
 10
3.75222
 20
5.1906
 30
0.0
 40
0.0393701
 41
0.0393701
  0
VERTEX
  8
0
 10
3.54329
 20
5.27713
 30
0.0
 40
0.0393701
 41
0.0393701
  0
VERTEX
  8
0
 10
3.36393
 20
5.41476
 30
0.0
 40
0.0393701
 41
0.0393701
  0
VERTEX
  8
0
 10
3.22629
 20
5.59418
 30
0.0
 40
0.0393701
 41
0.0393701
  0
VERTEX
  8
0
 10
3.13976
 20
5.80306
 30
0.0
 40
0.0393701
 41
0.0393701
  0
VERTEX
  8
0
 10
3.11025
 20
6.02724
 30
0.0
 40
0.0393701
 41
0.0393701
  0
VERTEX
  8
0
 10
3.13976
 20
6.25142
 30
0.0
 40
0.0393701
 41
0.0393701
  0
VERTEX
  8
0
 10
3.22629
 20
6.46029
 30
0.0
 40
0.0393701
 41
0.0393701
  0
VERTEX
  8
0
 10
3.36393
 20
6.63971
 30
0.0
 40
0.0393701
 41
0.0393701
  0
VERTEX
  8
0
 10
3.54329
 20
6.77735
 30
0.0
 40
0.0393701
 41
0.0393701
  0
VERTEX
  8
0
 10
3.75222
 20
6.86388
 30
0.0
 40
0.0393701
 41
0.0393701
  0
VERTEX
  8
0
 10
3.9764
 20
6.89339
 30
0.0
 40
0.0393701
 41
0.0393701
  0
VERTEX
  8
0
 10
4.20057
 20
6.86388
 30
0.0
 40
0.0393701
 41
0.0393701
  0
VERTEX
  8
0
 10
4.40944
 20
6.77735
 30
0.0
 40
0.0393701
 41
0.0393701
  0
VERTEX
  8
0
 10
4.58882
 20
6.63971
 30
0.0
 40
0.0393701
 41
0.0393701
  0
VERTEX
  8
0
 10
4.72646
 20
6.46029
 30
0.0
 40
0.0393701
 41
0.0393701
  0
VERTEX
  8
0
 10
4.80604
 20
6.26818
 30
0.0
 40
0.0393701
 41
0.0393701
  0
VERTEX
  8
0
 10
4.87967
 20
6.3641
 30
0.0
 40
0.0393701
 41
0.0393701
  0
VERTEX
  8
0
 10
5.05908
 20
6.50174
 30
0.0
 40
0.0393701
 41
0.0393701
  0
VERTEX
  8
0
 10
5.26796
 20
6.58826
 30
0.0
 40
0.0393701
 41
0.0393701
  0
VERTEX
  8
0
 10
5.49214
 20
6.61778
 30
0.0
 40
0.0393701
 41
0.0393701
  0
VERTEX
  8
0
 10
5.71631
 20
6.58826
 30
0.0
 40
0.0393701
 41
0.0393701
  0
VERTEX
  8
0
 10
5.92518
 20
6.50174
 30
0.0
 40
0.0393701
 41
0.0393701
  0
VERTEX
  8
0
 10
6.1046
 20
6.3641
 30
0.0
 40
0.0393701
 41
0.0393701
  0
VERTEX
  8
0
 10
6.24224
 20
6.18474
 30
0.0
 40
0.0393701
 41
0.0393701
  0
VERTEX
  8
0
 10
6.32878
 20
5.97581
 30
0.0
 40
0.0393701
 41
0.0393701
  0
VERTEX
  8
0
 10
6.35829
 20
5.75163
 30
0.0
 40
0.0393701
 41
0.0393701
  0
VERTEX
  8
0
 10
6.32878
 20
5.52746
 30
0.0
 40
0.0393701
 41
0.0393701
  0
VERTEX
  8
0
 10
6.24224
 20
5.31858
 30
0.0
 40
0.0393701
 41
0.0393701
  0
VERTEX
  8
0
 10
6.14165
 20
5.1875
 30
0.0
 40
0.0393701
 41
0.0393701
  0
VERTEX
  8
0
 10
6.26747
 20
5.17096
 30
0.0
 40
0.0393701
 41
0.0393701
  0
VERTEX
  8
0
 10
6.4764
 20
5.08442
 30
0.0
 40
0.0393701
 41
0.0393701
  0
SEQEND
 8
0
  0
ENDSEC
  0
EOF
