  0
SECTION
  2
HEADER
  9
$ACADVER
  1
AC1009
  9
$EXTMIN
 10
0.0
 20
0.0
 30
0.0
  9
$EXTMAX
 10
1000.0
 20
1000.0
 30
0.0
  9
$FILLMODE
 70
 0
  9
$SPLFRAME
 70
 1
  0
ENDSEC
  0
SECTION
  2
TABLES
  0
TABLE
  2
LAYER
 70
1
  0
LAYER
  2
0
 70
     0
 62
     7
  6
CONTINUOUS
  0
ENDTAB
  0
ENDSEC
  0
SECTION
  2
ENTITIES
  0
POLYLINE
  8
0
 62
     5
 66
     1
 10
0
 20
0
 30
0.0
 70
     1
 40
2.83465
 41
2.83465
  0
VERTEX
  8
0
 10
0.669271
 20
0.397299
 30
0.0
 40
0.0393701
 41
0.0393701
  0
VERTEX
  8
0
 10
7.99214
 20
0.397299
 30
0.0
 40
0.0393701
 41
0.0393701
  0
VERTEX
  8
0
 10
8.06347
 20
0.406685
 30
0.0
 40
0.0393701
 41
0.0393701
  0
VERTEX
  8
0
 10
8.12993
 20
0.434244
 30
0.0
 40
0.0393701
 41
0.0393701
  0
VERTEX
  8
0
 10
8.18701
 20
0.478028
 30
0.0
 40
0.0393701
 41
0.0393701
  0
VERTEX
  8
0
 10
8.23079
 20
0.535101
 30
0.0
 40
0.0393701
 41
0.0393701
  0
VERTEX
  8
0
 10
8.25831
 20
0.601563
 30
0.0
 40
0.0393701
 41
0.0393701
  0
VERTEX
  8
0
 10
8.26774
 20
0.672906
 30
0.0
 40
0.0393701
 41
0.0393701
  0
VERTEX
  8
0
 10
8.26774
 20
11.5391
 30
0.0
 40
0.0393701
 41
0.0393701
  0
VERTEX
  8
0
 10
8.25831
 20
11.6103
 30
0.0
 40
0.0393701
 41
0.0393701
  0
VERTEX
  8
0
 10
8.23079
 20
11.6768
 30
0.0
 40
0.0393701
 41
0.0393701
  0
VERTEX
  8
0
 10
8.18701
 20
11.7339
 30
0.0
 40
0.0393701
 41
0.0393701
  0
VERTEX
  8
0
 10
8.12993
 20
11.7777
 30
0.0
 40
0.0393701
 41
0.0393701
  0
VERTEX
  8
0
 10
8.06347
 20
11.8052
 30
0.0
 40
0.0393701
 41
0.0393701
  0
VERTEX
  8
0
 10
7.99214
 20
11.8146
 30
0.0
 40
0.0393701
 41
0.0393701
  0
VERTEX
  8
0
 10
0.669271
 20
11.8146
 30
0.0
 40
0.0393701
 41
0.0393701
  0
VERTEX
  8
0
 10
0.597982
 20
11.8052
 30
0.0
 40
0.0393701
 41
0.0393701
  0
VERTEX
  8
0
 10
0.531521
 20
11.7777
 30
0.0
 40
0.0393701
 41
0.0393701
  0
VERTEX
  8
0
 10
0.474393
 20
11.7339
 30
0.0
 40
0.0393701
 41
0.0393701
  0
VERTEX
  8
0
 10
0.43061
 20
11.6768
 30
0.0
 40
0.0393701
 41
0.0393701
  0
VERTEX
  8
0
 10
0.403103
 20
11.6103
 30
0.0
 40
0.0393701
 41
0.0393701
  0
VERTEX
  8
0
 10
0.393718
 20
11.5391
 30
0.0
 40
0.0393701
 41
0.0393701
  0
VERTEX
  8
0
 10
0.393718
 20
0.672906
 30
0.0
 40
0.0393701
 41
0.0393701
  0
VERTEX
  8
0
 10
0.403103
 20
0.601563
 30
0.0
 40
0.0393701
 41
0.0393701
  0
VERTEX
  8
0
 10
0.43061
 20
0.535101
 30
0.0
 40
0.0393701
 41
0.0393701
  0
VERTEX
  8
0
 10
0.474393
 20
0.478028
 30
0.0
 40
0.0393701
 41
0.0393701
  0
VERTEX
  8
0
 10
0.531521
 20
0.434244
 30
0.0
 40
0.0393701
 41
0.0393701
  0
VERTEX
  8
0
 10
0.597982
 20
0.406685
 30
0.0
 40
0.0393701
 41
0.0393701
  0
VERTEX
  8
0
 10
0.669271
 20
0.397299
 30
0.0
 40
0.0393701
 41
0.0393701
  0
SEQEND
 8
0
  0
POLYLINE
  8
0
 62
     5
 66
     1
 10
0
 20
0
 30
0.0
 70
     1
 40
2.83465
 41
2.83465
  0
VERTEX
  8
0
 10
6.04329
 20
2.24772
 30
0.0
 40
0.0393701
 41
0.0393701
  0
VERTEX
  8
0
 10
5.89046
 20
2.26785
 30
0.0
 40
0.0393701
 41
0.0393701
  0
VERTEX
  8
0
 10
5.74804
 20
2.32682
 30
0.0
 40
0.0393701
 41
0.0393701
  0
VERTEX
  8
0
 10
5.62571
 20
2.42068
 30
0.0
 40
0.0393701
 41
0.0393701
  0
VERTEX
  8
0
 10
5.5319
 20
2.54297
 30
0.0
 40
0.0393701
 41
0.0393701
  0
VERTEX
  8
0
 10
5.47288
 20
2.68539
 30
0.0
 40
0.0393701
 41
0.0393701
  0
VERTEX
  8
0
 10
5.45275
 20
2.83826
 30
0.0
 40
0.0393701
 41
0.0393701
  0
VERTEX
  8
0
 10
5.47288
 20
2.9911
 30
0.0
 40
0.0393701
 41
0.0393701
  0
VERTEX
  8
0
 10
5.5319
 20
3.13351
 30
0.0
 40
0.0393701
 41
0.0393701
  0
VERTEX
  8
0
 10
5.62571
 20
3.25586
 30
0.0
 40
0.0393701
 41
0.0393701
  0
VERTEX
  8
0
 10
5.74804
 20
3.34967
 30
0.0
 40
0.0393701
 41
0.0393701
  0
VERTEX
  8
0
 10
5.89046
 20
3.40869
 30
0.0
 40
0.0393701
 41
0.0393701
  0
VERTEX
  8
0
 10
6.04329
 20
3.42882
 30
0.0
 40
0.0393701
 41
0.0393701
  0
VERTEX
  8
0
 10
6.19613
 20
3.40869
 30
0.0
 40
0.0393701
 41
0.0393701
  0
VERTEX
  8
0
 10
6.3386
 20
3.34967
 30
0.0
 40
0.0393701
 41
0.0393701
  0
VERTEX
  8
0
 10
6.46089
 20
3.25586
 30
0.0
 40
0.0393701
 41
0.0393701
  0
VERTEX
  8
0
 10
6.55474
 20
3.13351
 30
0.0
 40
0.0393701
 41
0.0393701
  0
VERTEX
  8
0
 10
6.61372
 20
2.9911
 30
0.0
 40
0.0393701
 41
0.0393701
  0
VERTEX
  8
0
 10
6.63385
 20
2.83826
 30
0.0
 40
0.0393701
 41
0.0393701
  0
VERTEX
  8
0
 10
6.61372
 20
2.68539
 30
0.0
 40
0.0393701
 41
0.0393701
  0
VERTEX
  8
0
 10
6.55474
 20
2.54297
 30
0.0
 40
0.0393701
 41
0.0393701
  0
VERTEX
  8
0
 10
6.46089
 20
2.42068
 30
0.0
 40
0.0393701
 41
0.0393701
  0
VERTEX
  8
0
 10
6.3386
 20
2.32682
 30
0.0
 40
0.0393701
 41
0.0393701
  0
VERTEX
  8
0
 10
6.19613
 20
2.26785
 30
0.0
 40
0.0393701
 41
0.0393701
  0
VERTEX
  8
0
 10
6.04329
 20
2.24772
 30
0.0
 40
0.0393701
 41
0.0393701
  0
SEQEND
 8
0
  0
POLYLINE
  8
0
 62
     5
 66
     1
 10
0
 20
0
 30
0.0
 70
     1
 40
2.83465
 41
2.83465
  0
VERTEX
  8
0
 10
4.52756
 20
2.52344
 30
0.0
 40
0.0393701
 41
0.0393701
  0
VERTEX
  8
0
 10
4.37472
 20
2.54357
 30
0.0
 40
0.0393701
 41
0.0393701
  0
VERTEX
  8
0
 10
4.23226
 20
2.60254
 30
0.0
 40
0.0393701
 41
0.0393701
  0
VERTEX
  8
0
 10
4.10997
 20
2.6964
 30
0.0
 40
0.0393701
 41
0.0393701
  0
VERTEX
  8
0
 10
4.01611
 20
2.81874
 30
0.0
 40
0.0393701
 41
0.0393701
  0
VERTEX
  8
0
 10
3.95714
 20
2.96115
 30
0.0
 40
0.0393701
 41
0.0393701
  0
VERTEX
  8
0
 10
3.93701
 20
3.11399
 30
0.0
 40
0.0393701
 41
0.0393701
  0
VERTEX
  8
0
 10
3.95714
 20
3.26682
 30
0.0
 40
0.0393701
 41
0.0393701
  0
VERTEX
  8
0
 10
4.01611
 20
3.40929
 30
0.0
 40
0.0393701
 41
0.0393701
  0
VERTEX
  8
0
 10
4.10997
 20
3.53157
 30
0.0
 40
0.0393701
 41
0.0393701
  0
VERTEX
  8
0
 10
4.23226
 20
3.62543
 30
0.0
 40
0.0393701
 41
0.0393701
  0
VERTEX
  8
0
 10
4.37472
 20
3.6844
 30
0.0
 40
0.0393701
 41
0.0393701
  0
VERTEX
  8
0
 10
4.52756
 20
3.70454
 30
0.0
 40
0.0393701
 41
0.0393701
  0
VERTEX
  8
0
 10
4.68039
 20
3.6844
 30
0.0
 40
0.0393701
 41
0.0393701
  0
VERTEX
  8
0
 10
4.82281
 20
3.62543
 30
0.0
 40
0.0393701
 41
0.0393701
  0
VERTEX
  8
0
 10
4.94515
 20
3.53157
 30
0.0
 40
0.0393701
 41
0.0393701
  0
VERTEX
  8
0
 10
5.03901
 20
3.40929
 30
0.0
 40
0.0393701
 41
0.0393701
  0
VERTEX
  8
0
 10
5.09799
 20
3.26682
 30
0.0
 40
0.0393701
 41
0.0393701
  0
VERTEX
  8
0
 10
5.11811
 20
3.11399
 30
0.0
 40
0.0393701
 41
0.0393701
  0
VERTEX
  8
0
 10
5.09799
 20
2.96115
 30
0.0
 40
0.0393701
 41
0.0393701
  0
VERTEX
  8
0
 10
5.03901
 20
2.81874
 30
0.0
 40
0.0393701
 41
0.0393701
  0
VERTEX
  8
0
 10
4.94515
 20
2.6964
 30
0.0
 40
0.0393701
 41
0.0393701
  0
VERTEX
  8
0
 10
4.82281
 20
2.60254
 30
0.0
 40
0.0393701
 41
0.0393701
  0
VERTEX
  8
0
 10
4.68039
 20
2.54357
 30
0.0
 40
0.0393701
 41
0.0393701
  0
VERTEX
  8
0
 10
4.52756
 20
2.52344
 30
0.0
 40
0.0393701
 41
0.0393701
  0
SEQEND
 8
0
  0
POLYLINE
  8
0
 62
     5
 66
     1
 10
0
 20
0
 30
0.0
 70
     1
 40
2.83465
 41
2.83465
  0
VERTEX
  8
0
 10
5.47244
 20
8.35004
 30
0.0
 40
0.0393701
 41
0.0393701
  0
VERTEX
  8
0
 10
5.45632
 20
8.22781
 30
0.0
 40
0.0393701
 41
0.0393701
  0
VERTEX
  8
0
 10
5.40913
 20
8.11382
 30
0.0
 40
0.0393701
 41
0.0393701
  0
VERTEX
  8
0
 10
5.3341
 20
8.016
 30
0.0
 40
0.0393701
 41
0.0393701
  0
VERTEX
  8
0
 10
5.23622
 20
7.94092
 30
0.0
 40
0.0393701
 41
0.0393701
  0
VERTEX
  8
0
 10
5.12229
 20
7.89372
 30
0.0
 40
0.0393701
 41
0.0393701
  0
VERTEX
  8
0
 10
5
 20
7.87761
 30
0.0
 40
0.0393701
 41
0.0393701
  0
VERTEX
  8
0
 10
4.87771
 20
7.89372
 30
0.0
 40
0.0393701
 41
0.0393701
  0
VERTEX
  8
0
 10
4.76378
 20
7.94092
 30
0.0
 40
0.0393701
 41
0.0393701
  0
VERTEX
  8
0
 10
4.6659
 20
8.016
 30
0.0
 40
0.0393701
 41
0.0393701
  0
VERTEX
  8
0
 10
4.59088
 20
8.11382
 30
0.0
 40
0.0393701
 41
0.0393701
  0
VERTEX
  8
0
 10
4.54368
 20
8.22781
 30
0.0
 40
0.0393701
 41
0.0393701
  0
VERTEX
  8
0
 10
4.52756
 20
8.35004
 30
0.0
 40
0.0393701
 41
0.0393701
  0
VERTEX
  8
0
 10
4.54368
 20
8.47233
 30
0.0
 40
0.0393701
 41
0.0393701
  0
VERTEX
  8
0
 10
4.59088
 20
8.58626
 30
0.0
 40
0.0393701
 41
0.0393701
  0
VERTEX
  8
0
 10
4.6659
 20
8.68414
 30
0.0
 40
0.0393701
 41
0.0393701
  0
VERTEX
  8
0
 10
4.76378
 20
8.75922
 30
0.0
 40
0.0393701
 41
0.0393701
  0
VERTEX
  8
0
 10
4.87771
 20
8.80643
 30
0.0
 40
0.0393701
 41
0.0393701
  0
VERTEX
  8
0
 10
5
 20
8.82249
 30
0.0
 40
0.0393701
 41
0.0393701
  0
VERTEX
  8
0
 10
5.12229
 20
8.80643
 30
0.0
 40
0.0393701
 41
0.0393701
  0
VERTEX
  8
0
 10
5.23622
 20
8.75922
 30
0.0
 40
0.0393701
 41
0.0393701
  0
VERTEX
  8
0
 10
5.3341
 20
8.68414
 30
0.0
 40
0.0393701
 41
0.0393701
  0
VERTEX
  8
0
 10
5.40913
 20
8.58626
 30
0.0
 40
0.0393701
 41
0.0393701
  0
VERTEX
  8
0
 10
5.45632
 20
8.47233
 30
0.0
 40
0.0393701
 41
0.0393701
  0
VERTEX
  8
0
 10
5.47244
 20
8.35004
 30
0.0
 40
0.0393701
 41
0.0393701
  0
SEQEND
 8
0
  0
POLYLINE
  8
0
 62
     5
 66
     1
 10
0
 20
0
 30
0.0
 70
     1
 40
2.83465
 41
2.83465
  0
VERTEX
  8
0
 10
4.97542
 20
6.02724
 30
0.0
 40
0.0393701
 41
0.0393701
  0
VERTEX
  8
0
 10
5.00532
 20
6.08594
 30
0.0
 40
0.0393701
 41
0.0393701
  0
VERTEX
  8
0
 10
5.1084
 20
6.20057
 30
0.0
 40
0.0393701
 41
0.0393701
  0
VERTEX
  8
0
 10
5.23768
 20
6.28456
 30
0.0
 40
0.0393701
 41
0.0393701
  0
VERTEX
  8
0
 10
5.38428
 20
6.33225
 30
0.0
 40
0.0393701
 41
0.0393701
  0
VERTEX
  8
0
 10
5.53825
 20
6.34039
 30
0.0
 40
0.0393701
 41
0.0393701
  0
VERTEX
  8
0
 10
5.68901
 20
6.30838
 30
0.0
 40
0.0393701
 41
0.0393701
  0
VERTEX
  8
0
 10
5.82644
 20
6.23844
 30
0.0
 40
0.0393701
 41
0.0393701
  0
VERTEX
  8
0
 10
5.94103
 20
6.13536
 30
0.0
 40
0.0393701
 41
0.0393701
  0
VERTEX
  8
0
 10
6.02507
 20
6.00608
 30
0.0
 40
0.0393701
 41
0.0393701
  0
VERTEX
  8
0
 10
6.07275
 20
5.85949
 30
0.0
 40
0.0393701
 41
0.0393701
  0
VERTEX
  8
0
 10
6.08089
 20
5.70551
 30
0.0
 40
0.0393701
 41
0.0393701
  0
VERTEX
  8
0
 10
6.04889
 20
5.55474
 30
0.0
 40
0.0393701
 41
0.0393701
  0
VERTEX
  8
0
 10
5.97894
 20
5.41732
 30
0.0
 40
0.0393701
 41
0.0393701
  0
VERTEX
  8
0
 10
5.87582
 20
5.30274
 30
0.0
 40
0.0393701
 41
0.0393701
  0
VERTEX
  8
0
 10
5.74658
 20
5.21869
 30
0.0
 40
0.0393701
 41
0.0393701
  0
VERTEX
  8
0
 10
5.59999
 20
5.17101
 30
0.0
 40
0.0393701
 41
0.0393701
  0
VERTEX
  8
0
 10
5.44601
 20
5.16287
 30
0.0
 40
0.0393701
 41
0.0393701
  0
VERTEX
  8
0
 10
5.29519
 20
5.19488
 30
0.0
 40
0.0393701
 41
0.0393701
  0
VERTEX
  8
0
 10
5.15782
 20
5.26481
 30
0.0
 40
0.0393701
 41
0.0393701
  0
VERTEX
  8
0
 10
5.04324
 20
5.36794
 30
0.0
 40
0.0393701
 41
0.0393701
  0
VERTEX
  8
0
 10
4.95921
 20
5.49718
 30
0.0
 40
0.0393701
 41
0.0393701
  0
VERTEX
  8
0
 10
4.91151
 20
5.64378
 30
0.0
 40
0.0393701
 41
0.0393701
  0
VERTEX
  8
0
 10
4.90338
 20
5.79775
 30
0.0
 40
0.0393701
 41
0.0393701
  0
VERTEX
  8
0
 10
4.93539
 20
5.94857
 30
0.0
 40
0.0393701
 41
0.0393701
  0
VERTEX
  8
0
 10
4.97542
 20
6.02724
 30
0.0
 40
0.0393701
 41
0.0393701
  0
SEQEND
 8
0
  0
POLYLINE
  8
0
 62
     5
 66
     1
 10
0
 20
0
 30
0.0
 70
     1
 40
2.83465
 41
2.83465
  0
VERTEX
  8
0
 10
4.54682
 20
5.8744
 30
0.0
 40
0.0393701
 41
0.0393701
  0
VERTEX
  8
0
 10
4.52756
 20
5.8279
 30
0.0
 40
0.0393701
 41
0.0393701
  0
VERTEX
  8
0
 10
4.48779
 20
5.73193
 30
0.0
 40
0.0393701
 41
0.0393701
  0
VERTEX
  8
0
 10
4.39393
 20
5.60965
 30
0.0
 40
0.0393701
 41
0.0393701
  0
VERTEX
  8
0
 10
4.27165
 20
5.51579
 30
0.0
 40
0.0393701
 41
0.0393701
  0
VERTEX
  8
0
 10
4.12924
 20
5.45682
 30
0.0
 40
0.0393701
 41
0.0393701
  0
VERTEX
  8
0
 10
3.9764
 20
5.43668
 30
0.0
 40
0.0393701
 41
0.0393701
  0
VERTEX
  8
0
 10
3.82351
 20
5.45682
 30
0.0
 40
0.0393701
 41
0.0393701
  0
VERTEX
  8
0
 10
3.6811
 20
5.51579
 30
0.0
 40
0.0393701
 41
0.0393701
  0
VERTEX
  8
0
 10
3.55881
 20
5.60965
 30
0.0
 40
0.0393701
 41
0.0393701
  0
VERTEX
  8
0
 10
3.46496
 20
5.73193
 30
0.0
 40
0.0393701
 41
0.0393701
  0
VERTEX
  8
0
 10
3.40593
 20
5.8744
 30
0.0
 40
0.0393701
 41
0.0393701
  0
VERTEX
  8
0
 10
3.38585
 20
6.02724
 30
0.0
 40
0.0393701
 41
0.0393701
  0
VERTEX
  8
0
 10
3.40593
 20
6.18007
 30
0.0
 40
0.0393701
 41
0.0393701
  0
VERTEX
  8
0
 10
3.46496
 20
6.32249
 30
0.0
 40
0.0393701
 41
0.0393701
  0
VERTEX
  8
0
 10
3.55881
 20
6.44482
 30
0.0
 40
0.0393701
 41
0.0393701
  0
VERTEX
  8
0
 10
3.6811
 20
6.53868
 30
0.0
 40
0.0393701
 41
0.0393701
  0
VERTEX
  8
0
 10
3.82351
 20
6.59765
 30
0.0
 40
0.0393701
 41
0.0393701
  0
VERTEX
  8
0
 10
3.9764
 20
6.61778
 30
0.0
 40
0.0393701
 41
0.0393701
  0
VERTEX
  8
0
 10
4.12924
 20
6.59765
 30
0.0
 40
0.0393701
 41
0.0393701
  0
VERTEX
  8
0
 10
4.27165
 20
6.53868
 30
0.0
 40
0.0393701
 41
0.0393701
  0
VERTEX
  8
0
 10
4.39393
 20
6.44482
 30
0.0
 40
0.0393701
 41
0.0393701
  0
VERTEX
  8
0
 10
4.48779
 20
6.32249
 30
0.0
 40
0.0393701
 41
0.0393701
  0
VERTEX
  8
0
 10
4.52756
 20
6.22657
 30
0.0
 40
0.0393701
 41
0.0393701
  0
VERTEX
  8
0
 10
4.54682
 20
6.18007
 30
0.0
 40
0.0393701
 41
0.0393701
  0
VERTEX
  8
0
 10
4.56694
 20
6.02724
 30
0.0
 40
0.0393701
 41
0.0393701
  0
VERTEX
  8
0
 10
4.54682
 20
5.8744
 30
0.0
 40
0.0393701
 41
0.0393701
  0
SEQEND
 8
0
  0
POLYLINE
  8
0
 62
     5
 66
     1
 10
0
 20
0
 30
0.0
 70
     1
 40
2.83465
 41
2.83465
  0
VERTEX
  8
0
 10
4.52983
 20
4.01937
 30
0.0
 40
0.0393701
 41
0.0393701
  0
VERTEX
  8
0
 10
4.52756
 20
4.01964
 30
0.0
 40
0.0393701
 41
0.0393701
  0
VERTEX
  8
0
 10
4.3769
 20
4.0389
 30
0.0
 40
0.0393701
 41
0.0393701
  0
VERTEX
  8
0
 10
4.23426
 20
4.09733
 30
0.0
 40
0.0393701
 41
0.0393701
  0
VERTEX
  8
0
 10
4.1116
 20
4.19075
 30
0.0
 40
0.0393701
 41
0.0393701
  0
VERTEX
  8
0
 10
4.01725
 20
4.31267
 30
0.0
 40
0.0393701
 41
0.0393701
  0
VERTEX
  8
0
 10
3.95774
 20
4.45486
 30
0.0
 40
0.0393701
 41
0.0393701
  0
VERTEX
  8
0
 10
3.93701
 20
4.60764
 30
0.0
 40
0.0393701
 41
0.0393701
  0
VERTEX
  8
0
 10
3.95654
 20
4.76058
 30
0.0
 40
0.0393701
 41
0.0393701
  0
VERTEX
  8
0
 10
4.01503
 20
4.90321
 30
0.0
 40
0.0393701
 41
0.0393701
  0
VERTEX
  8
0
 10
4.1084
 20
5.02588
 30
0.0
 40
0.0393701
 41
0.0393701
  0
VERTEX
  8
0
 10
4.23031
 20
5.12022
 30
0.0
 40
0.0393701
 41
0.0393701
  0
VERTEX
  8
0
 10
4.37256
 20
5.17974
 30
0.0
 40
0.0393701
 41
0.0393701
  0
VERTEX
  8
0
 10
4.52528
 20
5.20047
 30
0.0
 40
0.0393701
 41
0.0393701
  0
VERTEX
  8
0
 10
4.52756
 20
5.20014
 30
0.0
 40
0.0393701
 41
0.0393701
  0
VERTEX
  8
0
 10
4.67822
 20
5.18093
 30
0.0
 40
0.0393701
 41
0.0393701
  0
VERTEX
  8
0
 10
4.82086
 20
5.12244
 30
0.0
 40
0.0393701
 41
0.0393701
  0
VERTEX
  8
0
 10
4.94353
 20
5.02908
 30
0.0
 40
0.0393701
 41
0.0393701
  0
VERTEX
  8
0
 10
5.03787
 20
4.90712
 30
0.0
 40
0.0393701
 41
0.0393701
  0
VERTEX
  8
0
 10
5.09739
 20
4.76492
 30
0.0
 40
0.0393701
 41
0.0393701
  0
VERTEX
  8
0
 10
5.11811
 20
4.61214
 30
0.0
 40
0.0393701
 41
0.0393701
  0
VERTEX
  8
0
 10
5.09858
 20
4.45925
 30
0.0
 40
0.0393701
 41
0.0393701
  0
VERTEX
  8
0
 10
5.04736
 20
4.33431
 30
0.0
 40
0.0393701
 41
0.0393701
  0
VERTEX
  8
0
 10
5.0401
 20
4.31657
 30
0.0
 40
0.0393701
 41
0.0393701
  0
VERTEX
  8
0
 10
4.94672
 20
4.1939
 30
0.0
 40
0.0393701
 41
0.0393701
  0
VERTEX
  8
0
 10
4.82476
 20
4.09961
 30
0.0
 40
0.0393701
 41
0.0393701
  0
VERTEX
  8
0
 10
4.68257
 20
4.0401
 30
0.0
 40
0.0393701
 41
0.0393701
  0
VERTEX
  8
0
 10
4.52983
 20
4.01937
 30
0.0
 40
0.0393701
 41
0.0393701
  0
SEQEND
 8
0
  0
POLYLINE
  8
0
 62
     5
 66
     1
 10
0
 20
0
 30
0.0
 70
     1
 40
2.83465
 41
2.83465
  0
VERTEX
  8
0
 10
5.47288
 20
4.18147
 30
0.0
 40
0.0393701
 41
0.0393701
  0
VERTEX
  8
0
 10
5.45275
 20
4.33431
 30
0.0
 40
0.0393701
 41
0.0393701
  0
VERTEX
  8
0
 10
5.47288
 20
4.48714
 30
0.0
 40
0.0393701
 41
0.0393701
  0
VERTEX
  8
0
 10
5.5319
 20
4.62961
 30
0.0
 40
0.0393701
 41
0.0393701
  0
VERTEX
  8
0
 10
5.62571
 20
4.7519
 30
0.0
 40
0.0393701
 41
0.0393701
  0
VERTEX
  8
0
 10
5.74804
 20
4.84576
 30
0.0
 40
0.0393701
 41
0.0393701
  0
VERTEX
  8
0
 10
5.89046
 20
4.90474
 30
0.0
 40
0.0393701
 41
0.0393701
  0
VERTEX
  8
0
 10
6.04329
 20
4.92486
 30
0.0
 40
0.0393701
 41
0.0393701
  0
VERTEX
  8
0
 10
6.19613
 20
4.90474
 30
0.0
 40
0.0393701
 41
0.0393701
  0
VERTEX
  8
0
 10
6.3386
 20
4.84576
 30
0.0
 40
0.0393701
 41
0.0393701
  0
VERTEX
  8
0
 10
6.46089
 20
4.7519
 30
0.0
 40
0.0393701
 41
0.0393701
  0
VERTEX
  8
0
 10
6.55474
 20
4.62961
 30
0.0
 40
0.0393701
 41
0.0393701
  0
VERTEX
  8
0
 10
6.61372
 20
4.48714
 30
0.0
 40
0.0393701
 41
0.0393701
  0
VERTEX
  8
0
 10
6.63385
 20
4.33431
 30
0.0
 40
0.0393701
 41
0.0393701
  0
VERTEX
  8
0
 10
6.61372
 20
4.18147
 30
0.0
 40
0.0393701
 41
0.0393701
  0
VERTEX
  8
0
 10
6.55474
 20
4.03907
 30
0.0
 40
0.0393701
 41
0.0393701
  0
VERTEX
  8
0
 10
6.46089
 20
3.91672
 30
0.0
 40
0.0393701
 41
0.0393701
  0
VERTEX
  8
0
 10
6.3386
 20
3.82286
 30
0.0
 40
0.0393701
 41
0.0393701
  0
VERTEX
  8
0
 10
6.19613
 20
3.76389
 30
0.0
 40
0.0393701
 41
0.0393701
  0
VERTEX
  8
0
 10
6.04329
 20
3.74376
 30
0.0
 40
0.0393701
 41
0.0393701
  0
VERTEX
  8
0
 10
5.89046
 20
3.76389
 30
0.0
 40
0.0393701
 41
0.0393701
  0
VERTEX
  8
0
 10
5.74804
 20
3.82286
 30
0.0
 40
0.0393701
 41
0.0393701
  0
VERTEX
  8
0
 10
5.62571
 20
3.91672
 30
0.0
 40
0.0393701
 41
0.0393701
  0
VERTEX
  8
0
 10
5.5319
 20
4.03907
 30
0.0
 40
0.0393701
 41
0.0393701
  0
VERTEX
  8
0
 10
5.47288
 20
4.18147
 30
0.0
 40
0.0393701
 41
0.0393701
  0
SEQEND
 8
0
  0
ENDSEC
  0
EOF
