<?xml version="1.0" standalone="no"?>
<!DOCTYPE svg PUBLIC "-//W3C//DTD SVG 1.1//EN" "http://www.w3.org/Graphics/SVG/1.1/DTD/svg11.dtd">
<svg width="220.0000000000001mm" height="310.0mm"
 viewBox="0 0 220.0000000000001 310.0"
 xmlns="http://www.w3.org/2000/svg" version="1.1"
 xmlns:xlink="http://www.w3.org/1999/xlink">
<desc>Output from Flights of Ideas SVG Sketchup Plugin</desc>

  <path id="face0-cut"
 style="fill:none;stroke:#0000FF;stroke-width:1;stroke-miterlimit:4;stroke-dasharray:none;stroke-linejoin:round;stroke-linecap:round"
        d="M 17.000000000000057,300.0 L 203.00000000000006,300.0 L 204.81173331571773,299.76148078404316 L 206.50000000000006,299.06217782649156 L 207.94974746830587,297.94974746830576 L 209.06217782649105,296.4999999999989 L 209.7614807840235,294.81173331571694 L 210.0,293.0000000000003 L 210.0000000000001,17.0 L 209.7614807840236,15.188266684282382 L 209.06217782649117,13.499999999999943 L 207.949747468306,12.050252531694184 L 206.50000000000006,10.937822173508948 L 204.81173331571773,10.23851921597651 L 203.00000000000006,10.0 L 17.000000000000057,10.0 L 15.188266684282382,10.238519215976567 L 13.500000000000057,10.937822173508948 L 12.050252531694184,12.050252531694184 L 10.937822173508948,13.5 L 10.238519215976567,15.188266684282382 L 10.0,17.0 L 10.000000000000057,293.0 L 10.238519215976567,294.8117333157177 L 10.937822173508948,296.5 L 12.050252531694184,297.9497474683059 L 13.500000000000057,299.0621778264911 L 15.188266684282382,299.7614807840235 L 17.000000000000057,300.0 M 153.50000000000006,253.0000000000001 L 149.61771432346222,252.48888739433613 L 145.99999999999994,250.99038105676675 L 142.89339828220187,248.60660171779844 L 140.50961894323348,245.5000000000001 L 139.01111260566404,241.88228567653798 L 138.50000000000006,238.0000000000001 L 139.01111260566404,234.11771432346228 L 140.50961894323348,230.5000000000001 L 142.89339828220187,227.39339828220193 L 145.99999999999994,225.00961894323353 L 149.61771432346222,223.5111126056641 L 153.50000000000006,223.0000000000001 L 157.3822856765379,223.51111260566404 L 161.00000000000006,225.0096189432336 L 164.10660171779824,227.39339828220196 L 166.49038105676658,230.50000000000009 L 167.98888739433607,234.11771432346225 L 168.50000000000006,238.00000000000006 L 167.98888739433607,241.88228567653792 L 166.49038105676658,245.50000000000009 L 164.10660171779824,248.60660171779844 L 160.99999999999994,250.99038105676678 L 157.3822856765379,252.48888739433613 L 153.50000000000006,253.0000000000001 M 115.0,245.99628140581024 L 111.11771432346217,245.48516880014625 L 107.5,243.98666246257687 L 104.39339828220182,241.60288312360854 L 102.00961894323348,238.49628140581024 L 100.51111260566398,234.87856708234804 L 100.0,230.99628140581018 L 100.51111260566404,227.1139957292724 L 102.00961894323348,223.4962814058102 L 104.39339828220182,220.389679688012 L 107.5,218.00590034904366 L 111.11771432346217,216.5073940114741 L 115.0,215.99628140581012 L 118.88228567653783,216.50739401147405 L 122.5,218.00590034904366 L 125.60660171779813,220.38967968801205 L 127.9903810567667,223.4962814058102 L 129.48888739433596,227.1139957292724 L 130.0,230.99628140581018 L 129.48888739433596,234.87856708234807 L 127.9903810567667,238.49628140581024 L 125.60660171779813,241.60288312360848 L 122.5,243.98666246257685 L 118.88228567653783,245.48516880014625 L 115.0,245.99628140581024 M 139.0,98.0 L 138.59110991546873,101.10582854123024 L 137.39230484541332,104.00000000000009 L 135.48528137423864,106.48528137423858 L 133.0,108.39230484541329 L 130.10582854123027,109.59110991546882 L 127.0,110.00000000000006 L 123.89417145876979,109.59110991546882 L 121.00000000000006,108.39230484541324 L 118.51471862576142,106.48528137423864 L 116.60769515458685,103.99999999999997 L 115.40889008453115,101.10582854123024 L 115.00000000000006,97.99999999999994 L 115.40889008453115,94.89417145876968 L 116.60769515458685,91.99999999999991 L 118.51471862576153,89.51471862576142 L 121.00000000000006,87.60769515458674 L 123.89417145876979,86.40889008453121 L 127.0,86.00000000000006 L 130.10582854123027,86.40889008453121 L 133.0,87.60769515458674 L 135.48528137423864,89.51471862576145 L 137.39230484541332,91.99999999999997 L 138.59110991546885,94.89417145876973 L 139.0,98.0 M 126.37568531049834,156.99999999999994 L 127.13477210030936,155.50876104512938 L 129.7538013817756,152.5977365188257 L 133.0370179927192,150.46375740563252 L 136.760676146876,149.2522508555472 L 140.67101469467667,149.0457790378484 L 144.50155052622836,149.85841266570162 L 147.9912389548706,151.63477210030933 L 150.90226348117426,154.2538013817756 L 153.03624259436737,157.5370179927191 L 154.2477491444527,161.26067614687597 L 154.45422096215162,165.17101469467664 L 153.64158733429826,169.00155052622836 L 151.86522789969064,172.49123895487065 L 149.24619861822435,175.40226348117437 L 145.96298200728097,177.53624259436742 L 142.239323853124,178.74774914445288 L 138.32898530532339,178.95422096215174 L 134.4984494737716,178.14158733429844 L 131.0087610451294,176.36522789969072 L 128.09773651882568,173.7461986182244 L 125.96375740563269,170.46298200728089 L 124.75225085554723,166.73932385312398 L 124.54577903784843,162.82898530532327 L 125.35841266570168,158.99844947377161 L 126.37568531049834,156.99999999999994 M 115.48888739433607,160.88228567653778 L 114.99999999999994,162.062564254417 L 113.99038105676658,164.49999999999994 L 111.60660171779824,167.60660171779818 L 108.50000000000006,169.99038105676658 L 104.88228567653783,171.48888739433602 L 101.00000000000006,171.99999999999994 L 97.11771432346222,171.48888739433602 L 93.50000000000006,169.99038105676652 L 90.39339828220182,167.60660171779818 L 88.00961894323342,164.5 L 86.51111260566398,160.88228567653778 L 86.0,156.99999999999994 L 86.51111260566404,153.1177143234622 L 88.00961894323348,149.4999999999999 L 90.39339828220182,146.3933982822017 L 93.5,144.00961894323333 L 97.11771432346222,142.5111126056639 L 101.00000000000006,141.99999999999991 L 104.88228567653783,142.51111260566387 L 108.5,144.00961894323333 L 111.60660171779824,146.39339828220173 L 113.99038105676652,149.4999999999999 L 115.0,151.9374357455829 L 115.48888739433602,153.11771432346214 L 116.00000000000006,156.99999999999994 L 115.48888739433607,160.88228567653778 M 115.05735188852026,207.9998903582955 L 115.0,207.99256281162022 L 111.1731403711317,207.5036252496036 L 107.5497230132658,206.01896204852528 L 104.43402971988115,203.64707809869196 L 102.03838983999509,200.5496133715613 L 100.52606227243973,196.9376549694848 L 100.00010964170463,193.05735188852043 L 100.49637475039651,189.17314037113178 L 101.98103795147483,185.549723013266 L 104.35292190130815,182.43402971988132 L 107.45038662843871,180.03838983999515 L 111.0623450305153,178.52606227243987 L 114.94264811147974,178.00010964170468 L 115.0,178.00743718837992 L 118.82685962886842,178.49637475039654 L 122.4502769867342,179.98103795147495 L 125.5659702801189,182.3529219013082 L 127.96161016000497,185.45038662843888 L 129.47393772756033,189.0623450305155 L 129.99989035829543,192.9426481114799 L 129.50362524960354,196.82685962886848 L 128.20345905962597,200.00000000000006 L 128.01896204852522,200.45027698673425 L 125.64707809869202,203.5659702801189 L 122.54961337156135,205.96161016000502 L 118.9376549694847,207.47393772756038 L 115.05735188852026,207.9998903582955 M 139.01111260566404,203.88228567653783 L 138.49999999999994,200.0 L 139.01111260566404,196.11771432346234 L 140.50961894323348,192.5000000000001 L 142.89339828220187,189.39339828220193 L 145.99999999999994,187.0096189432336 L 149.61771432346222,185.5111126056641 L 153.50000000000006,185.0000000000001 L 157.3822856765379,185.5111126056641 L 160.99999999999994,187.00961894323362 L 164.10660171779824,189.39339828220193 L 166.49038105676658,192.5000000000001 L 167.98888739433607,196.11771432346234 L 168.50000000000006,200.00000000000006 L 167.98888739433607,203.88228567653783 L 166.4903810567667,207.50000000000006 L 164.10660171779824,210.6066017177983 L 160.99999999999994,212.99038105676672 L 157.3822856765379,214.4888873943362 L 153.50000000000006,215.00000000000014 L 149.61771432346222,214.4888873943362 L 145.99999999999994,212.9903810567667 L 142.89339828220187,210.60660171779836 L 140.50961894323348,207.50000000000006 L 139.01111260566404,203.88228567653783 "
  />
  <path id="face0-interior"
 style="fill:none;stroke:#FF0000;stroke-width:1;stroke-miterlimit:4;stroke-dasharray:none;stroke-linejoin:round;stroke-linecap:round"
        d="M 17.000000000000057,300.0 M 203.00000000000006,300.0 M 204.81173331571773,299.76148078404316 M 206.50000000000006,299.06217782649156 M 207.94974746830587,297.94974746830576 M 209.06217782649105,296.4999999999989 M 209.7614807840235,294.81173331571694 M 210.0,293.0000000000003 M 210.0000000000001,17.0 M 209.7614807840236,15.188266684282382 M 209.06217782649117,13.499999999999943 M 207.949747468306,12.050252531694184 M 206.50000000000006,10.937822173508948 M 204.81173331571773,10.23851921597651 M 203.00000000000006,10.0 M 17.000000000000057,10.0 M 15.188266684282382,10.238519215976567 M 13.500000000000057,10.937822173508948 M 12.050252531694184,12.050252531694184 M 10.937822173508948,13.5 M 10.238519215976567,15.188266684282382 M 10.0,17.0 M 10.000000000000057,293.0 M 10.238519215976567,294.8117333157177 M 10.937822173508948,296.5 M 12.050252531694184,297.9497474683059 M 13.500000000000057,299.0621778264911 M 15.188266684282382,299.7614807840235 M 153.50000000000006,253.0000000000001 M 149.61771432346222,252.48888739433613 M 145.99999999999994,250.99038105676675 M 142.89339828220187,248.60660171779844 M 140.50961894323348,245.5000000000001 M 139.01111260566404,241.88228567653798 M 138.50000000000006,238.0000000000001 M 139.01111260566404,234.11771432346228 M 140.50961894323348,230.5000000000001 M 142.89339828220187,227.39339828220193 M 145.99999999999994,225.00961894323353 M 149.61771432346222,223.5111126056641 M 153.50000000000006,223.0000000000001 M 157.3822856765379,223.51111260566404 M 161.00000000000006,225.0096189432336 M 164.10660171779824,227.39339828220196 M 166.49038105676658,230.50000000000009 M 167.98888739433607,234.11771432346225 M 168.50000000000006,238.00000000000006 M 167.98888739433607,241.88228567653792 M 166.49038105676658,245.50000000000009 M 164.10660171779824,248.60660171779844 M 160.99999999999994,250.99038105676678 M 157.3822856765379,252.48888739433613 M 115.0,245.99628140581024 M 111.11771432346217,245.48516880014625 M 107.5,243.98666246257687 M 104.39339828220182,241.60288312360854 M 102.00961894323348,238.49628140581024 M 100.51111260566398,234.87856708234804 M 100.0,230.99628140581018 M 100.51111260566404,227.1139957292724 M 102.00961894323348,223.4962814058102 M 104.39339828220182,220.389679688012 M 107.5,218.00590034904366 M 111.11771432346217,216.5073940114741 M 115.0,215.99628140581012 M 118.88228567653783,216.50739401147405 M 122.5,218.00590034904366 M 125.60660171779813,220.38967968801205 M 127.9903810567667,223.4962814058102 M 129.48888739433596,227.1139957292724 M 130.0,230.99628140581018 M 129.48888739433596,234.87856708234807 M 127.9903810567667,238.49628140581024 M 125.60660171779813,241.60288312360848 M 122.5,243.98666246257685 M 118.88228567653783,245.48516880014625 M 139.0,98.0 M 138.59110991546873,101.10582854123024 M 137.39230484541332,104.00000000000009 M 135.48528137423864,106.48528137423858 M 133.0,108.39230484541329 M 130.10582854123027,109.59110991546882 M 127.0,110.00000000000006 M 123.89417145876979,109.59110991546882 M 121.00000000000006,108.39230484541324 M 118.51471862576142,106.48528137423864 M 116.60769515458685,103.99999999999997 M 115.40889008453115,101.10582854123024 M 115.00000000000006,97.99999999999994 M 115.40889008453115,94.89417145876968 M 116.60769515458685,91.99999999999991 M 118.51471862576153,89.51471862576142 M 121.00000000000006,87.60769515458674 M 123.89417145876979,86.40889008453121 M 127.0,86.00000000000006 M 130.10582854123027,86.40889008453121 M 133.0,87.60769515458674 M 135.48528137423864,89.51471862576145 M 137.39230484541332,91.99999999999997 M 138.59110991546885,94.89417145876973 M 126.37568531049834,156.99999999999994 M 127.13477210030936,155.50876104512938 M 129.7538013817756,152.5977365188257 M 133.0370179927192,150.46375740563252 M 136.760676146876,149.2522508555472 M 140.67101469467667,149.0457790378484 M 144.50155052622836,149.85841266570162 M 147.9912389548706,151.63477210030933 M 150.90226348117426,154.2538013817756 M 153.03624259436737,157.5370179927191 M 154.2477491444527,161.26067614687597 M 154.45422096215162,165.17101469467664 M 153.64158733429826,169.00155052622836 M 151.86522789969064,172.49123895487065 M 149.24619861822435,175.40226348117437 M 145.96298200728097,177.53624259436742 M 142.239323853124,178.74774914445288 M 138.32898530532339,178.95422096215174 M 134.4984494737716,178.14158733429844 M 131.0087610451294,176.36522789969072 M 128.09773651882568,173.7461986182244 M 125.96375740563269,170.46298200728089 M 124.75225085554723,166.73932385312398 M 124.54577903784843,162.82898530532327 M 125.35841266570168,158.99844947377161 M 115.48888739433607,160.88228567653778 M 114.99999999999994,162.062564254417 M 113.99038105676658,164.49999999999994 M 111.60660171779824,167.60660171779818 M 108.50000000000006,169.99038105676658 M 104.88228567653783,171.48888739433602 M 101.00000000000006,171.99999999999994 M 97.11771432346222,171.48888739433602 M 93.50000000000006,169.99038105676652 M 90.39339828220182,167.60660171779818 M 88.00961894323342,164.5 M 86.51111260566398,160.88228567653778 M 86.0,156.99999999999994 M 86.51111260566404,153.1177143234622 M 88.00961894323348,149.4999999999999 M 90.39339828220182,146.3933982822017 M 93.5,144.00961894323333 M 97.11771432346222,142.5111126056639 M 101.00000000000006,141.99999999999991 M 104.88228567653783,142.51111260566387 M 108.5,144.00961894323333 M 111.60660171779824,146.39339828220173 M 113.99038105676652,149.4999999999999 M 115.0,151.9374357455829 M 115.48888739433602,153.11771432346214 M 116.00000000000006,156.99999999999994 M 115.05735188852026,207.9998903582955 M 115.0,207.99256281162022 M 111.1731403711317,207.5036252496036 M 107.5497230132658,206.01896204852528 M 104.43402971988115,203.64707809869196 M 102.03838983999509,200.5496133715613 M 100.52606227243973,196.9376549694848 M 100.00010964170463,193.05735188852043 M 100.49637475039651,189.17314037113178 M 101.98103795147483,185.549723013266 M 104.35292190130815,182.43402971988132 M 107.45038662843871,180.03838983999515 M 111.0623450305153,178.52606227243987 M 114.94264811147974,178.00010964170468 M 115.0,178.00743718837992 M 118.82685962886842,178.49637475039654 M 122.4502769867342,179.98103795147495 M 125.5659702801189,182.3529219013082 M 127.96161016000497,185.45038662843888 M 129.47393772756033,189.0623450305155 M 129.99989035829543,192.9426481114799 M 129.50362524960354,196.82685962886848 M 128.20345905962597,200.00000000000006 M 128.01896204852522,200.45027698673425 M 125.64707809869202,203.5659702801189 M 122.54961337156135,205.96161016000502 M 118.9376549694847,207.47393772756038 M 139.01111260566404,203.88228567653783 M 138.49999999999994,200.0 M 139.01111260566404,196.11771432346234 M 140.50961894323348,192.5000000000001 M 142.89339828220187,189.39339828220193 M 145.99999999999994,187.0096189432336 M 149.61771432346222,185.5111126056641 M 153.50000000000006,185.0000000000001 M 157.3822856765379,185.5111126056641 M 160.99999999999994,187.00961894323362 M 164.10660171779824,189.39339828220193 M 166.49038105676658,192.5000000000001 M 167.98888739433607,196.11771432346234 M 168.50000000000006,200.00000000000006 M 167.98888739433607,203.88228567653783 M 166.4903810567667,207.50000000000006 M 164.10660171779824,210.6066017177983 M 160.99999999999994,212.99038105676672 M 157.3822856765379,214.4888873943362 M 153.50000000000006,215.00000000000014 M 149.61771432346222,214.4888873943362 M 145.99999999999994,212.9903810567667 M 142.89339828220187,210.60660171779836 M 140.50961894323348,207.50000000000006 "
  />
  <path id="face0-interior"
 style="fill:none;stroke:#00FF00;stroke-width:1;stroke-miterlimit:4;stroke-dasharray:none;stroke-linejoin:round;stroke-linecap:round"
        d="M 17.000000000000057,300.0 M 203.00000000000006,300.0 M 204.81173331571773,299.76148078404316 M 206.50000000000006,299.06217782649156 M 207.94974746830587,297.94974746830576 M 209.06217782649105,296.4999999999989 M 209.7614807840235,294.81173331571694 M 210.0,293.0000000000003 M 210.0000000000001,17.0 M 209.7614807840236,15.188266684282382 M 209.06217782649117,13.499999999999943 M 207.949747468306,12.050252531694184 M 206.50000000000006,10.937822173508948 M 204.81173331571773,10.23851921597651 M 203.00000000000006,10.0 M 17.000000000000057,10.0 M 15.188266684282382,10.238519215976567 M 13.500000000000057,10.937822173508948 M 12.050252531694184,12.050252531694184 M 10.937822173508948,13.5 M 10.238519215976567,15.188266684282382 M 10.0,17.0 M 10.000000000000057,293.0 M 10.238519215976567,294.8117333157177 M 10.937822173508948,296.5 M 12.050252531694184,297.9497474683059 M 13.500000000000057,299.0621778264911 M 15.188266684282382,299.7614807840235 M 153.50000000000006,253.0000000000001 M 149.61771432346222,252.48888739433613 M 145.99999999999994,250.99038105676675 M 142.89339828220187,248.60660171779844 M 140.50961894323348,245.5000000000001 M 139.01111260566404,241.88228567653798 M 138.50000000000006,238.0000000000001 M 139.01111260566404,234.11771432346228 M 140.50961894323348,230.5000000000001 M 142.89339828220187,227.39339828220193 M 145.99999999999994,225.00961894323353 M 149.61771432346222,223.5111126056641 M 153.50000000000006,223.0000000000001 M 157.3822856765379,223.51111260566404 M 161.00000000000006,225.0096189432336 M 164.10660171779824,227.39339828220196 M 166.49038105676658,230.50000000000009 M 167.98888739433607,234.11771432346225 M 168.50000000000006,238.00000000000006 M 167.98888739433607,241.88228567653792 M 166.49038105676658,245.50000000000009 M 164.10660171779824,248.60660171779844 M 160.99999999999994,250.99038105676678 M 157.3822856765379,252.48888739433613 M 115.0,245.99628140581024 M 111.11771432346217,245.48516880014625 M 107.5,243.98666246257687 M 104.39339828220182,241.60288312360854 M 102.00961894323348,238.49628140581024 M 100.51111260566398,234.87856708234804 M 100.0,230.99628140581018 M 100.51111260566404,227.1139957292724 M 102.00961894323348,223.4962814058102 M 104.39339828220182,220.389679688012 M 107.5,218.00590034904366 M 111.11771432346217,216.5073940114741 M 115.0,215.99628140581012 M 118.88228567653783,216.50739401147405 M 122.5,218.00590034904366 M 125.60660171779813,220.38967968801205 M 127.9903810567667,223.4962814058102 M 129.48888739433596,227.1139957292724 M 130.0,230.99628140581018 M 129.48888739433596,234.87856708234807 M 127.9903810567667,238.49628140581024 M 125.60660171779813,241.60288312360848 M 122.5,243.98666246257685 M 118.88228567653783,245.48516880014625 M 139.0,98.0 M 138.59110991546873,101.10582854123024 M 137.39230484541332,104.00000000000009 M 135.48528137423864,106.48528137423858 M 133.0,108.39230484541329 M 130.10582854123027,109.59110991546882 M 127.0,110.00000000000006 M 123.89417145876979,109.59110991546882 M 121.00000000000006,108.39230484541324 M 118.51471862576142,106.48528137423864 M 116.60769515458685,103.99999999999997 M 115.40889008453115,101.10582854123024 M 115.00000000000006,97.99999999999994 M 115.40889008453115,94.89417145876968 M 116.60769515458685,91.99999999999991 M 118.51471862576153,89.51471862576142 M 121.00000000000006,87.60769515458674 M 123.89417145876979,86.40889008453121 M 127.0,86.00000000000006 M 130.10582854123027,86.40889008453121 M 133.0,87.60769515458674 M 135.48528137423864,89.51471862576145 M 137.39230484541332,91.99999999999997 M 138.59110991546885,94.89417145876973 M 126.37568531049834,156.99999999999994 M 127.13477210030936,155.50876104512938 M 129.7538013817756,152.5977365188257 M 133.0370179927192,150.46375740563252 M 136.760676146876,149.2522508555472 M 140.67101469467667,149.0457790378484 M 144.50155052622836,149.85841266570162 M 147.9912389548706,151.63477210030933 M 150.90226348117426,154.2538013817756 M 153.03624259436737,157.5370179927191 M 154.2477491444527,161.26067614687597 M 154.45422096215162,165.17101469467664 M 153.64158733429826,169.00155052622836 M 151.86522789969064,172.49123895487065 M 149.24619861822435,175.40226348117437 M 145.96298200728097,177.53624259436742 M 142.239323853124,178.74774914445288 M 138.32898530532339,178.95422096215174 M 134.4984494737716,178.14158733429844 M 131.0087610451294,176.36522789969072 M 128.09773651882568,173.7461986182244 M 125.96375740563269,170.46298200728089 M 124.75225085554723,166.73932385312398 M 124.54577903784843,162.82898530532327 M 125.35841266570168,158.99844947377161 M 115.48888739433607,160.88228567653778 M 114.99999999999994,162.062564254417 M 113.99038105676658,164.49999999999994 M 111.60660171779824,167.60660171779818 M 108.50000000000006,169.99038105676658 M 104.88228567653783,171.48888739433602 M 101.00000000000006,171.99999999999994 M 97.11771432346222,171.48888739433602 M 93.50000000000006,169.99038105676652 M 90.39339828220182,167.60660171779818 M 88.00961894323342,164.5 M 86.51111260566398,160.88228567653778 M 86.0,156.99999999999994 M 86.51111260566404,153.1177143234622 M 88.00961894323348,149.4999999999999 M 90.39339828220182,146.3933982822017 M 93.5,144.00961894323333 M 97.11771432346222,142.5111126056639 M 101.00000000000006,141.99999999999991 M 104.88228567653783,142.51111260566387 M 108.5,144.00961894323333 M 111.60660171779824,146.39339828220173 M 113.99038105676652,149.4999999999999 M 115.0,151.9374357455829 M 115.48888739433602,153.11771432346214 M 116.00000000000006,156.99999999999994 M 115.05735188852026,207.9998903582955 M 115.0,207.99256281162022 M 111.1731403711317,207.5036252496036 M 107.5497230132658,206.01896204852528 M 104.43402971988115,203.64707809869196 M 102.03838983999509,200.5496133715613 M 100.52606227243973,196.9376549694848 M 100.00010964170463,193.05735188852043 M 100.49637475039651,189.17314037113178 M 101.98103795147483,185.549723013266 M 104.35292190130815,182.43402971988132 M 107.45038662843871,180.03838983999515 M 111.0623450305153,178.52606227243987 M 114.94264811147974,178.00010964170468 M 115.0,178.00743718837992 M 118.82685962886842,178.49637475039654 M 122.4502769867342,179.98103795147495 M 125.5659702801189,182.3529219013082 M 127.96161016000497,185.45038662843888 M 129.47393772756033,189.0623450305155 M 129.99989035829543,192.9426481114799 M 129.50362524960354,196.82685962886848 M 128.20345905962597,200.00000000000006 M 128.01896204852522,200.45027698673425 M 125.64707809869202,203.5659702801189 M 122.54961337156135,205.96161016000502 M 118.9376549694847,207.47393772756038 M 139.01111260566404,203.88228567653783 M 138.49999999999994,200.0 M 139.01111260566404,196.11771432346234 M 140.50961894323348,192.5000000000001 M 142.89339828220187,189.39339828220193 M 145.99999999999994,187.0096189432336 M 149.61771432346222,185.5111126056641 M 153.50000000000006,185.0000000000001 M 157.3822856765379,185.5111126056641 M 160.99999999999994,187.00961894323362 M 164.10660171779824,189.39339828220193 M 166.49038105676658,192.5000000000001 M 167.98888739433607,196.11771432346234 M 168.50000000000006,200.00000000000006 M 167.98888739433607,203.88228567653783 M 166.4903810567667,207.50000000000006 M 164.10660171779824,210.6066017177983 M 160.99999999999994,212.99038105676672 M 157.3822856765379,214.4888873943362 M 153.50000000000006,215.00000000000014 M 149.61771432346222,214.4888873943362 M 145.99999999999994,212.9903810567667 M 142.89339828220187,210.60660171779836 M 140.50961894323348,207.50000000000006 "
  />
</svg>
