<?xml version="1.0" standalone="no"?>
<!DOCTYPE svg PUBLIC "-//W3C//DTD SVG 1.1//EN" "http://www.w3.org/Graphics/SVG/1.1/DTD/svg11.dtd">
<svg width="72.00000000000003mm" height="296.0000000000001mm"
 viewBox="0 0 72.00000000000003 296.0000000000001"
 xmlns="http://www.w3.org/2000/svg" version="1.1"
 xmlns:xlink="http://www.w3.org/1999/xlink">
<desc>Output from Flights of Ideas SVG Sketchup Plugin</desc>

  <path id="face0-cut"
 style="fill:none;stroke:#0000FF;stroke-width:1;stroke-miterlimit:4;stroke-dasharray:none;stroke-linejoin:round;stroke-linecap:round"
        d="M 10.0,70.0 L 16.99999999999997,70.0 L 16.99999999999997,99.99999999999997 L 10.0,99.99999999999997 L 10.0,130.0 L 16.99999999999997,130.0 L 16.99999999999997,166.00000000000009 L 10.0,166.00000000000014 L 10.0,196.00000000000009 L 16.99999999999997,196.00000000000009 L 16.99999999999997,226.00000000000003 L 10.0,226.00000000000003 L 10.0,256.0 L 16.99999999999997,256.0 L 16.99999999999997,286.0 L 24.00000000000003,286.0000000000001 L 23.99999999999997,279.0 L 30.99999999999997,279.0 L 31.0,286.0 L 37.99999999999997,286.0 L 37.99999999999997,279.0 L 45.00000000000003,279.0 L 45.00000000000003,286.0 L 51.99999999999997,286.0000000000001 L 52.00000000000003,256.0 L 62.00000000000003,256.0 L 61.99999999999997,226.00000000000003 L 52.00000000000003,226.00000000000003 L 52.00000000000003,196.00000000000009 L 61.99999999999997,196.00000000000009 L 61.99999999999997,166.00000000000009 L 52.00000000000003,166.00000000000003 L 52.00000000000003,130.0 L 61.99999999999997,130.00000000000006 L 61.99999999999997,100.00000000000006 L 52.00000000000003,100.0 L 52.00000000000003,70.0 L 61.99999999999997,70.0 L 61.99999999999997,40.0 L 52.00000000000003,40.0 L 51.99999999999997,10.0 L 44.99999999999997,10.000000000000028 L 45.00000000000003,17.0 L 37.99999999999997,17.0 L 37.99999999999997,10.000000000000028 L 31.0,10.000000000000028 L 31.0,17.0 L 24.00000000000003,17.00000000000003 L 23.99999999999997,10.000000000000028 L 16.99999999999997,10.000000000000028 L 16.99999999999997,40.0 L 10.0,40.0 L 10.0,70.0 M 37.60582854123024,80.09110991546879 M 34.50000000000003,80.49999999999997 M 31.394171458769733,80.09110991546885 M 28.49999999999997,78.89230484541326 M 26.014718625761418,76.98528137423858 M 24.107695154586764,74.50000000000003 M 23.693481592213658,73.50000000000003 M 22.90889008453121,71.60582854123027 M 22.5,68.50000000000003 M 22.90889008453121,65.39417145876979 M 24.107695154586764,62.50000000000003 M 26.014718625761418,60.014718625761475 M 28.49999999999997,58.10769515458679 M 31.394171458769733,56.908890084531265 M 34.49999999999997,56.50000000000006 M 37.60582854123024,56.90889008453121 M 40.49999999999997,58.10769515458679 M 42.985281374238554,60.014718625761475 M 44.892304845413236,62.50000000000003 M 46.09110991546882,65.39417145876976 M 46.49999999999997,68.49999999999997 M 46.09110991546882,71.60582854123027 M 45.30651840778634,73.5 M 44.89230484541329,74.50000000000003 M 42.985281374238554,76.98528137423858 M 40.50000000000003,78.89230484541326 M 31.394171458769733,89.90889008453121 M 34.49999999999997,89.5 M 37.60582854123024,89.90889008453118 M 40.49999999999997,91.10769515458679 M 42.985281374238554,93.01471862576145 M 44.89230484541329,95.50000000000006 M 46.09110991546882,98.3941714587697 M 46.49999999999997,101.50000000000003 M 46.09110991546882,104.6058285412303 M 44.89230484541329,107.49999999999997 M 42.985281374238554,109.98528137423858 M 40.50000000000003,111.89230484541329 M 37.60582854123024,113.09110991546882 M 34.49999999999997,113.50000000000006 M 31.394171458769733,113.09110991546882 M 28.49999999999997,111.89230484541332 M 26.014718625761418,109.98528137423858 M 24.107695154586736,107.50000000000003 M 22.90889008453115,104.6058285412303 M 22.5,101.5 M 22.90889008453121,98.39417145876976 M 24.107695154586736,95.5 M 26.014718625761418,93.01471862576139 M 28.49999999999997,91.10769515458674 M 36.808552611353974,223.7448398532463 M 36.85966387192033,224.1330684209 M 36.808552611353974,224.5212969885537 M 36.65870197759702,224.8830684209 M 36.42032404370016,225.19372859267983 M 36.10966387192033,225.43210652657658 M 35.747892439574144,225.58195716033353 M 35.35966387192033,225.6330684209 M 34.97143530426658,225.58195716033353 M 34.609663871920276,225.43210652657658 M 34.2990037001405,225.19372859267983 M 34.060625766243646,224.8830684209 M 33.91077513248675,224.5212969885537 M 33.859663871920276,224.1330684209 M 33.91077513248675,223.7448398532463 M 34.060625766243646,223.3830684209 M 34.2990037001405,223.07240824912023 M 34.60966387192033,222.83403031522343 M 34.97143530426658,222.68417968146647 M 35.359663871920276,222.6330684209 M 35.747892439574144,222.68417968146647 M 36.109663871920276,222.8340303152235 M 36.42032404370016,223.07240824912023 M 36.65870197759702,223.3830684209 M 34.60966387192033,252.93210652657663 M 34.2990037001405,252.6937285926799 M 34.060625766243646,252.3830684208999 M 33.91077513248675,252.02129698855376 M 33.85966387192033,251.6330684208999 M 33.91077513248669,251.2448398532462 M 34.060625766243646,250.8830684208999 M 34.299003700140446,250.57240824912006 M 34.609663871920276,250.33403031522332 M 34.97143530426658,250.18417968146636 M 35.35966387192033,250.1330684208999 M 35.747892439574144,250.18417968146642 M 36.10966387192033,250.33403031522332 M 36.42032404370016,250.57240824912006 M 36.65870197759702,250.8830684208999 M 36.80855261135392,251.2448398532462 M 36.85966387192033,251.6330684208999 M 36.808552611353974,252.02129698855376 M 36.65870197759696,252.3830684208999 M 36.42032404370016,252.6937285926799 M 36.10966387192033,252.93210652657663 M 35.74789243957409,253.0819571603336 M 35.359663871920276,253.1330684208999 M 34.97143530426658,253.0819571603336 M 29.859663871920333,226.88306842089995 M 40.859663871920276,226.88306842089995 M 40.85966387192033,248.88306842089995 M 29.859663871920333,248.88306842089995 "
  />
  <path id="face1-cut"
 style="fill:none;stroke:#0000FF;stroke-width:1;stroke-miterlimit:4;stroke-dasharray:none;stroke-linejoin:round;stroke-linecap:round"
        d="M 37.60582854123024,89.90889008453118 M 34.49999999999997,89.5 M 31.394171458769733,89.90889008453121 M 28.49999999999997,91.10769515458674 M 26.014718625761418,93.01471862576139 M 24.107695154586736,95.5 M 22.90889008453121,98.39417145876976 M 22.5,101.5 M 22.90889008453115,104.6058285412303 M 24.107695154586736,107.50000000000003 M 26.014718625761418,109.98528137423858 M 28.49999999999997,111.89230484541332 M 31.394171458769733,113.09110991546882 M 34.49999999999997,113.50000000000006 M 37.60582854123024,113.09110991546882 M 40.50000000000003,111.89230484541329 M 42.985281374238554,109.98528137423858 M 44.89230484541329,107.49999999999997 M 46.09110991546882,104.6058285412303 M 46.49999999999997,101.50000000000003 M 46.09110991546882,98.3941714587697 M 44.89230484541329,95.50000000000006 M 42.985281374238554,93.01471862576145 M 40.49999999999997,91.10769515458679 "
  />
  <path id="face2-cut"
 style="fill:none;stroke:#0000FF;stroke-width:1;stroke-miterlimit:4;stroke-dasharray:none;stroke-linejoin:round;stroke-linecap:round"
        d="M 44.89230484541329,74.50000000000003 M 45.30651840778634,73.5 M 46.09110991546882,71.60582854123027 M 46.49999999999997,68.49999999999997 M 46.09110991546882,65.39417145876976 M 44.892304845413236,62.50000000000003 M 42.985281374238554,60.014718625761475 M 40.49999999999997,58.10769515458679 M 37.60582854123024,56.90889008453121 M 34.49999999999997,56.50000000000006 M 31.394171458769733,56.908890084531265 M 28.49999999999997,58.10769515458679 M 26.014718625761418,60.014718625761475 M 24.107695154586764,62.50000000000003 M 22.90889008453121,65.39417145876979 M 22.5,68.50000000000003 M 22.90889008453121,71.60582854123027 M 23.693481592213658,73.50000000000003 M 24.107695154586764,74.50000000000003 M 26.014718625761418,76.98528137423858 M 28.49999999999997,78.89230484541326 M 31.394171458769733,80.09110991546885 M 34.50000000000003,80.49999999999997 M 37.60582854123024,80.09110991546879 M 40.50000000000003,78.89230484541326 M 42.985281374238554,76.98528137423858 "
  />
  <path id="face3-cut"
 style="fill:none;stroke:#0000FF;stroke-width:1;stroke-miterlimit:4;stroke-dasharray:none;stroke-linejoin:round;stroke-linecap:round"
        d="M 36.85966387192033,224.1330684209 M 36.808552611353974,223.7448398532463 M 36.65870197759702,223.3830684209 M 36.42032404370016,223.07240824912023 M 36.109663871920276,222.8340303152235 M 35.747892439574144,222.68417968146647 M 35.359663871920276,222.6330684209 M 34.97143530426658,222.68417968146647 M 34.60966387192033,222.83403031522343 M 34.2990037001405,223.07240824912023 M 34.060625766243646,223.3830684209 M 33.91077513248675,223.7448398532463 M 33.859663871920276,224.1330684209 M 33.91077513248675,224.5212969885537 M 34.060625766243646,224.8830684209 M 34.2990037001405,225.19372859267983 M 34.609663871920276,225.43210652657658 M 34.97143530426658,225.58195716033353 M 35.35966387192033,225.6330684209 M 35.747892439574144,225.58195716033353 M 36.10966387192033,225.43210652657658 M 36.42032404370016,225.19372859267983 M 36.65870197759702,224.8830684209 M 36.808552611353974,224.5212969885537 "
  />
  <path id="face4-cut"
 style="fill:none;stroke:#0000FF;stroke-width:1;stroke-miterlimit:4;stroke-dasharray:none;stroke-linejoin:round;stroke-linecap:round"
        d="M 34.2990037001405,252.6937285926799 M 34.60966387192033,252.93210652657663 M 34.97143530426658,253.0819571603336 M 35.359663871920276,253.1330684208999 M 35.74789243957409,253.0819571603336 M 36.10966387192033,252.93210652657663 M 36.42032404370016,252.6937285926799 M 36.65870197759696,252.3830684208999 M 36.808552611353974,252.02129698855376 M 36.85966387192033,251.6330684208999 M 36.80855261135392,251.2448398532462 M 36.65870197759702,250.8830684208999 M 36.42032404370016,250.57240824912006 M 36.10966387192033,250.33403031522332 M 35.747892439574144,250.18417968146642 M 35.35966387192033,250.1330684208999 M 34.97143530426658,250.18417968146636 M 34.609663871920276,250.33403031522332 M 34.299003700140446,250.57240824912006 M 34.060625766243646,250.8830684208999 M 33.91077513248669,251.2448398532462 M 33.85966387192033,251.6330684208999 M 33.91077513248675,252.02129698855376 M 34.060625766243646,252.3830684208999 "
  />
  <path id="face5-cut"
 style="fill:none;stroke:#0000FF;stroke-width:1;stroke-miterlimit:4;stroke-dasharray:none;stroke-linejoin:round;stroke-linecap:round"
        d="M 40.859663871920276,226.88306842089995 M 29.859663871920333,226.88306842089995 M 29.859663871920333,248.88306842089995 M 40.85966387192033,248.88306842089995 "
  />
  <path id="face0-interior"
 style="fill:none;stroke:#FF0000;stroke-width:1;stroke-miterlimit:4;stroke-dasharray:none;stroke-linejoin:round;stroke-linecap:round"
        d="M 10.0,70.0 M 16.99999999999997,70.0 M 16.99999999999997,99.99999999999997 M 10.0,99.99999999999997 M 10.0,130.0 M 16.99999999999997,130.0 M 16.99999999999997,166.00000000000009 M 10.0,166.00000000000014 M 10.0,196.00000000000009 M 16.99999999999997,196.00000000000009 M 16.99999999999997,226.00000000000003 M 10.0,226.00000000000003 M 10.0,256.0 M 16.99999999999997,256.0 M 16.99999999999997,286.0 M 24.00000000000003,286.0000000000001 M 23.99999999999997,279.0 M 30.99999999999997,279.0 M 31.0,286.0 M 37.99999999999997,286.0 M 37.99999999999997,279.0 M 45.00000000000003,279.0 M 45.00000000000003,286.0 M 51.99999999999997,286.0000000000001 M 52.00000000000003,256.0 M 62.00000000000003,256.0 M 61.99999999999997,226.00000000000003 M 52.00000000000003,226.00000000000003 M 52.00000000000003,196.00000000000009 M 61.99999999999997,196.00000000000009 M 61.99999999999997,166.00000000000009 M 52.00000000000003,166.00000000000003 M 52.00000000000003,130.0 M 61.99999999999997,130.00000000000006 M 61.99999999999997,100.00000000000006 M 52.00000000000003,100.0 M 52.00000000000003,70.0 M 61.99999999999997,70.0 M 61.99999999999997,40.0 M 52.00000000000003,40.0 M 51.99999999999997,10.0 M 44.99999999999997,10.000000000000028 M 45.00000000000003,17.0 M 37.99999999999997,17.0 M 37.99999999999997,10.000000000000028 M 31.0,10.000000000000028 M 31.0,17.0 M 24.00000000000003,17.00000000000003 M 23.99999999999997,10.000000000000028 M 16.99999999999997,10.000000000000028 M 16.99999999999997,40.0 M 10.0,40.0 M 37.60582854123024,80.09110991546879 L 34.50000000000003,80.49999999999997 L 31.394171458769733,80.09110991546885 L 28.49999999999997,78.89230484541326 L 26.014718625761418,76.98528137423858 L 24.107695154586764,74.50000000000003 L 23.693481592213658,73.50000000000003 L 22.90889008453121,71.60582854123027 L 22.5,68.50000000000003 L 22.90889008453121,65.39417145876979 L 24.107695154586764,62.50000000000003 L 26.014718625761418,60.014718625761475 L 28.49999999999997,58.10769515458679 L 31.394171458769733,56.908890084531265 L 34.49999999999997,56.50000000000006 L 37.60582854123024,56.90889008453121 L 40.49999999999997,58.10769515458679 L 42.985281374238554,60.014718625761475 L 44.892304845413236,62.50000000000003 L 46.09110991546882,65.39417145876976 L 46.49999999999997,68.49999999999997 L 46.09110991546882,71.60582854123027 L 45.30651840778634,73.5 L 44.89230484541329,74.50000000000003 L 42.985281374238554,76.98528137423858 L 40.50000000000003,78.89230484541326 L 37.60582854123024,80.09110991546879 M 31.394171458769733,89.90889008453121 L 34.49999999999997,89.5 L 37.60582854123024,89.90889008453118 L 40.49999999999997,91.10769515458679 L 42.985281374238554,93.01471862576145 L 44.89230484541329,95.50000000000006 L 46.09110991546882,98.3941714587697 L 46.49999999999997,101.50000000000003 L 46.09110991546882,104.6058285412303 L 44.89230484541329,107.49999999999997 L 42.985281374238554,109.98528137423858 L 40.50000000000003,111.89230484541329 L 37.60582854123024,113.09110991546882 L 34.49999999999997,113.50000000000006 L 31.394171458769733,113.09110991546882 L 28.49999999999997,111.89230484541332 L 26.014718625761418,109.98528137423858 L 24.107695154586736,107.50000000000003 L 22.90889008453115,104.6058285412303 L 22.5,101.5 L 22.90889008453121,98.39417145876976 L 24.107695154586736,95.5 L 26.014718625761418,93.01471862576139 L 28.49999999999997,91.10769515458674 L 31.394171458769733,89.90889008453121 M 36.808552611353974,223.7448398532463 L 36.85966387192033,224.1330684209 L 36.808552611353974,224.5212969885537 L 36.65870197759702,224.8830684209 L 36.42032404370016,225.19372859267983 L 36.10966387192033,225.43210652657658 L 35.747892439574144,225.58195716033353 L 35.35966387192033,225.6330684209 L 34.97143530426658,225.58195716033353 L 34.609663871920276,225.43210652657658 L 34.2990037001405,225.19372859267983 L 34.060625766243646,224.8830684209 L 33.91077513248675,224.5212969885537 L 33.859663871920276,224.1330684209 L 33.91077513248675,223.7448398532463 L 34.060625766243646,223.3830684209 L 34.2990037001405,223.07240824912023 L 34.60966387192033,222.83403031522343 L 34.97143530426658,222.68417968146647 L 35.359663871920276,222.6330684209 L 35.747892439574144,222.68417968146647 L 36.109663871920276,222.8340303152235 L 36.42032404370016,223.07240824912023 L 36.65870197759702,223.3830684209 L 36.808552611353974,223.7448398532463 M 34.60966387192033,252.93210652657663 L 34.2990037001405,252.6937285926799 L 34.060625766243646,252.3830684208999 L 33.91077513248675,252.02129698855376 L 33.85966387192033,251.6330684208999 L 33.91077513248669,251.2448398532462 L 34.060625766243646,250.8830684208999 L 34.299003700140446,250.57240824912006 L 34.609663871920276,250.33403031522332 L 34.97143530426658,250.18417968146636 L 35.35966387192033,250.1330684208999 L 35.747892439574144,250.18417968146642 L 36.10966387192033,250.33403031522332 L 36.42032404370016,250.57240824912006 L 36.65870197759702,250.8830684208999 L 36.80855261135392,251.2448398532462 L 36.85966387192033,251.6330684208999 L 36.808552611353974,252.02129698855376 L 36.65870197759696,252.3830684208999 L 36.42032404370016,252.6937285926799 L 36.10966387192033,252.93210652657663 L 35.74789243957409,253.0819571603336 L 35.359663871920276,253.1330684208999 L 34.97143530426658,253.0819571603336 L 34.60966387192033,252.93210652657663 M 29.859663871920333,226.88306842089995 L 40.859663871920276,226.88306842089995 L 40.85966387192033,248.88306842089995 L 29.859663871920333,248.88306842089995 L 29.859663871920333,226.88306842089995 "
  />
  <path id="face1-interior"
 style="fill:none;stroke:#FF0000;stroke-width:1;stroke-miterlimit:4;stroke-dasharray:none;stroke-linejoin:round;stroke-linecap:round"
        d="M 37.60582854123024,89.90889008453118 M 34.49999999999997,89.5 M 31.394171458769733,89.90889008453121 M 28.49999999999997,91.10769515458674 M 26.014718625761418,93.01471862576139 M 24.107695154586736,95.5 M 22.90889008453121,98.39417145876976 M 22.5,101.5 M 22.90889008453115,104.6058285412303 M 24.107695154586736,107.50000000000003 M 26.014718625761418,109.98528137423858 M 28.49999999999997,111.89230484541332 M 31.394171458769733,113.09110991546882 M 34.49999999999997,113.50000000000006 M 37.60582854123024,113.09110991546882 M 40.50000000000003,111.89230484541329 M 42.985281374238554,109.98528137423858 M 44.89230484541329,107.49999999999997 M 46.09110991546882,104.6058285412303 M 46.49999999999997,101.50000000000003 M 46.09110991546882,98.3941714587697 M 44.89230484541329,95.50000000000006 M 42.985281374238554,93.01471862576145 M 40.49999999999997,91.10769515458679 "
  />
  <path id="face2-interior"
 style="fill:none;stroke:#FF0000;stroke-width:1;stroke-miterlimit:4;stroke-dasharray:none;stroke-linejoin:round;stroke-linecap:round"
        d="M 44.89230484541329,74.50000000000003 M 45.30651840778634,73.5 M 46.09110991546882,71.60582854123027 M 46.49999999999997,68.49999999999997 M 46.09110991546882,65.39417145876976 M 44.892304845413236,62.50000000000003 M 42.985281374238554,60.014718625761475 M 40.49999999999997,58.10769515458679 M 37.60582854123024,56.90889008453121 M 34.49999999999997,56.50000000000006 M 31.394171458769733,56.908890084531265 M 28.49999999999997,58.10769515458679 M 26.014718625761418,60.014718625761475 M 24.107695154586764,62.50000000000003 M 22.90889008453121,65.39417145876979 M 22.5,68.50000000000003 M 22.90889008453121,71.60582854123027 M 23.693481592213658,73.50000000000003 M 24.107695154586764,74.50000000000003 M 26.014718625761418,76.98528137423858 M 28.49999999999997,78.89230484541326 M 31.394171458769733,80.09110991546885 M 34.50000000000003,80.49999999999997 M 37.60582854123024,80.09110991546879 M 40.50000000000003,78.89230484541326 M 42.985281374238554,76.98528137423858 "
  />
  <path id="face3-interior"
 style="fill:none;stroke:#FF0000;stroke-width:1;stroke-miterlimit:4;stroke-dasharray:none;stroke-linejoin:round;stroke-linecap:round"
        d="M 36.85966387192033,224.1330684209 M 36.808552611353974,223.7448398532463 M 36.65870197759702,223.3830684209 M 36.42032404370016,223.07240824912023 M 36.109663871920276,222.8340303152235 M 35.747892439574144,222.68417968146647 M 35.359663871920276,222.6330684209 M 34.97143530426658,222.68417968146647 M 34.60966387192033,222.83403031522343 M 34.2990037001405,223.07240824912023 M 34.060625766243646,223.3830684209 M 33.91077513248675,223.7448398532463 M 33.859663871920276,224.1330684209 M 33.91077513248675,224.5212969885537 M 34.060625766243646,224.8830684209 M 34.2990037001405,225.19372859267983 M 34.609663871920276,225.43210652657658 M 34.97143530426658,225.58195716033353 M 35.35966387192033,225.6330684209 M 35.747892439574144,225.58195716033353 M 36.10966387192033,225.43210652657658 M 36.42032404370016,225.19372859267983 M 36.65870197759702,224.8830684209 M 36.808552611353974,224.5212969885537 "
  />
  <path id="face4-interior"
 style="fill:none;stroke:#FF0000;stroke-width:1;stroke-miterlimit:4;stroke-dasharray:none;stroke-linejoin:round;stroke-linecap:round"
        d="M 34.2990037001405,252.6937285926799 M 34.60966387192033,252.93210652657663 M 34.97143530426658,253.0819571603336 M 35.359663871920276,253.1330684208999 M 35.74789243957409,253.0819571603336 M 36.10966387192033,252.93210652657663 M 36.42032404370016,252.6937285926799 M 36.65870197759696,252.3830684208999 M 36.808552611353974,252.02129698855376 M 36.85966387192033,251.6330684208999 M 36.80855261135392,251.2448398532462 M 36.65870197759702,250.8830684208999 M 36.42032404370016,250.57240824912006 M 36.10966387192033,250.33403031522332 M 35.747892439574144,250.18417968146642 M 35.35966387192033,250.1330684208999 M 34.97143530426658,250.18417968146636 M 34.609663871920276,250.33403031522332 M 34.299003700140446,250.57240824912006 M 34.060625766243646,250.8830684208999 M 33.91077513248669,251.2448398532462 M 33.85966387192033,251.6330684208999 M 33.91077513248675,252.02129698855376 M 34.060625766243646,252.3830684208999 "
  />
  <path id="face5-interior"
 style="fill:none;stroke:#FF0000;stroke-width:1;stroke-miterlimit:4;stroke-dasharray:none;stroke-linejoin:round;stroke-linecap:round"
        d="M 40.859663871920276,226.88306842089995 M 29.859663871920333,226.88306842089995 M 29.859663871920333,248.88306842089995 M 40.85966387192033,248.88306842089995 "
  />
  <path id="face0-interior"
 style="fill:none;stroke:#00FF00;stroke-width:1;stroke-miterlimit:4;stroke-dasharray:none;stroke-linejoin:round;stroke-linecap:round"
        d="M 10.0,70.0 M 16.99999999999997,70.0 M 16.99999999999997,99.99999999999997 M 10.0,99.99999999999997 M 10.0,130.0 M 16.99999999999997,130.0 M 16.99999999999997,166.00000000000009 M 10.0,166.00000000000014 M 10.0,196.00000000000009 M 16.99999999999997,196.00000000000009 M 16.99999999999997,226.00000000000003 M 10.0,226.00000000000003 M 10.0,256.0 M 16.99999999999997,256.0 M 16.99999999999997,286.0 M 24.00000000000003,286.0000000000001 M 23.99999999999997,279.0 M 30.99999999999997,279.0 M 31.0,286.0 M 37.99999999999997,286.0 M 37.99999999999997,279.0 M 45.00000000000003,279.0 M 45.00000000000003,286.0 M 51.99999999999997,286.0000000000001 M 52.00000000000003,256.0 M 62.00000000000003,256.0 M 61.99999999999997,226.00000000000003 M 52.00000000000003,226.00000000000003 M 52.00000000000003,196.00000000000009 M 61.99999999999997,196.00000000000009 M 61.99999999999997,166.00000000000009 M 52.00000000000003,166.00000000000003 M 52.00000000000003,130.0 M 61.99999999999997,130.00000000000006 M 61.99999999999997,100.00000000000006 M 52.00000000000003,100.0 M 52.00000000000003,70.0 M 61.99999999999997,70.0 M 61.99999999999997,40.0 M 52.00000000000003,40.0 M 51.99999999999997,10.0 M 44.99999999999997,10.000000000000028 M 45.00000000000003,17.0 M 37.99999999999997,17.0 M 37.99999999999997,10.000000000000028 M 31.0,10.000000000000028 M 31.0,17.0 M 24.00000000000003,17.00000000000003 M 23.99999999999997,10.000000000000028 M 16.99999999999997,10.000000000000028 M 16.99999999999997,40.0 M 10.0,40.0 M 37.60582854123024,80.09110991546879 M 34.50000000000003,80.49999999999997 M 31.394171458769733,80.09110991546885 M 28.49999999999997,78.89230484541326 M 26.014718625761418,76.98528137423858 M 24.107695154586764,74.50000000000003 M 23.693481592213658,73.50000000000003 M 22.90889008453121,71.60582854123027 M 22.5,68.50000000000003 M 22.90889008453121,65.39417145876979 M 24.107695154586764,62.50000000000003 M 26.014718625761418,60.014718625761475 M 28.49999999999997,58.10769515458679 M 31.394171458769733,56.908890084531265 M 34.49999999999997,56.50000000000006 M 37.60582854123024,56.90889008453121 M 40.49999999999997,58.10769515458679 M 42.985281374238554,60.014718625761475 M 44.892304845413236,62.50000000000003 M 46.09110991546882,65.39417145876976 M 46.49999999999997,68.49999999999997 M 46.09110991546882,71.60582854123027 M 45.30651840778634,73.5 M 44.89230484541329,74.50000000000003 M 42.985281374238554,76.98528137423858 M 40.50000000000003,78.89230484541326 M 31.394171458769733,89.90889008453121 M 34.49999999999997,89.5 M 37.60582854123024,89.90889008453118 M 40.49999999999997,91.10769515458679 M 42.985281374238554,93.01471862576145 M 44.89230484541329,95.50000000000006 M 46.09110991546882,98.3941714587697 M 46.49999999999997,101.50000000000003 M 46.09110991546882,104.6058285412303 M 44.89230484541329,107.49999999999997 M 42.985281374238554,109.98528137423858 M 40.50000000000003,111.89230484541329 M 37.60582854123024,113.09110991546882 M 34.49999999999997,113.50000000000006 M 31.394171458769733,113.09110991546882 M 28.49999999999997,111.89230484541332 M 26.014718625761418,109.98528137423858 M 24.107695154586736,107.50000000000003 M 22.90889008453115,104.6058285412303 M 22.5,101.5 M 22.90889008453121,98.39417145876976 M 24.107695154586736,95.5 M 26.014718625761418,93.01471862576139 M 28.49999999999997,91.10769515458674 M 36.808552611353974,223.7448398532463 M 36.85966387192033,224.1330684209 M 36.808552611353974,224.5212969885537 M 36.65870197759702,224.8830684209 M 36.42032404370016,225.19372859267983 M 36.10966387192033,225.43210652657658 M 35.747892439574144,225.58195716033353 M 35.35966387192033,225.6330684209 M 34.97143530426658,225.58195716033353 M 34.609663871920276,225.43210652657658 M 34.2990037001405,225.19372859267983 M 34.060625766243646,224.8830684209 M 33.91077513248675,224.5212969885537 M 33.859663871920276,224.1330684209 M 33.91077513248675,223.7448398532463 M 34.060625766243646,223.3830684209 M 34.2990037001405,223.07240824912023 M 34.60966387192033,222.83403031522343 M 34.97143530426658,222.68417968146647 M 35.359663871920276,222.6330684209 M 35.747892439574144,222.68417968146647 M 36.109663871920276,222.8340303152235 M 36.42032404370016,223.07240824912023 M 36.65870197759702,223.3830684209 M 34.60966387192033,252.93210652657663 M 34.2990037001405,252.6937285926799 M 34.060625766243646,252.3830684208999 M 33.91077513248675,252.02129698855376 M 33.85966387192033,251.6330684208999 M 33.91077513248669,251.2448398532462 M 34.060625766243646,250.8830684208999 M 34.299003700140446,250.57240824912006 M 34.609663871920276,250.33403031522332 M 34.97143530426658,250.18417968146636 M 35.35966387192033,250.1330684208999 M 35.747892439574144,250.18417968146642 M 36.10966387192033,250.33403031522332 M 36.42032404370016,250.57240824912006 M 36.65870197759702,250.8830684208999 M 36.80855261135392,251.2448398532462 M 36.85966387192033,251.6330684208999 M 36.808552611353974,252.02129698855376 M 36.65870197759696,252.3830684208999 M 36.42032404370016,252.6937285926799 M 36.10966387192033,252.93210652657663 M 35.74789243957409,253.0819571603336 M 35.359663871920276,253.1330684208999 M 34.97143530426658,253.0819571603336 M 29.859663871920333,226.88306842089995 M 40.859663871920276,226.88306842089995 M 40.85966387192033,248.88306842089995 M 29.859663871920333,248.88306842089995 "
  />
  <path id="face1-interior"
 style="fill:none;stroke:#00FF00;stroke-width:1;stroke-miterlimit:4;stroke-dasharray:none;stroke-linejoin:round;stroke-linecap:round"
        d="M 37.60582854123024,89.90889008453118 M 34.49999999999997,89.5 M 31.394171458769733,89.90889008453121 M 28.49999999999997,91.10769515458674 M 26.014718625761418,93.01471862576139 M 24.107695154586736,95.5 M 22.90889008453121,98.39417145876976 M 22.5,101.5 M 22.90889008453115,104.6058285412303 M 24.107695154586736,107.50000000000003 M 26.014718625761418,109.98528137423858 M 28.49999999999997,111.89230484541332 M 31.394171458769733,113.09110991546882 M 34.49999999999997,113.50000000000006 M 37.60582854123024,113.09110991546882 M 40.50000000000003,111.89230484541329 M 42.985281374238554,109.98528137423858 M 44.89230484541329,107.49999999999997 M 46.09110991546882,104.6058285412303 M 46.49999999999997,101.50000000000003 M 46.09110991546882,98.3941714587697 M 44.89230484541329,95.50000000000006 M 42.985281374238554,93.01471862576145 M 40.49999999999997,91.10769515458679 "
  />
  <path id="face2-interior"
 style="fill:none;stroke:#00FF00;stroke-width:1;stroke-miterlimit:4;stroke-dasharray:none;stroke-linejoin:round;stroke-linecap:round"
        d="M 44.89230484541329,74.50000000000003 M 45.30651840778634,73.5 M 46.09110991546882,71.60582854123027 M 46.49999999999997,68.49999999999997 M 46.09110991546882,65.39417145876976 M 44.892304845413236,62.50000000000003 M 42.985281374238554,60.014718625761475 M 40.49999999999997,58.10769515458679 M 37.60582854123024,56.90889008453121 M 34.49999999999997,56.50000000000006 M 31.394171458769733,56.908890084531265 M 28.49999999999997,58.10769515458679 M 26.014718625761418,60.014718625761475 M 24.107695154586764,62.50000000000003 M 22.90889008453121,65.39417145876979 M 22.5,68.50000000000003 M 22.90889008453121,71.60582854123027 M 23.693481592213658,73.50000000000003 M 24.107695154586764,74.50000000000003 M 26.014718625761418,76.98528137423858 M 28.49999999999997,78.89230484541326 M 31.394171458769733,80.09110991546885 M 34.50000000000003,80.49999999999997 M 37.60582854123024,80.09110991546879 M 40.50000000000003,78.89230484541326 M 42.985281374238554,76.98528137423858 "
  />
  <path id="face3-interior"
 style="fill:none;stroke:#00FF00;stroke-width:1;stroke-miterlimit:4;stroke-dasharray:none;stroke-linejoin:round;stroke-linecap:round"
        d="M 36.85966387192033,224.1330684209 M 36.808552611353974,223.7448398532463 M 36.65870197759702,223.3830684209 M 36.42032404370016,223.07240824912023 M 36.109663871920276,222.8340303152235 M 35.747892439574144,222.68417968146647 M 35.359663871920276,222.6330684209 M 34.97143530426658,222.68417968146647 M 34.60966387192033,222.83403031522343 M 34.2990037001405,223.07240824912023 M 34.060625766243646,223.3830684209 M 33.91077513248675,223.7448398532463 M 33.859663871920276,224.1330684209 M 33.91077513248675,224.5212969885537 M 34.060625766243646,224.8830684209 M 34.2990037001405,225.19372859267983 M 34.609663871920276,225.43210652657658 M 34.97143530426658,225.58195716033353 M 35.35966387192033,225.6330684209 M 35.747892439574144,225.58195716033353 M 36.10966387192033,225.43210652657658 M 36.42032404370016,225.19372859267983 M 36.65870197759702,224.8830684209 M 36.808552611353974,224.5212969885537 "
  />
  <path id="face4-interior"
 style="fill:none;stroke:#00FF00;stroke-width:1;stroke-miterlimit:4;stroke-dasharray:none;stroke-linejoin:round;stroke-linecap:round"
        d="M 34.2990037001405,252.6937285926799 M 34.60966387192033,252.93210652657663 M 34.97143530426658,253.0819571603336 M 35.359663871920276,253.1330684208999 M 35.74789243957409,253.0819571603336 M 36.10966387192033,252.93210652657663 M 36.42032404370016,252.6937285926799 M 36.65870197759696,252.3830684208999 M 36.808552611353974,252.02129698855376 M 36.85966387192033,251.6330684208999 M 36.80855261135392,251.2448398532462 M 36.65870197759702,250.8830684208999 M 36.42032404370016,250.57240824912006 M 36.10966387192033,250.33403031522332 M 35.747892439574144,250.18417968146642 M 35.35966387192033,250.1330684208999 M 34.97143530426658,250.18417968146636 M 34.609663871920276,250.33403031522332 M 34.299003700140446,250.57240824912006 M 34.060625766243646,250.8830684208999 M 33.91077513248669,251.2448398532462 M 33.85966387192033,251.6330684208999 M 33.91077513248675,252.02129698855376 M 34.060625766243646,252.3830684208999 "
  />
  <path id="face5-interior"
 style="fill:none;stroke:#00FF00;stroke-width:1;stroke-miterlimit:4;stroke-dasharray:none;stroke-linejoin:round;stroke-linecap:round"
        d="M 40.859663871920276,226.88306842089995 M 29.859663871920333,226.88306842089995 M 29.859663871920333,248.88306842089995 M 40.85966387192033,248.88306842089995 "
  />
</svg>
