<?xml version="1.0" standalone="no"?>
<!DOCTYPE svg PUBLIC "-//W3C//DTD SVG 1.1//EN" "http://www.w3.org/Graphics/SVG/1.1/DTD/svg11.dtd">
<svg width="220.0mm" height="310.0000000000001mm"
 viewBox="0 0 220.0 310.0000000000001"
 xmlns="http://www.w3.org/2000/svg" version="1.1"
 xmlns:xlink="http://www.w3.org/1999/xlink">
<desc>Output from Flights of Ideas SVG Sketchup Plugin</desc>

  <path id="face0-cut"
 style="fill:none;stroke:#0000FF;stroke-width:1;stroke-miterlimit:4;stroke-dasharray:none;stroke-linejoin:round;stroke-linecap:round"
        d="M 202.99999999999994,10.0 L 17.00000000000003,10.000000000000028 L 15.18826668428241,10.238519216006125 L 13.5,10.937822173508437 L 12.050252531694127,12.050252531694241 L 10.93782217350892,13.499999999998778 L 10.238519215976481,15.188266684283036 L 10.0,16.999999999999716 L 10.000000000000114,293.00000000000006 L 10.238519215976453,294.81173331571773 L 10.937822173509034,296.50000000000017 L 12.050252531694127,297.9497474683059 L 13.500000000000028,299.06217782649117 L 15.188266684282354,299.76148078402343 L 17.000000000000057,300.0000000000001 L 202.99999999999997,300.0 L 204.8117333157177,299.76148078402343 L 206.49999999999997,299.06217782649105 L 207.94974746830584,297.9497474683059 L 209.062177826491,296.5 L 209.7614807840235,294.81173331571773 L 210.0,293.00000000000006 L 210.0,17.00000000000003 L 209.7614807840235,15.188266684282354 L 209.06217782649102,13.500000000000028 L 207.94974746830584,12.050252531694156 L 206.50000000000006,10.93782217350892 L 204.8117333157177,10.23851921597651 L 202.99999999999994,10.0 M 24.000000000000085,173.0 L 24.000000000000057,203.00000000000006 L 17.000000000000057,203.00000000000006 L 17.00000000000003,173.0 L 24.000000000000085,173.0 M 24.000000000000057,106.99999999999994 L 24.0,136.9999999999999 L 16.99999999999997,137.0 L 17.00000000000003,106.99999999999989 L 24.000000000000057,106.99999999999994 M 24.000000000000057,47.0 L 24.00000000000003,76.99999999999989 L 17.000000000000057,77.0 L 17.000000000000057,47.0 L 24.000000000000057,47.0 M 17.00000000000003,233.0000000000001 L 24.00000000000003,233.0000000000001 L 24.000000000000085,263.00000000000006 L 17.0,263.00000000000006 L 17.00000000000003,233.0000000000001 M 196.0,77.0 L 196.0,47.0 L 203.00000000000006,47.0 L 203.00000000000006,77.0 L 196.0,77.0 M 135.99999999999991,293.00000000000006 L 135.99999999999991,286.00000000000006 L 166.0,286.00000000000006 L 166.0,293.00000000000006 L 135.99999999999991,293.00000000000006 M 165.99999999999997,23.99999999999997 L 135.99999999999994,23.99999999999997 L 135.99999999999994,17.00000000000003 L 165.99999999999997,16.99999999999997 L 165.99999999999997,23.99999999999997 M 53.99999999999997,286.00000000000006 L 83.99999999999997,286.00000000000006 L 83.99999999999993,293.00000000000006 L 54.0,293.00000000000006 L 53.99999999999997,286.00000000000006 M 54.0,23.999999999999943 L 54.0,16.999999999999915 L 84.00000000000003,17.000000000000085 L 84.00000000000003,24.000000000000085 L 54.0,23.999999999999943 M 203.00000000000003,263.00000000000006 L 196.00000000000003,263.00000000000006 L 196.0,233.0000000000001 L 203.00000000000006,233.0000000000001 L 203.00000000000003,263.00000000000006 M 196.0,173.0 L 203.00000000000003,173.0 L 203.00000000000006,203.00000000000006 L 196.0,203.00000000000006 L 196.0,173.0 M 196.0,106.99999999999994 L 203.00000000000006,106.99999999999994 L 203.00000000000006,137.0 L 196.0,137.0 L 196.0,106.99999999999994 M 185.49999999999994,277.75 L 184.9176571485193,277.67333310915046 L 184.37500000000003,277.448557158515 L 183.90900974233026,277.0909902576697 L 183.55144284148503,276.625 L 183.32666689084962,276.08234285148063 L 183.25,275.5 L 183.32666689084962,274.91765714851937 L 183.55144284148497,274.37500000000006 L 183.90900974233023,273.9090097423304 L 184.37500000000006,273.551442841485 L 184.9176571485193,273.32666689084965 L 185.49999999999997,273.25000000000006 L 186.08234285148063,273.32666689084965 L 186.62499999999994,273.55144284148497 L 187.09099025766974,273.9090097423303 L 187.44855715851494,274.375 L 187.6733331091504,274.91765714851925 L 187.75,275.5 L 187.67333310915043,276.08234285148063 L 187.44855715851492,276.625 L 187.09099025766977,277.0909902576697 L 186.625,277.448557158515 L 186.08234285148072,277.67333310915046 L 185.49999999999994,277.75 M 32.24999999999997,275.4999999999999 L 32.32666689084951,274.91765714851925 L 32.55144284148497,274.375 L 32.90900974233034,273.9090097423303 L 33.375000000000085,273.55144284148514 L 33.91765714851934,273.32666689084965 L 34.5,273.25000000000006 L 35.082342851480604,273.32666689084954 L 35.62500000000003,273.55144284148514 L 36.09099025766969,273.9090097423303 L 36.44855715851497,274.375 L 36.67333310915029,274.91765714851925 L 36.74999999999994,275.5000000000001 L 36.67333310915038,276.08234285148063 L 36.44855715851503,276.625 L 36.090990257669716,277.0909902576697 L 35.62499999999997,277.44855715851486 L 35.082342851480746,277.67333310915046 L 34.50000000000003,277.75 L 33.917657148519396,277.67333310915046 L 33.37500000000003,277.448557158515 L 32.90900974233037,277.0909902576697 L 32.55144284148503,276.625 L 32.32666689084954,276.0823428514806 L 32.24999999999997,275.4999999999999 M 33.91765714851934,32.32666689084962 L 34.50000000000003,32.25000000000017 L 35.08234285148066,32.32666689084968 L 35.62500000000003,32.55144284148511 L 36.09099025766969,32.9090097423302 L 36.44855715851497,33.37500000000006 L 36.67333310915038,33.91765714851914 L 36.74999999999994,34.5 L 36.67333310915038,35.08234285148052 L 36.44855715851497,35.625 L 36.090990257669716,36.0909902576696 L 35.62500000000003,36.448557158515 L 35.08234285148066,36.67333310915029 L 34.5,36.749999999999886 L 33.91765714851934,36.67333310915029 L 33.375,36.448557158515 L 32.90900974233023,36.09099025766977 L 32.551442841485056,35.625 L 32.326666890849594,35.082342851480774 L 32.24999999999997,34.499999999999886 L 32.326666890849566,33.91765714851934 L 32.55144284148497,33.37499999999997 L 32.9090097423302,32.90900974233014 L 33.375,32.55144284148511 L 33.91765714851934,32.32666689084962 M 185.49999999999997,32.25 L 186.08234285148072,32.32666689084962 L 186.62499999999997,32.55144284148503 L 187.09099025766974,32.909009742330284 L 187.44855715851503,33.37500000000003 L 187.6733331091504,33.91765714851934 L 187.75,34.50000000000003 L 187.6733331091504,35.08234285148069 L 187.44855715851503,35.625 L 187.09099025766974,36.090990257669745 L 186.62499999999997,36.448557158515 L 186.08234285148072,36.673333109150434 L 185.49999999999994,36.75000000000003 L 184.9176571485193,36.673333109150434 L 184.37500000000003,36.448557158515 L 183.90900974233026,36.090990257669745 L 183.551442841485,35.625 L 183.32666689084962,35.08234285148069 L 183.25000000000003,34.50000000000003 L 183.3266668908496,33.91765714851934 L 183.551442841485,33.37500000000003 L 183.90900974233026,32.909009742330284 L 184.37500000000003,32.55144284148503 L 184.9176571485193,32.32666689084962 L 185.49999999999997,32.25 "
  />
  <path id="face0-interior"
 style="fill:none;stroke:#FF0000;stroke-width:1;stroke-miterlimit:4;stroke-dasharray:none;stroke-linejoin:round;stroke-linecap:round"
        d="M 202.99999999999994,10.0 M 17.00000000000003,10.000000000000028 M 15.18826668428241,10.238519216006125 M 13.5,10.937822173508437 M 12.050252531694127,12.050252531694241 M 10.93782217350892,13.499999999998778 M 10.238519215976481,15.188266684283036 M 10.0,16.999999999999716 M 10.000000000000114,293.00000000000006 M 10.238519215976453,294.81173331571773 M 10.937822173509034,296.50000000000017 M 12.050252531694127,297.9497474683059 M 13.500000000000028,299.06217782649117 M 15.188266684282354,299.76148078402343 M 17.000000000000057,300.0000000000001 M 202.99999999999997,300.0 M 204.8117333157177,299.76148078402343 M 206.49999999999997,299.06217782649105 M 207.94974746830584,297.9497474683059 M 209.062177826491,296.5 M 209.7614807840235,294.81173331571773 M 210.0,293.00000000000006 M 210.0,17.00000000000003 M 209.7614807840235,15.188266684282354 M 209.06217782649102,13.500000000000028 M 207.94974746830584,12.050252531694156 M 206.50000000000006,10.93782217350892 M 204.8117333157177,10.23851921597651 M 24.000000000000085,173.0 M 24.000000000000057,203.00000000000006 M 17.000000000000057,203.00000000000006 M 17.00000000000003,173.0 M 24.000000000000057,106.99999999999994 M 24.0,136.9999999999999 M 16.99999999999997,137.0 M 17.00000000000003,106.99999999999989 M 24.000000000000057,47.0 M 24.00000000000003,76.99999999999989 M 17.000000000000057,77.0 M 17.000000000000057,47.0 M 17.00000000000003,233.0000000000001 M 24.00000000000003,233.0000000000001 M 24.000000000000085,263.00000000000006 M 17.0,263.00000000000006 M 196.0,77.0 M 196.0,47.0 M 203.00000000000006,47.0 M 203.00000000000006,77.0 M 135.99999999999991,293.00000000000006 M 135.99999999999991,286.00000000000006 M 166.0,286.00000000000006 M 166.0,293.00000000000006 M 165.99999999999997,23.99999999999997 M 135.99999999999994,23.99999999999997 M 135.99999999999994,17.00000000000003 M 165.99999999999997,16.99999999999997 M 53.99999999999997,286.00000000000006 M 83.99999999999997,286.00000000000006 M 83.99999999999993,293.00000000000006 M 54.0,293.00000000000006 M 54.0,23.999999999999943 M 54.0,16.999999999999915 M 84.00000000000003,17.000000000000085 M 84.00000000000003,24.000000000000085 M 203.00000000000003,263.00000000000006 M 196.00000000000003,263.00000000000006 M 196.0,233.0000000000001 M 203.00000000000006,233.0000000000001 M 196.0,173.0 M 203.00000000000003,173.0 M 203.00000000000006,203.00000000000006 M 196.0,203.00000000000006 M 196.0,106.99999999999994 M 203.00000000000006,106.99999999999994 M 203.00000000000006,137.0 M 196.0,137.0 M 185.49999999999994,277.75 M 184.9176571485193,277.67333310915046 M 184.37500000000003,277.448557158515 M 183.90900974233026,277.0909902576697 M 183.55144284148503,276.625 M 183.32666689084962,276.08234285148063 M 183.25,275.5 M 183.32666689084962,274.91765714851937 M 183.55144284148497,274.37500000000006 M 183.90900974233023,273.9090097423304 M 184.37500000000006,273.551442841485 M 184.9176571485193,273.32666689084965 M 185.49999999999997,273.25000000000006 M 186.08234285148063,273.32666689084965 M 186.62499999999994,273.55144284148497 M 187.09099025766974,273.9090097423303 M 187.44855715851494,274.375 M 187.6733331091504,274.91765714851925 M 187.75,275.5 M 187.67333310915043,276.08234285148063 M 187.44855715851492,276.625 M 187.09099025766977,277.0909902576697 M 186.625,277.448557158515 M 186.08234285148072,277.67333310915046 M 32.24999999999997,275.4999999999999 M 32.32666689084951,274.91765714851925 M 32.55144284148497,274.375 M 32.90900974233034,273.9090097423303 M 33.375000000000085,273.55144284148514 M 33.91765714851934,273.32666689084965 M 34.5,273.25000000000006 M 35.082342851480604,273.32666689084954 M 35.62500000000003,273.55144284148514 M 36.09099025766969,273.9090097423303 M 36.44855715851497,274.375 M 36.67333310915029,274.91765714851925 M 36.74999999999994,275.5000000000001 M 36.67333310915038,276.08234285148063 M 36.44855715851503,276.625 M 36.090990257669716,277.0909902576697 M 35.62499999999997,277.44855715851486 M 35.082342851480746,277.67333310915046 M 34.50000000000003,277.75 M 33.917657148519396,277.67333310915046 M 33.37500000000003,277.448557158515 M 32.90900974233037,277.0909902576697 M 32.55144284148503,276.625 M 32.32666689084954,276.0823428514806 M 33.91765714851934,32.32666689084962 M 34.50000000000003,32.25000000000017 M 35.08234285148066,32.32666689084968 M 35.62500000000003,32.55144284148511 M 36.09099025766969,32.9090097423302 M 36.44855715851497,33.37500000000006 M 36.67333310915038,33.91765714851914 M 36.74999999999994,34.5 M 36.67333310915038,35.08234285148052 M 36.44855715851497,35.625 M 36.090990257669716,36.0909902576696 M 35.62500000000003,36.448557158515 M 35.08234285148066,36.67333310915029 M 34.5,36.749999999999886 M 33.91765714851934,36.67333310915029 M 33.375,36.448557158515 M 32.90900974233023,36.09099025766977 M 32.551442841485056,35.625 M 32.326666890849594,35.082342851480774 M 32.24999999999997,34.499999999999886 M 32.326666890849566,33.91765714851934 M 32.55144284148497,33.37499999999997 M 32.9090097423302,32.90900974233014 M 33.375,32.55144284148511 M 185.49999999999997,32.25 M 186.08234285148072,32.32666689084962 M 186.62499999999997,32.55144284148503 M 187.09099025766974,32.909009742330284 M 187.44855715851503,33.37500000000003 M 187.6733331091504,33.91765714851934 M 187.75,34.50000000000003 M 187.6733331091504,35.08234285148069 M 187.44855715851503,35.625 M 187.09099025766974,36.090990257669745 M 186.62499999999997,36.448557158515 M 186.08234285148072,36.673333109150434 M 185.49999999999994,36.75000000000003 M 184.9176571485193,36.673333109150434 M 184.37500000000003,36.448557158515 M 183.90900974233026,36.090990257669745 M 183.551442841485,35.625 M 183.32666689084962,35.08234285148069 M 183.25000000000003,34.50000000000003 M 183.3266668908496,33.91765714851934 M 183.551442841485,33.37500000000003 M 183.90900974233026,32.909009742330284 M 184.37500000000003,32.55144284148503 M 184.9176571485193,32.32666689084962 "
  />
  <path id="face0-interior"
 style="fill:none;stroke:#00FF00;stroke-width:1;stroke-miterlimit:4;stroke-dasharray:none;stroke-linejoin:round;stroke-linecap:round"
        d="M 202.99999999999994,10.0 M 17.00000000000003,10.000000000000028 M 15.18826668428241,10.238519216006125 M 13.5,10.937822173508437 M 12.050252531694127,12.050252531694241 M 10.93782217350892,13.499999999998778 M 10.238519215976481,15.188266684283036 M 10.0,16.999999999999716 M 10.000000000000114,293.00000000000006 M 10.238519215976453,294.81173331571773 M 10.937822173509034,296.50000000000017 M 12.050252531694127,297.9497474683059 M 13.500000000000028,299.06217782649117 M 15.188266684282354,299.76148078402343 M 17.000000000000057,300.0000000000001 M 202.99999999999997,300.0 M 204.8117333157177,299.76148078402343 M 206.49999999999997,299.06217782649105 M 207.94974746830584,297.9497474683059 M 209.062177826491,296.5 M 209.7614807840235,294.81173331571773 M 210.0,293.00000000000006 M 210.0,17.00000000000003 M 209.7614807840235,15.188266684282354 M 209.06217782649102,13.500000000000028 M 207.94974746830584,12.050252531694156 M 206.50000000000006,10.93782217350892 M 204.8117333157177,10.23851921597651 M 24.000000000000085,173.0 M 24.000000000000057,203.00000000000006 M 17.000000000000057,203.00000000000006 M 17.00000000000003,173.0 M 24.000000000000057,106.99999999999994 M 24.0,136.9999999999999 M 16.99999999999997,137.0 M 17.00000000000003,106.99999999999989 M 24.000000000000057,47.0 M 24.00000000000003,76.99999999999989 M 17.000000000000057,77.0 M 17.000000000000057,47.0 M 17.00000000000003,233.0000000000001 M 24.00000000000003,233.0000000000001 M 24.000000000000085,263.00000000000006 M 17.0,263.00000000000006 M 196.0,77.0 M 196.0,47.0 M 203.00000000000006,47.0 M 203.00000000000006,77.0 M 135.99999999999991,293.00000000000006 M 135.99999999999991,286.00000000000006 M 166.0,286.00000000000006 M 166.0,293.00000000000006 M 165.99999999999997,23.99999999999997 M 135.99999999999994,23.99999999999997 M 135.99999999999994,17.00000000000003 M 165.99999999999997,16.99999999999997 M 53.99999999999997,286.00000000000006 M 83.99999999999997,286.00000000000006 M 83.99999999999993,293.00000000000006 M 54.0,293.00000000000006 M 54.0,23.999999999999943 M 54.0,16.999999999999915 M 84.00000000000003,17.000000000000085 M 84.00000000000003,24.000000000000085 M 203.00000000000003,263.00000000000006 M 196.00000000000003,263.00000000000006 M 196.0,233.0000000000001 M 203.00000000000006,233.0000000000001 M 196.0,173.0 M 203.00000000000003,173.0 M 203.00000000000006,203.00000000000006 M 196.0,203.00000000000006 M 196.0,106.99999999999994 M 203.00000000000006,106.99999999999994 M 203.00000000000006,137.0 M 196.0,137.0 M 185.49999999999994,277.75 M 184.9176571485193,277.67333310915046 M 184.37500000000003,277.448557158515 M 183.90900974233026,277.0909902576697 M 183.55144284148503,276.625 M 183.32666689084962,276.08234285148063 M 183.25,275.5 M 183.32666689084962,274.91765714851937 M 183.55144284148497,274.37500000000006 M 183.90900974233023,273.9090097423304 M 184.37500000000006,273.551442841485 M 184.9176571485193,273.32666689084965 M 185.49999999999997,273.25000000000006 M 186.08234285148063,273.32666689084965 M 186.62499999999994,273.55144284148497 M 187.09099025766974,273.9090097423303 M 187.44855715851494,274.375 M 187.6733331091504,274.91765714851925 M 187.75,275.5 M 187.67333310915043,276.08234285148063 M 187.44855715851492,276.625 M 187.09099025766977,277.0909902576697 M 186.625,277.448557158515 M 186.08234285148072,277.67333310915046 M 32.24999999999997,275.4999999999999 M 32.32666689084951,274.91765714851925 M 32.55144284148497,274.375 M 32.90900974233034,273.9090097423303 M 33.375000000000085,273.55144284148514 M 33.91765714851934,273.32666689084965 M 34.5,273.25000000000006 M 35.082342851480604,273.32666689084954 M 35.62500000000003,273.55144284148514 M 36.09099025766969,273.9090097423303 M 36.44855715851497,274.375 M 36.67333310915029,274.91765714851925 M 36.74999999999994,275.5000000000001 M 36.67333310915038,276.08234285148063 M 36.44855715851503,276.625 M 36.090990257669716,277.0909902576697 M 35.62499999999997,277.44855715851486 M 35.082342851480746,277.67333310915046 M 34.50000000000003,277.75 M 33.917657148519396,277.67333310915046 M 33.37500000000003,277.448557158515 M 32.90900974233037,277.0909902576697 M 32.55144284148503,276.625 M 32.32666689084954,276.0823428514806 M 33.91765714851934,32.32666689084962 M 34.50000000000003,32.25000000000017 M 35.08234285148066,32.32666689084968 M 35.62500000000003,32.55144284148511 M 36.09099025766969,32.9090097423302 M 36.44855715851497,33.37500000000006 M 36.67333310915038,33.91765714851914 M 36.74999999999994,34.5 M 36.67333310915038,35.08234285148052 M 36.44855715851497,35.625 M 36.090990257669716,36.0909902576696 M 35.62500000000003,36.448557158515 M 35.08234285148066,36.67333310915029 M 34.5,36.749999999999886 M 33.91765714851934,36.67333310915029 M 33.375,36.448557158515 M 32.90900974233023,36.09099025766977 M 32.551442841485056,35.625 M 32.326666890849594,35.082342851480774 M 32.24999999999997,34.499999999999886 M 32.326666890849566,33.91765714851934 M 32.55144284148497,33.37499999999997 M 32.9090097423302,32.90900974233014 M 33.375,32.55144284148511 M 185.49999999999997,32.25 M 186.08234285148072,32.32666689084962 M 186.62499999999997,32.55144284148503 M 187.09099025766974,32.909009742330284 M 187.44855715851503,33.37500000000003 M 187.6733331091504,33.91765714851934 M 187.75,34.50000000000003 M 187.6733331091504,35.08234285148069 M 187.44855715851503,35.625 M 187.09099025766974,36.090990257669745 M 186.62499999999997,36.448557158515 M 186.08234285148072,36.673333109150434 M 185.49999999999994,36.75000000000003 M 184.9176571485193,36.673333109150434 M 184.37500000000003,36.448557158515 M 183.90900974233026,36.090990257669745 M 183.551442841485,35.625 M 183.32666689084962,35.08234285148069 M 183.25000000000003,34.50000000000003 M 183.3266668908496,33.91765714851934 M 183.551442841485,33.37500000000003 M 183.90900974233026,32.909009742330284 M 184.37500000000003,32.55144284148503 M 184.9176571485193,32.32666689084962 "
  />
</svg>
