  0
SECTION
  2
HEADER
  9
$ACADVER
  1
AC1009
  9
$EXTMIN
 10
0.0
 20
0.0
 30
0.0
  9
$EXTMAX
 10
1000.0
 20
1000.0
 30
0.0
  9
$FILLMODE
 70
 0
  9
$SPLFRAME
 70
 1
  0
ENDSEC
  0
SECTION
  2
TABLES
  0
TABLE
  2
LAYER
 70
1
  0
LAYER
  2
0
 70
     0
 62
     7
  6
CONTINUOUS
  0
ENDTAB
  0
ENDSEC
  0
SECTION
  2
ENTITIES
  0
POLYLINE
  8
0
 62
     5
 66
     1
 10
0
 20
0
 30
0.0
 70
     1
 40
2.83465
 41
2.83465
  0
VERTEX
  8
0
 10
7.99214
 20
11.8146
 30
0.0
 40
0.0393701
 41
0.0393701
  0
VERTEX
  8
0
 10
0.669271
 20
11.8146
 30
0.0
 40
0.0393701
 41
0.0393701
  0
VERTEX
  8
0
 10
0.597982
 20
11.8052
 30
0.0
 40
0.0393701
 41
0.0393701
  0
VERTEX
  8
0
 10
0.531521
 20
11.7777
 30
0.0
 40
0.0393701
 41
0.0393701
  0
VERTEX
  8
0
 10
0.474393
 20
11.7339
 30
0.0
 40
0.0393701
 41
0.0393701
  0
VERTEX
  8
0
 10
0.43061
 20
11.6768
 30
0.0
 40
0.0393701
 41
0.0393701
  0
VERTEX
  8
0
 10
0.403103
 20
11.6103
 30
0.0
 40
0.0393701
 41
0.0393701
  0
VERTEX
  8
0
 10
0.393718
 20
11.5391
 30
0.0
 40
0.0393701
 41
0.0393701
  0
VERTEX
  8
0
 10
0.393718
 20
0.672906
 30
0.0
 40
0.0393701
 41
0.0393701
  0
VERTEX
  8
0
 10
0.403103
 20
0.601563
 30
0.0
 40
0.0393701
 41
0.0393701
  0
VERTEX
  8
0
 10
0.43061
 20
0.535101
 30
0.0
 40
0.0393701
 41
0.0393701
  0
VERTEX
  8
0
 10
0.474393
 20
0.478028
 30
0.0
 40
0.0393701
 41
0.0393701
  0
VERTEX
  8
0
 10
0.531521
 20
0.434244
 30
0.0
 40
0.0393701
 41
0.0393701
  0
VERTEX
  8
0
 10
0.597982
 20
0.406685
 30
0.0
 40
0.0393701
 41
0.0393701
  0
VERTEX
  8
0
 10
0.669271
 20
0.397299
 30
0.0
 40
0.0393701
 41
0.0393701
  0
VERTEX
  8
0
 10
7.99214
 20
0.397299
 30
0.0
 40
0.0393701
 41
0.0393701
  0
VERTEX
  8
0
 10
8.06347
 20
0.406685
 30
0.0
 40
0.0393701
 41
0.0393701
  0
VERTEX
  8
0
 10
8.12993
 20
0.434244
 30
0.0
 40
0.0393701
 41
0.0393701
  0
VERTEX
  8
0
 10
8.18701
 20
0.478028
 30
0.0
 40
0.0393701
 41
0.0393701
  0
VERTEX
  8
0
 10
8.23079
 20
0.535101
 30
0.0
 40
0.0393701
 41
0.0393701
  0
VERTEX
  8
0
 10
8.25831
 20
0.601563
 30
0.0
 40
0.0393701
 41
0.0393701
  0
VERTEX
  8
0
 10
8.26774
 20
0.672906
 30
0.0
 40
0.0393701
 41
0.0393701
  0
VERTEX
  8
0
 10
8.26774
 20
11.5391
 30
0.0
 40
0.0393701
 41
0.0393701
  0
VERTEX
  8
0
 10
8.25831
 20
11.6103
 30
0.0
 40
0.0393701
 41
0.0393701
  0
VERTEX
  8
0
 10
8.23079
 20
11.6768
 30
0.0
 40
0.0393701
 41
0.0393701
  0
VERTEX
  8
0
 10
8.18701
 20
11.7339
 30
0.0
 40
0.0393701
 41
0.0393701
  0
VERTEX
  8
0
 10
8.12993
 20
11.7777
 30
0.0
 40
0.0393701
 41
0.0393701
  0
VERTEX
  8
0
 10
8.06347
 20
11.8052
 30
0.0
 40
0.0393701
 41
0.0393701
  0
VERTEX
  8
0
 10
7.99214
 20
11.8146
 30
0.0
 40
0.0393701
 41
0.0393701
  0
SEQEND
 8
0
  0
POLYLINE
  8
0
 62
     5
 66
     1
 10
0
 20
0
 30
0.0
 70
     1
 40
2.83465
 41
2.83465
  0
VERTEX
  8
0
 10
0.944879
 20
5.39729
 30
0.0
 40
0.0393701
 41
0.0393701
  0
VERTEX
  8
0
 10
0.944879
 20
4.21619
 30
0.0
 40
0.0393701
 41
0.0393701
  0
VERTEX
  8
0
 10
0.669271
 20
4.21619
 30
0.0
 40
0.0393701
 41
0.0393701
  0
VERTEX
  8
0
 10
0.669271
 20
5.39729
 30
0.0
 40
0.0393701
 41
0.0393701
  0
VERTEX
  8
0
 10
0.944879
 20
5.39729
 30
0.0
 40
0.0393701
 41
0.0393701
  0
SEQEND
 8
0
  0
POLYLINE
  8
0
 62
     5
 66
     1
 10
0
 20
0
 30
0.0
 70
     1
 40
2.83465
 41
2.83465
  0
VERTEX
  8
0
 10
0.944879
 20
7.99571
 30
0.0
 40
0.0393701
 41
0.0393701
  0
VERTEX
  8
0
 10
0.944879
 20
6.81461
 30
0.0
 40
0.0393701
 41
0.0393701
  0
VERTEX
  8
0
 10
0.669271
 20
6.81461
 30
0.0
 40
0.0393701
 41
0.0393701
  0
VERTEX
  8
0
 10
0.669271
 20
7.99571
 30
0.0
 40
0.0393701
 41
0.0393701
  0
VERTEX
  8
0
 10
0.944879
 20
7.99571
 30
0.0
 40
0.0393701
 41
0.0393701
  0
SEQEND
 8
0
  0
POLYLINE
  8
0
 62
     5
 66
     1
 10
0
 20
0
 30
0.0
 70
     1
 40
2.83465
 41
2.83465
  0
VERTEX
  8
0
 10
0.944879
 20
10.358
 30
0.0
 40
0.0393701
 41
0.0393701
  0
VERTEX
  8
0
 10
0.944879
 20
9.17681
 30
0.0
 40
0.0393701
 41
0.0393701
  0
VERTEX
  8
0
 10
0.669271
 20
9.17681
 30
0.0
 40
0.0393701
 41
0.0393701
  0
VERTEX
  8
0
 10
0.669271
 20
10.358
 30
0.0
 40
0.0393701
 41
0.0393701
  0
VERTEX
  8
0
 10
0.944879
 20
10.358
 30
0.0
 40
0.0393701
 41
0.0393701
  0
SEQEND
 8
0
  0
POLYLINE
  8
0
 62
     5
 66
     1
 10
0
 20
0
 30
0.0
 70
     1
 40
2.83465
 41
2.83465
  0
VERTEX
  8
0
 10
0.669271
 20
3.0351
 30
0.0
 40
0.0393701
 41
0.0393701
  0
VERTEX
  8
0
 10
0.944879
 20
3.0351
 30
0.0
 40
0.0393701
 41
0.0393701
  0
VERTEX
  8
0
 10
0.944879
 20
1.854
 30
0.0
 40
0.0393701
 41
0.0393701
  0
VERTEX
  8
0
 10
0.669271
 20
1.854
 30
0.0
 40
0.0393701
 41
0.0393701
  0
VERTEX
  8
0
 10
0.669271
 20
3.0351
 30
0.0
 40
0.0393701
 41
0.0393701
  0
SEQEND
 8
0
  0
POLYLINE
  8
0
 62
     5
 66
     1
 10
0
 20
0
 30
0.0
 70
     1
 40
2.83465
 41
2.83465
  0
VERTEX
  8
0
 10
7.71653
 20
9.17681
 30
0.0
 40
0.0393701
 41
0.0393701
  0
VERTEX
  8
0
 10
7.71653
 20
10.358
 30
0.0
 40
0.0393701
 41
0.0393701
  0
VERTEX
  8
0
 10
7.99214
 20
10.358
 30
0.0
 40
0.0393701
 41
0.0393701
  0
VERTEX
  8
0
 10
7.99214
 20
9.17681
 30
0.0
 40
0.0393701
 41
0.0393701
  0
VERTEX
  8
0
 10
7.71653
 20
9.17681
 30
0.0
 40
0.0393701
 41
0.0393701
  0
SEQEND
 8
0
  0
POLYLINE
  8
0
 62
     5
 66
     1
 10
0
 20
0
 30
0.0
 70
     1
 40
2.83465
 41
2.83465
  0
VERTEX
  8
0
 10
5.35433
 20
0.672906
 30
0.0
 40
0.0393701
 41
0.0393701
  0
VERTEX
  8
0
 10
5.35433
 20
0.948514
 30
0.0
 40
0.0393701
 41
0.0393701
  0
VERTEX
  8
0
 10
6.53543
 20
0.948514
 30
0.0
 40
0.0393701
 41
0.0393701
  0
VERTEX
  8
0
 10
6.53543
 20
0.672906
 30
0.0
 40
0.0393701
 41
0.0393701
  0
VERTEX
  8
0
 10
5.35433
 20
0.672906
 30
0.0
 40
0.0393701
 41
0.0393701
  0
SEQEND
 8
0
  0
POLYLINE
  8
0
 62
     5
 66
     1
 10
0
 20
0
 30
0.0
 70
     1
 40
2.83465
 41
2.83465
  0
VERTEX
  8
0
 10
6.53543
 20
11.2635
 30
0.0
 40
0.0393701
 41
0.0393701
  0
VERTEX
  8
0
 10
5.35433
 20
11.2635
 30
0.0
 40
0.0393701
 41
0.0393701
  0
VERTEX
  8
0
 10
5.35433
 20
11.5391
 30
0.0
 40
0.0393701
 41
0.0393701
  0
VERTEX
  8
0
 10
6.53543
 20
11.5391
 30
0.0
 40
0.0393701
 41
0.0393701
  0
VERTEX
  8
0
 10
6.53543
 20
11.2635
 30
0.0
 40
0.0393701
 41
0.0393701
  0
SEQEND
 8
0
  0
POLYLINE
  8
0
 62
     5
 66
     1
 10
0
 20
0
 30
0.0
 70
     1
 40
2.83465
 41
2.83465
  0
VERTEX
  8
0
 10
2.12597
 20
0.948514
 30
0.0
 40
0.0393701
 41
0.0393701
  0
VERTEX
  8
0
 10
3.30707
 20
0.948514
 30
0.0
 40
0.0393701
 41
0.0393701
  0
VERTEX
  8
0
 10
3.30707
 20
0.672906
 30
0.0
 40
0.0393701
 41
0.0393701
  0
VERTEX
  8
0
 10
2.12597
 20
0.672906
 30
0.0
 40
0.0393701
 41
0.0393701
  0
VERTEX
  8
0
 10
2.12597
 20
0.948514
 30
0.0
 40
0.0393701
 41
0.0393701
  0
SEQEND
 8
0
  0
POLYLINE
  8
0
 62
     5
 66
     1
 10
0
 20
0
 30
0.0
 70
     1
 40
2.83465
 41
2.83465
  0
VERTEX
  8
0
 10
2.12597
 20
11.2635
 30
0.0
 40
0.0393701
 41
0.0393701
  0
VERTEX
  8
0
 10
2.12597
 20
11.5391
 30
0.0
 40
0.0393701
 41
0.0393701
  0
VERTEX
  8
0
 10
3.30707
 20
11.5391
 30
0.0
 40
0.0393701
 41
0.0393701
  0
VERTEX
  8
0
 10
3.30707
 20
11.2635
 30
0.0
 40
0.0393701
 41
0.0393701
  0
VERTEX
  8
0
 10
2.12597
 20
11.2635
 30
0.0
 40
0.0393701
 41
0.0393701
  0
SEQEND
 8
0
  0
POLYLINE
  8
0
 62
     5
 66
     1
 10
0
 20
0
 30
0.0
 70
     1
 40
2.83465
 41
2.83465
  0
VERTEX
  8
0
 10
7.99214
 20
1.854
 30
0.0
 40
0.0393701
 41
0.0393701
  0
VERTEX
  8
0
 10
7.71653
 20
1.854
 30
0.0
 40
0.0393701
 41
0.0393701
  0
VERTEX
  8
0
 10
7.71653
 20
3.0351
 30
0.0
 40
0.0393701
 41
0.0393701
  0
VERTEX
  8
0
 10
7.99214
 20
3.0351
 30
0.0
 40
0.0393701
 41
0.0393701
  0
VERTEX
  8
0
 10
7.99214
 20
1.854
 30
0.0
 40
0.0393701
 41
0.0393701
  0
SEQEND
 8
0
  0
POLYLINE
  8
0
 62
     5
 66
     1
 10
0
 20
0
 30
0.0
 70
     1
 40
2.83465
 41
2.83465
  0
VERTEX
  8
0
 10
7.71653
 20
5.39729
 30
0.0
 40
0.0393701
 41
0.0393701
  0
VERTEX
  8
0
 10
7.99214
 20
5.39729
 30
0.0
 40
0.0393701
 41
0.0393701
  0
VERTEX
  8
0
 10
7.99214
 20
4.21619
 30
0.0
 40
0.0393701
 41
0.0393701
  0
VERTEX
  8
0
 10
7.71653
 20
4.21619
 30
0.0
 40
0.0393701
 41
0.0393701
  0
VERTEX
  8
0
 10
7.71653
 20
5.39729
 30
0.0
 40
0.0393701
 41
0.0393701
  0
SEQEND
 8
0
  0
POLYLINE
  8
0
 62
     5
 66
     1
 10
0
 20
0
 30
0.0
 70
     1
 40
2.83465
 41
2.83465
  0
VERTEX
  8
0
 10
7.71653
 20
7.99571
 30
0.0
 40
0.0393701
 41
0.0393701
  0
VERTEX
  8
0
 10
7.99214
 20
7.99571
 30
0.0
 40
0.0393701
 41
0.0393701
  0
VERTEX
  8
0
 10
7.99214
 20
6.81461
 30
0.0
 40
0.0393701
 41
0.0393701
  0
VERTEX
  8
0
 10
7.71653
 20
6.81461
 30
0.0
 40
0.0393701
 41
0.0393701
  0
VERTEX
  8
0
 10
7.71653
 20
7.99571
 30
0.0
 40
0.0393701
 41
0.0393701
  0
SEQEND
 8
0
  0
POLYLINE
  8
0
 62
     5
 66
     1
 10
0
 20
0
 30
0.0
 70
     1
 40
2.83465
 41
2.83465
  0
VERTEX
  8
0
 10
7.30317
 20
1.27327
 30
0.0
 40
0.0393701
 41
0.0393701
  0
VERTEX
  8
0
 10
7.28022
 20
1.27631
 30
0.0
 40
0.0393701
 41
0.0393701
  0
VERTEX
  8
0
 10
7.25885
 20
1.28516
 30
0.0
 40
0.0393701
 41
0.0393701
  0
VERTEX
  8
0
 10
7.2405
 20
1.29926
 30
0.0
 40
0.0393701
 41
0.0393701
  0
VERTEX
  8
0
 10
7.22646
 20
1.3176
 30
0.0
 40
0.0393701
 41
0.0393701
  0
VERTEX
  8
0
 10
7.21761
 20
1.33898
 30
0.0
 40
0.0393701
 41
0.0393701
  0
VERTEX
  8
0
 10
7.21457
 20
1.36187
 30
0.0
 40
0.0393701
 41
0.0393701
  0
VERTEX
  8
0
 10
7.21761
 20
1.38482
 30
0.0
 40
0.0393701
 41
0.0393701
  0
VERTEX
  8
0
 10
7.22646
 20
1.40614
 30
0.0
 40
0.0393701
 41
0.0393701
  0
VERTEX
  8
0
 10
7.2405
 20
1.42453
 30
0.0
 40
0.0393701
 41
0.0393701
  0
VERTEX
  8
0
 10
7.25885
 20
1.43858
 30
0.0
 40
0.0393701
 41
0.0393701
  0
VERTEX
  8
0
 10
7.28022
 20
1.44743
 30
0.0
 40
0.0393701
 41
0.0393701
  0
VERTEX
  8
0
 10
7.30317
 20
1.45047
 30
0.0
 40
0.0393701
 41
0.0393701
  0
VERTEX
  8
0
 10
7.32607
 20
1.44743
 30
0.0
 40
0.0393701
 41
0.0393701
  0
VERTEX
  8
0
 10
7.34744
 20
1.43858
 30
0.0
 40
0.0393701
 41
0.0393701
  0
VERTEX
  8
0
 10
7.36578
 20
1.42453
 30
0.0
 40
0.0393701
 41
0.0393701
  0
VERTEX
  8
0
 10
7.37989
 20
1.40614
 30
0.0
 40
0.0393701
 41
0.0393701
  0
VERTEX
  8
0
 10
7.38872
 20
1.38482
 30
0.0
 40
0.0393701
 41
0.0393701
  0
VERTEX
  8
0
 10
7.39171
 20
1.36187
 30
0.0
 40
0.0393701
 41
0.0393701
  0
VERTEX
  8
0
 10
7.38872
 20
1.33898
 30
0.0
 40
0.0393701
 41
0.0393701
  0
VERTEX
  8
0
 10
7.37989
 20
1.3176
 30
0.0
 40
0.0393701
 41
0.0393701
  0
VERTEX
  8
0
 10
7.36578
 20
1.29926
 30
0.0
 40
0.0393701
 41
0.0393701
  0
VERTEX
  8
0
 10
7.34744
 20
1.28516
 30
0.0
 40
0.0393701
 41
0.0393701
  0
VERTEX
  8
0
 10
7.32607
 20
1.27631
 30
0.0
 40
0.0393701
 41
0.0393701
  0
VERTEX
  8
0
 10
7.30317
 20
1.27327
 30
0.0
 40
0.0393701
 41
0.0393701
  0
SEQEND
 8
0
  0
POLYLINE
  8
0
 62
     5
 66
     1
 10
0
 20
0
 30
0.0
 70
     1
 40
2.83465
 41
2.83465
  0
VERTEX
  8
0
 10
1.26969
 20
1.36187
 30
0.0
 40
0.0393701
 41
0.0393701
  0
VERTEX
  8
0
 10
1.27268
 20
1.38482
 30
0.0
 40
0.0393701
 41
0.0393701
  0
VERTEX
  8
0
 10
1.28158
 20
1.40614
 30
0.0
 40
0.0393701
 41
0.0393701
  0
VERTEX
  8
0
 10
1.29563
 20
1.42453
 30
0.0
 40
0.0393701
 41
0.0393701
  0
VERTEX
  8
0
 10
1.31397
 20
1.43858
 30
0.0
 40
0.0393701
 41
0.0393701
  0
VERTEX
  8
0
 10
1.33534
 20
1.44743
 30
0.0
 40
0.0393701
 41
0.0393701
  0
VERTEX
  8
0
 10
1.35829
 20
1.45047
 30
0.0
 40
0.0393701
 41
0.0393701
  0
VERTEX
  8
0
 10
1.38118
 20
1.44743
 30
0.0
 40
0.0393701
 41
0.0393701
  0
VERTEX
  8
0
 10
1.40256
 20
1.43858
 30
0.0
 40
0.0393701
 41
0.0393701
  0
VERTEX
  8
0
 10
1.4209
 20
1.42453
 30
0.0
 40
0.0393701
 41
0.0393701
  0
VERTEX
  8
0
 10
1.435
 20
1.40614
 30
0.0
 40
0.0393701
 41
0.0393701
  0
VERTEX
  8
0
 10
1.44385
 20
1.38482
 30
0.0
 40
0.0393701
 41
0.0393701
  0
VERTEX
  8
0
 10
1.44683
 20
1.36187
 30
0.0
 40
0.0393701
 41
0.0393701
  0
VERTEX
  8
0
 10
1.44385
 20
1.33898
 30
0.0
 40
0.0393701
 41
0.0393701
  0
VERTEX
  8
0
 10
1.435
 20
1.3176
 30
0.0
 40
0.0393701
 41
0.0393701
  0
VERTEX
  8
0
 10
1.4209
 20
1.29926
 30
0.0
 40
0.0393701
 41
0.0393701
  0
VERTEX
  8
0
 10
1.40256
 20
1.28516
 30
0.0
 40
0.0393701
 41
0.0393701
  0
VERTEX
  8
0
 10
1.38118
 20
1.27631
 30
0.0
 40
0.0393701
 41
0.0393701
  0
VERTEX
  8
0
 10
1.35829
 20
1.27327
 30
0.0
 40
0.0393701
 41
0.0393701
  0
VERTEX
  8
0
 10
1.33534
 20
1.27631
 30
0.0
 40
0.0393701
 41
0.0393701
  0
VERTEX
  8
0
 10
1.31397
 20
1.28516
 30
0.0
 40
0.0393701
 41
0.0393701
  0
VERTEX
  8
0
 10
1.29563
 20
1.29926
 30
0.0
 40
0.0393701
 41
0.0393701
  0
VERTEX
  8
0
 10
1.28158
 20
1.3176
 30
0.0
 40
0.0393701
 41
0.0393701
  0
VERTEX
  8
0
 10
1.27268
 20
1.33898
 30
0.0
 40
0.0393701
 41
0.0393701
  0
VERTEX
  8
0
 10
1.26969
 20
1.36187
 30
0.0
 40
0.0393701
 41
0.0393701
  0
SEQEND
 8
0
  0
POLYLINE
  8
0
 62
     5
 66
     1
 10
0
 20
0
 30
0.0
 70
     1
 40
2.83465
 41
2.83465
  0
VERTEX
  8
0
 10
1.33534
 20
10.9357
 30
0.0
 40
0.0393701
 41
0.0393701
  0
VERTEX
  8
0
 10
1.35829
 20
10.9386
 30
0.0
 40
0.0393701
 41
0.0393701
  0
VERTEX
  8
0
 10
1.38118
 20
10.9357
 30
0.0
 40
0.0393701
 41
0.0393701
  0
VERTEX
  8
0
 10
1.40256
 20
10.9268
 30
0.0
 40
0.0393701
 41
0.0393701
  0
VERTEX
  8
0
 10
1.4209
 20
10.9127
 30
0.0
 40
0.0393701
 41
0.0393701
  0
VERTEX
  8
0
 10
1.435
 20
10.8944
 30
0.0
 40
0.0393701
 41
0.0393701
  0
VERTEX
  8
0
 10
1.44385
 20
10.873
 30
0.0
 40
0.0393701
 41
0.0393701
  0
VERTEX
  8
0
 10
1.44683
 20
10.85
 30
0.0
 40
0.0393701
 41
0.0393701
  0
VERTEX
  8
0
 10
1.44385
 20
10.8272
 30
0.0
 40
0.0393701
 41
0.0393701
  0
VERTEX
  8
0
 10
1.435
 20
10.8058
 30
0.0
 40
0.0393701
 41
0.0393701
  0
VERTEX
  8
0
 10
1.4209
 20
10.7874
 30
0.0
 40
0.0393701
 41
0.0393701
  0
VERTEX
  8
0
 10
1.40256
 20
10.7733
 30
0.0
 40
0.0393701
 41
0.0393701
  0
VERTEX
  8
0
 10
1.38118
 20
10.7645
 30
0.0
 40
0.0393701
 41
0.0393701
  0
VERTEX
  8
0
 10
1.35829
 20
10.7615
 30
0.0
 40
0.0393701
 41
0.0393701
  0
VERTEX
  8
0
 10
1.33534
 20
10.7645
 30
0.0
 40
0.0393701
 41
0.0393701
  0
VERTEX
  8
0
 10
1.31397
 20
10.7733
 30
0.0
 40
0.0393701
 41
0.0393701
  0
VERTEX
  8
0
 10
1.29563
 20
10.7874
 30
0.0
 40
0.0393701
 41
0.0393701
  0
VERTEX
  8
0
 10
1.28158
 20
10.8058
 30
0.0
 40
0.0393701
 41
0.0393701
  0
VERTEX
  8
0
 10
1.27268
 20
10.8272
 30
0.0
 40
0.0393701
 41
0.0393701
  0
VERTEX
  8
0
 10
1.26969
 20
10.85
 30
0.0
 40
0.0393701
 41
0.0393701
  0
VERTEX
  8
0
 10
1.27268
 20
10.873
 30
0.0
 40
0.0393701
 41
0.0393701
  0
VERTEX
  8
0
 10
1.28158
 20
10.8944
 30
0.0
 40
0.0393701
 41
0.0393701
  0
VERTEX
  8
0
 10
1.29563
 20
10.9127
 30
0.0
 40
0.0393701
 41
0.0393701
  0
VERTEX
  8
0
 10
1.31397
 20
10.9268
 30
0.0
 40
0.0393701
 41
0.0393701
  0
VERTEX
  8
0
 10
1.33534
 20
10.9357
 30
0.0
 40
0.0393701
 41
0.0393701
  0
SEQEND
 8
0
  0
POLYLINE
  8
0
 62
     5
 66
     1
 10
0
 20
0
 30
0.0
 70
     1
 40
2.83465
 41
2.83465
  0
VERTEX
  8
0
 10
7.30317
 20
10.9386
 30
0.0
 40
0.0393701
 41
0.0393701
  0
VERTEX
  8
0
 10
7.32607
 20
10.9357
 30
0.0
 40
0.0393701
 41
0.0393701
  0
VERTEX
  8
0
 10
7.34744
 20
10.9268
 30
0.0
 40
0.0393701
 41
0.0393701
  0
VERTEX
  8
0
 10
7.36578
 20
10.9127
 30
0.0
 40
0.0393701
 41
0.0393701
  0
VERTEX
  8
0
 10
7.37989
 20
10.8944
 30
0.0
 40
0.0393701
 41
0.0393701
  0
VERTEX
  8
0
 10
7.38872
 20
10.873
 30
0.0
 40
0.0393701
 41
0.0393701
  0
VERTEX
  8
0
 10
7.39171
 20
10.85
 30
0.0
 40
0.0393701
 41
0.0393701
  0
VERTEX
  8
0
 10
7.38872
 20
10.8272
 30
0.0
 40
0.0393701
 41
0.0393701
  0
VERTEX
  8
0
 10
7.37989
 20
10.8058
 30
0.0
 40
0.0393701
 41
0.0393701
  0
VERTEX
  8
0
 10
7.36578
 20
10.7874
 30
0.0
 40
0.0393701
 41
0.0393701
  0
VERTEX
  8
0
 10
7.34744
 20
10.7733
 30
0.0
 40
0.0393701
 41
0.0393701
  0
VERTEX
  8
0
 10
7.32607
 20
10.7645
 30
0.0
 40
0.0393701
 41
0.0393701
  0
VERTEX
  8
0
 10
7.30317
 20
10.7615
 30
0.0
 40
0.0393701
 41
0.0393701
  0
VERTEX
  8
0
 10
7.28022
 20
10.7645
 30
0.0
 40
0.0393701
 41
0.0393701
  0
VERTEX
  8
0
 10
7.25885
 20
10.7733
 30
0.0
 40
0.0393701
 41
0.0393701
  0
VERTEX
  8
0
 10
7.2405
 20
10.7874
 30
0.0
 40
0.0393701
 41
0.0393701
  0
VERTEX
  8
0
 10
7.22646
 20
10.8058
 30
0.0
 40
0.0393701
 41
0.0393701
  0
VERTEX
  8
0
 10
7.21761
 20
10.8272
 30
0.0
 40
0.0393701
 41
0.0393701
  0
VERTEX
  8
0
 10
7.21457
 20
10.85
 30
0.0
 40
0.0393701
 41
0.0393701
  0
VERTEX
  8
0
 10
7.21761
 20
10.873
 30
0.0
 40
0.0393701
 41
0.0393701
  0
VERTEX
  8
0
 10
7.22646
 20
10.8944
 30
0.0
 40
0.0393701
 41
0.0393701
  0
VERTEX
  8
0
 10
7.2405
 20
10.9127
 30
0.0
 40
0.0393701
 41
0.0393701
  0
VERTEX
  8
0
 10
7.25885
 20
10.9268
 30
0.0
 40
0.0393701
 41
0.0393701
  0
VERTEX
  8
0
 10
7.28022
 20
10.9357
 30
0.0
 40
0.0393701
 41
0.0393701
  0
VERTEX
  8
0
 10
7.30317
 20
10.9386
 30
0.0
 40
0.0393701
 41
0.0393701
  0
SEQEND
 8
0
  0
ENDSEC
  0
EOF
