  0
SECTION
  2
HEADER
  9
$ACADVER
  1
AC1009
  9
$EXTMIN
 10
0.0
 20
0.0
 30
0.0
  9
$EXTMAX
 10
1000.0
 20
1000.0
 30
0.0
  9
$FILLMODE
 70
 0
  9
$SPLFRAME
 70
 1
  0
ENDSEC
  0
SECTION
  2
TABLES
  0
TABLE
  2
LAYER
 70
1
  0
LAYER
  2
0
 70
     0
 62
     7
  6
CONTINUOUS
  0
ENDTAB
  0
ENDSEC
  0
SECTION
  2
ENTITIES
  0
POLYLINE
  8
0
 62
     5
 66
     1
 10
0
 20
0
 30
0.0
 40
2.83465
 41
2.83465
  0
VERTEX
  8
0
 10
0.921224
 20
1.47547
 30
0.0
 40
0.0393701
 41
0.0393701
  0
VERTEX
  8
0
 10
0.839626
 20
1.56088
 30
0.0
 40
0.0393701
 41
0.0393701
  0
SEQEND
 8
0
  0
POLYLINE
  8
0
 62
     5
 66
     1
 10
0
 20
0
 30
0.0
 40
2.83465
 41
2.83465
  0
VERTEX
  8
0
 10
0.835829
 20
1.39388
 30
0.0
 40
0.0393701
 41
0.0393701
  0
VERTEX
  8
0
 10
0.921224
 20
1.47547
 30
0.0
 40
0.0393701
 41
0.0393701
  0
SEQEND
 8
0
  0
POLYLINE
  8
0
 62
     5
 66
     1
 10
0
 20
0
 30
0.0
 70
     1
 40
2.83465
 41
2.83465
  0
VERTEX
  8
0
 10
0.63086
 20
0.601563
 30
0.0
 40
0.0393701
 41
0.0393701
  0
VERTEX
  8
0
 10
0.718261
 20
0.531901
 30
0.0
 40
0.0393701
 41
0.0393701
  0
VERTEX
  8
0
 10
0.815104
 20
0.475965
 30
0.0
 40
0.0393701
 41
0.0393701
  0
VERTEX
  8
0
 10
0.919163
 20
0.435113
 30
0.0
 40
0.0393701
 41
0.0393701
  0
VERTEX
  8
0
 10
1.02816
 20
0.410265
 30
0.0
 40
0.0393701
 41
0.0393701
  0
VERTEX
  8
0
 10
1.13965
 20
0.40191
 30
0.0
 40
0.0393701
 41
0.0393701
  0
VERTEX
  8
0
 10
1.25114
 20
0.410265
 30
0.0
 40
0.0393701
 41
0.0393701
  0
VERTEX
  8
0
 10
1.36013
 20
0.435113
 30
0.0
 40
0.0393701
 41
0.0393701
  0
VERTEX
  8
0
 10
1.46419
 20
0.475965
 30
0.0
 40
0.0393701
 41
0.0393701
  0
VERTEX
  8
0
 10
1.56104
 20
0.531901
 30
0.0
 40
0.0393701
 41
0.0393701
  0
VERTEX
  8
0
 10
1.64844
 20
0.601563
 30
0.0
 40
0.0393701
 41
0.0393701
  0
VERTEX
  8
0
 10
1.7245
 20
0.683539
 30
0.0
 40
0.0393701
 41
0.0393701
  0
VERTEX
  8
0
 10
1.78743
 20
0.775933
 30
0.0
 40
0.0393701
 41
0.0393701
  0
VERTEX
  8
0
 10
1.83594
 20
0.876628
 30
0.0
 40
0.0393701
 41
0.0393701
  0
VERTEX
  8
0
 10
1.86893
 20
0.983507
 30
0.0
 40
0.0393701
 41
0.0393701
  0
VERTEX
  8
0
 10
1.88558
 20
1.09402
 30
0.0
 40
0.0393701
 41
0.0393701
  0
VERTEX
  8
0
 10
1.88558
 20
1.20584
 30
0.0
 40
0.0393701
 41
0.0393701
  0
VERTEX
  8
0
 10
1.86893
 20
1.31641
 30
0.0
 40
0.0393701
 41
0.0393701
  0
VERTEX
  8
0
 10
1.83594
 20
1.42324
 30
0.0
 40
0.0393701
 41
0.0393701
  0
VERTEX
  8
0
 10
1.78743
 20
1.52393
 30
0.0
 40
0.0393701
 41
0.0393701
  0
VERTEX
  8
0
 10
1.7245
 20
1.61632
 30
0.0
 40
0.0393701
 41
0.0393701
  0
VERTEX
  8
0
 10
1.64844
 20
1.69829
 30
0.0
 40
0.0393701
 41
0.0393701
  0
VERTEX
  8
0
 10
1.56104
 20
1.76801
 30
0.0
 40
0.0393701
 41
0.0393701
  0
VERTEX
  8
0
 10
1.46419
 20
1.82389
 30
0.0
 40
0.0393701
 41
0.0393701
  0
VERTEX
  8
0
 10
1.36013
 20
1.86475
 30
0.0
 40
0.0393701
 41
0.0393701
  0
VERTEX
  8
0
 10
1.25114
 20
1.8896
 30
0.0
 40
0.0393701
 41
0.0393701
  0
VERTEX
  8
0
 10
1.13965
 20
1.89794
 30
0.0
 40
0.0393701
 41
0.0393701
  0
VERTEX
  8
0
 10
1.02816
 20
1.8896
 30
0.0
 40
0.0393701
 41
0.0393701
  0
VERTEX
  8
0
 10
0.919163
 20
1.86475
 30
0.0
 40
0.0393701
 41
0.0393701
  0
VERTEX
  8
0
 10
0.815104
 20
1.82389
 30
0.0
 40
0.0393701
 41
0.0393701
  0
VERTEX
  8
0
 10
0.718261
 20
1.76801
 30
0.0
 40
0.0393701
 41
0.0393701
  0
VERTEX
  8
0
 10
0.63086
 20
1.69829
 30
0.0
 40
0.0393701
 41
0.0393701
  0
VERTEX
  8
0
 10
0.554796
 20
1.61632
 30
0.0
 40
0.0393701
 41
0.0393701
  0
VERTEX
  8
0
 10
0.491808
 20
1.52393
 30
0.0
 40
0.0393701
 41
0.0393701
  0
VERTEX
  8
0
 10
0.443306
 20
1.42324
 30
0.0
 40
0.0393701
 41
0.0393701
  0
VERTEX
  8
0
 10
0.410374
 20
1.31641
 30
0.0
 40
0.0393701
 41
0.0393701
  0
VERTEX
  8
0
 10
0.393718
 20
1.20584
 30
0.0
 40
0.0393701
 41
0.0393701
  0
VERTEX
  8
0
 10
0.393718
 20
1.09402
 30
0.0
 40
0.0393701
 41
0.0393701
  0
VERTEX
  8
0
 10
0.410374
 20
0.983507
 30
0.0
 40
0.0393701
 41
0.0393701
  0
VERTEX
  8
0
 10
0.443306
 20
0.876628
 30
0.0
 40
0.0393701
 41
0.0393701
  0
VERTEX
  8
0
 10
0.491808
 20
0.775933
 30
0.0
 40
0.0393701
 41
0.0393701
  0
VERTEX
  8
0
 10
0.554796
 20
0.683539
 30
0.0
 40
0.0393701
 41
0.0393701
  0
VERTEX
  8
0
 10
0.63086
 20
0.601563
 30
0.0
 40
0.0393701
 41
0.0393701
  0
SEQEND
 8
0
  0
POLYLINE
  8
0
 62
     5
 66
     1
 10
0
 20
0
 30
0.0
 70
     1
 40
2.83465
 41
2.83465
  0
VERTEX
  8
0
 10
1.3004
 20
1.07541
 30
0.0
 40
0.0393701
 41
0.0393701
  0
VERTEX
  8
0
 10
1.28749
 20
1.0523
 30
0.0
 40
0.0393701
 41
0.0393701
  0
VERTEX
  8
0
 10
1.27127
 20
1.03136
 30
0.0
 40
0.0393701
 41
0.0393701
  0
VERTEX
  8
0
 10
1.25212
 20
1.01307
 30
0.0
 40
0.0393701
 41
0.0393701
  0
VERTEX
  8
0
 10
1.23047
 20
0.997831
 30
0.0
 40
0.0393701
 41
0.0393701
  0
VERTEX
  8
0
 10
1.20676
 20
0.986003
 30
0.0
 40
0.0393701
 41
0.0393701
  0
VERTEX
  8
0
 10
1.18159
 20
0.97781
 30
0.0
 40
0.0393701
 41
0.0393701
  0
VERTEX
  8
0
 10
1.15549
 20
0.973469
 30
0.0
 40
0.0393701
 41
0.0393701
  0
VERTEX
  8
0
 10
1.12902
 20
0.97309
 30
0.0
 40
0.0393701
 41
0.0393701
  0
VERTEX
  8
0
 10
1.10276
 20
0.976671
 30
0.0
 40
0.0393701
 41
0.0393701
  0
VERTEX
  8
0
 10
1.07737
 20
0.984104
 30
0.0
 40
0.0393701
 41
0.0393701
  0
VERTEX
  8
0
 10
1.05333
 20
0.995226
 30
0.0
 40
0.0393701
 41
0.0393701
  0
VERTEX
  8
0
 10
1.03125
 20
1.00982
 30
0.0
 40
0.0393701
 41
0.0393701
  0
VERTEX
  8
0
 10
1.01156
 20
1.02756
 30
0.0
 40
0.0393701
 41
0.0393701
  0
VERTEX
  8
0
 10
0.994738
 20
1.04801
 30
0.0
 40
0.0393701
 41
0.0393701
  0
VERTEX
  8
0
 10
0.981174
 20
1.07075
 30
0.0
 40
0.0393701
 41
0.0393701
  0
VERTEX
  8
0
 10
0.971137
 20
1.09522
 30
0.0
 40
0.0393701
 41
0.0393701
  0
VERTEX
  8
0
 10
0.964844
 20
1.12093
 30
0.0
 40
0.0393701
 41
0.0393701
  0
VERTEX
  8
0
 10
0.962511
 20
1.14735
 30
0.0
 40
0.0393701
 41
0.0393701
  0
VERTEX
  8
0
 10
0.964085
 20
1.17377
 30
0.0
 40
0.0393701
 41
0.0393701
  0
VERTEX
  8
0
 10
0.969618
 20
1.19965
 30
0.0
 40
0.0393701
 41
0.0393701
  0
VERTEX
  8
0
 10
0.978896
 20
1.22445
 30
0.0
 40
0.0393701
 41
0.0393701
  0
VERTEX
  8
0
 10
0.991808
 20
1.24756
 30
0.0
 40
0.0393701
 41
0.0393701
  0
VERTEX
  8
0
 10
1.00803
 20
1.2685
 30
0.0
 40
0.0393701
 41
0.0393701
  0
VERTEX
  8
0
 10
1.02718
 20
1.28678
 30
0.0
 40
0.0393701
 41
0.0393701
  0
VERTEX
  8
0
 10
1.04883
 20
1.30203
 30
0.0
 40
0.0393701
 41
0.0393701
  0
VERTEX
  8
0
 10
1.07248
 20
1.31386
 30
0.0
 40
0.0393701
 41
0.0393701
  0
VERTEX
  8
0
 10
1.09766
 20
1.32205
 30
0.0
 40
0.0393701
 41
0.0393701
  0
VERTEX
  8
0
 10
1.12381
 20
1.32639
 30
0.0
 40
0.0393701
 41
0.0393701
  0
VERTEX
  8
0
 10
1.15028
 20
1.32677
 30
0.0
 40
0.0393701
 41
0.0393701
  0
VERTEX
  8
0
 10
1.17654
 20
1.32324
 30
0.0
 40
0.0393701
 41
0.0393701
  0
VERTEX
  8
0
 10
1.20193
 20
1.31581
 30
0.0
 40
0.0393701
 41
0.0393701
  0
VERTEX
  8
0
 10
1.22597
 20
1.30463
 30
0.0
 40
0.0393701
 41
0.0393701
  0
VERTEX
  8
0
 10
1.24805
 20
1.29004
 30
0.0
 40
0.0393701
 41
0.0393701
  0
VERTEX
  8
0
 10
1.26774
 20
1.27235
 30
0.0
 40
0.0393701
 41
0.0393701
  0
VERTEX
  8
0
 10
1.28456
 20
1.2519
 30
0.0
 40
0.0393701
 41
0.0393701
  0
VERTEX
  8
0
 10
1.29812
 20
1.22917
 30
0.0
 40
0.0393701
 41
0.0393701
  0
VERTEX
  8
0
 10
1.30816
 20
1.20464
 30
0.0
 40
0.0393701
 41
0.0393701
  0
VERTEX
  8
0
 10
1.3144
 20
1.17893
 30
0.0
 40
0.0393701
 41
0.0393701
  0
VERTEX
  8
0
 10
1.31679
 20
1.15256
 30
0.0
 40
0.0393701
 41
0.0393701
  0
VERTEX
  8
0
 10
1.31521
 20
1.12608
 30
0.0
 40
0.0393701
 41
0.0393701
  0
VERTEX
  8
0
 10
1.30968
 20
1.10021
 30
0.0
 40
0.0393701
 41
0.0393701
  0
VERTEX
  8
0
 10
1.3004
 20
1.07541
 30
0.0
 40
0.0393701
 41
0.0393701
  0
SEQEND
 8
0
  0
POLYLINE
  8
0
 62
     5
 66
     1
 10
0
 20
0
 30
0.0
 40
2.83465
 41
2.83465
  0
VERTEX
  8
0
 10
0.807075
 20
0.768664
 30
0.0
 40
0.0393701
 41
0.0393701
  0
VERTEX
  8
0
 10
0.740235
 20
0.671332
 30
0.0
 40
0.0393701
 41
0.0393701
  0
VERTEX
  8
0
 10
0.837565
 20
0.604438
 30
0.0
 40
0.0393701
 41
0.0393701
  0
SEQEND
 8
0
  0
POLYLINE
  8
0
 62
     5
 66
     1
 10
0
 20
0
 30
0.0
 40
2.83465
 41
2.83465
  0
VERTEX
  8
0
 10
1.52403
 20
1.37326
 30
0.0
 40
0.0393701
 41
0.0393701
  0
VERTEX
  8
0
 10
1.62631
 20
1.43229
 30
0.0
 40
0.0393701
 41
0.0393701
  0
SEQEND
 8
0
  0
POLYLINE
  8
0
 62
     5
 66
     1
 10
0
 20
0
 30
0.0
 40
2.83465
 41
2.83465
  0
VERTEX
  8
0
 10
1.56722
 20
1.53456
 30
0.0
 40
0.0393701
 41
0.0393701
  0
VERTEX
  8
0
 10
1.46496
 20
1.47553
 30
0.0
 40
0.0393701
 41
0.0393701
  0
SEQEND
 8
0
  0
POLYLINE
  8
0
 62
     5
 66
     1
 10
0
 20
0
 30
0.0
 40
2.83465
 41
2.83465
  0
VERTEX
  8
0
 10
1.12006
 20
1.57758
 30
0.0
 40
0.0393701
 41
0.0393701
  0
VERTEX
  8
0
 10
1.19135
 20
1.48335
 30
0.0
 40
0.0393701
 41
0.0393701
  0
VERTEX
  8
0
 10
1.28554
 20
1.55458
 30
0.0
 40
0.0393701
 41
0.0393701
  0
SEQEND
 8
0
  0
POLYLINE
  8
0
 62
     5
 66
     1
 10
0
 20
0
 30
0.0
 40
2.83465
 41
2.83465
  0
VERTEX
  8
0
 10
1.66276
 20
0.945637
 30
0.0
 40
0.0393701
 41
0.0393701
  0
VERTEX
  8
0
 10
1.70594
 20
1.05561
 30
0.0
 40
0.0393701
 41
0.0393701
  0
SEQEND
 8
0
  0
POLYLINE
  8
0
 62
     5
 66
     1
 10
0
 20
0
 30
0.0
 40
2.83465
 41
2.83465
  0
VERTEX
  8
0
 10
1.59597
 20
1.09874
 30
0.0
 40
0.0393701
 41
0.0393701
  0
VERTEX
  8
0
 10
1.55285
 20
0.988824
 30
0.0
 40
0.0393701
 41
0.0393701
  0
SEQEND
 8
0
  0
POLYLINE
  8
0
 62
     5
 66
     1
 10
0
 20
0
 30
0.0
 40
2.83465
 41
2.83465
  0
VERTEX
  8
0
 10
1.23725
 20
1.81424
 30
0.0
 40
0.0393701
 41
0.0393701
  0
VERTEX
  8
0
 10
1.14307
 20
1.743
 30
0.0
 40
0.0393701
 41
0.0393701
  0
SEQEND
 8
0
  0
POLYLINE
  8
0
 62
     5
 66
     1
 10
0
 20
0
 30
0.0
 40
2.83465
 41
2.83465
  0
VERTEX
  8
0
 10
1.30848
 20
1.72006
 30
0.0
 40
0.0393701
 41
0.0393701
  0
VERTEX
  8
0
 10
1.23725
 20
1.81424
 30
0.0
 40
0.0393701
 41
0.0393701
  0
SEQEND
 8
0
  0
POLYLINE
  8
0
 62
     5
 66
     1
 10
0
 20
0
 30
0.0
 40
2.83465
 41
2.83465
  0
VERTEX
  8
0
 10
1.09679
 20
0.76454
 30
0.0
 40
0.0393701
 41
0.0393701
  0
VERTEX
  8
0
 10
1.15582
 20
0.662272
 30
0.0
 40
0.0393701
 41
0.0393701
  0
SEQEND
 8
0
  0
POLYLINE
  8
0
 62
     5
 66
     1
 10
0
 20
0
 30
0.0
 40
2.83465
 41
2.83465
  0
VERTEX
  8
0
 10
1.19906
 20
0.823568
 30
0.0
 40
0.0393701
 41
0.0393701
  0
VERTEX
  8
0
 10
1.09679
 20
0.76454
 30
0.0
 40
0.0393701
 41
0.0393701
  0
SEQEND
 8
0
  0
POLYLINE
  8
0
 62
     1
 66
     1
 10
0
 20
0
 30
0.0
 70
     1
 40
2.83465
 41
2.83465
  0
VERTEX
  8
0
 10
0.839626
 20
1.56088
 30
0.0
 40
0.0393701
 41
0.0393701
  0
VERTEX
  8
0
 10
0.758029
 20
1.64626
 30
0.0
 40
0.0393701
 41
0.0393701
  0
VERTEX
  8
0
 10
0.672635
 20
1.56467
 30
0.0
 40
0.0393701
 41
0.0393701
  0
VERTEX
  8
0
 10
0.754232
 20
1.47928
 30
0.0
 40
0.0393701
 41
0.0393701
  0
VERTEX
  8
0
 10
0.839626
 20
1.56088
 30
0.0
 40
0.0393701
 41
0.0393701
  0
SEQEND
 8
0
  0
POLYLINE
  8
0
 62
     1
 66
     1
 10
0
 20
0
 30
0.0
 70
     1
 40
2.83465
 41
2.83465
  0
VERTEX
  8
0
 10
1.2143
 20
1.64882
 30
0.0
 40
0.0393701
 41
0.0393701
  0
VERTEX
  8
0
 10
1.14307
 20
1.743
 30
0.0
 40
0.0393701
 41
0.0393701
  0
VERTEX
  8
0
 10
1.04883
 20
1.67176
 30
0.0
 40
0.0393701
 41
0.0393701
  0
VERTEX
  8
0
 10
1.12006
 20
1.57758
 30
0.0
 40
0.0393701
 41
0.0393701
  0
VERTEX
  8
0
 10
1.2143
 20
1.64882
 30
0.0
 40
0.0393701
 41
0.0393701
  0
SEQEND
 8
0
  0
POLYLINE
  8
0
 62
     1
 66
     1
 10
0
 20
0
 30
0.0
 70
     1
 40
2.83465
 41
2.83465
  0
VERTEX
  8
0
 10
0.515354
 20
1.16238
 30
0.0
 40
0.0393701
 41
0.0393701
  0
VERTEX
  8
0
 10
0.524197
 20
1.0446
 30
0.0
 40
0.0393701
 41
0.0393701
  0
VERTEX
  8
0
 10
0.641982
 20
1.05344
 30
0.0
 40
0.0393701
 41
0.0393701
  0
VERTEX
  8
0
 10
0.633137
 20
1.17122
 30
0.0
 40
0.0393701
 41
0.0393701
  0
VERTEX
  8
0
 10
0.515354
 20
1.16238
 30
0.0
 40
0.0393701
 41
0.0393701
  0
SEQEND
 8
0
  0
POLYLINE
  8
0
 62
     1
 66
     1
 10
0
 20
0
 30
0.0
 70
     1
 40
2.83465
 41
2.83465
  0
VERTEX
  8
0
 10
1.28554
 20
1.55458
 30
0.0
 40
0.0393701
 41
0.0393701
  0
VERTEX
  8
0
 10
1.37972
 20
1.62588
 30
0.0
 40
0.0393701
 41
0.0393701
  0
VERTEX
  8
0
 10
1.30848
 20
1.72006
 30
0.0
 40
0.0393701
 41
0.0393701
  0
VERTEX
  8
0
 10
1.2143
 20
1.64882
 30
0.0
 40
0.0393701
 41
0.0393701
  0
VERTEX
  8
0
 10
1.28554
 20
1.55458
 30
0.0
 40
0.0393701
 41
0.0393701
  0
SEQEND
 8
0
  0
POLYLINE
  8
0
 62
     1
 66
     1
 10
0
 20
0
 30
0.0
 70
     1
 40
2.83465
 41
2.83465
  0
VERTEX
  8
0
 10
1.55285
 20
0.988824
 30
0.0
 40
0.0393701
 41
0.0393701
  0
VERTEX
  8
0
 10
1.50965
 20
0.878851
 30
0.0
 40
0.0393701
 41
0.0393701
  0
VERTEX
  8
0
 10
1.61962
 20
0.835721
 30
0.0
 40
0.0393701
 41
0.0393701
  0
VERTEX
  8
0
 10
1.66276
 20
0.945637
 30
0.0
 40
0.0393701
 41
0.0393701
  0
VERTEX
  8
0
 10
1.55285
 20
0.988824
 30
0.0
 40
0.0393701
 41
0.0393701
  0
SEQEND
 8
0
  0
POLYLINE
  8
0
 62
     1
 66
     1
 10
0
 20
0
 30
0.0
 70
     1
 40
2.83465
 41
2.83465
  0
VERTEX
  8
0
 10
0.9713
 20
0.799208
 30
0.0
 40
0.0393701
 41
0.0393701
  0
VERTEX
  8
0
 10
0.873915
 20
0.866049
 30
0.0
 40
0.0393701
 41
0.0393701
  0
VERTEX
  8
0
 10
0.807075
 20
0.768664
 30
0.0
 40
0.0393701
 41
0.0393701
  0
VERTEX
  8
0
 10
0.90446
 20
0.701824
 30
0.0
 40
0.0393701
 41
0.0393701
  0
VERTEX
  8
0
 10
0.9713
 20
0.799208
 30
0.0
 40
0.0393701
 41
0.0393701
  0
SEQEND
 8
0
  0
POLYLINE
  8
0
 62
     1
 66
     1
 10
0
 20
0
 30
0.0
 70
     1
 40
2.83465
 41
2.83465
  0
VERTEX
  8
0
 10
1.31717
 20
0.619032
 30
0.0
 40
0.0393701
 41
0.0393701
  0
VERTEX
  8
0
 10
1.25808
 20
0.7213
 30
0.0
 40
0.0393701
 41
0.0393701
  0
VERTEX
  8
0
 10
1.15582
 20
0.662272
 30
0.0
 40
0.0393701
 41
0.0393701
  0
VERTEX
  8
0
 10
1.2149
 20
0.55995
 30
0.0
 40
0.0393701
 41
0.0393701
  0
VERTEX
  8
0
 10
1.31717
 20
0.619032
 30
0.0
 40
0.0393701
 41
0.0393701
  0
SEQEND
 8
0
  0
POLYLINE
  8
0
 62
     1
 66
     1
 10
0
 20
0
 30
0.0
 40
2.83465
 41
2.83465
  0
VERTEX
  8
0
 10
0.633137
 20
1.17122
 30
0.0
 40
0.0393701
 41
0.0393701
  0
VERTEX
  8
0
 10
0.624294
 20
1.28895
 30
0.0
 40
0.0393701
 41
0.0393701
  0
VERTEX
  8
0
 10
0.506511
 20
1.28017
 30
0.0
 40
0.0393701
 41
0.0393701
  0
VERTEX
  8
0
 10
0.515354
 20
1.16238
 30
0.0
 40
0.0393701
 41
0.0393701
  0
SEQEND
 8
0
  0
POLYLINE
  8
0
 62
     1
 66
     1
 10
0
 20
0
 30
0.0
 70
     1
 40
2.83465
 41
2.83465
  0
VERTEX
  8
0
 10
1.19906
 20
0.823568
 30
0.0
 40
0.0393701
 41
0.0393701
  0
VERTEX
  8
0
 10
1.25808
 20
0.7213
 30
0.0
 40
0.0393701
 41
0.0393701
  0
VERTEX
  8
0
 10
1.36041
 20
0.780382
 30
0.0
 40
0.0393701
 41
0.0393701
  0
VERTEX
  8
0
 10
1.30132
 20
0.88265
 30
0.0
 40
0.0393701
 41
0.0393701
  0
VERTEX
  8
0
 10
1.19906
 20
0.823568
 30
0.0
 40
0.0393701
 41
0.0393701
  0
SEQEND
 8
0
  0
POLYLINE
  8
0
 62
     1
 66
     1
 10
0
 20
0
 30
0.0
 40
2.83465
 41
2.83465
  0
VERTEX
  8
0
 10
1.50965
 20
0.878851
 30
0.0
 40
0.0393701
 41
0.0393701
  0
VERTEX
  8
0
 10
1.46653
 20
0.768935
 30
0.0
 40
0.0393701
 41
0.0393701
  0
VERTEX
  8
0
 10
1.57644
 20
0.725749
 30
0.0
 40
0.0393701
 41
0.0393701
  0
VERTEX
  8
0
 10
1.61962
 20
0.835721
 30
0.0
 40
0.0393701
 41
0.0393701
  0
SEQEND
 8
0
  0
POLYLINE
  8
0
 62
     1
 66
     1
 10
0
 20
0
 30
0.0
 40
2.83465
 41
2.83465
  0
VERTEX
  8
0
 10
0.641982
 20
1.05344
 30
0.0
 40
0.0393701
 41
0.0393701
  0
VERTEX
  8
0
 10
0.759765
 20
1.06223
 30
0.0
 40
0.0393701
 41
0.0393701
  0
VERTEX
  8
0
 10
0.750922
 20
1.18001
 30
0.0
 40
0.0393701
 41
0.0393701
  0
VERTEX
  8
0
 10
0.633137
 20
1.17122
 30
0.0
 40
0.0393701
 41
0.0393701
  0
SEQEND
 8
0
  0
POLYLINE
  8
0
 62
     1
 66
     1
 10
0
 20
0
 30
0.0
 40
2.83465
 41
2.83465
  0
VERTEX
  8
0
 10
0.754232
 20
1.47928
 30
0.0
 40
0.0393701
 41
0.0393701
  0
VERTEX
  8
0
 10
0.835829
 20
1.39388
 30
0.0
 40
0.0393701
 41
0.0393701
  0
SEQEND
 8
0
  0
POLYLINE
  8
0
 62
     1
 66
     1
 10
0
 20
0
 30
0.0
 40
2.83465
 41
2.83465
  0
VERTEX
  8
0
 10
0.873915
 20
0.866049
 30
0.0
 40
0.0393701
 41
0.0393701
  0
VERTEX
  8
0
 10
0.776585
 20
0.932889
 30
0.0
 40
0.0393701
 41
0.0393701
  0
VERTEX
  8
0
 10
0.70969
 20
0.835558
 30
0.0
 40
0.0393701
 41
0.0393701
  0
VERTEX
  8
0
 10
0.807075
 20
0.768664
 30
0.0
 40
0.0393701
 41
0.0393701
  0
SEQEND
 8
0
  0
POLYLINE
  8
0
 62
     1
 66
     1
 10
0
 20
0
 30
0.0
 40
2.83465
 41
2.83465
  0
VERTEX
  8
0
 10
0.758029
 20
1.64626
 30
0.0
 40
0.0393701
 41
0.0393701
  0
VERTEX
  8
0
 10
0.843425
 20
1.72786
 30
0.0
 40
0.0393701
 41
0.0393701
  0
VERTEX
  8
0
 10
0.925022
 20
1.64247
 30
0.0
 40
0.0393701
 41
0.0393701
  0
VERTEX
  8
0
 10
0.839626
 20
1.56088
 30
0.0
 40
0.0393701
 41
0.0393701
  0
SEQEND
 8
0
  0
POLYLINE
  8
0
 62
     1
 66
     1
 10
0
 20
0
 30
0.0
 40
2.83465
 41
2.83465
  0
VERTEX
  8
0
 10
0.641982
 20
1.05344
 30
0.0
 40
0.0393701
 41
0.0393701
  0
VERTEX
  8
0
 10
0.650771
 20
0.935656
 30
0.0
 40
0.0393701
 41
0.0393701
  0
VERTEX
  8
0
 10
0.532986
 20
0.926812
 30
0.0
 40
0.0393701
 41
0.0393701
  0
VERTEX
  8
0
 10
0.524197
 20
1.0446
 30
0.0
 40
0.0393701
 41
0.0393701
  0
SEQEND
 8
0
  0
POLYLINE
  8
0
 62
     1
 66
     1
 10
0
 20
0
 30
0.0
 40
2.83465
 41
2.83465
  0
VERTEX
  8
0
 10
1.31717
 20
0.619032
 30
0.0
 40
0.0393701
 41
0.0393701
  0
VERTEX
  8
0
 10
1.37619
 20
0.51671
 30
0.0
 40
0.0393701
 41
0.0393701
  0
VERTEX
  8
0
 10
1.27393
 20
0.457682
 30
0.0
 40
0.0393701
 41
0.0393701
  0
VERTEX
  8
0
 10
1.2149
 20
0.55995
 30
0.0
 40
0.0393701
 41
0.0393701
  0
SEQEND
 8
0
  0
POLYLINE
  8
0
 62
     1
 66
     1
 10
0
 20
0
 30
0.0
 40
2.83465
 41
2.83465
  0
VERTEX
  8
0
 10
0.835829
 20
1.39388
 30
0.0
 40
0.0393701
 41
0.0393701
  0
VERTEX
  8
0
 10
0.750435
 20
1.31228
 30
0.0
 40
0.0393701
 41
0.0393701
  0
VERTEX
  8
0
 10
0.668837
 20
1.39768
 30
0.0
 40
0.0393701
 41
0.0393701
  0
VERTEX
  8
0
 10
0.754232
 20
1.47928
 30
0.0
 40
0.0393701
 41
0.0393701
  0
SEQEND
 8
0
  0
POLYLINE
  8
0
 62
     1
 66
     1
 10
0
 20
0
 30
0.0
 70
     1
 40
2.83465
 41
2.83465
  0
VERTEX
  8
0
 10
0.837565
 20
0.604438
 30
0.0
 40
0.0393701
 41
0.0393701
  0
VERTEX
  8
0
 10
0.90446
 20
0.701824
 30
0.0
 40
0.0393701
 41
0.0393701
  0
VERTEX
  8
0
 10
1.00179
 20
0.634983
 30
0.0
 40
0.0393701
 41
0.0393701
  0
VERTEX
  8
0
 10
0.93495
 20
0.537597
 30
0.0
 40
0.0393701
 41
0.0393701
  0
VERTEX
  8
0
 10
0.837565
 20
0.604438
 30
0.0
 40
0.0393701
 41
0.0393701
  0
SEQEND
 8
0
  0
POLYLINE
  8
0
 62
     1
 66
     1
 10
0
 20
0
 30
0.0
 70
     1
 40
2.83465
 41
2.83465
  0
VERTEX
  8
0
 10
1.72857
 20
1.49137
 30
0.0
 40
0.0393701
 41
0.0393701
  0
VERTEX
  8
0
 10
1.62631
 20
1.43229
 30
0.0
 40
0.0393701
 41
0.0393701
  0
VERTEX
  8
0
 10
1.56722
 20
1.53456
 30
0.0
 40
0.0393701
 41
0.0393701
  0
VERTEX
  8
0
 10
1.66954
 20
1.59364
 30
0.0
 40
0.0393701
 41
0.0393701
  0
VERTEX
  8
0
 10
1.72857
 20
1.49137
 30
0.0
 40
0.0393701
 41
0.0393701
  0
SEQEND
 8
0
  0
POLYLINE
  8
0
 62
     1
 66
     1
 10
0
 20
0
 30
0.0
 70
     1
 40
2.83465
 41
2.83465
  0
VERTEX
  8
0
 10
1.70594
 20
1.05561
 30
0.0
 40
0.0393701
 41
0.0393701
  0
VERTEX
  8
0
 10
1.59597
 20
1.09874
 30
0.0
 40
0.0393701
 41
0.0393701
  0
VERTEX
  8
0
 10
1.63911
 20
1.20871
 30
0.0
 40
0.0393701
 41
0.0393701
  0
VERTEX
  8
0
 10
1.74908
 20
1.16553
 30
0.0
 40
0.0393701
 41
0.0393701
  0
VERTEX
  8
0
 10
1.70594
 20
1.05561
 30
0.0
 40
0.0393701
 41
0.0393701
  0
SEQEND
 8
0
  0
POLYLINE
  8
0
 62
     1
 66
     1
 10
0
 20
0
 30
0.0
 70
     1
 40
2.83465
 41
2.83465
  0
VERTEX
  8
0
 10
1.48079
 20
1.21191
 30
0.0
 40
0.0393701
 41
0.0393701
  0
VERTEX
  8
0
 10
1.42171
 20
1.31418
 30
0.0
 40
0.0393701
 41
0.0393701
  0
VERTEX
  8
0
 10
1.36268
 20
1.41644
 30
0.0
 40
0.0393701
 41
0.0393701
  0
VERTEX
  8
0
 10
1.46496
 20
1.47553
 30
0.0
 40
0.0393701
 41
0.0393701
  0
VERTEX
  8
0
 10
1.52403
 20
1.37326
 30
0.0
 40
0.0393701
 41
0.0393701
  0
VERTEX
  8
0
 10
1.58306
 20
1.27094
 30
0.0
 40
0.0393701
 41
0.0393701
  0
VERTEX
  8
0
 10
1.48079
 20
1.21191
 30
0.0
 40
0.0393701
 41
0.0393701
  0
SEQEND
 8
0
  0
POLYLINE
  8
0
 62
     1
 66
     1
 10
0
 20
0
 30
0.0
 40
2.83465
 41
2.83465
  0
VERTEX
  8
0
 10
1.52403
 20
1.37326
 30
0.0
 40
0.0393701
 41
0.0393701
  0
VERTEX
  8
0
 10
1.42171
 20
1.31418
 30
0.0
 40
0.0393701
 41
0.0393701
  0
SEQEND
 8
0
  0
ENDSEC
  0
EOF
