<?xml version="1.0" standalone="no"?>
<!DOCTYPE svg PUBLIC "-//W3C//DTD SVG 1.1//EN" "http://www.w3.org/Graphics/SVG/1.1/DTD/svg11.dtd">
<svg width="57.893744292884826mm" height="57.99999999999999mm"
 viewBox="0 0 57.893744292884826 57.99999999999999"
 xmlns="http://www.w3.org/2000/svg" version="1.1"
 xmlns:xlink="http://www.w3.org/1999/xlink">
<desc>Output from Flights of Ideas SVG Sketchup Plugin</desc>

  <path id="face0-cut"
 style="fill:none;stroke:#0000FF;stroke-width:1;stroke-miterlimit:4;stroke-dasharray:none;stroke-linejoin:round;stroke-linecap:round"
        d="M 18.2437910432336,13.3014632879961 L 16.023590128794936,15.0720144352333 L 14.092073979549852,17.153693764684057 L 12.492389474538072,19.500000000000007 L 11.260270922202537,22.058520537038497 L 10.423241814987776,24.772102254830024 L 10.0,27.58012822185794 L 10.0,30.41987177814206 L 10.423241814987776,33.22789774516996 L 11.260270922202537,35.94147946296152 L 12.492389474538086,38.50000000000001 L 14.092073979549838,40.84630623531593 L 16.023590128794964,42.92798556476671 L 18.2437910432336,44.69853671200389 L 20.703081103208802,46.11840849014596 L 23.346523832635242,47.15588330993666 L 26.1150690890951,47.78778569827744 L 28.946872146442416,47.99999999999999 L 31.77867520378973,47.78778569827744 L 34.547220460249605,47.15588330993666 L 37.19066318967601,46.118408490145974 L 39.64995324965123,44.69853671200391 L 41.87015416408989,42.92798556476671 L 43.801670313334974,40.84630623531594 L 45.40135481834674,38.50000000000001 L 46.63347337068229,35.9414794629615 L 47.47050247789704,33.227897745169976 L 47.89374429288482,30.41987177814206 L 47.893744292884826,27.580128221857926 L 47.47050247789706,24.77210225483004 L 46.63347337068229,22.05852053703849 L 45.40135481834674,19.499999999999986 L 43.801670313334974,17.153693764684093 L 41.87015416408989,15.072014435233271 L 39.64995324965123,13.3014632879961 L 37.19066318967603,11.881591509854069 L 34.547220460249605,10.844116690063345 L 31.77867520378973,10.212214301722561 L 28.946872146442416,10.0 L 26.1150690890951,10.212214301722561 L 23.346523832635228,10.84411669006333 L 20.703081103208817,11.881591509854033 L 18.2437910432336,13.3014632879961 M 38.36081306736527,40.815990038768014 L 36.34070610934296,38.28285603557155 L 37.33407582375737,37.395126584347544 L 38.22180527498143,36.40175686993309 L 38.99273075009326,35.315239092853524 L 39.63715741394198,34.14923684456797 L 40.14698122732463,32.918413279878656 L 40.51579085998136,31.63824671925233 L 40.738948316792914,30.3248359999586 L 40.81364726326122,28.994698023851335 L 44.053647263261276,28.99469802385135 L 43.95857587684703,30.687600902533354 L 43.67455729545032,32.359214545270795 L 43.20516321752374,33.98851744061343 L 42.556296545945806,35.555020159308846 L 41.73611715559285,37.03902302076326 L 40.7549392781778,38.42186382795537 L 39.625101794801786,39.68615255539195 L 38.36081306736527,40.815990038768014 M 22.373325127803724,15.37204874116668 L 23.779108442544626,18.291187873170593 L 22.613106194259018,18.935614537019262 L 21.526588417179454,19.70654001213112 L 20.53321870276504,20.59426946335509 L 19.645489251541022,21.58763917776959 L 17.1123552483446,19.56753221974723 L 18.24219273172058,18.303243492310692 L 19.506481459157143,17.173406008934656 L 17.48637450113489,14.640272005738275 L 19.16553833843959,13.448841726020042 L 19.224365398907864,13.437271793329103 L 20.967541813062823,12.452909609162823 L 22.869723685764313,11.665000079389714 L 24.848162915823238,11.095021556193018 L 25.569130741841747,14.253787991662115 L 23.939827846499128,14.72318206958883 L 22.373325127803724,15.37204874116668 M 30.989315044517966,10.750141850211378 L 31.050978855549886,10.758982667031034 L 31.99005420796702,10.920174272945971 L 32.988727729060955,11.09159586146447 L 33.01913161069916,11.095021556193004 L 34.56667097156243,11.540859965628158 L 34.9975708407581,11.6650000793897 L 35.05709893101347,11.680492160199556 L 36.89975271345959,12.45290960916278 L 34.0881860839778,18.291187873170593 L 32.85736251928856,17.781364059787933 L 31.577195958662244,17.412554427131298 L 30.2637852393686,17.189396970319613 L 28.93364726326122,17.11469802385126 L 28.93364726326122,10.634698023851293 L 30.989315044517966,10.750141850211378 M 18.23013711258045,23.840159203134682 L 17.720313299197826,25.070982767823914 L 17.35150366654115,26.351149328450298 L 17.1283462097295,27.664560047743997 L 17.053647263261198,28.994698023851335 L 17.1283462097295,30.3248359999586 L 17.35150366654115,31.63824671925233 L 14.192737231072016,32.359214545270795 L 13.908718649675379,30.687600902533298 L 13.813647263261231,28.994698023851335 L 13.908718649675379,27.301795145169258 L 14.192737231072016,25.630181502431817 L 11.06859506369797,24.917116439661605 L 11.64783262420113,22.90501543216238 L 12.422629609945574,21.04341099133149 L 18.23013711258045,23.840159203134682 M 46.8333237309195,24.909213676413422 L 40.51579085998136,26.35114932845034 L 40.14698122732463,25.070982767823914 L 39.63715741394198,23.840159203134682 L 38.99273075009326,22.674156954849117 L 38.22180527498143,21.58763917776959 L 37.33407582375737,20.59426946335509 L 36.34070610934296,19.70654001213112 L 38.36081306736527,17.173406008934656 L 39.62510179480183,18.30324349231072 L 40.7549392781778,19.56753221974725 L 41.73611715559285,20.950373026939417 L 42.556296545945806,22.43437588839381 L 45.475435677949655,21.028592573652922 L 45.51757836173745,21.060450428396045 L 46.26334520772286,22.930774446354498 L 46.8333237309195,24.909213676413422 M 19.50648145915713,40.815990038768014 L 17.486374501134875,43.34912404196435 L 15.96217128356875,41.95598910949342 L 14.579221245148162,40.44197078597768 L 17.1123552483446,38.42186382795537 L 16.13117737092952,37.03902302076323 L 15.310997980576659,35.555020159308846 L 18.23013711258045,34.14923684456797 L 18.8745637764292,35.315239092853524 L 19.645489251541008,36.40175686993309 L 20.533218702765026,37.395126584347544 L 21.526588417179454,38.28285603557155 L 22.61310619425899,39.05378151068334 L 23.779108442544626,39.69820817453208 L 22.373325127803724,42.617347306535926 L 20.88932226634934,41.79716791618302 L 19.50648145915713,40.815990038768014 M 30.2637852393686,40.79999907738304 L 31.577195958662244,40.57684162057142 L 32.29816378468064,43.73560805604054 L 33.92746668002337,43.26621397811386 L 35.493969398718704,42.617347306535926 L 36.89975271345959,45.53648643853976 L 34.998426859418316,46.33481198476591 L 33.01913161069916,46.89437449150959 L 30.98920940581837,47.242750977640505 L 28.93364726326122,47.35469802385132 L 28.93364726326122,44.11469802385134 L 27.240744384579187,44.01962663743715 L 25.569130741841718,43.73560805604054 L 26.290098567860227,40.57684162057142 L 27.603509287153926,40.79999907738304 L 28.93364726326122,40.87469802385133 L 30.2637852393686,40.79999907738304 M 28.320189366121227,39.18691285910119 L 28.28572696095614,39.183742016096055 L 27.760153651363495,39.120719417844036 L 27.184259232688177,39.052651556512366 L 26.31307759526007,38.848808965887606 L 26.070504085915402,38.79205063853387 L 26.037039589999807,38.78512931614362 L 24.99293004298933,38.4083873129135 L 26.388694602233684,35.08997786030559 L 27.08594839471516,35.33823060041292 L 27.806613489685844,35.50685472381074 L 28.541627105436646,35.593729684309416 L 29.281746019284654,35.59776297887458 L 29.464009505704595,39.19314613252005 L 28.320189366121227,39.18691285910119 M 23.384500149841074,22.712423793141575 L 24.576592180771172,24.061095951152204 L 24.050397107967157,24.581587084081043 L 23.585787156351074,25.157720633668212 L 23.188605065637248,25.782251386247246 L 22.863845631066937,26.447325505243235 L 22.615592890959647,27.14457929772481 L 22.446968767561827,27.86524439269541 L 22.360093807063166,28.600258008446225 L 22.35606051249799,29.340376922294304 L 20.558368935675276,29.43150866550426 L 20.563502219667313,28.489539138788565 L 20.674070351211,27.554067264196583 L 20.888682871899178,26.636857143324896 L 21.204640904762996,25.7494432256211 L 21.617971094216145,24.90298525598984 L 22.123475573306493,24.108127934525633 L 22.714797329908833,23.374867053232812 L 23.384500149841074,22.712423793141575 M 35.03134695729602,31.565128889138883 L 35.2795996974033,30.867875096657365 L 35.44822382080112,30.14721000168678 L 35.535098781299794,29.412196385935907 L 35.53913207586494,28.67207747208787 L 35.46027298347731,27.936160684911137 L 35.2995132029787,27.2137006049934 L 37.03185417810522,26.724829716212206 L 37.2364575351034,27.644324363380328 L 37.33682365268768,28.580945728877914 L 37.33169036869566,29.52291525559361 L 37.22112223715195,30.458387130185493 L 38.97458733631167,30.76615334479053 L 38.7097959131117,31.898845925506357 L 38.33226666707463,32.95353704359356 L 35.03134695729602,31.565128889138883 M 19.13099743513125,31.77649556695112 L 22.59567938538426,30.798753789388748 L 22.836318206478992,31.498671807361454 L 23.153809895372717,32.16724588821119 L 23.544161809864633,32.79606832495562 L 24.002465048142582,33.37723131060137 L 24.52295618107138,33.903426383405396 L 25.099089730658648,34.36803633502148 L 24.049497031516026,35.83034791806616 L 23.316236150223247,35.23902616146375 L 22.65379289013204,34.56932334153142 L 22.070497859596443,33.829661359800475 L 21.573686332061257,33.029341894853054 L 19.993562768749783,33.891437901494946 L 19.969284123839913,33.87494714196095 L 19.502893795004937,32.858187049272566 L 19.13099743513125,31.77649556695112 M 27.877529781901572,22.49355050789527 L 27.15506970198382,22.65431028839385 L 26.666198813202612,20.92196931326732 L 25.775394063055558,21.228236903751572 L 24.924481596519456,21.6323172350708 L 24.062385589877593,20.052193671759376 L 25.09486851392967,19.55576952067846 L 26.17732792442142,19.1896283381408 L 27.293817397521806,18.939238269069172 L 28.431183082658293,18.81930826186212 L 28.522314825868264,20.616999838684855 L 29.46428435258403,20.622133122676857 L 30.39975622717597,20.732701254220594 L 30.088579098677158,22.505599670571435 L 29.353565482926385,22.418724710072773 L 28.613446569078235,22.414691415507612 L 27.877529781901572,22.49355050789527 M 33.845695556846906,22.182106476316015 L 34.89528825598953,20.719794893271377 L 35.78016668207211,21.449894781313816 L 36.59007185624158,22.251039021920626 L 35.24139969823095,23.443131052850667 L 35.82469472876652,24.18279303458163 L 36.3215062563017,24.983112499529078 L 34.74138269299024,25.84520850617094 L 34.3510307784983,25.216386069426484 L 33.89272754022035,24.63522308378075 L 33.372236407291496,24.109028010976836 L 32.79610285770433,23.64441805936068 L 32.171572105125335,23.247235968646855 L 31.50649798612936,22.922476534076573 L 32.20438026575147,21.26327180777254 L 33.050838235382685,21.676601997225745 L 33.845695556846906,22.182106476316015 M 32.97071099184349,36.380137159311325 L 32.108614985201655,34.80001359599982 L 32.73743742194608,34.40966168150792 L 33.3186004075918,33.95135844322997 L 33.8447954803957,33.430867310301174 L 34.30940543201186,32.854733760713906 L 35.77171701505651,33.904326459856485 L 35.1803952584542,34.637587341149306 L 34.510692438521815,35.3000306012406 L 35.70278446945194,36.64870275925119 L 34.804623491635795,37.356989582044385 L 34.77230913269814,37.36506371263422 L 33.832806998485296,37.96026072262277 L 32.799556146262944,38.45092969636763 L 31.71786466394154,38.82282605624133 L 31.228993775160333,37.0904850811148 L 32.11979852530742,36.78421749063056 L 32.97071099184349,36.380137159311325 M 23.31581672205229,31.71177336948474 L 23.04760133201512,31.064244137219795 L 22.853572695306028,30.390755837226955 L 22.736170834609652,29.699777975645667 L 22.696872146442416,28.999999999999993 L 22.736170834609652,28.300222024354333 L 22.853572695306028,27.60924416277303 L 23.04760133201512,26.935755862780205 L 23.31581672205229,26.28822663051526 L 23.654845901265645,25.674799521779143 L 24.060425381017225,25.10318873838292 L 24.527454764026487,24.580582617584078 L 25.050060884825328,24.113553234574816 L 25.621671668221566,23.70797375482322 L 26.23509877695767,23.36894457560988 L 26.882628009222614,23.10072918557271 L 27.556116309215454,22.906700548863604 L 28.247094170796743,22.789298688167243 L 28.946872146442416,22.749999999999993 L 29.64665012208809,22.789298688167243 L 30.33762798366938,22.906700548863604 L 31.011116283662204,23.10072918557271 L 31.658645515927162,23.36894457560988 L 32.27207262466327,23.70797375482322 L 32.843683408059505,24.113553234574802 L 33.36628952885833,24.580582617584078 L 33.83331891186759,25.10318873838292 L 34.23889839161919,25.674799521779143 L 34.57792757083254,26.28822663051526 L 34.84614296086971,26.935755862780205 L 35.040171597578805,27.60924416277303 L 35.15757345827518,28.300222024354333 L 35.196872146442416,28.999999999999993 L 35.15757345827518,29.699777975645667 L 35.040171597578805,30.390755837226955 L 34.84614296086971,31.064244137219795 L 34.57792757083254,31.71177336948474 L 34.23889839161919,32.32520047822086 L 33.83331891186761,32.89681126161708 L 33.36628952885833,33.41941738241592 L 32.843683408059505,33.886446765425184 L 32.27207262466327,34.292026245176764 L 31.658645515927162,34.63105542439012 L 31.01111628366222,34.89927081442729 L 30.33762798366938,35.093299451136396 L 29.64665012208809,35.21070131183276 L 28.946872146442416,35.24999999999999 L 28.247094170796743,35.21070131183276 L 27.556116309215454,35.093299451136396 L 26.88262800922263,34.89927081442729 L 26.23509877695767,34.63105542439012 L 25.621671668221566,34.292026245176764 L 25.050060884825328,33.8864467654252 L 24.527454764026487,33.41941738241592 L 24.06042538101724,32.89681126161708 L 23.654845901265645,32.32520047822086 L 23.31581672205229,31.71177336948474 "
  />
  <path id="face0-interior"
 style="fill:none;stroke:#FF0000;stroke-width:1;stroke-miterlimit:4;stroke-dasharray:none;stroke-linejoin:round;stroke-linecap:round"
        d="M 18.2437910432336,13.3014632879961 M 16.023590128794936,15.0720144352333 M 14.092073979549852,17.153693764684057 M 12.492389474538072,19.500000000000007 M 11.260270922202537,22.058520537038497 M 10.423241814987776,24.772102254830024 M 10.0,27.58012822185794 M 10.0,30.41987177814206 M 10.423241814987776,33.22789774516996 M 11.260270922202537,35.94147946296152 M 12.492389474538086,38.50000000000001 M 14.092073979549838,40.84630623531593 M 16.023590128794964,42.92798556476671 M 18.2437910432336,44.69853671200389 M 20.703081103208802,46.11840849014596 M 23.346523832635242,47.15588330993666 M 26.1150690890951,47.78778569827744 M 28.946872146442416,47.99999999999999 M 31.77867520378973,47.78778569827744 M 34.547220460249605,47.15588330993666 M 37.19066318967601,46.118408490145974 M 39.64995324965123,44.69853671200391 M 41.87015416408989,42.92798556476671 M 43.801670313334974,40.84630623531594 M 45.40135481834674,38.50000000000001 M 46.63347337068229,35.9414794629615 M 47.47050247789704,33.227897745169976 M 47.89374429288482,30.41987177814206 M 47.893744292884826,27.580128221857926 M 47.47050247789706,24.77210225483004 M 46.63347337068229,22.05852053703849 M 45.40135481834674,19.499999999999986 M 43.801670313334974,17.153693764684093 M 41.87015416408989,15.072014435233271 M 39.64995324965123,13.3014632879961 M 37.19066318967603,11.881591509854069 M 34.547220460249605,10.844116690063345 M 31.77867520378973,10.212214301722561 M 28.946872146442416,10.0 M 26.1150690890951,10.212214301722561 M 23.346523832635228,10.84411669006333 M 20.703081103208817,11.881591509854033 M 38.36081306736527,40.815990038768014 M 36.34070610934296,38.28285603557155 M 37.33407582375737,37.395126584347544 M 38.22180527498143,36.40175686993309 M 38.99273075009326,35.315239092853524 M 39.63715741394198,34.14923684456797 M 40.14698122732463,32.918413279878656 M 40.51579085998136,31.63824671925233 M 40.738948316792914,30.3248359999586 M 40.81364726326122,28.994698023851335 M 44.053647263261276,28.99469802385135 M 43.95857587684703,30.687600902533354 M 43.67455729545032,32.359214545270795 M 43.20516321752374,33.98851744061343 M 42.556296545945806,35.555020159308846 M 41.73611715559285,37.03902302076326 M 40.7549392781778,38.42186382795537 M 39.625101794801786,39.68615255539195 M 22.373325127803724,15.37204874116668 M 23.779108442544626,18.291187873170593 M 22.613106194259018,18.935614537019262 M 21.526588417179454,19.70654001213112 M 20.53321870276504,20.59426946335509 M 19.645489251541022,21.58763917776959 M 17.1123552483446,19.56753221974723 M 18.24219273172058,18.303243492310692 M 19.506481459157143,17.173406008934656 M 17.48637450113489,14.640272005738275 M 19.16553833843959,13.448841726020042 M 19.224365398907864,13.437271793329103 M 20.967541813062823,12.452909609162823 M 22.869723685764313,11.665000079389714 M 24.848162915823238,11.095021556193018 M 25.569130741841747,14.253787991662115 M 23.939827846499128,14.72318206958883 M 30.989315044517966,10.750141850211378 M 31.050978855549886,10.758982667031034 M 31.99005420796702,10.920174272945971 M 32.988727729060955,11.09159586146447 M 33.01913161069916,11.095021556193004 M 34.56667097156243,11.540859965628158 M 34.9975708407581,11.6650000793897 M 35.05709893101347,11.680492160199556 M 36.89975271345959,12.45290960916278 M 34.0881860839778,18.291187873170593 M 32.85736251928856,17.781364059787933 M 31.577195958662244,17.412554427131298 M 30.2637852393686,17.189396970319613 M 28.93364726326122,17.11469802385126 M 28.93364726326122,10.634698023851293 M 18.23013711258045,23.840159203134682 M 17.720313299197826,25.070982767823914 M 17.35150366654115,26.351149328450298 M 17.1283462097295,27.664560047743997 M 17.053647263261198,28.994698023851335 M 17.1283462097295,30.3248359999586 M 17.35150366654115,31.63824671925233 M 14.192737231072016,32.359214545270795 M 13.908718649675379,30.687600902533298 M 13.813647263261231,28.994698023851335 M 13.908718649675379,27.301795145169258 M 14.192737231072016,25.630181502431817 M 11.06859506369797,24.917116439661605 M 11.64783262420113,22.90501543216238 M 12.422629609945574,21.04341099133149 M 46.8333237309195,24.909213676413422 M 40.51579085998136,26.35114932845034 M 40.14698122732463,25.070982767823914 M 39.63715741394198,23.840159203134682 M 38.99273075009326,22.674156954849117 M 38.22180527498143,21.58763917776959 M 37.33407582375737,20.59426946335509 M 36.34070610934296,19.70654001213112 M 38.36081306736527,17.173406008934656 M 39.62510179480183,18.30324349231072 M 40.7549392781778,19.56753221974725 M 41.73611715559285,20.950373026939417 M 42.556296545945806,22.43437588839381 M 45.475435677949655,21.028592573652922 M 45.51757836173745,21.060450428396045 M 46.26334520772286,22.930774446354498 M 19.50648145915713,40.815990038768014 M 17.486374501134875,43.34912404196435 M 15.96217128356875,41.95598910949342 M 14.579221245148162,40.44197078597768 M 17.1123552483446,38.42186382795537 M 16.13117737092952,37.03902302076323 M 15.310997980576659,35.555020159308846 M 18.23013711258045,34.14923684456797 M 18.8745637764292,35.315239092853524 M 19.645489251541008,36.40175686993309 M 20.533218702765026,37.395126584347544 M 21.526588417179454,38.28285603557155 M 22.61310619425899,39.05378151068334 M 23.779108442544626,39.69820817453208 M 22.373325127803724,42.617347306535926 M 20.88932226634934,41.79716791618302 M 30.2637852393686,40.79999907738304 M 31.577195958662244,40.57684162057142 M 32.29816378468064,43.73560805604054 M 33.92746668002337,43.26621397811386 M 35.493969398718704,42.617347306535926 M 36.89975271345959,45.53648643853976 M 34.998426859418316,46.33481198476591 M 33.01913161069916,46.89437449150959 M 30.98920940581837,47.242750977640505 M 28.93364726326122,47.35469802385132 M 28.93364726326122,44.11469802385134 M 27.240744384579187,44.01962663743715 M 25.569130741841718,43.73560805604054 M 26.290098567860227,40.57684162057142 M 27.603509287153926,40.79999907738304 M 28.93364726326122,40.87469802385133 M 28.320189366121227,39.18691285910119 M 28.28572696095614,39.183742016096055 M 27.760153651363495,39.120719417844036 M 27.184259232688177,39.052651556512366 M 26.31307759526007,38.848808965887606 M 26.070504085915402,38.79205063853387 M 26.037039589999807,38.78512931614362 M 24.99293004298933,38.4083873129135 M 26.388694602233684,35.08997786030559 M 27.08594839471516,35.33823060041292 M 27.806613489685844,35.50685472381074 M 28.541627105436646,35.593729684309416 M 29.281746019284654,35.59776297887458 M 29.464009505704595,39.19314613252005 M 23.384500149841074,22.712423793141575 M 24.576592180771172,24.061095951152204 M 24.050397107967157,24.581587084081043 M 23.585787156351074,25.157720633668212 M 23.188605065637248,25.782251386247246 M 22.863845631066937,26.447325505243235 M 22.615592890959647,27.14457929772481 M 22.446968767561827,27.86524439269541 M 22.360093807063166,28.600258008446225 M 22.35606051249799,29.340376922294304 M 20.558368935675276,29.43150866550426 M 20.563502219667313,28.489539138788565 M 20.674070351211,27.554067264196583 M 20.888682871899178,26.636857143324896 M 21.204640904762996,25.7494432256211 M 21.617971094216145,24.90298525598984 M 22.123475573306493,24.108127934525633 M 22.714797329908833,23.374867053232812 M 35.03134695729602,31.565128889138883 M 35.2795996974033,30.867875096657365 M 35.44822382080112,30.14721000168678 M 35.535098781299794,29.412196385935907 M 35.53913207586494,28.67207747208787 M 35.46027298347731,27.936160684911137 M 35.2995132029787,27.2137006049934 M 37.03185417810522,26.724829716212206 M 37.2364575351034,27.644324363380328 M 37.33682365268768,28.580945728877914 M 37.33169036869566,29.52291525559361 M 37.22112223715195,30.458387130185493 M 38.97458733631167,30.76615334479053 M 38.7097959131117,31.898845925506357 M 38.33226666707463,32.95353704359356 M 19.13099743513125,31.77649556695112 M 22.59567938538426,30.798753789388748 M 22.836318206478992,31.498671807361454 M 23.153809895372717,32.16724588821119 M 23.544161809864633,32.79606832495562 M 24.002465048142582,33.37723131060137 M 24.52295618107138,33.903426383405396 M 25.099089730658648,34.36803633502148 M 24.049497031516026,35.83034791806616 M 23.316236150223247,35.23902616146375 M 22.65379289013204,34.56932334153142 M 22.070497859596443,33.829661359800475 M 21.573686332061257,33.029341894853054 M 19.993562768749783,33.891437901494946 M 19.969284123839913,33.87494714196095 M 19.502893795004937,32.858187049272566 M 27.877529781901572,22.49355050789527 M 27.15506970198382,22.65431028839385 M 26.666198813202612,20.92196931326732 M 25.775394063055558,21.228236903751572 M 24.924481596519456,21.6323172350708 M 24.062385589877593,20.052193671759376 M 25.09486851392967,19.55576952067846 M 26.17732792442142,19.1896283381408 M 27.293817397521806,18.939238269069172 M 28.431183082658293,18.81930826186212 M 28.522314825868264,20.616999838684855 M 29.46428435258403,20.622133122676857 M 30.39975622717597,20.732701254220594 M 30.088579098677158,22.505599670571435 M 29.353565482926385,22.418724710072773 M 28.613446569078235,22.414691415507612 M 33.845695556846906,22.182106476316015 M 34.89528825598953,20.719794893271377 M 35.78016668207211,21.449894781313816 M 36.59007185624158,22.251039021920626 M 35.24139969823095,23.443131052850667 M 35.82469472876652,24.18279303458163 M 36.3215062563017,24.983112499529078 M 34.74138269299024,25.84520850617094 M 34.3510307784983,25.216386069426484 M 33.89272754022035,24.63522308378075 M 33.372236407291496,24.109028010976836 M 32.79610285770433,23.64441805936068 M 32.171572105125335,23.247235968646855 M 31.50649798612936,22.922476534076573 M 32.20438026575147,21.26327180777254 M 33.050838235382685,21.676601997225745 M 32.97071099184349,36.380137159311325 M 32.108614985201655,34.80001359599982 M 32.73743742194608,34.40966168150792 M 33.3186004075918,33.95135844322997 M 33.8447954803957,33.430867310301174 M 34.30940543201186,32.854733760713906 M 35.77171701505651,33.904326459856485 M 35.1803952584542,34.637587341149306 M 34.510692438521815,35.3000306012406 M 35.70278446945194,36.64870275925119 M 34.804623491635795,37.356989582044385 M 34.77230913269814,37.36506371263422 M 33.832806998485296,37.96026072262277 M 32.799556146262944,38.45092969636763 M 31.71786466394154,38.82282605624133 M 31.228993775160333,37.0904850811148 M 32.11979852530742,36.78421749063056 M 23.31581672205229,31.71177336948474 M 23.04760133201512,31.064244137219795 M 22.853572695306028,30.390755837226955 M 22.736170834609652,29.699777975645667 M 22.696872146442416,28.999999999999993 M 22.736170834609652,28.300222024354333 M 22.853572695306028,27.60924416277303 M 23.04760133201512,26.935755862780205 M 23.31581672205229,26.28822663051526 M 23.654845901265645,25.674799521779143 M 24.060425381017225,25.10318873838292 M 24.527454764026487,24.580582617584078 M 25.050060884825328,24.113553234574816 M 25.621671668221566,23.70797375482322 M 26.23509877695767,23.36894457560988 M 26.882628009222614,23.10072918557271 M 27.556116309215454,22.906700548863604 M 28.247094170796743,22.789298688167243 M 28.946872146442416,22.749999999999993 M 29.64665012208809,22.789298688167243 M 30.33762798366938,22.906700548863604 M 31.011116283662204,23.10072918557271 M 31.658645515927162,23.36894457560988 M 32.27207262466327,23.70797375482322 M 32.843683408059505,24.113553234574802 M 33.36628952885833,24.580582617584078 M 33.83331891186759,25.10318873838292 M 34.23889839161919,25.674799521779143 M 34.57792757083254,26.28822663051526 M 34.84614296086971,26.935755862780205 M 35.040171597578805,27.60924416277303 M 35.15757345827518,28.300222024354333 M 35.196872146442416,28.999999999999993 M 35.15757345827518,29.699777975645667 M 35.040171597578805,30.390755837226955 M 34.84614296086971,31.064244137219795 M 34.57792757083254,31.71177336948474 M 34.23889839161919,32.32520047822086 M 33.83331891186761,32.89681126161708 M 33.36628952885833,33.41941738241592 M 32.843683408059505,33.886446765425184 M 32.27207262466327,34.292026245176764 M 31.658645515927162,34.63105542439012 M 31.01111628366222,34.89927081442729 M 30.33762798366938,35.093299451136396 M 29.64665012208809,35.21070131183276 M 28.946872146442416,35.24999999999999 M 28.247094170796743,35.21070131183276 M 27.556116309215454,35.093299451136396 M 26.88262800922263,34.89927081442729 M 26.23509877695767,34.63105542439012 M 25.621671668221566,34.292026245176764 M 25.050060884825328,33.8864467654252 M 24.527454764026487,33.41941738241592 M 24.06042538101724,32.89681126161708 M 23.654845901265645,32.32520047822086 "
  />
  <path id="face0-interior"
 style="fill:none;stroke:#00FF00;stroke-width:1;stroke-miterlimit:4;stroke-dasharray:none;stroke-linejoin:round;stroke-linecap:round"
        d="M 18.2437910432336,13.3014632879961 M 16.023590128794936,15.0720144352333 M 14.092073979549852,17.153693764684057 M 12.492389474538072,19.500000000000007 M 11.260270922202537,22.058520537038497 M 10.423241814987776,24.772102254830024 M 10.0,27.58012822185794 M 10.0,30.41987177814206 M 10.423241814987776,33.22789774516996 M 11.260270922202537,35.94147946296152 M 12.492389474538086,38.50000000000001 M 14.092073979549838,40.84630623531593 M 16.023590128794964,42.92798556476671 M 18.2437910432336,44.69853671200389 M 20.703081103208802,46.11840849014596 M 23.346523832635242,47.15588330993666 M 26.1150690890951,47.78778569827744 M 28.946872146442416,47.99999999999999 M 31.77867520378973,47.78778569827744 M 34.547220460249605,47.15588330993666 M 37.19066318967601,46.118408490145974 M 39.64995324965123,44.69853671200391 M 41.87015416408989,42.92798556476671 M 43.801670313334974,40.84630623531594 M 45.40135481834674,38.50000000000001 M 46.63347337068229,35.9414794629615 M 47.47050247789704,33.227897745169976 M 47.89374429288482,30.41987177814206 M 47.893744292884826,27.580128221857926 M 47.47050247789706,24.77210225483004 M 46.63347337068229,22.05852053703849 M 45.40135481834674,19.499999999999986 M 43.801670313334974,17.153693764684093 M 41.87015416408989,15.072014435233271 M 39.64995324965123,13.3014632879961 M 37.19066318967603,11.881591509854069 M 34.547220460249605,10.844116690063345 M 31.77867520378973,10.212214301722561 M 28.946872146442416,10.0 M 26.1150690890951,10.212214301722561 M 23.346523832635228,10.84411669006333 M 20.703081103208817,11.881591509854033 M 38.36081306736527,40.815990038768014 M 36.34070610934296,38.28285603557155 M 37.33407582375737,37.395126584347544 M 38.22180527498143,36.40175686993309 M 38.99273075009326,35.315239092853524 M 39.63715741394198,34.14923684456797 M 40.14698122732463,32.918413279878656 M 40.51579085998136,31.63824671925233 M 40.738948316792914,30.3248359999586 M 40.81364726326122,28.994698023851335 M 44.053647263261276,28.99469802385135 M 43.95857587684703,30.687600902533354 M 43.67455729545032,32.359214545270795 M 43.20516321752374,33.98851744061343 M 42.556296545945806,35.555020159308846 M 41.73611715559285,37.03902302076326 M 40.7549392781778,38.42186382795537 M 39.625101794801786,39.68615255539195 M 22.373325127803724,15.37204874116668 M 23.779108442544626,18.291187873170593 M 22.613106194259018,18.935614537019262 M 21.526588417179454,19.70654001213112 M 20.53321870276504,20.59426946335509 M 19.645489251541022,21.58763917776959 M 17.1123552483446,19.56753221974723 M 18.24219273172058,18.303243492310692 M 19.506481459157143,17.173406008934656 M 17.48637450113489,14.640272005738275 M 19.16553833843959,13.448841726020042 M 19.224365398907864,13.437271793329103 M 20.967541813062823,12.452909609162823 M 22.869723685764313,11.665000079389714 M 24.848162915823238,11.095021556193018 M 25.569130741841747,14.253787991662115 M 23.939827846499128,14.72318206958883 M 30.989315044517966,10.750141850211378 M 31.050978855549886,10.758982667031034 M 31.99005420796702,10.920174272945971 M 32.988727729060955,11.09159586146447 M 33.01913161069916,11.095021556193004 M 34.56667097156243,11.540859965628158 M 34.9975708407581,11.6650000793897 M 35.05709893101347,11.680492160199556 M 36.89975271345959,12.45290960916278 M 34.0881860839778,18.291187873170593 M 32.85736251928856,17.781364059787933 M 31.577195958662244,17.412554427131298 M 30.2637852393686,17.189396970319613 M 28.93364726326122,17.11469802385126 M 28.93364726326122,10.634698023851293 M 18.23013711258045,23.840159203134682 M 17.720313299197826,25.070982767823914 M 17.35150366654115,26.351149328450298 M 17.1283462097295,27.664560047743997 M 17.053647263261198,28.994698023851335 M 17.1283462097295,30.3248359999586 M 17.35150366654115,31.63824671925233 M 14.192737231072016,32.359214545270795 M 13.908718649675379,30.687600902533298 M 13.813647263261231,28.994698023851335 M 13.908718649675379,27.301795145169258 M 14.192737231072016,25.630181502431817 M 11.06859506369797,24.917116439661605 M 11.64783262420113,22.90501543216238 M 12.422629609945574,21.04341099133149 M 46.8333237309195,24.909213676413422 M 40.51579085998136,26.35114932845034 M 40.14698122732463,25.070982767823914 M 39.63715741394198,23.840159203134682 M 38.99273075009326,22.674156954849117 M 38.22180527498143,21.58763917776959 M 37.33407582375737,20.59426946335509 M 36.34070610934296,19.70654001213112 M 38.36081306736527,17.173406008934656 M 39.62510179480183,18.30324349231072 M 40.7549392781778,19.56753221974725 M 41.73611715559285,20.950373026939417 M 42.556296545945806,22.43437588839381 M 45.475435677949655,21.028592573652922 M 45.51757836173745,21.060450428396045 M 46.26334520772286,22.930774446354498 M 19.50648145915713,40.815990038768014 M 17.486374501134875,43.34912404196435 M 15.96217128356875,41.95598910949342 M 14.579221245148162,40.44197078597768 M 17.1123552483446,38.42186382795537 M 16.13117737092952,37.03902302076323 M 15.310997980576659,35.555020159308846 M 18.23013711258045,34.14923684456797 M 18.8745637764292,35.315239092853524 M 19.645489251541008,36.40175686993309 M 20.533218702765026,37.395126584347544 M 21.526588417179454,38.28285603557155 M 22.61310619425899,39.05378151068334 M 23.779108442544626,39.69820817453208 M 22.373325127803724,42.617347306535926 M 20.88932226634934,41.79716791618302 M 30.2637852393686,40.79999907738304 M 31.577195958662244,40.57684162057142 M 32.29816378468064,43.73560805604054 M 33.92746668002337,43.26621397811386 M 35.493969398718704,42.617347306535926 M 36.89975271345959,45.53648643853976 M 34.998426859418316,46.33481198476591 M 33.01913161069916,46.89437449150959 M 30.98920940581837,47.242750977640505 M 28.93364726326122,47.35469802385132 M 28.93364726326122,44.11469802385134 M 27.240744384579187,44.01962663743715 M 25.569130741841718,43.73560805604054 M 26.290098567860227,40.57684162057142 M 27.603509287153926,40.79999907738304 M 28.93364726326122,40.87469802385133 M 28.320189366121227,39.18691285910119 M 28.28572696095614,39.183742016096055 M 27.760153651363495,39.120719417844036 M 27.184259232688177,39.052651556512366 M 26.31307759526007,38.848808965887606 M 26.070504085915402,38.79205063853387 M 26.037039589999807,38.78512931614362 M 24.99293004298933,38.4083873129135 M 26.388694602233684,35.08997786030559 M 27.08594839471516,35.33823060041292 M 27.806613489685844,35.50685472381074 M 28.541627105436646,35.593729684309416 M 29.281746019284654,35.59776297887458 M 29.464009505704595,39.19314613252005 M 23.384500149841074,22.712423793141575 M 24.576592180771172,24.061095951152204 M 24.050397107967157,24.581587084081043 M 23.585787156351074,25.157720633668212 M 23.188605065637248,25.782251386247246 M 22.863845631066937,26.447325505243235 M 22.615592890959647,27.14457929772481 M 22.446968767561827,27.86524439269541 M 22.360093807063166,28.600258008446225 M 22.35606051249799,29.340376922294304 M 20.558368935675276,29.43150866550426 M 20.563502219667313,28.489539138788565 M 20.674070351211,27.554067264196583 M 20.888682871899178,26.636857143324896 M 21.204640904762996,25.7494432256211 M 21.617971094216145,24.90298525598984 M 22.123475573306493,24.108127934525633 M 22.714797329908833,23.374867053232812 M 35.03134695729602,31.565128889138883 M 35.2795996974033,30.867875096657365 M 35.44822382080112,30.14721000168678 M 35.535098781299794,29.412196385935907 M 35.53913207586494,28.67207747208787 M 35.46027298347731,27.936160684911137 M 35.2995132029787,27.2137006049934 M 37.03185417810522,26.724829716212206 M 37.2364575351034,27.644324363380328 M 37.33682365268768,28.580945728877914 M 37.33169036869566,29.52291525559361 M 37.22112223715195,30.458387130185493 M 38.97458733631167,30.76615334479053 M 38.7097959131117,31.898845925506357 M 38.33226666707463,32.95353704359356 M 19.13099743513125,31.77649556695112 M 22.59567938538426,30.798753789388748 M 22.836318206478992,31.498671807361454 M 23.153809895372717,32.16724588821119 M 23.544161809864633,32.79606832495562 M 24.002465048142582,33.37723131060137 M 24.52295618107138,33.903426383405396 M 25.099089730658648,34.36803633502148 M 24.049497031516026,35.83034791806616 M 23.316236150223247,35.23902616146375 M 22.65379289013204,34.56932334153142 M 22.070497859596443,33.829661359800475 M 21.573686332061257,33.029341894853054 M 19.993562768749783,33.891437901494946 M 19.969284123839913,33.87494714196095 M 19.502893795004937,32.858187049272566 M 27.877529781901572,22.49355050789527 M 27.15506970198382,22.65431028839385 M 26.666198813202612,20.92196931326732 M 25.775394063055558,21.228236903751572 M 24.924481596519456,21.6323172350708 M 24.062385589877593,20.052193671759376 M 25.09486851392967,19.55576952067846 M 26.17732792442142,19.1896283381408 M 27.293817397521806,18.939238269069172 M 28.431183082658293,18.81930826186212 M 28.522314825868264,20.616999838684855 M 29.46428435258403,20.622133122676857 M 30.39975622717597,20.732701254220594 M 30.088579098677158,22.505599670571435 M 29.353565482926385,22.418724710072773 M 28.613446569078235,22.414691415507612 M 33.845695556846906,22.182106476316015 M 34.89528825598953,20.719794893271377 M 35.78016668207211,21.449894781313816 M 36.59007185624158,22.251039021920626 M 35.24139969823095,23.443131052850667 M 35.82469472876652,24.18279303458163 M 36.3215062563017,24.983112499529078 M 34.74138269299024,25.84520850617094 M 34.3510307784983,25.216386069426484 M 33.89272754022035,24.63522308378075 M 33.372236407291496,24.109028010976836 M 32.79610285770433,23.64441805936068 M 32.171572105125335,23.247235968646855 M 31.50649798612936,22.922476534076573 M 32.20438026575147,21.26327180777254 M 33.050838235382685,21.676601997225745 M 32.97071099184349,36.380137159311325 M 32.108614985201655,34.80001359599982 M 32.73743742194608,34.40966168150792 M 33.3186004075918,33.95135844322997 M 33.8447954803957,33.430867310301174 M 34.30940543201186,32.854733760713906 M 35.77171701505651,33.904326459856485 M 35.1803952584542,34.637587341149306 M 34.510692438521815,35.3000306012406 M 35.70278446945194,36.64870275925119 M 34.804623491635795,37.356989582044385 M 34.77230913269814,37.36506371263422 M 33.832806998485296,37.96026072262277 M 32.799556146262944,38.45092969636763 M 31.71786466394154,38.82282605624133 M 31.228993775160333,37.0904850811148 M 32.11979852530742,36.78421749063056 M 23.31581672205229,31.71177336948474 M 23.04760133201512,31.064244137219795 M 22.853572695306028,30.390755837226955 M 22.736170834609652,29.699777975645667 M 22.696872146442416,28.999999999999993 M 22.736170834609652,28.300222024354333 M 22.853572695306028,27.60924416277303 M 23.04760133201512,26.935755862780205 M 23.31581672205229,26.28822663051526 M 23.654845901265645,25.674799521779143 M 24.060425381017225,25.10318873838292 M 24.527454764026487,24.580582617584078 M 25.050060884825328,24.113553234574816 M 25.621671668221566,23.70797375482322 M 26.23509877695767,23.36894457560988 M 26.882628009222614,23.10072918557271 M 27.556116309215454,22.906700548863604 M 28.247094170796743,22.789298688167243 M 28.946872146442416,22.749999999999993 M 29.64665012208809,22.789298688167243 M 30.33762798366938,22.906700548863604 M 31.011116283662204,23.10072918557271 M 31.658645515927162,23.36894457560988 M 32.27207262466327,23.70797375482322 M 32.843683408059505,24.113553234574802 M 33.36628952885833,24.580582617584078 M 33.83331891186759,25.10318873838292 M 34.23889839161919,25.674799521779143 M 34.57792757083254,26.28822663051526 M 34.84614296086971,26.935755862780205 M 35.040171597578805,27.60924416277303 M 35.15757345827518,28.300222024354333 M 35.196872146442416,28.999999999999993 M 35.15757345827518,29.699777975645667 M 35.040171597578805,30.390755837226955 M 34.84614296086971,31.064244137219795 M 34.57792757083254,31.71177336948474 M 34.23889839161919,32.32520047822086 M 33.83331891186761,32.89681126161708 M 33.36628952885833,33.41941738241592 M 32.843683408059505,33.886446765425184 M 32.27207262466327,34.292026245176764 M 31.658645515927162,34.63105542439012 M 31.01111628366222,34.89927081442729 M 30.33762798366938,35.093299451136396 M 29.64665012208809,35.21070131183276 M 28.946872146442416,35.24999999999999 M 28.247094170796743,35.21070131183276 M 27.556116309215454,35.093299451136396 M 26.88262800922263,34.89927081442729 M 26.23509877695767,34.63105542439012 M 25.621671668221566,34.292026245176764 M 25.050060884825328,33.8864467654252 M 24.527454764026487,33.41941738241592 M 24.06042538101724,32.89681126161708 M 23.654845901265645,32.32520047822086 "
  />
</svg>
