<?xml version="1.0" standalone="no"?>
<!DOCTYPE svg PUBLIC "-//W3C//DTD SVG 1.1//EN" "http://www.w3.org/Graphics/SVG/1.1/DTD/svg11.dtd">
<svg width="57.89374429288483mm" height="58.0mm"
 viewBox="0 0 57.89374429288483 58.0"
 xmlns="http://www.w3.org/2000/svg" version="1.1"
 xmlns:xlink="http://www.w3.org/1999/xlink">
<desc>Output from Flights of Ideas SVG Sketchup Plugin</desc>

  <path id="face0-cut"
 style="fill:none;stroke:#0000FF;stroke-width:1;stroke-miterlimit:4;stroke-dasharray:none;stroke-linejoin:round;stroke-linecap:round"
        d="M 21.326695828521057,18.562370021242927 M 19.254048595290495,16.393468583514235 M 17.085147157561778,18.466115816744818 M 19.15779439079236,20.63501725447351 "
  />
  <path id="face1-cut"
 style="fill:none;stroke:#0000FF;stroke-width:1;stroke-miterlimit:4;stroke-dasharray:none;stroke-linejoin:round;stroke-linecap:round"
        d="M 30.843028074398603,16.328785146590462 M 29.03340411116275,13.936033360114777 M 26.64065232468705,15.745657323350656 M 28.450276287922904,18.138409109826313 "
  />
  <path id="face2-cut"
 style="fill:none;stroke:#0000FF;stroke-width:1;stroke-miterlimit:4;stroke-dasharray:none;stroke-linejoin:round;stroke-linecap:round"
        d="M 13.09013289058312,28.6840922664709 M 13.31432317134239,31.675703658014427 M 16.305934562885927,31.451513377255154 M 16.08174428212665,28.45990198571161 "
  />
  <path id="face3-cut"
 style="fill:none;stroke:#0000FF;stroke-width:1;stroke-miterlimit:4;stroke-dasharray:none;stroke-linejoin:round;stroke-linecap:round"
        d="M 32.65265203763446,18.72153693306616 M 35.04540382411014,16.911912969830325 M 33.23577986087428,14.519161183354626 M 30.843028074398603,16.328785146590462 "
  />
  <path id="face4-cut"
 style="fill:none;stroke:#0000FF;stroke-width:1;stroke-miterlimit:4;stroke-dasharray:none;stroke-linejoin:round;stroke-linecap:round"
        d="M 39.441743857363974,33.092667168107155 M 38.345720784264756,35.88528841403976 M 41.13834203019735,36.98131148713895 M 42.23436510329657,34.18869024120637 "
  />
  <path id="face5-cut"
 style="fill:none;stroke:#0000FF;stroke-width:1;stroke-miterlimit:4;stroke-dasharray:none;stroke-linejoin:round;stroke-linecap:round"
        d="M 24.67093237838698,37.90903365385914 M 22.197947634792822,36.21069727435405 M 20.49961125528772,38.6836820179482 M 22.97259599888188,40.382018397453294 "
  />
  <path id="face6-cut"
 style="fill:none;stroke:#0000FF;stroke-width:1;stroke-miterlimit:4;stroke-dasharray:none;stroke-linejoin:round;stroke-linecap:round"
        d="M 33.45583917647106,42.485309912171346 M 31.955839176471038,39.88723370081803 M 29.35776296511774,41.38723370081803 M 30.857762965117757,43.985309912171346 "
  />
  <path id="face7-cut"
 style="fill:none;stroke:#0000FF;stroke-width:1;stroke-miterlimit:4;stroke-dasharray:none;stroke-linejoin:round;stroke-linecap:round"
        d="M 16.08174428212665,28.45990198571161 M 15.857554001367372,25.468290594168096 M 12.865942609823843,25.692480874927355 M 13.09013289058312,28.6840922664709 "
  />
  <path id="face8-cut"
 style="fill:none;stroke:#0000FF;stroke-width:1;stroke-miterlimit:4;stroke-dasharray:none;stroke-linejoin:round;stroke-linecap:round"
        d="M 30.45583917647102,37.28915748946471 M 31.955839176471038,39.88723370081803 M 34.55391538782434,38.387233700818 M 33.05391538782432,35.7891574894647 "
  />
  <path id="face9-cut"
 style="fill:none;stroke:#0000FF;stroke-width:1;stroke-miterlimit:4;stroke-dasharray:none;stroke-linejoin:round;stroke-linecap:round"
        d="M 41.13834203019735,36.98131148713895 M 38.345720784264756,35.88528841403976 M 37.24969771116554,38.67790965997236 M 40.04231895709813,39.773932733071575 "
  />
  <path id="face10-cut"
 style="fill:none;stroke:#0000FF;stroke-width:1;stroke-miterlimit:4;stroke-dasharray:none;stroke-linejoin:round;stroke-linecap:round"
        d="M 16.08174428212665,28.45990198571161 M 16.305934562885927,31.451513377255154 M 19.29754595442945,31.22732309649591 M 19.073355673670193,28.235711704952365 "
  />
  <path id="face11-cut"
 style="fill:none;stroke:#0000FF;stroke-width:1;stroke-miterlimit:4;stroke-dasharray:none;stroke-linejoin:round;stroke-linecap:round"
        d="M 23.39934306175164,20.731271458971634 L 21.326695828521057,18.562370021242927 M 19.15779439079236,20.63501725447351 M 21.230441624022923,22.803918692202217 L 23.39934306175164,20.731271458971634 "
  />
  <path id="face12-cut"
 style="fill:none;stroke:#0000FF;stroke-width:1;stroke-miterlimit:4;stroke-dasharray:none;stroke-linejoin:round;stroke-linecap:round"
        d="M 20.49961125528772,38.6836820179482 M 22.197947634792822,36.21069727435405 M 19.724962891198665,34.512360894848925 M 18.026626511693564,36.98534563844308 "
  />
  <path id="face13-cut"
 style="fill:none;stroke:#0000FF;stroke-width:1;stroke-miterlimit:4;stroke-dasharray:none;stroke-linejoin:round;stroke-linecap:round"
        d="M 16.02359012879494,42.927985564766686 L 18.243791043233593,44.698536712003886 L 20.70308110320882,46.11840849014595 L 23.346523832635224,47.155883309936684 L 26.115069089095098,47.787785698277446 L 28.946872146442416,48.0 L 31.77867520378973,47.787785698277446 L 34.5472204602496,47.155883309936684 L 37.19066318967603,46.11840849014595 L 39.64995324965123,44.698536712003886 L 41.87015416408989,42.927985564766686 L 43.801670313334974,40.84630623531592 L 45.40135481834674,38.499999999999986 L 46.63347337068229,35.94147946296151 L 47.47050247789706,33.22789774516994 L 47.89374429288483,30.419871778142067 L 47.89374429288483,27.580128221857947 L 47.47050247789706,24.772102254830017 L 46.633473370682296,22.058520537038504 L 45.40135481834674,19.500000000000043 L 43.801670313334974,17.15369376468405 L 41.87015416408988,15.072014435233285 L 39.64995324965123,13.3014632879961 L 37.19066318967601,11.881591509854019 L 34.547220460249605,10.84411669006333 L 31.77867520378973,10.212214301722554 L 28.946872146442416,10.0 L 26.115069089095098,10.212214301722554 L 23.34652383263525,10.844116690063316 L 20.7030811032088,11.881591509854033 L 18.243791043233596,13.3014632879961 L 16.02359012879496,15.072014435233285 L 14.092073979549841,17.15369376468405 L 12.492389474538086,19.49999999999997 L 11.260270922202537,22.058520537038476 L 10.423241814987776,24.772102254830017 L 10.0,27.58012822185792 L 10.0,30.41987177814204 L 10.423241814987776,33.22789774516997 L 11.26027092220254,35.94147946296151 L 12.492389474538076,38.499999999999986 L 14.092073979549852,40.84630623531592 L 16.02359012879494,42.927985564766686 M 28.946872146442416,34.53745262686071 L 28.11223545585583,34.53745262686071 L 26.517123207384092,34.04542566025356 L 25.827514011154676,33.575258071250275 L 25.137904814925264,33.10509048224701 L 24.09712988524955,31.799999999999997 L 23.487275838224203,30.24611723015535 L 23.424903360225997,29.413814353035676 L 23.362530882227816,28.581511475916017 L 23.73397915403487,26.95409026354818 L 24.56861584462145,25.508457109591077 L 25.180447832953796,24.94075998671076 L 25.792279821286137,24.373062863830413 L 27.296243169741356,23.6487922875976 L 28.946872146442416,23.39999999999999 L 29.772186634792952,23.524396143798796 L 30.597501123143473,23.6487922875976 L 32.10146447159869,24.373062863830413 L 33.32512844826337,25.508457109591077 L 33.74244679355667,26.23127368656965 L 34.159765138849956,26.95409026354818 L 34.53121341065702,28.581511475916017 L 34.406468454660626,30.24611723015535 L 34.101541431147936,31.023058615077673 L 33.796614407635275,31.799999999999997 L 32.75583947795956,33.10509048224701 L 31.376621085500737,34.04542566025356 L 30.57906496126489,34.29143914355713 L 29.781508837028998,34.53745262686071 L 28.946872146442416,34.53745262686071 M 17.085147157561778,18.466115816744818 M 19.254048595290495,16.393468583514235 M 21.422950033019188,14.320821350283651 M 23.495597266249774,16.489722788012344 M 21.326695828521057,18.562370021242927 M 19.15779439079236,20.63501725447351 M 29.03340411116275,13.936033360114777 M 30.843028074398603,16.328785146590462 M 28.450276287922904,18.138409109826313 M 26.64065232468705,15.745657323350656 M 13.31432317134239,31.675703658014427 M 13.09013289058312,28.6840922664709 M 12.865942609823843,25.692480874927355 M 15.857554001367372,25.468290594168096 M 16.08174428212665,28.45990198571161 M 19.073355673670193,28.235711704952365 M 19.29754595442945,31.22732309649591 M 16.305934562885927,31.451513377255154 M 16.530124843645183,34.4431247687987 M 13.538513452101654,34.66731504955797 M 35.04540382411014,16.911912969830325 M 32.65265203763446,18.72153693306616 M 30.843028074398603,16.328785146590462 M 33.23577986087428,14.519161183354626 M 38.345720784264756,35.88528841403976 M 39.441743857363974,33.092667168107155 M 42.23436510329657,34.18869024120637 M 41.13834203019735,36.98131148713895 M 40.04231895709813,39.773932733071575 M 37.24969771116554,38.67790965997236 M 22.197947634792822,36.21069727435405 M 24.67093237838698,37.90903365385914 M 22.97259599888188,40.382018397453294 M 20.49961125528772,38.6836820179482 M 18.026626511693564,36.98534563844308 M 19.724962891198665,34.512360894848925 M 31.955839176471038,39.88723370081803 M 33.45583917647106,42.485309912171346 M 34.95583917647106,45.083386123524605 M 32.35776296511776,46.58338612352463 M 30.857762965117757,43.985309912171346 M 29.35776296511774,41.38723370081803 M 31.955839176471038,39.88723370081803 M 30.45583917647102,37.28915748946471 M 33.05391538782432,35.7891574894647 M 34.55391538782434,38.387233700818 M 19.15779439079236,20.63501725447351 M 21.230441624022923,22.803918692202217 M 19.06154018629423,24.87656592543277 M 16.988892953063644,22.70766448770408 M 21.274259619376778,42.85500314104746 M 22.97259599888188,40.382018397453294 M 25.445580742476032,42.08035477695839 M 23.74724436297094,44.55333952055258 M 43.90613986492556,20.328056409919753 M 41.30806365357223,21.828056409919768 M 39.80806365357223,19.229980198566466 M 42.406139864925564,17.729980198566494 M 43.33038817639578,31.39606899527378 M 40.53776693046319,30.300045922174533 M 41.6337900035624,27.50742467624194 M 44.42641124949502,28.603447749341157 M 37.61191123086559,27.42613262127307 M 36.11191123086559,24.82805640991974 M 34.611911230865594,22.229980198566437 M 37.20998744221892,20.729980198566437 M 38.70998744221889,23.32805640991974 M 40.20998744221889,25.92613262127307 "
  />
  <path id="face14-cut"
 style="fill:none;stroke:#0000FF;stroke-width:1;stroke-miterlimit:4;stroke-dasharray:none;stroke-linejoin:round;stroke-linecap:round"
        d="M 21.230441624022923,22.803918692202217 M 19.15779439079236,20.63501725447351 M 16.988892953063644,22.70766448770408 M 19.06154018629423,24.87656592543277 "
  />
  <path id="face15-cut"
 style="fill:none;stroke:#0000FF;stroke-width:1;stroke-miterlimit:4;stroke-dasharray:none;stroke-linejoin:round;stroke-linecap:round"
        d="M 19.254048595290495,16.393468583514235 M 21.326695828521057,18.562370021242927 M 23.495597266249774,16.489722788012344 M 21.422950033019188,14.320821350283651 "
  />
  <path id="face16-cut"
 style="fill:none;stroke:#0000FF;stroke-width:1;stroke-miterlimit:4;stroke-dasharray:none;stroke-linejoin:round;stroke-linecap:round"
        d="M 22.97259599888188,40.382018397453294 M 21.274259619376778,42.85500314104746 M 23.74724436297094,44.55333952055258 M 25.445580742476032,42.08035477695839 "
  />
  <path id="face17-cut"
 style="fill:none;stroke:#0000FF;stroke-width:1;stroke-miterlimit:4;stroke-dasharray:none;stroke-linejoin:round;stroke-linecap:round"
        d="M 41.30806365357223,21.828056409919768 M 43.90613986492556,20.328056409919753 M 42.406139864925564,17.729980198566494 M 39.80806365357223,19.229980198566466 "
  />
  <path id="face18-cut"
 style="fill:none;stroke:#0000FF;stroke-width:1;stroke-miterlimit:4;stroke-dasharray:none;stroke-linejoin:round;stroke-linecap:round"
        d="M 21.274259619376778,42.85500314104746 M 22.97259599888188,40.382018397453294 M 20.49961125528772,38.6836820179482 L 18.80127487578262,41.15666676154237 L 21.274259619376778,42.85500314104746 "
  />
  <path id="face19-cut"
 style="fill:none;stroke:#0000FF;stroke-width:1;stroke-miterlimit:4;stroke-dasharray:none;stroke-linejoin:round;stroke-linecap:round"
        d="M 40.53776693046319,30.300045922174533 M 43.33038817639578,31.39606899527378 M 44.42641124949502,28.603447749341157 M 41.6337900035624,27.50742467624194 "
  />
  <path id="face20-cut"
 style="fill:none;stroke:#0000FF;stroke-width:1;stroke-miterlimit:4;stroke-dasharray:none;stroke-linejoin:round;stroke-linecap:round"
        d="M 38.70998744221889,23.32805640991974 M 36.11191123086559,24.82805640991974 M 37.61191123086559,27.42613262127307 M 40.20998744221889,25.92613262127307 "
  />
  <path id="face21-cut"
 style="fill:none;stroke:#0000FF;stroke-width:1;stroke-miterlimit:4;stroke-dasharray:none;stroke-linejoin:round;stroke-linecap:round"
        d="M 38.70998744221889,23.32805640991974 L 41.30806365357223,21.828056409919768 M 39.80806365357223,19.229980198566466 L 37.20998744221892,20.729980198566437 "
  />
  <path id="face22-cut"
 style="fill:none;stroke:#0000FF;stroke-width:1;stroke-miterlimit:4;stroke-dasharray:none;stroke-linejoin:round;stroke-linecap:round"
        d="M 32.65265203763446,18.72153693306616 M 30.843028074398603,16.328785146590462 M 28.450276287922904,18.138409109826313 L 30.25990025115876,20.531160896302012 L 32.65265203763446,18.72153693306616 "
  />
  <path id="face23-cut"
 style="fill:none;stroke:#0000FF;stroke-width:1;stroke-miterlimit:4;stroke-dasharray:none;stroke-linejoin:round;stroke-linecap:round"
        d="M 39.441743857363974,33.092667168107155 M 42.23436510329657,34.18869024120637 L 43.33038817639578,31.39606899527378 M 40.53776693046319,30.300045922174533 L 39.441743857363974,33.092667168107155 "
  />
  <path id="face24-cut"
 style="fill:none;stroke:#0000FF;stroke-width:1;stroke-miterlimit:4;stroke-dasharray:none;stroke-linejoin:round;stroke-linecap:round"
        d="M 37.20998744221892,20.729980198566437 M 34.611911230865594,22.229980198566437 M 36.11191123086559,24.82805640991974 M 38.70998744221889,23.32805640991974 "
  />
  <path id="face25-cut"
 style="fill:none;stroke:#0000FF;stroke-width:1;stroke-miterlimit:4;stroke-dasharray:none;stroke-linejoin:round;stroke-linecap:round"
        d="M 34.95583917647106,45.083386123524605 M 33.45583917647106,42.485309912171346 M 30.857762965117757,43.985309912171346 M 32.35776296511776,46.58338612352463 "
  />
  <path id="face26-cut"
 style="fill:none;stroke:#0000FF;stroke-width:1;stroke-miterlimit:4;stroke-dasharray:none;stroke-linejoin:round;stroke-linecap:round"
        d="M 31.426155897638424,12.126409396878941 L 29.03340411116275,13.936033360114777 M 30.843028074398603,16.328785146590462 M 33.23577986087428,14.519161183354626 L 31.426155897638424,12.126409396878941 "
  />
  <path id="face27-cut"
 style="fill:none;stroke:#0000FF;stroke-width:1;stroke-miterlimit:4;stroke-dasharray:none;stroke-linejoin:round;stroke-linecap:round"
        d="M 16.305934562885927,31.451513377255154 M 13.31432317134239,31.675703658014427 M 13.538513452101654,34.66731504955797 M 16.530124843645183,34.4431247687987 "
  />
  <path id="face28-cut"
 style="fill:none;stroke:#0000FF;stroke-width:1;stroke-miterlimit:4;stroke-dasharray:none;stroke-linejoin:round;stroke-linecap:round"
        d="M 27.857762965117715,38.78915748946474 L 29.35776296511774,41.38723370081803 M 31.955839176471038,39.88723370081803 M 30.45583917647102,37.28915748946471 L 27.857762965117715,38.78915748946474 "
  />
  <path id="face0-interior"
 style="fill:none;stroke:#FF0000;stroke-width:1;stroke-miterlimit:4;stroke-dasharray:none;stroke-linejoin:round;stroke-linecap:round"
        d="M 21.326695828521057,18.562370021242927 L 19.254048595290495,16.393468583514235 L 17.085147157561778,18.466115816744818 L 19.15779439079236,20.63501725447351 L 21.326695828521057,18.562370021242927 "
  />
  <path id="face1-interior"
 style="fill:none;stroke:#FF0000;stroke-width:1;stroke-miterlimit:4;stroke-dasharray:none;stroke-linejoin:round;stroke-linecap:round"
        d="M 30.843028074398603,16.328785146590462 L 29.03340411116275,13.936033360114777 L 26.64065232468705,15.745657323350656 L 28.450276287922904,18.138409109826313 L 30.843028074398603,16.328785146590462 "
  />
  <path id="face2-interior"
 style="fill:none;stroke:#FF0000;stroke-width:1;stroke-miterlimit:4;stroke-dasharray:none;stroke-linejoin:round;stroke-linecap:round"
        d="M 13.09013289058312,28.6840922664709 L 13.31432317134239,31.675703658014427 L 16.305934562885927,31.451513377255154 L 16.08174428212665,28.45990198571161 L 13.09013289058312,28.6840922664709 "
  />
  <path id="face3-interior"
 style="fill:none;stroke:#FF0000;stroke-width:1;stroke-miterlimit:4;stroke-dasharray:none;stroke-linejoin:round;stroke-linecap:round"
        d="M 32.65265203763446,18.72153693306616 L 35.04540382411014,16.911912969830325 L 33.23577986087428,14.519161183354626 L 30.843028074398603,16.328785146590462 L 32.65265203763446,18.72153693306616 "
  />
  <path id="face4-interior"
 style="fill:none;stroke:#FF0000;stroke-width:1;stroke-miterlimit:4;stroke-dasharray:none;stroke-linejoin:round;stroke-linecap:round"
        d="M 39.441743857363974,33.092667168107155 L 38.345720784264756,35.88528841403976 L 41.13834203019735,36.98131148713895 L 42.23436510329657,34.18869024120637 L 39.441743857363974,33.092667168107155 "
  />
  <path id="face5-interior"
 style="fill:none;stroke:#FF0000;stroke-width:1;stroke-miterlimit:4;stroke-dasharray:none;stroke-linejoin:round;stroke-linecap:round"
        d="M 24.67093237838698,37.90903365385914 L 22.197947634792822,36.21069727435405 L 20.49961125528772,38.6836820179482 L 22.97259599888188,40.382018397453294 L 24.67093237838698,37.90903365385914 "
  />
  <path id="face6-interior"
 style="fill:none;stroke:#FF0000;stroke-width:1;stroke-miterlimit:4;stroke-dasharray:none;stroke-linejoin:round;stroke-linecap:round"
        d="M 33.45583917647106,42.485309912171346 L 31.955839176471038,39.88723370081803 L 29.35776296511774,41.38723370081803 L 30.857762965117757,43.985309912171346 L 33.45583917647106,42.485309912171346 "
  />
  <path id="face7-interior"
 style="fill:none;stroke:#FF0000;stroke-width:1;stroke-miterlimit:4;stroke-dasharray:none;stroke-linejoin:round;stroke-linecap:round"
        d="M 16.08174428212665,28.45990198571161 L 15.857554001367372,25.468290594168096 L 12.865942609823843,25.692480874927355 L 13.09013289058312,28.6840922664709 "
  />
  <path id="face8-interior"
 style="fill:none;stroke:#FF0000;stroke-width:1;stroke-miterlimit:4;stroke-dasharray:none;stroke-linejoin:round;stroke-linecap:round"
        d="M 30.45583917647102,37.28915748946471 L 31.955839176471038,39.88723370081803 L 34.55391538782434,38.387233700818 L 33.05391538782432,35.7891574894647 L 30.45583917647102,37.28915748946471 "
  />
  <path id="face9-interior"
 style="fill:none;stroke:#FF0000;stroke-width:1;stroke-miterlimit:4;stroke-dasharray:none;stroke-linejoin:round;stroke-linecap:round"
        d="M 41.13834203019735,36.98131148713895 M 38.345720784264756,35.88528841403976 L 37.24969771116554,38.67790965997236 L 40.04231895709813,39.773932733071575 L 41.13834203019735,36.98131148713895 "
  />
  <path id="face10-interior"
 style="fill:none;stroke:#FF0000;stroke-width:1;stroke-miterlimit:4;stroke-dasharray:none;stroke-linejoin:round;stroke-linecap:round"
        d="M 16.08174428212665,28.45990198571161 M 16.305934562885927,31.451513377255154 L 19.29754595442945,31.22732309649591 L 19.073355673670193,28.235711704952365 L 16.08174428212665,28.45990198571161 "
  />
  <path id="face11-interior"
 style="fill:none;stroke:#FF0000;stroke-width:1;stroke-miterlimit:4;stroke-dasharray:none;stroke-linejoin:round;stroke-linecap:round"
        d="M 23.39934306175164,20.731271458971634 M 21.326695828521057,18.562370021242927 M 19.15779439079236,20.63501725447351 L 21.230441624022923,22.803918692202217 "
  />
  <path id="face12-interior"
 style="fill:none;stroke:#FF0000;stroke-width:1;stroke-miterlimit:4;stroke-dasharray:none;stroke-linejoin:round;stroke-linecap:round"
        d="M 20.49961125528772,38.6836820179482 M 22.197947634792822,36.21069727435405 L 19.724962891198665,34.512360894848925 L 18.026626511693564,36.98534563844308 L 20.49961125528772,38.6836820179482 "
  />
  <path id="face13-interior"
 style="fill:none;stroke:#FF0000;stroke-width:1;stroke-miterlimit:4;stroke-dasharray:none;stroke-linejoin:round;stroke-linecap:round"
        d="M 16.02359012879494,42.927985564766686 M 18.243791043233593,44.698536712003886 M 20.70308110320882,46.11840849014595 M 23.346523832635224,47.155883309936684 M 26.115069089095098,47.787785698277446 M 28.946872146442416,48.0 M 31.77867520378973,47.787785698277446 M 34.5472204602496,47.155883309936684 M 37.19066318967603,46.11840849014595 M 39.64995324965123,44.698536712003886 M 41.87015416408989,42.927985564766686 M 43.801670313334974,40.84630623531592 M 45.40135481834674,38.499999999999986 M 46.63347337068229,35.94147946296151 M 47.47050247789706,33.22789774516994 M 47.89374429288483,30.419871778142067 M 47.89374429288483,27.580128221857947 M 47.47050247789706,24.772102254830017 M 46.633473370682296,22.058520537038504 M 45.40135481834674,19.500000000000043 M 43.801670313334974,17.15369376468405 M 41.87015416408988,15.072014435233285 M 39.64995324965123,13.3014632879961 M 37.19066318967601,11.881591509854019 M 34.547220460249605,10.84411669006333 M 31.77867520378973,10.212214301722554 M 28.946872146442416,10.0 M 26.115069089095098,10.212214301722554 M 23.34652383263525,10.844116690063316 M 20.7030811032088,11.881591509854033 M 18.243791043233596,13.3014632879961 M 16.02359012879496,15.072014435233285 M 14.092073979549841,17.15369376468405 M 12.492389474538086,19.49999999999997 M 11.260270922202537,22.058520537038476 M 10.423241814987776,24.772102254830017 M 10.0,27.58012822185792 M 10.0,30.41987177814204 M 10.423241814987776,33.22789774516997 M 11.26027092220254,35.94147946296151 M 12.492389474538076,38.499999999999986 M 14.092073979549852,40.84630623531592 M 28.946872146442416,34.53745262686071 M 28.11223545585583,34.53745262686071 M 26.517123207384092,34.04542566025356 M 25.827514011154676,33.575258071250275 M 25.137904814925264,33.10509048224701 M 24.09712988524955,31.799999999999997 M 23.487275838224203,30.24611723015535 M 23.424903360225997,29.413814353035676 M 23.362530882227816,28.581511475916017 M 23.73397915403487,26.95409026354818 M 24.56861584462145,25.508457109591077 M 25.180447832953796,24.94075998671076 M 25.792279821286137,24.373062863830413 M 27.296243169741356,23.6487922875976 M 28.946872146442416,23.39999999999999 M 29.772186634792952,23.524396143798796 M 30.597501123143473,23.6487922875976 M 32.10146447159869,24.373062863830413 M 33.32512844826337,25.508457109591077 M 33.74244679355667,26.23127368656965 M 34.159765138849956,26.95409026354818 M 34.53121341065702,28.581511475916017 M 34.406468454660626,30.24611723015535 M 34.101541431147936,31.023058615077673 M 33.796614407635275,31.799999999999997 M 32.75583947795956,33.10509048224701 M 31.376621085500737,34.04542566025356 M 30.57906496126489,34.29143914355713 M 29.781508837028998,34.53745262686071 M 17.085147157561778,18.466115816744818 M 19.254048595290495,16.393468583514235 L 21.422950033019188,14.320821350283651 L 23.495597266249774,16.489722788012344 L 21.326695828521057,18.562370021242927 M 19.15779439079236,20.63501725447351 M 29.03340411116275,13.936033360114777 M 30.843028074398603,16.328785146590462 M 28.450276287922904,18.138409109826313 M 26.64065232468705,15.745657323350656 M 13.31432317134239,31.675703658014427 M 13.09013289058312,28.6840922664709 M 12.865942609823843,25.692480874927355 M 15.857554001367372,25.468290594168096 M 16.08174428212665,28.45990198571161 M 19.073355673670193,28.235711704952365 M 19.29754595442945,31.22732309649591 M 16.305934562885927,31.451513377255154 L 16.530124843645183,34.4431247687987 L 13.538513452101654,34.66731504955797 L 13.31432317134239,31.675703658014427 M 35.04540382411014,16.911912969830325 M 32.65265203763446,18.72153693306616 M 30.843028074398603,16.328785146590462 M 33.23577986087428,14.519161183354626 M 38.345720784264756,35.88528841403976 M 39.441743857363974,33.092667168107155 M 42.23436510329657,34.18869024120637 M 41.13834203019735,36.98131148713895 M 40.04231895709813,39.773932733071575 M 37.24969771116554,38.67790965997236 M 22.197947634792822,36.21069727435405 M 24.67093237838698,37.90903365385914 M 22.97259599888188,40.382018397453294 M 20.49961125528772,38.6836820179482 M 18.026626511693564,36.98534563844308 M 19.724962891198665,34.512360894848925 M 31.955839176471038,39.88723370081803 M 33.45583917647106,42.485309912171346 L 34.95583917647106,45.083386123524605 L 32.35776296511776,46.58338612352463 L 30.857762965117757,43.985309912171346 M 29.35776296511774,41.38723370081803 M 31.955839176471038,39.88723370081803 M 30.45583917647102,37.28915748946471 M 33.05391538782432,35.7891574894647 M 34.55391538782434,38.387233700818 M 19.15779439079236,20.63501725447351 M 21.230441624022923,22.803918692202217 L 19.06154018629423,24.87656592543277 L 16.988892953063644,22.70766448770408 L 19.15779439079236,20.63501725447351 M 21.274259619376778,42.85500314104746 L 22.97259599888188,40.382018397453294 L 25.445580742476032,42.08035477695839 L 23.74724436297094,44.55333952055258 L 21.274259619376778,42.85500314104746 M 43.90613986492556,20.328056409919753 L 41.30806365357223,21.828056409919768 L 39.80806365357223,19.229980198566466 L 42.406139864925564,17.729980198566494 L 43.90613986492556,20.328056409919753 M 43.33038817639578,31.39606899527378 L 40.53776693046319,30.300045922174533 L 41.6337900035624,27.50742467624194 L 44.42641124949502,28.603447749341157 L 43.33038817639578,31.39606899527378 M 37.61191123086559,27.42613262127307 L 36.11191123086559,24.82805640991974 L 34.611911230865594,22.229980198566437 L 37.20998744221892,20.729980198566437 L 38.70998744221889,23.32805640991974 L 40.20998744221889,25.92613262127307 L 37.61191123086559,27.42613262127307 "
  />
  <path id="face14-interior"
 style="fill:none;stroke:#FF0000;stroke-width:1;stroke-miterlimit:4;stroke-dasharray:none;stroke-linejoin:round;stroke-linecap:round"
        d="M 21.230441624022923,22.803918692202217 M 19.15779439079236,20.63501725447351 M 16.988892953063644,22.70766448770408 M 19.06154018629423,24.87656592543277 "
  />
  <path id="face15-interior"
 style="fill:none;stroke:#FF0000;stroke-width:1;stroke-miterlimit:4;stroke-dasharray:none;stroke-linejoin:round;stroke-linecap:round"
        d="M 19.254048595290495,16.393468583514235 M 21.326695828521057,18.562370021242927 M 23.495597266249774,16.489722788012344 M 21.422950033019188,14.320821350283651 "
  />
  <path id="face16-interior"
 style="fill:none;stroke:#FF0000;stroke-width:1;stroke-miterlimit:4;stroke-dasharray:none;stroke-linejoin:round;stroke-linecap:round"
        d="M 22.97259599888188,40.382018397453294 M 21.274259619376778,42.85500314104746 M 23.74724436297094,44.55333952055258 M 25.445580742476032,42.08035477695839 "
  />
  <path id="face17-interior"
 style="fill:none;stroke:#FF0000;stroke-width:1;stroke-miterlimit:4;stroke-dasharray:none;stroke-linejoin:round;stroke-linecap:round"
        d="M 41.30806365357223,21.828056409919768 M 43.90613986492556,20.328056409919753 M 42.406139864925564,17.729980198566494 M 39.80806365357223,19.229980198566466 "
  />
  <path id="face18-interior"
 style="fill:none;stroke:#FF0000;stroke-width:1;stroke-miterlimit:4;stroke-dasharray:none;stroke-linejoin:round;stroke-linecap:round"
        d="M 21.274259619376778,42.85500314104746 M 22.97259599888188,40.382018397453294 M 20.49961125528772,38.6836820179482 M 18.80127487578262,41.15666676154237 "
  />
  <path id="face19-interior"
 style="fill:none;stroke:#FF0000;stroke-width:1;stroke-miterlimit:4;stroke-dasharray:none;stroke-linejoin:round;stroke-linecap:round"
        d="M 40.53776693046319,30.300045922174533 M 43.33038817639578,31.39606899527378 M 44.42641124949502,28.603447749341157 M 41.6337900035624,27.50742467624194 "
  />
  <path id="face20-interior"
 style="fill:none;stroke:#FF0000;stroke-width:1;stroke-miterlimit:4;stroke-dasharray:none;stroke-linejoin:round;stroke-linecap:round"
        d="M 38.70998744221889,23.32805640991974 L 36.11191123086559,24.82805640991974 M 37.61191123086559,27.42613262127307 M 40.20998744221889,25.92613262127307 "
  />
  <path id="face21-interior"
 style="fill:none;stroke:#FF0000;stroke-width:1;stroke-miterlimit:4;stroke-dasharray:none;stroke-linejoin:round;stroke-linecap:round"
        d="M 38.70998744221889,23.32805640991974 M 41.30806365357223,21.828056409919768 M 39.80806365357223,19.229980198566466 M 37.20998744221892,20.729980198566437 "
  />
  <path id="face22-interior"
 style="fill:none;stroke:#FF0000;stroke-width:1;stroke-miterlimit:4;stroke-dasharray:none;stroke-linejoin:round;stroke-linecap:round"
        d="M 32.65265203763446,18.72153693306616 M 30.843028074398603,16.328785146590462 M 28.450276287922904,18.138409109826313 M 30.25990025115876,20.531160896302012 "
  />
  <path id="face23-interior"
 style="fill:none;stroke:#FF0000;stroke-width:1;stroke-miterlimit:4;stroke-dasharray:none;stroke-linejoin:round;stroke-linecap:round"
        d="M 39.441743857363974,33.092667168107155 M 42.23436510329657,34.18869024120637 M 43.33038817639578,31.39606899527378 M 40.53776693046319,30.300045922174533 "
  />
  <path id="face24-interior"
 style="fill:none;stroke:#FF0000;stroke-width:1;stroke-miterlimit:4;stroke-dasharray:none;stroke-linejoin:round;stroke-linecap:round"
        d="M 37.20998744221892,20.729980198566437 M 34.611911230865594,22.229980198566437 M 36.11191123086559,24.82805640991974 M 38.70998744221889,23.32805640991974 "
  />
  <path id="face25-interior"
 style="fill:none;stroke:#FF0000;stroke-width:1;stroke-miterlimit:4;stroke-dasharray:none;stroke-linejoin:round;stroke-linecap:round"
        d="M 34.95583917647106,45.083386123524605 M 33.45583917647106,42.485309912171346 M 30.857762965117757,43.985309912171346 M 32.35776296511776,46.58338612352463 "
  />
  <path id="face26-interior"
 style="fill:none;stroke:#FF0000;stroke-width:1;stroke-miterlimit:4;stroke-dasharray:none;stroke-linejoin:round;stroke-linecap:round"
        d="M 31.426155897638424,12.126409396878941 M 29.03340411116275,13.936033360114777 M 30.843028074398603,16.328785146590462 M 33.23577986087428,14.519161183354626 "
  />
  <path id="face27-interior"
 style="fill:none;stroke:#FF0000;stroke-width:1;stroke-miterlimit:4;stroke-dasharray:none;stroke-linejoin:round;stroke-linecap:round"
        d="M 16.305934562885927,31.451513377255154 M 13.31432317134239,31.675703658014427 M 13.538513452101654,34.66731504955797 M 16.530124843645183,34.4431247687987 "
  />
  <path id="face28-interior"
 style="fill:none;stroke:#FF0000;stroke-width:1;stroke-miterlimit:4;stroke-dasharray:none;stroke-linejoin:round;stroke-linecap:round"
        d="M 27.857762965117715,38.78915748946474 M 29.35776296511774,41.38723370081803 M 31.955839176471038,39.88723370081803 M 30.45583917647102,37.28915748946471 "
  />
  <path id="face0-interior"
 style="fill:none;stroke:#00FF00;stroke-width:1;stroke-miterlimit:4;stroke-dasharray:none;stroke-linejoin:round;stroke-linecap:round"
        d="M 21.326695828521057,18.562370021242927 M 19.254048595290495,16.393468583514235 M 17.085147157561778,18.466115816744818 M 19.15779439079236,20.63501725447351 "
  />
  <path id="face1-interior"
 style="fill:none;stroke:#00FF00;stroke-width:1;stroke-miterlimit:4;stroke-dasharray:none;stroke-linejoin:round;stroke-linecap:round"
        d="M 30.843028074398603,16.328785146590462 M 29.03340411116275,13.936033360114777 M 26.64065232468705,15.745657323350656 M 28.450276287922904,18.138409109826313 "
  />
  <path id="face2-interior"
 style="fill:none;stroke:#00FF00;stroke-width:1;stroke-miterlimit:4;stroke-dasharray:none;stroke-linejoin:round;stroke-linecap:round"
        d="M 13.09013289058312,28.6840922664709 M 13.31432317134239,31.675703658014427 M 16.305934562885927,31.451513377255154 M 16.08174428212665,28.45990198571161 "
  />
  <path id="face3-interior"
 style="fill:none;stroke:#00FF00;stroke-width:1;stroke-miterlimit:4;stroke-dasharray:none;stroke-linejoin:round;stroke-linecap:round"
        d="M 32.65265203763446,18.72153693306616 M 35.04540382411014,16.911912969830325 M 33.23577986087428,14.519161183354626 M 30.843028074398603,16.328785146590462 "
  />
  <path id="face4-interior"
 style="fill:none;stroke:#00FF00;stroke-width:1;stroke-miterlimit:4;stroke-dasharray:none;stroke-linejoin:round;stroke-linecap:round"
        d="M 39.441743857363974,33.092667168107155 M 38.345720784264756,35.88528841403976 M 41.13834203019735,36.98131148713895 M 42.23436510329657,34.18869024120637 "
  />
  <path id="face5-interior"
 style="fill:none;stroke:#00FF00;stroke-width:1;stroke-miterlimit:4;stroke-dasharray:none;stroke-linejoin:round;stroke-linecap:round"
        d="M 24.67093237838698,37.90903365385914 M 22.197947634792822,36.21069727435405 M 20.49961125528772,38.6836820179482 M 22.97259599888188,40.382018397453294 "
  />
  <path id="face6-interior"
 style="fill:none;stroke:#00FF00;stroke-width:1;stroke-miterlimit:4;stroke-dasharray:none;stroke-linejoin:round;stroke-linecap:round"
        d="M 33.45583917647106,42.485309912171346 M 31.955839176471038,39.88723370081803 M 29.35776296511774,41.38723370081803 M 30.857762965117757,43.985309912171346 "
  />
  <path id="face7-interior"
 style="fill:none;stroke:#00FF00;stroke-width:1;stroke-miterlimit:4;stroke-dasharray:none;stroke-linejoin:round;stroke-linecap:round"
        d="M 16.08174428212665,28.45990198571161 M 15.857554001367372,25.468290594168096 M 12.865942609823843,25.692480874927355 M 13.09013289058312,28.6840922664709 "
  />
  <path id="face8-interior"
 style="fill:none;stroke:#00FF00;stroke-width:1;stroke-miterlimit:4;stroke-dasharray:none;stroke-linejoin:round;stroke-linecap:round"
        d="M 30.45583917647102,37.28915748946471 M 31.955839176471038,39.88723370081803 M 34.55391538782434,38.387233700818 M 33.05391538782432,35.7891574894647 "
  />
  <path id="face9-interior"
 style="fill:none;stroke:#00FF00;stroke-width:1;stroke-miterlimit:4;stroke-dasharray:none;stroke-linejoin:round;stroke-linecap:round"
        d="M 41.13834203019735,36.98131148713895 M 38.345720784264756,35.88528841403976 M 37.24969771116554,38.67790965997236 M 40.04231895709813,39.773932733071575 "
  />
  <path id="face10-interior"
 style="fill:none;stroke:#00FF00;stroke-width:1;stroke-miterlimit:4;stroke-dasharray:none;stroke-linejoin:round;stroke-linecap:round"
        d="M 16.08174428212665,28.45990198571161 M 16.305934562885927,31.451513377255154 M 19.29754595442945,31.22732309649591 M 19.073355673670193,28.235711704952365 "
  />
  <path id="face11-interior"
 style="fill:none;stroke:#00FF00;stroke-width:1;stroke-miterlimit:4;stroke-dasharray:none;stroke-linejoin:round;stroke-linecap:round"
        d="M 23.39934306175164,20.731271458971634 M 21.326695828521057,18.562370021242927 M 19.15779439079236,20.63501725447351 M 21.230441624022923,22.803918692202217 "
  />
  <path id="face12-interior"
 style="fill:none;stroke:#00FF00;stroke-width:1;stroke-miterlimit:4;stroke-dasharray:none;stroke-linejoin:round;stroke-linecap:round"
        d="M 20.49961125528772,38.6836820179482 M 22.197947634792822,36.21069727435405 M 19.724962891198665,34.512360894848925 M 18.026626511693564,36.98534563844308 "
  />
  <path id="face13-interior"
 style="fill:none;stroke:#00FF00;stroke-width:1;stroke-miterlimit:4;stroke-dasharray:none;stroke-linejoin:round;stroke-linecap:round"
        d="M 16.02359012879494,42.927985564766686 M 18.243791043233593,44.698536712003886 M 20.70308110320882,46.11840849014595 M 23.346523832635224,47.155883309936684 M 26.115069089095098,47.787785698277446 M 28.946872146442416,48.0 M 31.77867520378973,47.787785698277446 M 34.5472204602496,47.155883309936684 M 37.19066318967603,46.11840849014595 M 39.64995324965123,44.698536712003886 M 41.87015416408989,42.927985564766686 M 43.801670313334974,40.84630623531592 M 45.40135481834674,38.499999999999986 M 46.63347337068229,35.94147946296151 M 47.47050247789706,33.22789774516994 M 47.89374429288483,30.419871778142067 M 47.89374429288483,27.580128221857947 M 47.47050247789706,24.772102254830017 M 46.633473370682296,22.058520537038504 M 45.40135481834674,19.500000000000043 M 43.801670313334974,17.15369376468405 M 41.87015416408988,15.072014435233285 M 39.64995324965123,13.3014632879961 M 37.19066318967601,11.881591509854019 M 34.547220460249605,10.84411669006333 M 31.77867520378973,10.212214301722554 M 28.946872146442416,10.0 M 26.115069089095098,10.212214301722554 M 23.34652383263525,10.844116690063316 M 20.7030811032088,11.881591509854033 M 18.243791043233596,13.3014632879961 M 16.02359012879496,15.072014435233285 M 14.092073979549841,17.15369376468405 M 12.492389474538086,19.49999999999997 M 11.260270922202537,22.058520537038476 M 10.423241814987776,24.772102254830017 M 10.0,27.58012822185792 M 10.0,30.41987177814204 M 10.423241814987776,33.22789774516997 M 11.26027092220254,35.94147946296151 M 12.492389474538076,38.499999999999986 M 14.092073979549852,40.84630623531592 M 28.946872146442416,34.53745262686071 M 28.11223545585583,34.53745262686071 M 26.517123207384092,34.04542566025356 M 25.827514011154676,33.575258071250275 M 25.137904814925264,33.10509048224701 M 24.09712988524955,31.799999999999997 M 23.487275838224203,30.24611723015535 M 23.424903360225997,29.413814353035676 M 23.362530882227816,28.581511475916017 M 23.73397915403487,26.95409026354818 M 24.56861584462145,25.508457109591077 M 25.180447832953796,24.94075998671076 M 25.792279821286137,24.373062863830413 M 27.296243169741356,23.6487922875976 M 28.946872146442416,23.39999999999999 M 29.772186634792952,23.524396143798796 M 30.597501123143473,23.6487922875976 M 32.10146447159869,24.373062863830413 M 33.32512844826337,25.508457109591077 M 33.74244679355667,26.23127368656965 M 34.159765138849956,26.95409026354818 M 34.53121341065702,28.581511475916017 M 34.406468454660626,30.24611723015535 M 34.101541431147936,31.023058615077673 M 33.796614407635275,31.799999999999997 M 32.75583947795956,33.10509048224701 M 31.376621085500737,34.04542566025356 M 30.57906496126489,34.29143914355713 M 29.781508837028998,34.53745262686071 M 17.085147157561778,18.466115816744818 M 19.254048595290495,16.393468583514235 M 21.422950033019188,14.320821350283651 M 23.495597266249774,16.489722788012344 M 21.326695828521057,18.562370021242927 M 19.15779439079236,20.63501725447351 M 29.03340411116275,13.936033360114777 M 30.843028074398603,16.328785146590462 M 28.450276287922904,18.138409109826313 M 26.64065232468705,15.745657323350656 M 13.31432317134239,31.675703658014427 M 13.09013289058312,28.6840922664709 M 12.865942609823843,25.692480874927355 M 15.857554001367372,25.468290594168096 M 16.08174428212665,28.45990198571161 M 19.073355673670193,28.235711704952365 M 19.29754595442945,31.22732309649591 M 16.305934562885927,31.451513377255154 M 16.530124843645183,34.4431247687987 M 13.538513452101654,34.66731504955797 M 35.04540382411014,16.911912969830325 M 32.65265203763446,18.72153693306616 M 30.843028074398603,16.328785146590462 M 33.23577986087428,14.519161183354626 M 38.345720784264756,35.88528841403976 M 39.441743857363974,33.092667168107155 M 42.23436510329657,34.18869024120637 M 41.13834203019735,36.98131148713895 M 40.04231895709813,39.773932733071575 M 37.24969771116554,38.67790965997236 M 22.197947634792822,36.21069727435405 M 24.67093237838698,37.90903365385914 M 22.97259599888188,40.382018397453294 M 20.49961125528772,38.6836820179482 M 18.026626511693564,36.98534563844308 M 19.724962891198665,34.512360894848925 M 31.955839176471038,39.88723370081803 M 33.45583917647106,42.485309912171346 M 34.95583917647106,45.083386123524605 M 32.35776296511776,46.58338612352463 M 30.857762965117757,43.985309912171346 M 29.35776296511774,41.38723370081803 M 31.955839176471038,39.88723370081803 M 30.45583917647102,37.28915748946471 M 33.05391538782432,35.7891574894647 M 34.55391538782434,38.387233700818 M 19.15779439079236,20.63501725447351 M 21.230441624022923,22.803918692202217 M 19.06154018629423,24.87656592543277 M 16.988892953063644,22.70766448770408 M 21.274259619376778,42.85500314104746 M 22.97259599888188,40.382018397453294 M 25.445580742476032,42.08035477695839 M 23.74724436297094,44.55333952055258 M 43.90613986492556,20.328056409919753 M 41.30806365357223,21.828056409919768 M 39.80806365357223,19.229980198566466 M 42.406139864925564,17.729980198566494 M 43.33038817639578,31.39606899527378 M 40.53776693046319,30.300045922174533 M 41.6337900035624,27.50742467624194 M 44.42641124949502,28.603447749341157 M 37.61191123086559,27.42613262127307 M 36.11191123086559,24.82805640991974 M 34.611911230865594,22.229980198566437 M 37.20998744221892,20.729980198566437 M 38.70998744221889,23.32805640991974 M 40.20998744221889,25.92613262127307 "
  />
  <path id="face14-interior"
 style="fill:none;stroke:#00FF00;stroke-width:1;stroke-miterlimit:4;stroke-dasharray:none;stroke-linejoin:round;stroke-linecap:round"
        d="M 21.230441624022923,22.803918692202217 M 19.15779439079236,20.63501725447351 M 16.988892953063644,22.70766448770408 M 19.06154018629423,24.87656592543277 "
  />
  <path id="face15-interior"
 style="fill:none;stroke:#00FF00;stroke-width:1;stroke-miterlimit:4;stroke-dasharray:none;stroke-linejoin:round;stroke-linecap:round"
        d="M 19.254048595290495,16.393468583514235 M 21.326695828521057,18.562370021242927 M 23.495597266249774,16.489722788012344 M 21.422950033019188,14.320821350283651 "
  />
  <path id="face16-interior"
 style="fill:none;stroke:#00FF00;stroke-width:1;stroke-miterlimit:4;stroke-dasharray:none;stroke-linejoin:round;stroke-linecap:round"
        d="M 22.97259599888188,40.382018397453294 M 21.274259619376778,42.85500314104746 M 23.74724436297094,44.55333952055258 M 25.445580742476032,42.08035477695839 "
  />
  <path id="face17-interior"
 style="fill:none;stroke:#00FF00;stroke-width:1;stroke-miterlimit:4;stroke-dasharray:none;stroke-linejoin:round;stroke-linecap:round"
        d="M 41.30806365357223,21.828056409919768 M 43.90613986492556,20.328056409919753 M 42.406139864925564,17.729980198566494 M 39.80806365357223,19.229980198566466 "
  />
  <path id="face18-interior"
 style="fill:none;stroke:#00FF00;stroke-width:1;stroke-miterlimit:4;stroke-dasharray:none;stroke-linejoin:round;stroke-linecap:round"
        d="M 21.274259619376778,42.85500314104746 M 22.97259599888188,40.382018397453294 M 20.49961125528772,38.6836820179482 M 18.80127487578262,41.15666676154237 "
  />
  <path id="face19-interior"
 style="fill:none;stroke:#00FF00;stroke-width:1;stroke-miterlimit:4;stroke-dasharray:none;stroke-linejoin:round;stroke-linecap:round"
        d="M 40.53776693046319,30.300045922174533 M 43.33038817639578,31.39606899527378 M 44.42641124949502,28.603447749341157 M 41.6337900035624,27.50742467624194 "
  />
  <path id="face20-interior"
 style="fill:none;stroke:#00FF00;stroke-width:1;stroke-miterlimit:4;stroke-dasharray:none;stroke-linejoin:round;stroke-linecap:round"
        d="M 38.70998744221889,23.32805640991974 M 36.11191123086559,24.82805640991974 M 37.61191123086559,27.42613262127307 M 40.20998744221889,25.92613262127307 "
  />
  <path id="face21-interior"
 style="fill:none;stroke:#00FF00;stroke-width:1;stroke-miterlimit:4;stroke-dasharray:none;stroke-linejoin:round;stroke-linecap:round"
        d="M 38.70998744221889,23.32805640991974 M 41.30806365357223,21.828056409919768 M 39.80806365357223,19.229980198566466 M 37.20998744221892,20.729980198566437 "
  />
  <path id="face22-interior"
 style="fill:none;stroke:#00FF00;stroke-width:1;stroke-miterlimit:4;stroke-dasharray:none;stroke-linejoin:round;stroke-linecap:round"
        d="M 32.65265203763446,18.72153693306616 M 30.843028074398603,16.328785146590462 M 28.450276287922904,18.138409109826313 M 30.25990025115876,20.531160896302012 "
  />
  <path id="face23-interior"
 style="fill:none;stroke:#00FF00;stroke-width:1;stroke-miterlimit:4;stroke-dasharray:none;stroke-linejoin:round;stroke-linecap:round"
        d="M 39.441743857363974,33.092667168107155 M 42.23436510329657,34.18869024120637 M 43.33038817639578,31.39606899527378 M 40.53776693046319,30.300045922174533 "
  />
  <path id="face24-interior"
 style="fill:none;stroke:#00FF00;stroke-width:1;stroke-miterlimit:4;stroke-dasharray:none;stroke-linejoin:round;stroke-linecap:round"
        d="M 37.20998744221892,20.729980198566437 M 34.611911230865594,22.229980198566437 M 36.11191123086559,24.82805640991974 M 38.70998744221889,23.32805640991974 "
  />
  <path id="face25-interior"
 style="fill:none;stroke:#00FF00;stroke-width:1;stroke-miterlimit:4;stroke-dasharray:none;stroke-linejoin:round;stroke-linecap:round"
        d="M 34.95583917647106,45.083386123524605 M 33.45583917647106,42.485309912171346 M 30.857762965117757,43.985309912171346 M 32.35776296511776,46.58338612352463 "
  />
  <path id="face26-interior"
 style="fill:none;stroke:#00FF00;stroke-width:1;stroke-miterlimit:4;stroke-dasharray:none;stroke-linejoin:round;stroke-linecap:round"
        d="M 31.426155897638424,12.126409396878941 M 29.03340411116275,13.936033360114777 M 30.843028074398603,16.328785146590462 M 33.23577986087428,14.519161183354626 "
  />
  <path id="face27-interior"
 style="fill:none;stroke:#00FF00;stroke-width:1;stroke-miterlimit:4;stroke-dasharray:none;stroke-linejoin:round;stroke-linecap:round"
        d="M 16.305934562885927,31.451513377255154 M 13.31432317134239,31.675703658014427 M 13.538513452101654,34.66731504955797 M 16.530124843645183,34.4431247687987 "
  />
  <path id="face28-interior"
 style="fill:none;stroke:#00FF00;stroke-width:1;stroke-miterlimit:4;stroke-dasharray:none;stroke-linejoin:round;stroke-linecap:round"
        d="M 27.857762965117715,38.78915748946474 M 29.35776296511774,41.38723370081803 M 31.955839176471038,39.88723370081803 M 30.45583917647102,37.28915748946471 "
  />
</svg>
