<?xml version="1.0" standalone="no"?>
<!DOCTYPE svg PUBLIC "-//W3C//DTD SVG 1.1//EN" "http://www.w3.org/Graphics/SVG/1.1/DTD/svg11.dtd">
<svg width="57.893744292884826mm" height="57.99999999999999mm"
 viewBox="0 0 57.893744292884826 57.99999999999999"
 xmlns="http://www.w3.org/2000/svg" version="1.1"
 xmlns:xlink="http://www.w3.org/1999/xlink">
<desc>Output from Flights of Ideas SVG Sketchup Plugin</desc>

  <path id="face0-cut"
 style="fill:none;stroke:#0000FF;stroke-width:1;stroke-miterlimit:4;stroke-dasharray:none;stroke-linejoin:round;stroke-linecap:round"
        d="M 18.2437910432336,13.3014632879961 L 16.023590128794936,15.0720144352333 L 14.092073979549852,17.153693764684057 L 12.492389474538072,19.500000000000007 L 11.260270922202537,22.058520537038497 L 10.423241814987776,24.772102254830024 L 10.0,27.58012822185794 L 10.0,30.41987177814206 L 10.423241814987776,33.22789774516996 L 11.260270922202537,35.94147946296152 L 12.492389474538086,38.50000000000001 L 14.092073979549838,40.84630623531593 L 16.023590128794964,42.92798556476671 L 18.2437910432336,44.69853671200389 L 20.703081103208802,46.11840849014596 L 23.346523832635242,47.15588330993666 L 26.1150690890951,47.78778569827744 L 28.946872146442416,47.99999999999999 L 31.77867520378973,47.78778569827744 L 34.547220460249605,47.15588330993666 L 37.19066318967601,46.118408490145974 L 39.64995324965123,44.69853671200391 L 41.87015416408989,42.92798556476671 L 43.801670313334974,40.84630623531594 L 45.40135481834674,38.50000000000001 L 46.63347337068229,35.9414794629615 L 47.47050247789704,33.227897745169976 L 47.89374429288482,30.41987177814206 L 47.893744292884826,27.580128221857926 L 47.47050247789706,24.77210225483004 L 46.63347337068229,22.05852053703849 L 45.40135481834674,19.499999999999986 L 43.801670313334974,17.153693764684093 L 41.87015416408989,15.072014435233271 L 39.64995324965123,13.3014632879961 L 37.19066318967603,11.881591509854069 L 34.547220460249605,10.844116690063345 L 31.77867520378973,10.212214301722561 L 28.946872146442416,10.0 L 26.1150690890951,10.212214301722561 L 23.346523832635228,10.84411669006333 L 20.703081103208817,11.881591509854033 L 18.2437910432336,13.3014632879961 M 32.70183356649068,26.52002727153114 L 33.029514505378316,27.107374477340464 L 33.265995960330756,27.73699980985645 L 33.40599532641819,28.394838479575263 L 33.446385249144214,29.06619545766106 L 33.38626348437745,29.736073738607395 L 33.22697305299458,30.389509348558484 L 32.972072240013176,31.011905615757847 L 32.62725510838435,31.589359236075147 L 32.20022430303548,32.10897084984587 L 31.700518986510943,32.559133192250705 L 31.13930174984371,32.92979038043121 L 30.52910925871734,33.21266254529602 L 29.883572205070877,33.401430790114226 L 29.21711081996493,33.49187834422671 L 28.54461274944842,33.48198475873469 L 27.88110048914713,33.37197103998941 L 27.241395806535166,33.16429471267545 L 26.639788647141913,32.86359492277017 L 26.08971792078232,32.47658880668863 L 25.603471298518727,32.011921441555735 L 25.191910726394156,31.47997272846886 L 24.864229787506517,30.892625522659536 L 24.627748332554077,30.26300019014355 L 24.48774896646664,29.605161520424737 L 24.44735904374062,28.93380454233894 L 24.50748080850738,28.263926261392605 L 24.666771239890238,27.610490651441516 L 24.921672052871656,26.988094384242153 L 25.266489184500486,26.41064076392484 L 25.69351998984935,25.891029150154132 L 26.19322530637389,25.440866807749295 L 26.754442543041122,25.07020961956878 L 27.364635034167478,24.78733745470398 L 28.010172087813956,24.598569209885774 L 28.676633472919903,24.508121655773287 L 29.349131543436414,24.51801524126531 L 30.01264380373769,24.62802896001059 L 30.652348486349666,24.83570528732455 L 31.25395564574292,25.13640507722983 L 31.804026372102513,25.523411193311368 L 32.29027299436609,25.988078558444265 L 32.70183356649068,26.52002727153114 M 18.222665112442357,31.447730273519447 L 15.297881375896893,32.1152930753884 L 15.034901207937025,30.56750266544629 L 14.946872146442416,28.999999999999993 L 15.034901207937025,27.43249733455368 L 15.297881375896893,25.8847069246116 L 12.405157146846847,25.224461496120632 L 12.941488221386791,23.361405007695417 L 13.658892837816822,21.63769719211124 L 19.0362145995158,24.227278869706858 L 18.564155513050366,25.366930318493168 L 18.222665112442357,26.55226972648054 L 18.016037837616736,27.76839076286361 L 17.946872146442416,28.999999999999993 L 18.016037837616736,30.23160923713639 L 18.222665112442357,31.447730273519447 M 24.174151016149267,38.91065754692661 L 22.872499798796596,41.61356415063387 L 21.498423075227706,40.85413878919598 L 20.218014920420146,39.94564075455241 L 18.347545514843944,42.2911352019565 L 16.93624623931973,41.001195449668565 L 15.655736944485895,39.599326631598466 L 18.001231391890002,37.728857226022264 L 17.09273335724643,36.448449071214704 L 16.333307995808553,35.0743723476458 L 19.0362145995158,33.77272113029314 L 19.63290595493129,34.8523528416687 L 20.34672583929408,35.85838782044606 L 21.168697553390388,36.77817459305202 L 22.088484325996347,37.60014630714833 L 23.094519304773698,38.31396619151112 L 24.174151016149267,38.91065754692661 M 30.1784813835788,39.93083430882567 L 31.39460241996187,39.72420703400005 L 32.06216522183081,42.64899077054552 L 33.57077901381474,42.214366624317144 L 35.021244494088236,41.61356415063387 L 36.32289571144091,44.31647075434112 L 34.56240880955082,45.055661074920884 L 32.729728023699764,45.573774507090995 L 30.850170426587965,45.8963453275826 L 28.946872146442416,45.99999999999999 L 28.946872146442416,42.99999999999999 L 27.37936948099609,42.9119709385054 L 25.83157907105401,42.64899077054552 L 26.499141872922948,39.72420703400005 L 27.71526290930602,39.93083430882567 L 28.946872146442416,40.00000000000001 L 30.1784813835788,39.93083430882567 M 15.678394405652512,18.418742090741524 L 16.97694435979541,16.96308592195912 L 18.347545514843944,15.708864798043493 L 19.956796346115254,14.594975712479474 L 21.570848581443926,13.683529245658875 L 22.872499798796596,16.386435849366137 L 24.32296527907009,15.785633375682856 L 25.831579071054023,15.351009229454476 L 26.499141872922962,18.27579296599994 L 25.313802464935577,18.617283366607957 L 24.174151016149267,19.089342453073385 L 23.094519304773712,19.686033808488872 L 22.088484325996347,20.399853692851664 L 20.21801492042016,18.054359245447586 L 19.047377209830756,19.100505063388333 L 18.001231391890002,20.27114277397773 L 15.678394405652512,18.418742090741524 M 28.946872146442416,12.000000000000007 L 30.907364361524515,12.115078373314532 L 32.70157628144216,12.423053553345532 L 34.61673480176859,12.968327904026175 L 36.32289571144091,13.683529245658889 L 33.71959327673555,19.089342453073385 L 32.579941827949256,18.617283366607957 L 31.394602419961885,18.27579296599994 L 30.1784813835788,18.069165691174327 L 28.946872146442416,18.0 L 28.946872146442416,12.000000000000007 M 45.52064665353342,25.21714412274266 L 39.671079180442476,26.55226972648054 L 39.32958877983447,25.366930318493168 L 38.85752969336903,24.227278869706858 L 38.26083833795354,23.147647158331303 L 37.547018453590745,22.14161217955394 L 36.725046739494445,21.22182540694798 L 35.805259966888485,20.399853692851664 L 37.67572937246469,18.054359245447586 L 38.84636708305408,19.100505063388333 L 39.89251290099483,20.271142773977736 L 40.801010935638395,21.55155092878531 L 41.56043629707628,22.925627652354187 L 44.263342900783535,21.623976435001495 L 44.3023639042908,21.653474448652524 L 45.028821392281515,23.4157309999132 L 45.52064665353342,25.21714412274266 M 37.67572937246469,39.94564075455241 L 35.805259966888485,37.60014630714833 L 36.725046739494445,36.77817459305202 L 37.547018453590745,35.85838782044606 L 38.26083833795354,34.8523528416687 L 38.85752969336903,33.77272113029314 L 39.32958877983447,32.63306968150683 L 39.671079180442476,31.447730273519447 L 39.87770645526809,30.23160923713639 L 39.946872146442416,28.999999999999993 L 42.94687214644241,28.999999999999993 L 42.85884308494781,30.56750266544632 L 42.59586291698794,32.1152930753884 L 42.16123877075955,33.623906867372334 L 41.56043629707628,35.07437234764581 L 40.80101093563839,36.44844907121472 L 39.89251290099483,37.72885722602228 L 38.84636708305407,38.89949493661167 L 37.67572937246469,39.94564075455241 "
  />
  <path id="face0-interior"
 style="fill:none;stroke:#FF0000;stroke-width:1;stroke-miterlimit:4;stroke-dasharray:none;stroke-linejoin:round;stroke-linecap:round"
        d="M 18.2437910432336,13.3014632879961 M 16.023590128794936,15.0720144352333 M 14.092073979549852,17.153693764684057 M 12.492389474538072,19.500000000000007 M 11.260270922202537,22.058520537038497 M 10.423241814987776,24.772102254830024 M 10.0,27.58012822185794 M 10.0,30.41987177814206 M 10.423241814987776,33.22789774516996 M 11.260270922202537,35.94147946296152 M 12.492389474538086,38.50000000000001 M 14.092073979549838,40.84630623531593 M 16.023590128794964,42.92798556476671 M 18.2437910432336,44.69853671200389 M 20.703081103208802,46.11840849014596 M 23.346523832635242,47.15588330993666 M 26.1150690890951,47.78778569827744 M 28.946872146442416,47.99999999999999 M 31.77867520378973,47.78778569827744 M 34.547220460249605,47.15588330993666 M 37.19066318967601,46.118408490145974 M 39.64995324965123,44.69853671200391 M 41.87015416408989,42.92798556476671 M 43.801670313334974,40.84630623531594 M 45.40135481834674,38.50000000000001 M 46.63347337068229,35.9414794629615 M 47.47050247789704,33.227897745169976 M 47.89374429288482,30.41987177814206 M 47.893744292884826,27.580128221857926 M 47.47050247789706,24.77210225483004 M 46.63347337068229,22.05852053703849 M 45.40135481834674,19.499999999999986 M 43.801670313334974,17.153693764684093 M 41.87015416408989,15.072014435233271 M 39.64995324965123,13.3014632879961 M 37.19066318967603,11.881591509854069 M 34.547220460249605,10.844116690063345 M 31.77867520378973,10.212214301722561 M 28.946872146442416,10.0 M 26.1150690890951,10.212214301722561 M 23.346523832635228,10.84411669006333 M 20.703081103208817,11.881591509854033 M 32.70183356649068,26.52002727153114 M 33.029514505378316,27.107374477340464 M 33.265995960330756,27.73699980985645 M 33.40599532641819,28.394838479575263 M 33.446385249144214,29.06619545766106 M 33.38626348437745,29.736073738607395 M 33.22697305299458,30.389509348558484 M 32.972072240013176,31.011905615757847 M 32.62725510838435,31.589359236075147 M 32.20022430303548,32.10897084984587 M 31.700518986510943,32.559133192250705 M 31.13930174984371,32.92979038043121 M 30.52910925871734,33.21266254529602 M 29.883572205070877,33.401430790114226 M 29.21711081996493,33.49187834422671 M 28.54461274944842,33.48198475873469 M 27.88110048914713,33.37197103998941 M 27.241395806535166,33.16429471267545 M 26.639788647141913,32.86359492277017 M 26.08971792078232,32.47658880668863 M 25.603471298518727,32.011921441555735 M 25.191910726394156,31.47997272846886 M 24.864229787506517,30.892625522659536 M 24.627748332554077,30.26300019014355 M 24.48774896646664,29.605161520424737 M 24.44735904374062,28.93380454233894 M 24.50748080850738,28.263926261392605 M 24.666771239890238,27.610490651441516 M 24.921672052871656,26.988094384242153 M 25.266489184500486,26.41064076392484 M 25.69351998984935,25.891029150154132 M 26.19322530637389,25.440866807749295 M 26.754442543041122,25.07020961956878 M 27.364635034167478,24.78733745470398 M 28.010172087813956,24.598569209885774 M 28.676633472919903,24.508121655773287 M 29.349131543436414,24.51801524126531 M 30.01264380373769,24.62802896001059 M 30.652348486349666,24.83570528732455 M 31.25395564574292,25.13640507722983 M 31.804026372102513,25.523411193311368 M 32.29027299436609,25.988078558444265 M 18.222665112442357,31.447730273519447 M 15.297881375896893,32.1152930753884 M 15.034901207937025,30.56750266544629 M 14.946872146442416,28.999999999999993 M 15.034901207937025,27.43249733455368 M 15.297881375896893,25.8847069246116 M 12.405157146846847,25.224461496120632 M 12.941488221386791,23.361405007695417 M 13.658892837816822,21.63769719211124 M 19.0362145995158,24.227278869706858 M 18.564155513050366,25.366930318493168 M 18.222665112442357,26.55226972648054 M 18.016037837616736,27.76839076286361 M 17.946872146442416,28.999999999999993 M 18.016037837616736,30.23160923713639 M 24.174151016149267,38.91065754692661 M 22.872499798796596,41.61356415063387 M 21.498423075227706,40.85413878919598 M 20.218014920420146,39.94564075455241 M 18.347545514843944,42.2911352019565 M 16.93624623931973,41.001195449668565 M 15.655736944485895,39.599326631598466 M 18.001231391890002,37.728857226022264 M 17.09273335724643,36.448449071214704 M 16.333307995808553,35.0743723476458 M 19.0362145995158,33.77272113029314 M 19.63290595493129,34.8523528416687 M 20.34672583929408,35.85838782044606 M 21.168697553390388,36.77817459305202 M 22.088484325996347,37.60014630714833 M 23.094519304773698,38.31396619151112 M 30.1784813835788,39.93083430882567 M 31.39460241996187,39.72420703400005 M 32.06216522183081,42.64899077054552 M 33.57077901381474,42.214366624317144 M 35.021244494088236,41.61356415063387 M 36.32289571144091,44.31647075434112 M 34.56240880955082,45.055661074920884 M 32.729728023699764,45.573774507090995 M 30.850170426587965,45.8963453275826 M 28.946872146442416,45.99999999999999 M 28.946872146442416,42.99999999999999 M 27.37936948099609,42.9119709385054 M 25.83157907105401,42.64899077054552 M 26.499141872922948,39.72420703400005 M 27.71526290930602,39.93083430882567 M 28.946872146442416,40.00000000000001 M 15.678394405652512,18.418742090741524 M 16.97694435979541,16.96308592195912 M 18.347545514843944,15.708864798043493 M 19.956796346115254,14.594975712479474 M 21.570848581443926,13.683529245658875 M 22.872499798796596,16.386435849366137 M 24.32296527907009,15.785633375682856 M 25.831579071054023,15.351009229454476 M 26.499141872922962,18.27579296599994 M 25.313802464935577,18.617283366607957 M 24.174151016149267,19.089342453073385 M 23.094519304773712,19.686033808488872 M 22.088484325996347,20.399853692851664 M 20.21801492042016,18.054359245447586 M 19.047377209830756,19.100505063388333 M 18.001231391890002,20.27114277397773 M 28.946872146442416,12.000000000000007 M 30.907364361524515,12.115078373314532 M 32.70157628144216,12.423053553345532 M 34.61673480176859,12.968327904026175 M 36.32289571144091,13.683529245658889 M 33.71959327673555,19.089342453073385 M 32.579941827949256,18.617283366607957 M 31.394602419961885,18.27579296599994 M 30.1784813835788,18.069165691174327 M 28.946872146442416,18.0 M 45.52064665353342,25.21714412274266 M 39.671079180442476,26.55226972648054 M 39.32958877983447,25.366930318493168 M 38.85752969336903,24.227278869706858 M 38.26083833795354,23.147647158331303 M 37.547018453590745,22.14161217955394 M 36.725046739494445,21.22182540694798 M 35.805259966888485,20.399853692851664 M 37.67572937246469,18.054359245447586 M 38.84636708305408,19.100505063388333 M 39.89251290099483,20.271142773977736 M 40.801010935638395,21.55155092878531 M 41.56043629707628,22.925627652354187 M 44.263342900783535,21.623976435001495 M 44.3023639042908,21.653474448652524 M 45.028821392281515,23.4157309999132 M 37.67572937246469,39.94564075455241 M 35.805259966888485,37.60014630714833 M 36.725046739494445,36.77817459305202 M 37.547018453590745,35.85838782044606 M 38.26083833795354,34.8523528416687 M 38.85752969336903,33.77272113029314 M 39.32958877983447,32.63306968150683 M 39.671079180442476,31.447730273519447 M 39.87770645526809,30.23160923713639 M 39.946872146442416,28.999999999999993 M 42.94687214644241,28.999999999999993 M 42.85884308494781,30.56750266544632 M 42.59586291698794,32.1152930753884 M 42.16123877075955,33.623906867372334 M 41.56043629707628,35.07437234764581 M 40.80101093563839,36.44844907121472 M 39.89251290099483,37.72885722602228 M 38.84636708305407,38.89949493661167 "
  />
  <path id="face0-interior"
 style="fill:none;stroke:#00FF00;stroke-width:1;stroke-miterlimit:4;stroke-dasharray:none;stroke-linejoin:round;stroke-linecap:round"
        d="M 18.2437910432336,13.3014632879961 M 16.023590128794936,15.0720144352333 M 14.092073979549852,17.153693764684057 M 12.492389474538072,19.500000000000007 M 11.260270922202537,22.058520537038497 M 10.423241814987776,24.772102254830024 M 10.0,27.58012822185794 M 10.0,30.41987177814206 M 10.423241814987776,33.22789774516996 M 11.260270922202537,35.94147946296152 M 12.492389474538086,38.50000000000001 M 14.092073979549838,40.84630623531593 M 16.023590128794964,42.92798556476671 M 18.2437910432336,44.69853671200389 M 20.703081103208802,46.11840849014596 M 23.346523832635242,47.15588330993666 M 26.1150690890951,47.78778569827744 M 28.946872146442416,47.99999999999999 M 31.77867520378973,47.78778569827744 M 34.547220460249605,47.15588330993666 M 37.19066318967601,46.118408490145974 M 39.64995324965123,44.69853671200391 M 41.87015416408989,42.92798556476671 M 43.801670313334974,40.84630623531594 M 45.40135481834674,38.50000000000001 M 46.63347337068229,35.9414794629615 M 47.47050247789704,33.227897745169976 M 47.89374429288482,30.41987177814206 M 47.893744292884826,27.580128221857926 M 47.47050247789706,24.77210225483004 M 46.63347337068229,22.05852053703849 M 45.40135481834674,19.499999999999986 M 43.801670313334974,17.153693764684093 M 41.87015416408989,15.072014435233271 M 39.64995324965123,13.3014632879961 M 37.19066318967603,11.881591509854069 M 34.547220460249605,10.844116690063345 M 31.77867520378973,10.212214301722561 M 28.946872146442416,10.0 M 26.1150690890951,10.212214301722561 M 23.346523832635228,10.84411669006333 M 20.703081103208817,11.881591509854033 M 32.70183356649068,26.52002727153114 M 33.029514505378316,27.107374477340464 M 33.265995960330756,27.73699980985645 M 33.40599532641819,28.394838479575263 M 33.446385249144214,29.06619545766106 M 33.38626348437745,29.736073738607395 M 33.22697305299458,30.389509348558484 M 32.972072240013176,31.011905615757847 M 32.62725510838435,31.589359236075147 M 32.20022430303548,32.10897084984587 M 31.700518986510943,32.559133192250705 M 31.13930174984371,32.92979038043121 M 30.52910925871734,33.21266254529602 M 29.883572205070877,33.401430790114226 M 29.21711081996493,33.49187834422671 M 28.54461274944842,33.48198475873469 M 27.88110048914713,33.37197103998941 M 27.241395806535166,33.16429471267545 M 26.639788647141913,32.86359492277017 M 26.08971792078232,32.47658880668863 M 25.603471298518727,32.011921441555735 M 25.191910726394156,31.47997272846886 M 24.864229787506517,30.892625522659536 M 24.627748332554077,30.26300019014355 M 24.48774896646664,29.605161520424737 M 24.44735904374062,28.93380454233894 M 24.50748080850738,28.263926261392605 M 24.666771239890238,27.610490651441516 M 24.921672052871656,26.988094384242153 M 25.266489184500486,26.41064076392484 M 25.69351998984935,25.891029150154132 M 26.19322530637389,25.440866807749295 M 26.754442543041122,25.07020961956878 M 27.364635034167478,24.78733745470398 M 28.010172087813956,24.598569209885774 M 28.676633472919903,24.508121655773287 M 29.349131543436414,24.51801524126531 M 30.01264380373769,24.62802896001059 M 30.652348486349666,24.83570528732455 M 31.25395564574292,25.13640507722983 M 31.804026372102513,25.523411193311368 M 32.29027299436609,25.988078558444265 M 18.222665112442357,31.447730273519447 M 15.297881375896893,32.1152930753884 M 15.034901207937025,30.56750266544629 M 14.946872146442416,28.999999999999993 M 15.034901207937025,27.43249733455368 M 15.297881375896893,25.8847069246116 M 12.405157146846847,25.224461496120632 M 12.941488221386791,23.361405007695417 M 13.658892837816822,21.63769719211124 M 19.0362145995158,24.227278869706858 M 18.564155513050366,25.366930318493168 M 18.222665112442357,26.55226972648054 M 18.016037837616736,27.76839076286361 M 17.946872146442416,28.999999999999993 M 18.016037837616736,30.23160923713639 M 24.174151016149267,38.91065754692661 M 22.872499798796596,41.61356415063387 M 21.498423075227706,40.85413878919598 M 20.218014920420146,39.94564075455241 M 18.347545514843944,42.2911352019565 M 16.93624623931973,41.001195449668565 M 15.655736944485895,39.599326631598466 M 18.001231391890002,37.728857226022264 M 17.09273335724643,36.448449071214704 M 16.333307995808553,35.0743723476458 M 19.0362145995158,33.77272113029314 M 19.63290595493129,34.8523528416687 M 20.34672583929408,35.85838782044606 M 21.168697553390388,36.77817459305202 M 22.088484325996347,37.60014630714833 M 23.094519304773698,38.31396619151112 M 30.1784813835788,39.93083430882567 M 31.39460241996187,39.72420703400005 M 32.06216522183081,42.64899077054552 M 33.57077901381474,42.214366624317144 M 35.021244494088236,41.61356415063387 M 36.32289571144091,44.31647075434112 M 34.56240880955082,45.055661074920884 M 32.729728023699764,45.573774507090995 M 30.850170426587965,45.8963453275826 M 28.946872146442416,45.99999999999999 M 28.946872146442416,42.99999999999999 M 27.37936948099609,42.9119709385054 M 25.83157907105401,42.64899077054552 M 26.499141872922948,39.72420703400005 M 27.71526290930602,39.93083430882567 M 28.946872146442416,40.00000000000001 M 15.678394405652512,18.418742090741524 M 16.97694435979541,16.96308592195912 M 18.347545514843944,15.708864798043493 M 19.956796346115254,14.594975712479474 M 21.570848581443926,13.683529245658875 M 22.872499798796596,16.386435849366137 M 24.32296527907009,15.785633375682856 M 25.831579071054023,15.351009229454476 M 26.499141872922962,18.27579296599994 M 25.313802464935577,18.617283366607957 M 24.174151016149267,19.089342453073385 M 23.094519304773712,19.686033808488872 M 22.088484325996347,20.399853692851664 M 20.21801492042016,18.054359245447586 M 19.047377209830756,19.100505063388333 M 18.001231391890002,20.27114277397773 M 28.946872146442416,12.000000000000007 M 30.907364361524515,12.115078373314532 M 32.70157628144216,12.423053553345532 M 34.61673480176859,12.968327904026175 M 36.32289571144091,13.683529245658889 M 33.71959327673555,19.089342453073385 M 32.579941827949256,18.617283366607957 M 31.394602419961885,18.27579296599994 M 30.1784813835788,18.069165691174327 M 28.946872146442416,18.0 M 45.52064665353342,25.21714412274266 M 39.671079180442476,26.55226972648054 M 39.32958877983447,25.366930318493168 M 38.85752969336903,24.227278869706858 M 38.26083833795354,23.147647158331303 M 37.547018453590745,22.14161217955394 M 36.725046739494445,21.22182540694798 M 35.805259966888485,20.399853692851664 M 37.67572937246469,18.054359245447586 M 38.84636708305408,19.100505063388333 M 39.89251290099483,20.271142773977736 M 40.801010935638395,21.55155092878531 M 41.56043629707628,22.925627652354187 M 44.263342900783535,21.623976435001495 M 44.3023639042908,21.653474448652524 M 45.028821392281515,23.4157309999132 M 37.67572937246469,39.94564075455241 M 35.805259966888485,37.60014630714833 M 36.725046739494445,36.77817459305202 M 37.547018453590745,35.85838782044606 M 38.26083833795354,34.8523528416687 M 38.85752969336903,33.77272113029314 M 39.32958877983447,32.63306968150683 M 39.671079180442476,31.447730273519447 M 39.87770645526809,30.23160923713639 M 39.946872146442416,28.999999999999993 M 42.94687214644241,28.999999999999993 M 42.85884308494781,30.56750266544632 M 42.59586291698794,32.1152930753884 M 42.16123877075955,33.623906867372334 M 41.56043629707628,35.07437234764581 M 40.80101093563839,36.44844907121472 M 39.89251290099483,37.72885722602228 M 38.84636708305407,38.89949493661167 "
  />
</svg>
