<?xml version="1.0" standalone="no"?>
<!DOCTYPE svg PUBLIC "-//W3C//DTD SVG 1.1//EN" "http://www.w3.org/Graphics/SVG/1.1/DTD/svg11.dtd">
<svg width="72.0mm" height="296.00000000000006mm"
 viewBox="0 0 72.0 296.00000000000006"
 xmlns="http://www.w3.org/2000/svg" version="1.1"
 xmlns:xlink="http://www.w3.org/1999/xlink">
<desc>Output from Flights of Ideas SVG Sketchup Plugin</desc>

  <path id="face0-cut"
 style="fill:none;stroke:#0000FF;stroke-width:1;stroke-miterlimit:4;stroke-dasharray:none;stroke-linejoin:round;stroke-linecap:round"
        d="M 62.0,226.00000000000006 L 52.0,226.00000000000006 L 52.0,196.00000000000006 L 62.0,196.00000000000006 L 62.0,166.00000000000003 L 51.99999999999997,166.00000000000003 L 51.99999999999997,130.0 L 62.0,130.0 L 62.0,100.00000000000001 L 52.0,100.00000000000001 L 51.99999999999997,70.00000000000006 L 62.0,70.00000000000003 L 62.0,40.00000000000003 L 52.0,40.00000000000003 L 51.99999999999997,10.000000000000057 L 44.99999999999997,10.0 L 44.99999999999997,17.0 L 38.0,17.00000000000003 L 38.0,10.0 L 30.99999999999997,10.0 L 31.0,17.00000000000003 L 24.0,17.00000000000003 L 24.00000000000003,10.0 L 17.00000000000003,10.0 L 17.0,40.00000000000003 L 10.0,40.0 L 10.0,70.00000000000003 L 17.0,70.00000000000003 L 17.0,100.00000000000001 L 10.0,100.0 L 10.000000000000028,130.0 L 17.0,130.0 L 17.0,166.00000000000006 L 10.0,166.00000000000003 L 10.0,196.00000000000006 L 17.0,196.00000000000006 L 17.0,226.00000000000006 L 10.0,226.00000000000006 L 10.0,256.00000000000006 L 17.0,256.00000000000006 L 17.0,286.00000000000006 L 23.99999999999997,286.0 L 24.0,279.00000000000006 L 31.0,279.00000000000006 L 31.0,286.00000000000006 L 38.0,286.00000000000006 L 38.0,279.00000000000006 L 44.99999999999997,279.00000000000006 L 44.99999999999997,286.00000000000006 L 52.0,286.00000000000006 L 52.0,256.00000000000006 L 62.0,256.00000000000006 L 62.0,226.00000000000006 "
  />
  <path id="face0-interior"
 style="fill:none;stroke:#FF0000;stroke-width:1;stroke-miterlimit:4;stroke-dasharray:none;stroke-linejoin:round;stroke-linecap:round"
        d="M 62.0,226.00000000000006 M 52.0,226.00000000000006 M 52.0,196.00000000000006 M 62.0,196.00000000000006 M 62.0,166.00000000000003 M 51.99999999999997,166.00000000000003 M 51.99999999999997,130.0 M 62.0,130.0 M 62.0,100.00000000000001 M 52.0,100.00000000000001 M 51.99999999999997,70.00000000000006 M 62.0,70.00000000000003 M 62.0,40.00000000000003 M 52.0,40.00000000000003 M 51.99999999999997,10.000000000000057 M 44.99999999999997,10.0 M 44.99999999999997,17.0 M 38.0,17.00000000000003 M 38.0,10.0 M 30.99999999999997,10.0 M 31.0,17.00000000000003 M 24.0,17.00000000000003 M 24.00000000000003,10.0 M 17.00000000000003,10.0 M 17.0,40.00000000000003 M 10.0,40.0 M 10.0,70.00000000000003 M 17.0,70.00000000000003 M 17.0,100.00000000000001 M 10.0,100.0 M 10.000000000000028,130.0 M 17.0,130.0 M 17.0,166.00000000000006 M 10.0,166.00000000000003 M 10.0,196.00000000000006 M 17.0,196.00000000000006 M 17.0,226.00000000000006 M 10.0,226.00000000000006 M 10.0,256.00000000000006 M 17.0,256.00000000000006 M 17.0,286.00000000000006 M 23.99999999999997,286.0 M 24.0,279.00000000000006 M 31.0,279.00000000000006 M 31.0,286.00000000000006 M 38.0,286.00000000000006 M 38.0,279.00000000000006 M 44.99999999999997,279.00000000000006 M 44.99999999999997,286.00000000000006 M 52.0,286.00000000000006 M 52.0,256.00000000000006 M 62.0,256.00000000000006 "
  />
  <path id="face0-interior"
 style="fill:none;stroke:#00FF00;stroke-width:1;stroke-miterlimit:4;stroke-dasharray:none;stroke-linejoin:round;stroke-linecap:round"
        d="M 62.0,226.00000000000006 M 52.0,226.00000000000006 M 52.0,196.00000000000006 M 62.0,196.00000000000006 M 62.0,166.00000000000003 M 51.99999999999997,166.00000000000003 M 51.99999999999997,130.0 M 62.0,130.0 M 62.0,100.00000000000001 M 52.0,100.00000000000001 M 51.99999999999997,70.00000000000006 M 62.0,70.00000000000003 M 62.0,40.00000000000003 M 52.0,40.00000000000003 M 51.99999999999997,10.000000000000057 M 44.99999999999997,10.0 M 44.99999999999997,17.0 M 38.0,17.00000000000003 M 38.0,10.0 M 30.99999999999997,10.0 M 31.0,17.00000000000003 M 24.0,17.00000000000003 M 24.00000000000003,10.0 M 17.00000000000003,10.0 M 17.0,40.00000000000003 M 10.0,40.0 M 10.0,70.00000000000003 M 17.0,70.00000000000003 M 17.0,100.00000000000001 M 10.0,100.0 M 10.000000000000028,130.0 M 17.0,130.0 M 17.0,166.00000000000006 M 10.0,166.00000000000003 M 10.0,196.00000000000006 M 17.0,196.00000000000006 M 17.0,226.00000000000006 M 10.0,226.00000000000006 M 10.0,256.00000000000006 M 17.0,256.00000000000006 M 17.0,286.00000000000006 M 23.99999999999997,286.0 M 24.0,279.00000000000006 M 31.0,279.00000000000006 M 31.0,286.00000000000006 M 38.0,286.00000000000006 M 38.0,279.00000000000006 M 44.99999999999997,279.00000000000006 M 44.99999999999997,286.00000000000006 M 52.0,286.00000000000006 M 52.0,256.00000000000006 M 62.0,256.00000000000006 "
  />
</svg>
