  0
SECTION
  2
HEADER
  9
$ACADVER
  1
AC1009
  9
$EXTMIN
 10
0.0
 20
0.0
 30
0.0
  9
$EXTMAX
 10
1000.0
 20
1000.0
 30
0.0
  9
$FILLMODE
 70
 0
  9
$SPLFRAME
 70
 1
  0
ENDSEC
  0
SECTION
  2
TABLES
  0
TABLE
  2
LAYER
 70
1
  0
LAYER
  2
0
 70
     0
 62
     7
  6
CONTINUOUS
  0
ENDTAB
  0
ENDSEC
  0
SECTION
  2
ENTITIES
  0
POLYLINE
  8
0
 62
     5
 66
     1
 10
0
 20
0
 30
0.0
 70
     1
 40
2.83465
 41
2.83465
  0
VERTEX
  8
0
 10
2.44092
 20
2.76904
 30
0.0
 40
0.0393701
 41
0.0393701
  0
VERTEX
  8
0
 10
2.04725
 20
2.76904
 30
0.0
 40
0.0393701
 41
0.0393701
  0
VERTEX
  8
0
 10
2.04725
 20
3.95014
 30
0.0
 40
0.0393701
 41
0.0393701
  0
VERTEX
  8
0
 10
2.44092
 20
3.95014
 30
0.0
 40
0.0393701
 41
0.0393701
  0
VERTEX
  8
0
 10
2.44092
 20
5.13124
 30
0.0
 40
0.0393701
 41
0.0393701
  0
VERTEX
  8
0
 10
2.04725
 20
5.13124
 30
0.0
 40
0.0393701
 41
0.0393701
  0
VERTEX
  8
0
 10
2.04725
 20
6.54856
 30
0.0
 40
0.0393701
 41
0.0393701
  0
VERTEX
  8
0
 10
2.44092
 20
6.54856
 30
0.0
 40
0.0393701
 41
0.0393701
  0
VERTEX
  8
0
 10
2.44092
 20
7.72965
 30
0.0
 40
0.0393701
 41
0.0393701
  0
VERTEX
  8
0
 10
2.04725
 20
7.72965
 30
0.0
 40
0.0393701
 41
0.0393701
  0
VERTEX
  8
0
 10
2.04725
 20
8.91075
 30
0.0
 40
0.0393701
 41
0.0393701
  0
VERTEX
  8
0
 10
2.44092
 20
8.91075
 30
0.0
 40
0.0393701
 41
0.0393701
  0
VERTEX
  8
0
 10
2.44092
 20
10.0918
 30
0.0
 40
0.0393701
 41
0.0393701
  0
VERTEX
  8
0
 10
2.04725
 20
10.0918
 30
0.0
 40
0.0393701
 41
0.0393701
  0
VERTEX
  8
0
 10
2.04725
 20
11.2729
 30
0.0
 40
0.0393701
 41
0.0393701
  0
VERTEX
  8
0
 10
1.77165
 20
11.2729
 30
0.0
 40
0.0393701
 41
0.0393701
  0
VERTEX
  8
0
 10
1.77165
 20
10.9974
 30
0.0
 40
0.0393701
 41
0.0393701
  0
VERTEX
  8
0
 10
1.49604
 20
10.9974
 30
0.0
 40
0.0393701
 41
0.0393701
  0
VERTEX
  8
0
 10
1.49604
 20
11.2729
 30
0.0
 40
0.0393701
 41
0.0393701
  0
VERTEX
  8
0
 10
1.22049
 20
11.2729
 30
0.0
 40
0.0393701
 41
0.0393701
  0
VERTEX
  8
0
 10
1.22049
 20
10.9974
 30
0.0
 40
0.0393701
 41
0.0393701
  0
VERTEX
  8
0
 10
0.944879
 20
10.9974
 30
0.0
 40
0.0393701
 41
0.0393701
  0
VERTEX
  8
0
 10
0.944879
 20
11.2729
 30
0.0
 40
0.0393701
 41
0.0393701
  0
VERTEX
  8
0
 10
0.669271
 20
11.2729
 30
0.0
 40
0.0393701
 41
0.0393701
  0
VERTEX
  8
0
 10
0.669271
 20
10.0918
 30
0.0
 40
0.0393701
 41
0.0393701
  0
VERTEX
  8
0
 10
0.393718
 20
10.0918
 30
0.0
 40
0.0393701
 41
0.0393701
  0
VERTEX
  8
0
 10
0.393718
 20
8.91075
 30
0.0
 40
0.0393701
 41
0.0393701
  0
VERTEX
  8
0
 10
0.669271
 20
8.91075
 30
0.0
 40
0.0393701
 41
0.0393701
  0
VERTEX
  8
0
 10
0.669271
 20
7.72965
 30
0.0
 40
0.0393701
 41
0.0393701
  0
VERTEX
  8
0
 10
0.393718
 20
7.72965
 30
0.0
 40
0.0393701
 41
0.0393701
  0
VERTEX
  8
0
 10
0.393718
 20
6.54856
 30
0.0
 40
0.0393701
 41
0.0393701
  0
VERTEX
  8
0
 10
0.669271
 20
6.54856
 30
0.0
 40
0.0393701
 41
0.0393701
  0
VERTEX
  8
0
 10
0.669271
 20
5.13124
 30
0.0
 40
0.0393701
 41
0.0393701
  0
VERTEX
  8
0
 10
0.393718
 20
5.13124
 30
0.0
 40
0.0393701
 41
0.0393701
  0
VERTEX
  8
0
 10
0.393718
 20
3.95014
 30
0.0
 40
0.0393701
 41
0.0393701
  0
VERTEX
  8
0
 10
0.669271
 20
3.95014
 30
0.0
 40
0.0393701
 41
0.0393701
  0
VERTEX
  8
0
 10
0.669271
 20
2.76904
 30
0.0
 40
0.0393701
 41
0.0393701
  0
VERTEX
  8
0
 10
0.393718
 20
2.76904
 30
0.0
 40
0.0393701
 41
0.0393701
  0
VERTEX
  8
0
 10
0.393718
 20
1.58794
 30
0.0
 40
0.0393701
 41
0.0393701
  0
VERTEX
  8
0
 10
0.669271
 20
1.58794
 30
0.0
 40
0.0393701
 41
0.0393701
  0
VERTEX
  8
0
 10
0.669271
 20
0.406847
 30
0.0
 40
0.0393701
 41
0.0393701
  0
VERTEX
  8
0
 10
0.944879
 20
0.406847
 30
0.0
 40
0.0393701
 41
0.0393701
  0
VERTEX
  8
0
 10
0.944879
 20
0.6824
 30
0.0
 40
0.0393701
 41
0.0393701
  0
VERTEX
  8
0
 10
1.22049
 20
0.6824
 30
0.0
 40
0.0393701
 41
0.0393701
  0
VERTEX
  8
0
 10
1.22049
 20
0.406847
 30
0.0
 40
0.0393701
 41
0.0393701
  0
VERTEX
  8
0
 10
1.49604
 20
0.406847
 30
0.0
 40
0.0393701
 41
0.0393701
  0
VERTEX
  8
0
 10
1.49604
 20
0.6824
 30
0.0
 40
0.0393701
 41
0.0393701
  0
VERTEX
  8
0
 10
1.77165
 20
0.6824
 30
0.0
 40
0.0393701
 41
0.0393701
  0
VERTEX
  8
0
 10
1.77165
 20
0.406847
 30
0.0
 40
0.0393701
 41
0.0393701
  0
VERTEX
  8
0
 10
2.04725
 20
0.406847
 30
0.0
 40
0.0393701
 41
0.0393701
  0
VERTEX
  8
0
 10
2.04725
 20
1.58794
 30
0.0
 40
0.0393701
 41
0.0393701
  0
VERTEX
  8
0
 10
2.44092
 20
1.58794
 30
0.0
 40
0.0393701
 41
0.0393701
  0
VERTEX
  8
0
 10
2.44092
 20
2.76904
 30
0.0
 40
0.0393701
 41
0.0393701
  0
SEQEND
 8
0
  0
ENDSEC
  0
EOF
