<?xml version="1.0" standalone="no"?>
<!DOCTYPE svg PUBLIC "-//W3C//DTD SVG 1.1//EN" "http://www.w3.org/Graphics/SVG/1.1/DTD/svg11.dtd">
<svg width="220.0mm" height="310.00000000000006mm"
 viewBox="0 0 220.0 310.00000000000006"
 xmlns="http://www.w3.org/2000/svg" version="1.1"
 xmlns:xlink="http://www.w3.org/1999/xlink">
<desc>Output from Flights of Ideas SVG Sketchup Plugin</desc>

  <path id="face0-cut"
 style="fill:none;stroke:#0000FF;stroke-width:1;stroke-miterlimit:4;stroke-dasharray:none;stroke-linejoin:round;stroke-linecap:round"
        d="M 203.0,10.0 L 16.99999999999997,10.000000000000028 L 15.188266684282326,10.238519215956842 L 13.5,10.937822173512728 L 12.050252531694127,12.050252531692308 L 10.93782217350892,13.499999999999972 L 10.238519215976481,15.188266684281501 L 10.0,16.999999999999716 L 10.000000000000028,293.00000000000006 L 10.23851921597651,294.8117333157177 L 10.937822173508977,296.5000000000001 L 12.050252531694156,297.9497474683058 L 13.5,299.0621778264911 L 15.188266684282382,299.76148078402355 L 16.99999999999997,300.0 L 203.00000000000003,300.00000000000006 L 204.81173331571762,299.7614807840234 L 206.5,299.0621778264911 L 207.94974746830582,297.9497474683058 L 209.06217782649105,296.49999999999994 L 209.76148078402346,294.8117333157177 L 210.0,293.00000000000006 L 210.0,17.00000000000003 L 209.7614807840235,15.188266684282382 L 209.06217782649108,13.5 L 207.94974746830584,12.050252531694184 L 206.5,10.937822173508948 L 204.81173331571765,10.238519215976538 L 203.0,10.0 M 174.99999999999997,102.99999999999989 L 173.70590477448735,102.82962913144519 L 172.49999999999994,102.33012701892204 L 171.4644660940672,101.5355339059326 L 170.66987298107776,100.49999999999983 L 170.17037086855464,99.29409522551242 L 169.99999999999997,97.99999999999983 L 170.17037086855464,96.7059047744873 L 170.66987298107776,95.49999999999989 L 171.46446609406723,94.46446609406712 L 172.49999999999994,93.66987298107767 L 173.70590477448735,93.17037086855453 L 174.99999999999994,92.99999999999983 L 176.29409522551254,93.17037086855453 L 177.49999999999991,93.66987298107767 L 178.53553390593265,94.46446609406712 L 179.33012701892213,95.49999999999983 L 179.82962913144527,96.7059047744873 L 179.99999999999994,97.99999999999989 L 179.8296291314453,99.29409522551242 L 179.33012701892213,100.49999999999983 L 178.53553390593265,101.53553390593254 L 177.49999999999991,102.33012701892204 L 176.29409522551254,102.82962913144519 L 174.99999999999997,102.99999999999989 M 83.82962913144532,96.70590477448724 L 83.99999999999996,97.99999999999989 L 83.82962913144526,99.29409522551242 L 83.33012701892211,100.49999999999983 L 82.53553390593264,101.53553390593254 L 81.49999999999993,102.33012701892204 L 80.29409522551252,102.82962913144519 L 78.99999999999996,102.99999999999989 L 77.70590477448731,102.82962913144519 L 76.49999999999994,102.3301270189221 L 75.46446609406719,101.53553390593254 L 74.66987298107773,100.49999999999983 L 74.17037086855457,99.29409522551248 L 73.99999999999993,97.99999999999983 L 74.17037086855457,96.70590477448724 L 74.66987298107775,95.49999999999989 L 75.46446609406719,94.46446609406712 L 76.49999999999994,93.66987298107767 L 77.70590477448734,93.17037086855453 L 78.99999999999996,92.99999999999983 L 80.29409522551252,93.17037086855447 L 81.49999999999991,93.66987298107756 L 82.53553390593264,94.46446609406706 L 83.33012701892211,95.49999999999983 L 83.82962913144532,96.70590477448724 M 54.00000000000006,17.000000000000256 L 84.00000000000009,17.000000000000085 L 84.00000000000009,24.000000000000085 L 54.00000000000003,23.999999999999943 L 54.00000000000006,17.000000000000256 M 136.0,286.00000000000017 L 165.99999999999997,286.00000000000017 L 165.99999999999994,293.0000000000002 L 136.0,293.0000000000002 L 136.0,286.00000000000017 M 202.99999999999974,77.0 L 195.99999999999977,77.0 L 195.99999999999977,47.000000000000085 L 202.99999999999972,47.000000000000085 L 202.99999999999974,77.0 M 24.000000000000057,137.00000000000034 L 16.99999999999997,137.00000000000028 L 16.99999999999997,107.00000000000034 L 24.00000000000003,107.00000000000028 L 24.000000000000057,137.00000000000034 M 202.99999999999972,233.0000000000001 L 202.99999999999974,263.00000000000017 L 195.9999999999998,263.00000000000017 L 195.9999999999998,233.0000000000001 L 202.99999999999972,233.0000000000001 M 195.99999999999977,107.00000000000017 L 202.99999999999972,107.00000000000017 L 202.99999999999972,137.00000000000023 L 195.99999999999977,137.00000000000023 L 195.99999999999977,107.00000000000017 M 136.0,24.000000000000085 L 136.0,17.00000000000003 L 165.99999999999994,17.00000000000003 L 165.99999999999994,24.00000000000003 L 136.0,24.000000000000085 M 16.99999999999997,46.99999999999997 L 24.00000000000003,46.99999999999997 L 24.00000000000003,77.0 L 16.999999999999943,77.0 L 16.99999999999997,46.99999999999997 M 54.0,293.0000000000002 L 54.0,286.0000000000001 L 84.00000000000013,286.00000000000017 L 84.00000000000009,293.0000000000002 L 54.0,293.0000000000002 M 202.99999999999972,203.00000000000017 L 195.9999999999998,203.00000000000017 L 195.99999999999977,173.00000000000034 L 202.99999999999972,173.00000000000034 L 202.99999999999972,203.00000000000017 M 24.000000000000057,233.0000000000001 L 24.000000000000057,263.00000000000017 L 16.99999999999997,263.00000000000017 L 17.0,233.0000000000001 L 24.000000000000057,233.0000000000001 M 24.00000000000003,173.0000000000004 L 24.00000000000003,203.00000000000017 L 16.99999999999997,203.00000000000017 L 16.99999999999997,173.00000000000034 L 24.00000000000003,173.0000000000004 M 186.7940952255126,39.32962913144536 L 185.5,39.50000000000003 L 184.20590477448738,39.32962913144536 L 183.0,38.830127018922184 L 181.96446609406726,38.03553390593274 L 181.1698729810778,37.0 L 180.6703708685547,35.79409522551262 L 180.50000000000003,34.50000000000003 L 180.6703708685547,33.20590477448741 L 181.1698729810778,32.0 L 181.96446609406726,30.96446609406729 L 183.0,30.169872981077816 L 184.20590477448738,29.6703708685547 L 185.5,29.50000000000003 L 186.7940952255126,29.67037086855467 L 187.99999999999997,30.169872981077816 L 189.0355339059327,30.96446609406729 L 189.83012701892218,32.0 L 190.32962913144533,33.20590477448741 L 190.5,34.50000000000003 L 190.32962913144533,35.79409522551262 L 189.83012701892218,37.0 L 189.0355339059327,38.03553390593268 L 187.99999999999997,38.830127018922184 L 186.7940952255126,39.32962913144536 M 35.794095225512564,280.3296291314453 L 34.49999999999994,280.5 L 33.20590477448732,280.3296291314453 L 32.0,279.83012701892216 L 30.96446609406729,279.03553390593277 L 30.169872981077816,278.0 L 29.67037086855464,276.79409522551254 L 29.49999999999997,275.50000000000006 L 29.67037086855464,274.20590477448735 L 30.16987298107776,273.0 L 30.964466094067262,271.96446609406723 L 31.99999999999997,271.16987298107773 L 33.20590477448735,270.67037086855464 L 34.500000000000085,270.5000000000001 L 35.794095225512564,270.6703708685546 L 37.00000000000003,271.1698729810779 L 38.03553390593271,271.96446609406723 L 38.8301270189221,273.00000000000006 L 39.32962913144536,274.20590477448735 L 39.49999999999994,275.50000000000006 L 39.32962913144536,276.79409522551254 L 38.83012701892213,278.0 L 38.035533905932766,279.03553390593277 L 36.99999999999997,279.83012701892216 L 35.794095225512564,280.3296291314453 M 186.79409522551256,280.3296291314453 L 185.5,280.5 L 184.20590477448738,280.3296291314453 L 183.0,279.83012701892227 L 181.96446609406723,279.03553390593277 L 181.16987298107782,278.0 L 180.6703708685547,276.79409522551254 L 180.5,275.50000000000006 L 180.67037086855467,274.20590477448735 L 181.1698729810778,273.00000000000006 L 181.96446609406726,271.96446609406723 L 183.0,271.16987298107784 L 184.2059047744874,270.67037086855464 L 185.50000000000003,270.5 L 186.7940952255126,270.67037086855464 L 188.0,271.16987298107784 L 189.0355339059327,271.96446609406723 L 189.83012701892218,273.00000000000006 L 190.32962913144533,274.20590477448735 L 190.50000000000003,275.49999999999994 L 190.32962913144533,276.7940952255126 L 189.83012701892218,278.0 L 189.03553390593274,279.03553390593277 L 187.99999999999997,279.83012701892227 L 186.79409522551256,280.3296291314453 M 39.32962913144536,35.79409522551265 L 38.830127018922184,37.0 L 38.03553390593274,38.035533905932766 L 37.00000000000003,38.83012701892247 L 35.79409522551259,39.329629131445586 L 34.50000000000003,39.500000000000284 L 33.20590477448735,39.3296291314455 L 31.99999999999997,38.83012701892241 L 30.964466094067234,38.03553390593288 L 30.169872981077788,37.00000000000006 L 29.67037086855464,35.79409522551251 L 29.5,34.499999999999886 L 29.67037086855467,33.20590477448735 L 30.169872981077788,31.999999999999915 L 30.964466094067262,30.964466094067376 L 31.99999999999997,30.1698729810779 L 33.20590477448738,29.67037086855467 L 34.50000000000003,29.499999999999943 L 35.794095225512564,29.670370868554556 L 36.99999999999997,30.169872981077674 L 38.03553390593274,30.964466094067063 L 38.83012701892224,32.0000000000002 L 39.32962913144536,33.20590477448735 L 39.50000000000003,34.49999999999997 L 39.32962913144536,35.79409522551265 M 145.99999999999983,187.00961894323342 L 149.6177143234621,185.51111260566393 L 153.49999999999986,185.00000000000006 L 157.38228567653766,185.51111260566404 L 160.99999999999986,187.00961894323342 L 164.10660171779816,189.39339828220182 L 166.4903810567665,192.4999999999999 L 167.98888739433596,196.11771432346217 L 168.49999999999986,199.99999999999977 L 167.98888739433596,203.88228567653772 L 166.49038105676647,207.4999999999999 L 164.10660171779813,210.60660171779818 L 160.99999999999986,212.99038105676652 L 157.38228567653766,214.48888739433602 L 153.49999999999986,215.00000000000006 L 149.617714323462,214.48888739433602 L 145.9999999999998,212.99038105676652 L 142.89339828220164,210.60660171779818 L 140.5096189432333,207.49999999999994 L 139.0111126056638,203.88228567653772 L 138.49999999999983,199.99999999999977 L 139.01111260566384,196.11771432346217 L 140.50961894323328,192.4999999999999 L 142.89339828220164,189.39339828220176 L 145.99999999999983,187.00961894323342 M 97.11771432346214,171.48888739433602 L 93.49999999999999,169.99038105676658 L 90.39339828220177,167.60660171779818 L 88.00961894323338,164.4999999999999 L 86.51111260566393,160.88228567653772 L 85.99999999999993,156.9999999999999 L 86.51111260566394,153.1177143234621 L 88.00961894323339,149.49999999999983 L 90.39339828220174,146.3933982822017 L 93.49999999999999,144.00961894323336 L 97.11771432346211,142.51111260566387 L 100.99999999999994,141.9999999999999 L 104.88228567653779,142.51111260566387 L 108.49999999999987,144.0096189432333 L 111.60660171779806,146.3933982822017 L 113.99038105676641,149.49999999999983 L 114.99999999999986,151.93743574558283 L 115.36864308258386,152.82741887523213 L 115.48888739433595,153.11771432346217 L 115.9999999999999,156.99999999999994 L 115.48888739433593,160.88228567653778 L 114.99999999999984,162.06256425441694 L 113.99038105676641,164.4999999999999 L 111.60660171779804,167.60660171779818 L 108.49999999999986,169.99038105676658 L 104.8822856765377,171.48888739433596 L 100.99999999999991,171.99999999999983 L 97.11771432346214,171.48888739433602 M 125.35841266570158,158.99844947377153 L 126.37568531049816,156.99999999999994 L 127.13477210030923,155.5087610451293 L 129.75380138177553,152.59773651882574 L 133.03701799271897,150.46375740563246 L 136.76067614687582,149.25225085554717 L 140.67101469467656,149.04577903784832 L 144.50155052622824,149.85841266570162 L 147.99123895487045,151.6347721003093 L 150.90226348117415,154.25380138177547 L 153.03624259436717,157.5370179927191 L 154.24774914445263,161.26067614687588 L 154.45422096215142,165.17101469467661 L 153.64158733429815,169.00155052622836 L 151.86522789969052,172.4912389548706 L 149.24619861822427,175.40226348117432 L 145.96298200728074,177.53624259436737 L 142.23932385312386,178.74774914445277 L 138.32898530532322,178.95422096215157 L 134.49844947377147,178.14158733429832 L 131.0087610451293,176.36522789969064 L 128.09773651882557,173.7461986182243 L 125.96375740563259,170.4629820072809 L 124.75225085554716,166.739323853124 L 124.54577903784832,162.82898530532316 L 125.35841266570158,158.99844947377153 M 118.82685962886823,178.49637475039646 L 122.45027698673404,179.98103795147478 L 125.56597028011876,182.35292190130815 L 127.96161016000485,185.45038662843882 L 129.4739377275602,189.06234503051542 L 129.99989035829532,192.9426481114798 L 129.50362524960346,196.82685962886825 L 128.20345905962586,199.99999999999977 L 128.0189620485251,200.45027698673414 L 125.64707809869181,203.5659702801188 L 122.54961337156111,205.96161016000485 L 118.93765496948454,207.4739377275602 L 115.05735188852012,207.99989035829543 L 114.99999999999984,207.9925628116202 L 111.17314037113157,207.5036252496035 L 107.54972301326572,206.0189620485251 L 104.43402971988104,203.6470780986918 L 102.03838983999496,200.54961337156112 L 100.52606227243967,196.93765496948464 L 100.00010964170458,193.05735188852026 L 100.49637475039638,189.1731403711317 L 101.98103795147473,185.54972301326592 L 104.35292190130801,182.4340297198812 L 107.45038662843861,180.03838983999503 L 111.06234503051517,178.5260622724398 L 114.94264811147958,178.00010964170457 L 114.99999999999983,178.0074371883798 L 118.82685962886823,178.49637475039646 M 160.99999999999986,225.0096189432337 L 164.1066017177981,227.3933982822021 L 166.49038105676647,230.50000000000017 L 167.98888739433593,234.11771432346245 L 168.49999999999983,238.0000000000001 L 167.98888739433593,241.8822856765379 L 166.4903810567665,245.5 L 164.10660171779813,248.6066017177983 L 160.99999999999986,250.99038105676664 L 157.38228567653766,252.48888739433613 L 153.49999999999983,253.0000000000001 L 149.61771432346202,252.48888739433613 L 145.99999999999983,250.99038105676675 L 142.89339828220162,248.6066017177983 L 140.50961894323328,245.5 L 139.0111126056638,241.8822856765379 L 138.4999999999998,238.00000000000017 L 139.01111260566387,234.11771432346245 L 140.5096189432333,230.50000000000017 L 142.89339828220164,227.3933982822021 L 145.9999999999998,225.0096189432337 L 149.6177143234621,223.51111260566404 L 153.49999999999986,223.0000000000001 L 157.3822856765377,223.51111260566404 L 160.99999999999986,225.0096189432337 M 107.49999999999989,243.98666246257676 L 104.39339828220167,241.60288312360836 L 102.00961894323332,238.49628140581012 L 100.51111260566387,234.87856708234818 L 99.99999999999997,230.99628140581035 L 100.51111260566391,227.11399572927252 L 102.00961894323325,223.49628140581007 L 104.39339828220172,220.38967968801205 L 107.4999999999999,218.0059003490436 L 111.11771432346202,216.50739401147393 L 114.99999999999986,215.99628140580995 L 118.88228567653765,216.50739401147393 L 122.49999999999986,218.0059003490436 L 125.60660171779801,220.38967968801205 L 127.99038105676648,223.49628140581007 L 129.4888873943359,227.11399572927252 L 129.99999999999986,230.99628140581035 L 129.4888873943359,234.87856708234818 L 127.99038105676647,238.49628140581012 L 125.60660171779807,241.60288312360836 L 122.49999999999987,243.98666246257676 L 118.88228567653768,245.4851688001462 L 114.99999999999987,245.9962814058103 L 111.11771432346205,245.4851688001463 L 107.49999999999989,243.98666246257676 M 163.99999999999991,69.99999999999986 L 163.99999999999991,125.99999999999977 L 140.99999999999994,125.99999999999977 L 140.99999999999994,127.49999999999977 L 135.49999999999994,127.49999999999977 L 135.49999999999994,136.49999999999977 L 115.49999999999996,136.49999999999977 L 115.49999999999993,130.9999999999999 L 115.47607574085198,129.818277210183 L 115.1471143170299,128.68301270189198 L 114.5355339059327,127.67157287525373 L 113.68301270189215,126.85288568296988 L 112.64764861610581,126.28274330425029 L 111.49999999999993,125.99999999999977 L 89.99999999999996,125.99999999999977 L 89.99999999999994,69.99999999999986 L 112.99999999999993,69.9999999999998 L 112.99999999999996,68.49999999999983 L 118.49999999999993,68.49999999999974 L 118.49999999999993,59.49999999999986 L 138.49999999999994,59.49999999999986 L 138.49999999999991,64.99999999999983 L 138.5239242591478,66.18172278981663 L 138.85288568296997,67.31698729810759 L 139.46446609406718,68.32842712474599 L 140.3169872981077,69.14711431702978 L 141.35235138389405,69.71725669574934 L 142.49999999999991,69.99999999999986 L 163.99999999999991,69.99999999999986 "
  />
  <path id="face0-interior"
 style="fill:none;stroke:#FF0000;stroke-width:1;stroke-miterlimit:4;stroke-dasharray:none;stroke-linejoin:round;stroke-linecap:round"
        d="M 203.0,10.0 M 16.99999999999997,10.000000000000028 M 15.188266684282326,10.238519215956842 M 13.5,10.937822173512728 M 12.050252531694127,12.050252531692308 M 10.93782217350892,13.499999999999972 M 10.238519215976481,15.188266684281501 M 10.0,16.999999999999716 M 10.000000000000028,293.00000000000006 M 10.23851921597651,294.8117333157177 M 10.937822173508977,296.5000000000001 M 12.050252531694156,297.9497474683058 M 13.5,299.0621778264911 M 15.188266684282382,299.76148078402355 M 16.99999999999997,300.0 M 203.00000000000003,300.00000000000006 M 204.81173331571762,299.7614807840234 M 206.5,299.0621778264911 M 207.94974746830582,297.9497474683058 M 209.06217782649105,296.49999999999994 M 209.76148078402346,294.8117333157177 M 210.0,293.00000000000006 M 210.0,17.00000000000003 M 209.7614807840235,15.188266684282382 M 209.06217782649108,13.5 M 207.94974746830584,12.050252531694184 M 206.5,10.937822173508948 M 204.81173331571765,10.238519215976538 M 174.99999999999997,102.99999999999989 M 173.70590477448735,102.82962913144519 M 172.49999999999994,102.33012701892204 M 171.4644660940672,101.5355339059326 M 170.66987298107776,100.49999999999983 M 170.17037086855464,99.29409522551242 M 169.99999999999997,97.99999999999983 M 170.17037086855464,96.7059047744873 M 170.66987298107776,95.49999999999989 M 171.46446609406723,94.46446609406712 M 172.49999999999994,93.66987298107767 M 173.70590477448735,93.17037086855453 M 174.99999999999994,92.99999999999983 M 176.29409522551254,93.17037086855453 M 177.49999999999991,93.66987298107767 M 178.53553390593265,94.46446609406712 M 179.33012701892213,95.49999999999983 M 179.82962913144527,96.7059047744873 M 179.99999999999994,97.99999999999989 M 179.8296291314453,99.29409522551242 M 179.33012701892213,100.49999999999983 M 178.53553390593265,101.53553390593254 M 177.49999999999991,102.33012701892204 M 176.29409522551254,102.82962913144519 M 83.82962913144532,96.70590477448724 M 83.99999999999996,97.99999999999989 M 83.82962913144526,99.29409522551242 M 83.33012701892211,100.49999999999983 M 82.53553390593264,101.53553390593254 M 81.49999999999993,102.33012701892204 M 80.29409522551252,102.82962913144519 M 78.99999999999996,102.99999999999989 M 77.70590477448731,102.82962913144519 M 76.49999999999994,102.3301270189221 M 75.46446609406719,101.53553390593254 M 74.66987298107773,100.49999999999983 M 74.17037086855457,99.29409522551248 M 73.99999999999993,97.99999999999983 M 74.17037086855457,96.70590477448724 M 74.66987298107775,95.49999999999989 M 75.46446609406719,94.46446609406712 M 76.49999999999994,93.66987298107767 M 77.70590477448734,93.17037086855453 M 78.99999999999996,92.99999999999983 M 80.29409522551252,93.17037086855447 M 81.49999999999991,93.66987298107756 M 82.53553390593264,94.46446609406706 M 83.33012701892211,95.49999999999983 M 54.00000000000006,17.000000000000256 M 84.00000000000009,17.000000000000085 M 84.00000000000009,24.000000000000085 M 54.00000000000003,23.999999999999943 M 136.0,286.00000000000017 M 165.99999999999997,286.00000000000017 M 165.99999999999994,293.0000000000002 M 136.0,293.0000000000002 M 202.99999999999974,77.0 M 195.99999999999977,77.0 M 195.99999999999977,47.000000000000085 M 202.99999999999972,47.000000000000085 M 24.000000000000057,137.00000000000034 M 16.99999999999997,137.00000000000028 M 16.99999999999997,107.00000000000034 M 24.00000000000003,107.00000000000028 M 202.99999999999972,233.0000000000001 M 202.99999999999974,263.00000000000017 M 195.9999999999998,263.00000000000017 M 195.9999999999998,233.0000000000001 M 195.99999999999977,107.00000000000017 M 202.99999999999972,107.00000000000017 M 202.99999999999972,137.00000000000023 M 195.99999999999977,137.00000000000023 M 136.0,24.000000000000085 M 136.0,17.00000000000003 M 165.99999999999994,17.00000000000003 M 165.99999999999994,24.00000000000003 M 16.99999999999997,46.99999999999997 M 24.00000000000003,46.99999999999997 M 24.00000000000003,77.0 M 16.999999999999943,77.0 M 54.0,293.0000000000002 M 54.0,286.0000000000001 M 84.00000000000013,286.00000000000017 M 84.00000000000009,293.0000000000002 M 202.99999999999972,203.00000000000017 M 195.9999999999998,203.00000000000017 M 195.99999999999977,173.00000000000034 M 202.99999999999972,173.00000000000034 M 24.000000000000057,233.0000000000001 M 24.000000000000057,263.00000000000017 M 16.99999999999997,263.00000000000017 M 17.0,233.0000000000001 M 24.00000000000003,173.0000000000004 M 24.00000000000003,203.00000000000017 M 16.99999999999997,203.00000000000017 M 16.99999999999997,173.00000000000034 M 186.7940952255126,39.32962913144536 M 185.5,39.50000000000003 M 184.20590477448738,39.32962913144536 M 183.0,38.830127018922184 M 181.96446609406726,38.03553390593274 M 181.1698729810778,37.0 M 180.6703708685547,35.79409522551262 M 180.50000000000003,34.50000000000003 M 180.6703708685547,33.20590477448741 M 181.1698729810778,32.0 M 181.96446609406726,30.96446609406729 M 183.0,30.169872981077816 M 184.20590477448738,29.6703708685547 M 185.5,29.50000000000003 M 186.7940952255126,29.67037086855467 M 187.99999999999997,30.169872981077816 M 189.0355339059327,30.96446609406729 M 189.83012701892218,32.0 M 190.32962913144533,33.20590477448741 M 190.5,34.50000000000003 M 190.32962913144533,35.79409522551262 M 189.83012701892218,37.0 M 189.0355339059327,38.03553390593268 M 187.99999999999997,38.830127018922184 M 35.794095225512564,280.3296291314453 M 34.49999999999994,280.5 M 33.20590477448732,280.3296291314453 M 32.0,279.83012701892216 M 30.96446609406729,279.03553390593277 M 30.169872981077816,278.0 M 29.67037086855464,276.79409522551254 M 29.49999999999997,275.50000000000006 M 29.67037086855464,274.20590477448735 M 30.16987298107776,273.0 M 30.964466094067262,271.96446609406723 M 31.99999999999997,271.16987298107773 M 33.20590477448735,270.67037086855464 M 34.500000000000085,270.5000000000001 M 35.794095225512564,270.6703708685546 M 37.00000000000003,271.1698729810779 M 38.03553390593271,271.96446609406723 M 38.8301270189221,273.00000000000006 M 39.32962913144536,274.20590477448735 M 39.49999999999994,275.50000000000006 M 39.32962913144536,276.79409522551254 M 38.83012701892213,278.0 M 38.035533905932766,279.03553390593277 M 36.99999999999997,279.83012701892216 M 186.79409522551256,280.3296291314453 M 185.5,280.5 M 184.20590477448738,280.3296291314453 M 183.0,279.83012701892227 M 181.96446609406723,279.03553390593277 M 181.16987298107782,278.0 M 180.6703708685547,276.79409522551254 M 180.5,275.50000000000006 M 180.67037086855467,274.20590477448735 M 181.1698729810778,273.00000000000006 M 181.96446609406726,271.96446609406723 M 183.0,271.16987298107784 M 184.2059047744874,270.67037086855464 M 185.50000000000003,270.5 M 186.7940952255126,270.67037086855464 M 188.0,271.16987298107784 M 189.0355339059327,271.96446609406723 M 189.83012701892218,273.00000000000006 M 190.32962913144533,274.20590477448735 M 190.50000000000003,275.49999999999994 M 190.32962913144533,276.7940952255126 M 189.83012701892218,278.0 M 189.03553390593274,279.03553390593277 M 187.99999999999997,279.83012701892227 M 39.32962913144536,35.79409522551265 M 38.830127018922184,37.0 M 38.03553390593274,38.035533905932766 M 37.00000000000003,38.83012701892247 M 35.79409522551259,39.329629131445586 M 34.50000000000003,39.500000000000284 M 33.20590477448735,39.3296291314455 M 31.99999999999997,38.83012701892241 M 30.964466094067234,38.03553390593288 M 30.169872981077788,37.00000000000006 M 29.67037086855464,35.79409522551251 M 29.5,34.499999999999886 M 29.67037086855467,33.20590477448735 M 30.169872981077788,31.999999999999915 M 30.964466094067262,30.964466094067376 M 31.99999999999997,30.1698729810779 M 33.20590477448738,29.67037086855467 M 34.50000000000003,29.499999999999943 M 35.794095225512564,29.670370868554556 M 36.99999999999997,30.169872981077674 M 38.03553390593274,30.964466094067063 M 38.83012701892224,32.0000000000002 M 39.32962913144536,33.20590477448735 M 39.50000000000003,34.49999999999997 M 145.99999999999983,187.00961894323342 M 149.6177143234621,185.51111260566393 M 153.49999999999986,185.00000000000006 M 157.38228567653766,185.51111260566404 M 160.99999999999986,187.00961894323342 M 164.10660171779816,189.39339828220182 M 166.4903810567665,192.4999999999999 M 167.98888739433596,196.11771432346217 M 168.49999999999986,199.99999999999977 M 167.98888739433596,203.88228567653772 M 166.49038105676647,207.4999999999999 M 164.10660171779813,210.60660171779818 M 160.99999999999986,212.99038105676652 M 157.38228567653766,214.48888739433602 M 153.49999999999986,215.00000000000006 M 149.617714323462,214.48888739433602 M 145.9999999999998,212.99038105676652 M 142.89339828220164,210.60660171779818 M 140.5096189432333,207.49999999999994 M 139.0111126056638,203.88228567653772 M 138.49999999999983,199.99999999999977 M 139.01111260566384,196.11771432346217 M 140.50961894323328,192.4999999999999 M 142.89339828220164,189.39339828220176 M 97.11771432346214,171.48888739433602 M 93.49999999999999,169.99038105676658 M 90.39339828220177,167.60660171779818 M 88.00961894323338,164.4999999999999 M 86.51111260566393,160.88228567653772 M 85.99999999999993,156.9999999999999 M 86.51111260566394,153.1177143234621 M 88.00961894323339,149.49999999999983 M 90.39339828220174,146.3933982822017 M 93.49999999999999,144.00961894323336 M 97.11771432346211,142.51111260566387 M 100.99999999999994,141.9999999999999 M 104.88228567653779,142.51111260566387 M 108.49999999999987,144.0096189432333 M 111.60660171779806,146.3933982822017 M 113.99038105676641,149.49999999999983 M 114.99999999999986,151.93743574558283 M 115.36864308258386,152.82741887523213 M 115.48888739433595,153.11771432346217 M 115.9999999999999,156.99999999999994 M 115.48888739433593,160.88228567653778 M 114.99999999999984,162.06256425441694 M 113.99038105676641,164.4999999999999 M 111.60660171779804,167.60660171779818 M 108.49999999999986,169.99038105676658 M 104.8822856765377,171.48888739433596 M 100.99999999999991,171.99999999999983 M 125.35841266570158,158.99844947377153 M 126.37568531049816,156.99999999999994 M 127.13477210030923,155.5087610451293 M 129.75380138177553,152.59773651882574 M 133.03701799271897,150.46375740563246 M 136.76067614687582,149.25225085554717 M 140.67101469467656,149.04577903784832 M 144.50155052622824,149.85841266570162 M 147.99123895487045,151.6347721003093 M 150.90226348117415,154.25380138177547 M 153.03624259436717,157.5370179927191 M 154.24774914445263,161.26067614687588 M 154.45422096215142,165.17101469467661 M 153.64158733429815,169.00155052622836 M 151.86522789969052,172.4912389548706 M 149.24619861822427,175.40226348117432 M 145.96298200728074,177.53624259436737 M 142.23932385312386,178.74774914445277 M 138.32898530532322,178.95422096215157 M 134.49844947377147,178.14158733429832 M 131.0087610451293,176.36522789969064 M 128.09773651882557,173.7461986182243 M 125.96375740563259,170.4629820072809 M 124.75225085554716,166.739323853124 M 124.54577903784832,162.82898530532316 M 118.82685962886823,178.49637475039646 M 122.45027698673404,179.98103795147478 M 125.56597028011876,182.35292190130815 M 127.96161016000485,185.45038662843882 M 129.4739377275602,189.06234503051542 M 129.99989035829532,192.9426481114798 M 129.50362524960346,196.82685962886825 M 128.20345905962586,199.99999999999977 M 128.0189620485251,200.45027698673414 M 125.64707809869181,203.5659702801188 M 122.54961337156111,205.96161016000485 M 118.93765496948454,207.4739377275602 M 115.05735188852012,207.99989035829543 M 114.99999999999984,207.9925628116202 M 111.17314037113157,207.5036252496035 M 107.54972301326572,206.0189620485251 M 104.43402971988104,203.6470780986918 M 102.03838983999496,200.54961337156112 M 100.52606227243967,196.93765496948464 M 100.00010964170458,193.05735188852026 M 100.49637475039638,189.1731403711317 M 101.98103795147473,185.54972301326592 M 104.35292190130801,182.4340297198812 M 107.45038662843861,180.03838983999503 M 111.06234503051517,178.5260622724398 M 114.94264811147958,178.00010964170457 M 114.99999999999983,178.0074371883798 M 160.99999999999986,225.0096189432337 M 164.1066017177981,227.3933982822021 M 166.49038105676647,230.50000000000017 M 167.98888739433593,234.11771432346245 M 168.49999999999983,238.0000000000001 M 167.98888739433593,241.8822856765379 M 166.4903810567665,245.5 M 164.10660171779813,248.6066017177983 M 160.99999999999986,250.99038105676664 M 157.38228567653766,252.48888739433613 M 153.49999999999983,253.0000000000001 M 149.61771432346202,252.48888739433613 M 145.99999999999983,250.99038105676675 M 142.89339828220162,248.6066017177983 M 140.50961894323328,245.5 M 139.0111126056638,241.8822856765379 M 138.4999999999998,238.00000000000017 M 139.01111260566387,234.11771432346245 M 140.5096189432333,230.50000000000017 M 142.89339828220164,227.3933982822021 M 145.9999999999998,225.0096189432337 M 149.6177143234621,223.51111260566404 M 153.49999999999986,223.0000000000001 M 157.3822856765377,223.51111260566404 M 107.49999999999989,243.98666246257676 M 104.39339828220167,241.60288312360836 M 102.00961894323332,238.49628140581012 M 100.51111260566387,234.87856708234818 M 99.99999999999997,230.99628140581035 M 100.51111260566391,227.11399572927252 M 102.00961894323325,223.49628140581007 M 104.39339828220172,220.38967968801205 M 107.4999999999999,218.0059003490436 M 111.11771432346202,216.50739401147393 M 114.99999999999986,215.99628140580995 M 118.88228567653765,216.50739401147393 M 122.49999999999986,218.0059003490436 M 125.60660171779801,220.38967968801205 M 127.99038105676648,223.49628140581007 M 129.4888873943359,227.11399572927252 M 129.99999999999986,230.99628140581035 M 129.4888873943359,234.87856708234818 M 127.99038105676647,238.49628140581012 M 125.60660171779807,241.60288312360836 M 122.49999999999987,243.98666246257676 M 118.88228567653768,245.4851688001462 M 114.99999999999987,245.9962814058103 M 111.11771432346205,245.4851688001463 M 163.99999999999991,69.99999999999986 M 163.99999999999991,125.99999999999977 M 140.99999999999994,125.99999999999977 M 140.99999999999994,127.49999999999977 M 135.49999999999994,127.49999999999977 M 135.49999999999994,136.49999999999977 M 115.49999999999996,136.49999999999977 M 115.49999999999993,130.9999999999999 M 115.47607574085198,129.818277210183 M 115.1471143170299,128.68301270189198 M 114.5355339059327,127.67157287525373 M 113.68301270189215,126.85288568296988 M 112.64764861610581,126.28274330425029 M 111.49999999999993,125.99999999999977 M 89.99999999999996,125.99999999999977 M 89.99999999999994,69.99999999999986 M 112.99999999999993,69.9999999999998 M 112.99999999999996,68.49999999999983 M 118.49999999999993,68.49999999999974 M 118.49999999999993,59.49999999999986 M 138.49999999999994,59.49999999999986 M 138.49999999999991,64.99999999999983 M 138.5239242591478,66.18172278981663 M 138.85288568296997,67.31698729810759 M 139.46446609406718,68.32842712474599 M 140.3169872981077,69.14711431702978 M 141.35235138389405,69.71725669574934 M 142.49999999999991,69.99999999999986 "
  />
  <path id="face0-interior"
 style="fill:none;stroke:#00FF00;stroke-width:1;stroke-miterlimit:4;stroke-dasharray:none;stroke-linejoin:round;stroke-linecap:round"
        d="M 203.0,10.0 M 16.99999999999997,10.000000000000028 M 15.188266684282326,10.238519215956842 M 13.5,10.937822173512728 M 12.050252531694127,12.050252531692308 M 10.93782217350892,13.499999999999972 M 10.238519215976481,15.188266684281501 M 10.0,16.999999999999716 M 10.000000000000028,293.00000000000006 M 10.23851921597651,294.8117333157177 M 10.937822173508977,296.5000000000001 M 12.050252531694156,297.9497474683058 M 13.5,299.0621778264911 M 15.188266684282382,299.76148078402355 M 16.99999999999997,300.0 M 203.00000000000003,300.00000000000006 M 204.81173331571762,299.7614807840234 M 206.5,299.0621778264911 M 207.94974746830582,297.9497474683058 M 209.06217782649105,296.49999999999994 M 209.76148078402346,294.8117333157177 M 210.0,293.00000000000006 M 210.0,17.00000000000003 M 209.7614807840235,15.188266684282382 M 209.06217782649108,13.5 M 207.94974746830584,12.050252531694184 M 206.5,10.937822173508948 M 204.81173331571765,10.238519215976538 M 174.99999999999997,102.99999999999989 M 173.70590477448735,102.82962913144519 M 172.49999999999994,102.33012701892204 M 171.4644660940672,101.5355339059326 M 170.66987298107776,100.49999999999983 M 170.17037086855464,99.29409522551242 M 169.99999999999997,97.99999999999983 M 170.17037086855464,96.7059047744873 M 170.66987298107776,95.49999999999989 M 171.46446609406723,94.46446609406712 M 172.49999999999994,93.66987298107767 M 173.70590477448735,93.17037086855453 M 174.99999999999994,92.99999999999983 M 176.29409522551254,93.17037086855453 M 177.49999999999991,93.66987298107767 M 178.53553390593265,94.46446609406712 M 179.33012701892213,95.49999999999983 M 179.82962913144527,96.7059047744873 M 179.99999999999994,97.99999999999989 M 179.8296291314453,99.29409522551242 M 179.33012701892213,100.49999999999983 M 178.53553390593265,101.53553390593254 M 177.49999999999991,102.33012701892204 M 176.29409522551254,102.82962913144519 M 83.82962913144532,96.70590477448724 M 83.99999999999996,97.99999999999989 M 83.82962913144526,99.29409522551242 M 83.33012701892211,100.49999999999983 M 82.53553390593264,101.53553390593254 M 81.49999999999993,102.33012701892204 M 80.29409522551252,102.82962913144519 M 78.99999999999996,102.99999999999989 M 77.70590477448731,102.82962913144519 M 76.49999999999994,102.3301270189221 M 75.46446609406719,101.53553390593254 M 74.66987298107773,100.49999999999983 M 74.17037086855457,99.29409522551248 M 73.99999999999993,97.99999999999983 M 74.17037086855457,96.70590477448724 M 74.66987298107775,95.49999999999989 M 75.46446609406719,94.46446609406712 M 76.49999999999994,93.66987298107767 M 77.70590477448734,93.17037086855453 M 78.99999999999996,92.99999999999983 M 80.29409522551252,93.17037086855447 M 81.49999999999991,93.66987298107756 M 82.53553390593264,94.46446609406706 M 83.33012701892211,95.49999999999983 M 54.00000000000006,17.000000000000256 M 84.00000000000009,17.000000000000085 M 84.00000000000009,24.000000000000085 M 54.00000000000003,23.999999999999943 M 136.0,286.00000000000017 M 165.99999999999997,286.00000000000017 M 165.99999999999994,293.0000000000002 M 136.0,293.0000000000002 M 202.99999999999974,77.0 M 195.99999999999977,77.0 M 195.99999999999977,47.000000000000085 M 202.99999999999972,47.000000000000085 M 24.000000000000057,137.00000000000034 M 16.99999999999997,137.00000000000028 M 16.99999999999997,107.00000000000034 M 24.00000000000003,107.00000000000028 M 202.99999999999972,233.0000000000001 M 202.99999999999974,263.00000000000017 M 195.9999999999998,263.00000000000017 M 195.9999999999998,233.0000000000001 M 195.99999999999977,107.00000000000017 M 202.99999999999972,107.00000000000017 M 202.99999999999972,137.00000000000023 M 195.99999999999977,137.00000000000023 M 136.0,24.000000000000085 M 136.0,17.00000000000003 M 165.99999999999994,17.00000000000003 M 165.99999999999994,24.00000000000003 M 16.99999999999997,46.99999999999997 M 24.00000000000003,46.99999999999997 M 24.00000000000003,77.0 M 16.999999999999943,77.0 M 54.0,293.0000000000002 M 54.0,286.0000000000001 M 84.00000000000013,286.00000000000017 M 84.00000000000009,293.0000000000002 M 202.99999999999972,203.00000000000017 M 195.9999999999998,203.00000000000017 M 195.99999999999977,173.00000000000034 M 202.99999999999972,173.00000000000034 M 24.000000000000057,233.0000000000001 M 24.000000000000057,263.00000000000017 M 16.99999999999997,263.00000000000017 M 17.0,233.0000000000001 M 24.00000000000003,173.0000000000004 M 24.00000000000003,203.00000000000017 M 16.99999999999997,203.00000000000017 M 16.99999999999997,173.00000000000034 M 186.7940952255126,39.32962913144536 M 185.5,39.50000000000003 M 184.20590477448738,39.32962913144536 M 183.0,38.830127018922184 M 181.96446609406726,38.03553390593274 M 181.1698729810778,37.0 M 180.6703708685547,35.79409522551262 M 180.50000000000003,34.50000000000003 M 180.6703708685547,33.20590477448741 M 181.1698729810778,32.0 M 181.96446609406726,30.96446609406729 M 183.0,30.169872981077816 M 184.20590477448738,29.6703708685547 M 185.5,29.50000000000003 M 186.7940952255126,29.67037086855467 M 187.99999999999997,30.169872981077816 M 189.0355339059327,30.96446609406729 M 189.83012701892218,32.0 M 190.32962913144533,33.20590477448741 M 190.5,34.50000000000003 M 190.32962913144533,35.79409522551262 M 189.83012701892218,37.0 M 189.0355339059327,38.03553390593268 M 187.99999999999997,38.830127018922184 M 35.794095225512564,280.3296291314453 M 34.49999999999994,280.5 M 33.20590477448732,280.3296291314453 M 32.0,279.83012701892216 M 30.96446609406729,279.03553390593277 M 30.169872981077816,278.0 M 29.67037086855464,276.79409522551254 M 29.49999999999997,275.50000000000006 M 29.67037086855464,274.20590477448735 M 30.16987298107776,273.0 M 30.964466094067262,271.96446609406723 M 31.99999999999997,271.16987298107773 M 33.20590477448735,270.67037086855464 M 34.500000000000085,270.5000000000001 M 35.794095225512564,270.6703708685546 M 37.00000000000003,271.1698729810779 M 38.03553390593271,271.96446609406723 M 38.8301270189221,273.00000000000006 M 39.32962913144536,274.20590477448735 M 39.49999999999994,275.50000000000006 M 39.32962913144536,276.79409522551254 M 38.83012701892213,278.0 M 38.035533905932766,279.03553390593277 M 36.99999999999997,279.83012701892216 M 186.79409522551256,280.3296291314453 M 185.5,280.5 M 184.20590477448738,280.3296291314453 M 183.0,279.83012701892227 M 181.96446609406723,279.03553390593277 M 181.16987298107782,278.0 M 180.6703708685547,276.79409522551254 M 180.5,275.50000000000006 M 180.67037086855467,274.20590477448735 M 181.1698729810778,273.00000000000006 M 181.96446609406726,271.96446609406723 M 183.0,271.16987298107784 M 184.2059047744874,270.67037086855464 M 185.50000000000003,270.5 M 186.7940952255126,270.67037086855464 M 188.0,271.16987298107784 M 189.0355339059327,271.96446609406723 M 189.83012701892218,273.00000000000006 M 190.32962913144533,274.20590477448735 M 190.50000000000003,275.49999999999994 M 190.32962913144533,276.7940952255126 M 189.83012701892218,278.0 M 189.03553390593274,279.03553390593277 M 187.99999999999997,279.83012701892227 M 39.32962913144536,35.79409522551265 M 38.830127018922184,37.0 M 38.03553390593274,38.035533905932766 M 37.00000000000003,38.83012701892247 M 35.79409522551259,39.329629131445586 M 34.50000000000003,39.500000000000284 M 33.20590477448735,39.3296291314455 M 31.99999999999997,38.83012701892241 M 30.964466094067234,38.03553390593288 M 30.169872981077788,37.00000000000006 M 29.67037086855464,35.79409522551251 M 29.5,34.499999999999886 M 29.67037086855467,33.20590477448735 M 30.169872981077788,31.999999999999915 M 30.964466094067262,30.964466094067376 M 31.99999999999997,30.1698729810779 M 33.20590477448738,29.67037086855467 M 34.50000000000003,29.499999999999943 M 35.794095225512564,29.670370868554556 M 36.99999999999997,30.169872981077674 M 38.03553390593274,30.964466094067063 M 38.83012701892224,32.0000000000002 M 39.32962913144536,33.20590477448735 M 39.50000000000003,34.49999999999997 M 145.99999999999983,187.00961894323342 M 149.6177143234621,185.51111260566393 M 153.49999999999986,185.00000000000006 M 157.38228567653766,185.51111260566404 M 160.99999999999986,187.00961894323342 M 164.10660171779816,189.39339828220182 M 166.4903810567665,192.4999999999999 M 167.98888739433596,196.11771432346217 M 168.49999999999986,199.99999999999977 M 167.98888739433596,203.88228567653772 M 166.49038105676647,207.4999999999999 M 164.10660171779813,210.60660171779818 M 160.99999999999986,212.99038105676652 M 157.38228567653766,214.48888739433602 M 153.49999999999986,215.00000000000006 M 149.617714323462,214.48888739433602 M 145.9999999999998,212.99038105676652 M 142.89339828220164,210.60660171779818 M 140.5096189432333,207.49999999999994 M 139.0111126056638,203.88228567653772 M 138.49999999999983,199.99999999999977 M 139.01111260566384,196.11771432346217 M 140.50961894323328,192.4999999999999 M 142.89339828220164,189.39339828220176 M 97.11771432346214,171.48888739433602 M 93.49999999999999,169.99038105676658 M 90.39339828220177,167.60660171779818 M 88.00961894323338,164.4999999999999 M 86.51111260566393,160.88228567653772 M 85.99999999999993,156.9999999999999 M 86.51111260566394,153.1177143234621 M 88.00961894323339,149.49999999999983 M 90.39339828220174,146.3933982822017 M 93.49999999999999,144.00961894323336 M 97.11771432346211,142.51111260566387 M 100.99999999999994,141.9999999999999 M 104.88228567653779,142.51111260566387 M 108.49999999999987,144.0096189432333 M 111.60660171779806,146.3933982822017 M 113.99038105676641,149.49999999999983 M 114.99999999999986,151.93743574558283 M 115.36864308258386,152.82741887523213 M 115.48888739433595,153.11771432346217 M 115.9999999999999,156.99999999999994 M 115.48888739433593,160.88228567653778 M 114.99999999999984,162.06256425441694 M 113.99038105676641,164.4999999999999 M 111.60660171779804,167.60660171779818 M 108.49999999999986,169.99038105676658 M 104.8822856765377,171.48888739433596 M 100.99999999999991,171.99999999999983 M 125.35841266570158,158.99844947377153 M 126.37568531049816,156.99999999999994 M 127.13477210030923,155.5087610451293 M 129.75380138177553,152.59773651882574 M 133.03701799271897,150.46375740563246 M 136.76067614687582,149.25225085554717 M 140.67101469467656,149.04577903784832 M 144.50155052622824,149.85841266570162 M 147.99123895487045,151.6347721003093 M 150.90226348117415,154.25380138177547 M 153.03624259436717,157.5370179927191 M 154.24774914445263,161.26067614687588 M 154.45422096215142,165.17101469467661 M 153.64158733429815,169.00155052622836 M 151.86522789969052,172.4912389548706 M 149.24619861822427,175.40226348117432 M 145.96298200728074,177.53624259436737 M 142.23932385312386,178.74774914445277 M 138.32898530532322,178.95422096215157 M 134.49844947377147,178.14158733429832 M 131.0087610451293,176.36522789969064 M 128.09773651882557,173.7461986182243 M 125.96375740563259,170.4629820072809 M 124.75225085554716,166.739323853124 M 124.54577903784832,162.82898530532316 M 118.82685962886823,178.49637475039646 M 122.45027698673404,179.98103795147478 M 125.56597028011876,182.35292190130815 M 127.96161016000485,185.45038662843882 M 129.4739377275602,189.06234503051542 M 129.99989035829532,192.9426481114798 M 129.50362524960346,196.82685962886825 M 128.20345905962586,199.99999999999977 M 128.0189620485251,200.45027698673414 M 125.64707809869181,203.5659702801188 M 122.54961337156111,205.96161016000485 M 118.93765496948454,207.4739377275602 M 115.05735188852012,207.99989035829543 M 114.99999999999984,207.9925628116202 M 111.17314037113157,207.5036252496035 M 107.54972301326572,206.0189620485251 M 104.43402971988104,203.6470780986918 M 102.03838983999496,200.54961337156112 M 100.52606227243967,196.93765496948464 M 100.00010964170458,193.05735188852026 M 100.49637475039638,189.1731403711317 M 101.98103795147473,185.54972301326592 M 104.35292190130801,182.4340297198812 M 107.45038662843861,180.03838983999503 M 111.06234503051517,178.5260622724398 M 114.94264811147958,178.00010964170457 M 114.99999999999983,178.0074371883798 M 160.99999999999986,225.0096189432337 M 164.1066017177981,227.3933982822021 M 166.49038105676647,230.50000000000017 M 167.98888739433593,234.11771432346245 M 168.49999999999983,238.0000000000001 M 167.98888739433593,241.8822856765379 M 166.4903810567665,245.5 M 164.10660171779813,248.6066017177983 M 160.99999999999986,250.99038105676664 M 157.38228567653766,252.48888739433613 M 153.49999999999983,253.0000000000001 M 149.61771432346202,252.48888739433613 M 145.99999999999983,250.99038105676675 M 142.89339828220162,248.6066017177983 M 140.50961894323328,245.5 M 139.0111126056638,241.8822856765379 M 138.4999999999998,238.00000000000017 M 139.01111260566387,234.11771432346245 M 140.5096189432333,230.50000000000017 M 142.89339828220164,227.3933982822021 M 145.9999999999998,225.0096189432337 M 149.6177143234621,223.51111260566404 M 153.49999999999986,223.0000000000001 M 157.3822856765377,223.51111260566404 M 107.49999999999989,243.98666246257676 M 104.39339828220167,241.60288312360836 M 102.00961894323332,238.49628140581012 M 100.51111260566387,234.87856708234818 M 99.99999999999997,230.99628140581035 M 100.51111260566391,227.11399572927252 M 102.00961894323325,223.49628140581007 M 104.39339828220172,220.38967968801205 M 107.4999999999999,218.0059003490436 M 111.11771432346202,216.50739401147393 M 114.99999999999986,215.99628140580995 M 118.88228567653765,216.50739401147393 M 122.49999999999986,218.0059003490436 M 125.60660171779801,220.38967968801205 M 127.99038105676648,223.49628140581007 M 129.4888873943359,227.11399572927252 M 129.99999999999986,230.99628140581035 M 129.4888873943359,234.87856708234818 M 127.99038105676647,238.49628140581012 M 125.60660171779807,241.60288312360836 M 122.49999999999987,243.98666246257676 M 118.88228567653768,245.4851688001462 M 114.99999999999987,245.9962814058103 M 111.11771432346205,245.4851688001463 M 163.99999999999991,69.99999999999986 M 163.99999999999991,125.99999999999977 M 140.99999999999994,125.99999999999977 M 140.99999999999994,127.49999999999977 M 135.49999999999994,127.49999999999977 M 135.49999999999994,136.49999999999977 M 115.49999999999996,136.49999999999977 M 115.49999999999993,130.9999999999999 M 115.47607574085198,129.818277210183 M 115.1471143170299,128.68301270189198 M 114.5355339059327,127.67157287525373 M 113.68301270189215,126.85288568296988 M 112.64764861610581,126.28274330425029 M 111.49999999999993,125.99999999999977 M 89.99999999999996,125.99999999999977 M 89.99999999999994,69.99999999999986 M 112.99999999999993,69.9999999999998 M 112.99999999999996,68.49999999999983 M 118.49999999999993,68.49999999999974 M 118.49999999999993,59.49999999999986 M 138.49999999999994,59.49999999999986 M 138.49999999999991,64.99999999999983 M 138.5239242591478,66.18172278981663 M 138.85288568296997,67.31698729810759 M 139.46446609406718,68.32842712474599 M 140.3169872981077,69.14711431702978 M 141.35235138389405,69.71725669574934 M 142.49999999999991,69.99999999999986 "
  />
</svg>
