<?xml version="1.0" standalone="no"?>
<!DOCTYPE svg PUBLIC "-//W3C//DTD SVG 1.1//EN" "http://www.w3.org/Graphics/SVG/1.1/DTD/svg11.dtd">
<svg width="72.0mm" height="206.0mm"
 viewBox="0 0 72.0 206.0"
 xmlns="http://www.w3.org/2000/svg" version="1.1"
 xmlns:xlink="http://www.w3.org/1999/xlink">
<desc>Output from Flights of Ideas SVG Sketchup Plugin</desc>

  <path id="face0-cut"
 style="fill:none;stroke:#0000FF;stroke-width:1;stroke-miterlimit:4;stroke-dasharray:none;stroke-linejoin:round;stroke-linecap:round"
        d="M 17.00000000000001,189.0 L 24.000000000000007,189.0 L 24.000000000000007,196.0 L 31.000000000000014,196.0 L 31.000000000000014,189.0 L 38.000000000000014,189.0 L 38.000000000000014,196.0 L 45.000000000000014,196.0 L 45.000000000000014,189.0 L 52.000000000000014,189.0 L 52.000000000000014,159.0 L 62.0,159.0 L 62.0,129.0 L 52.000000000000014,129.0 L 52.000000000000014,77.00000000000003 L 62.0,77.00000000000003 L 62.0,47.00000000000003 L 51.999999999999986,47.00000000000003 L 51.999999999999986,17.00000000000003 L 45.000000000000014,17.000000000000085 L 45.0,10.0 L 38.000000000000014,10.0 L 38.000000000000014,17.00000000000003 L 31.00000000000003,17.00000000000003 L 31.000000000000018,10.0 L 23.999999999999996,10.000000000000057 L 24.000000000000025,17.00000000000003 L 17.00000000000002,17.00000000000003 L 17.000000000000018,47.00000000000003 L 10.000000000000007,47.00000000000003 L 10.0,77.00000000000003 L 17.000000000000018,77.00000000000003 L 17.000000000000014,129.0 L 10.000000000000005,129.0 L 10.000000000000016,159.0 L 17.000000000000014,159.0 L 17.00000000000001,189.0 "
  />
  <path id="face0-interior"
 style="fill:none;stroke:#FF0000;stroke-width:1;stroke-miterlimit:4;stroke-dasharray:none;stroke-linejoin:round;stroke-linecap:round"
        d="M 17.00000000000001,189.0 M 24.000000000000007,189.0 M 24.000000000000007,196.0 M 31.000000000000014,196.0 M 31.000000000000014,189.0 M 38.000000000000014,189.0 M 38.000000000000014,196.0 M 45.000000000000014,196.0 M 45.000000000000014,189.0 M 52.000000000000014,189.0 M 52.000000000000014,159.0 M 62.0,159.0 M 62.0,129.0 M 52.000000000000014,129.0 M 52.000000000000014,77.00000000000003 M 62.0,77.00000000000003 M 62.0,47.00000000000003 M 51.999999999999986,47.00000000000003 M 51.999999999999986,17.00000000000003 M 45.000000000000014,17.000000000000085 M 45.0,10.0 M 38.000000000000014,10.0 M 38.000000000000014,17.00000000000003 M 31.00000000000003,17.00000000000003 M 31.000000000000018,10.0 M 23.999999999999996,10.000000000000057 M 24.000000000000025,17.00000000000003 M 17.00000000000002,17.00000000000003 M 17.000000000000018,47.00000000000003 M 10.000000000000007,47.00000000000003 M 10.0,77.00000000000003 M 17.000000000000018,77.00000000000003 M 17.000000000000014,129.0 M 10.000000000000005,129.0 M 10.000000000000016,159.0 M 17.000000000000014,159.0 "
  />
  <path id="face0-interior"
 style="fill:none;stroke:#00FF00;stroke-width:1;stroke-miterlimit:4;stroke-dasharray:none;stroke-linejoin:round;stroke-linecap:round"
        d="M 17.00000000000001,189.0 M 24.000000000000007,189.0 M 24.000000000000007,196.0 M 31.000000000000014,196.0 M 31.000000000000014,189.0 M 38.000000000000014,189.0 M 38.000000000000014,196.0 M 45.000000000000014,196.0 M 45.000000000000014,189.0 M 52.000000000000014,189.0 M 52.000000000000014,159.0 M 62.0,159.0 M 62.0,129.0 M 52.000000000000014,129.0 M 52.000000000000014,77.00000000000003 M 62.0,77.00000000000003 M 62.0,47.00000000000003 M 51.999999999999986,47.00000000000003 M 51.999999999999986,17.00000000000003 M 45.000000000000014,17.000000000000085 M 45.0,10.0 M 38.000000000000014,10.0 M 38.000000000000014,17.00000000000003 M 31.00000000000003,17.00000000000003 M 31.000000000000018,10.0 M 23.999999999999996,10.000000000000057 M 24.000000000000025,17.00000000000003 M 17.00000000000002,17.00000000000003 M 17.000000000000018,47.00000000000003 M 10.000000000000007,47.00000000000003 M 10.0,77.00000000000003 M 17.000000000000018,77.00000000000003 M 17.000000000000014,129.0 M 10.000000000000005,129.0 M 10.000000000000016,159.0 M 17.000000000000014,159.0 "
  />
</svg>
