  0
SECTION
  2
HEADER
  9
$ACADVER
  1
AC1009
  9
$EXTMIN
 10
0.0
 20
0.0
 30
0.0
  9
$EXTMAX
 10
1000.0
 20
1000.0
 30
0.0
  9
$FILLMODE
 70
 0
  9
$SPLFRAME
 70
 1
  0
ENDSEC
  0
SECTION
  2
TABLES
  0
TABLE
  2
LAYER
 70
1
  0
LAYER
  2
0
 70
     0
 62
     7
  6
CONTINUOUS
  0
ENDTAB
  0
ENDSEC
  0
SECTION
  2
ENTITIES
  0
POLYLINE
  8
0
 62
     5
 66
     1
 10
0
 20
0
 30
0.0
 70
     1
 40
2.83465
 41
2.83465
  0
VERTEX
  8
0
 10
0.393718
 20
3.81461
 30
0.0
 40
0.0393701
 41
0.0393701
  0
VERTEX
  8
0
 10
0.393718
 20
0.405165
 30
0.0
 40
0.0393701
 41
0.0393701
  0
VERTEX
  8
0
 10
3.91732
 20
0.405165
 30
0.0
 40
0.0393701
 41
0.0393701
  0
VERTEX
  8
0
 10
3.91732
 20
3.81461
 30
0.0
 40
0.0393701
 41
0.0393701
  0
VERTEX
  8
0
 10
0.393718
 20
3.81461
 30
0.0
 40
0.0393701
 41
0.0393701
  0
SEQEND
 8
0
  0
POLYLINE
  8
0
 62
     5
 66
     1
 10
0
 20
0
 30
0.0
 70
     1
 40
2.83465
 41
2.83465
  0
VERTEX
  8
0
 10
1.71311
 20
3.62278
 30
0.0
 40
0.0393701
 41
0.0393701
  0
VERTEX
  8
0
 10
2.50049
 20
3.62278
 30
0.0
 40
0.0393701
 41
0.0393701
  0
VERTEX
  8
0
 10
2.50049
 20
3.26844
 30
0.0
 40
0.0393701
 41
0.0393701
  0
VERTEX
  8
0
 10
2.71701
 20
3.26844
 30
0.0
 40
0.0393701
 41
0.0393701
  0
VERTEX
  8
0
 10
2.71701
 20
3.20942
 30
0.0
 40
0.0393701
 41
0.0393701
  0
VERTEX
  8
0
 10
3.62256
 20
3.20942
 30
0.0
 40
0.0393701
 41
0.0393701
  0
VERTEX
  8
0
 10
3.62256
 20
1.00467
 30
0.0
 40
0.0393701
 41
0.0393701
  0
VERTEX
  8
0
 10
2.7761
 20
1.00467
 30
0.0
 40
0.0393701
 41
0.0393701
  0
VERTEX
  8
0
 10
2.7309
 20
0.993544
 30
0.0
 40
0.0393701
 41
0.0393701
  0
VERTEX
  8
0
 10
2.69015
 20
0.971083
 30
0.0
 40
0.0393701
 41
0.0393701
  0
VERTEX
  8
0
 10
2.65657
 20
0.938857
 30
0.0
 40
0.0393701
 41
0.0393701
  0
VERTEX
  8
0
 10
2.63249
 20
0.899035
 30
0.0
 40
0.0393701
 41
0.0393701
  0
VERTEX
  8
0
 10
2.61957
 20
0.854329
 30
0.0
 40
0.0393701
 41
0.0393701
  0
VERTEX
  8
0
 10
2.6186
 20
0.807835
 30
0.0
 40
0.0393701
 41
0.0393701
  0
VERTEX
  8
0
 10
2.6186
 20
0.591308
 30
0.0
 40
0.0393701
 41
0.0393701
  0
VERTEX
  8
0
 10
1.83122
 20
0.591308
 30
0.0
 40
0.0393701
 41
0.0393701
  0
VERTEX
  8
0
 10
1.83122
 20
0.945637
 30
0.0
 40
0.0393701
 41
0.0393701
  0
VERTEX
  8
0
 10
1.61469
 20
0.945637
 30
0.0
 40
0.0393701
 41
0.0393701
  0
VERTEX
  8
0
 10
1.61469
 20
1.00467
 30
0.0
 40
0.0393701
 41
0.0393701
  0
VERTEX
  8
0
 10
0.709147
 20
1.00467
 30
0.0
 40
0.0393701
 41
0.0393701
  0
VERTEX
  8
0
 10
0.709147
 20
3.20942
 30
0.0
 40
0.0393701
 41
0.0393701
  0
VERTEX
  8
0
 10
1.55561
 20
3.20942
 30
0.0
 40
0.0393701
 41
0.0393701
  0
VERTEX
  8
0
 10
1.60081
 20
3.22054
 30
0.0
 40
0.0393701
 41
0.0393701
  0
VERTEX
  8
0
 10
1.64154
 20
3.24294
 30
0.0
 40
0.0393701
 41
0.0393701
  0
VERTEX
  8
0
 10
1.67513
 20
3.27522
 30
0.0
 40
0.0393701
 41
0.0393701
  0
VERTEX
  8
0
 10
1.69922
 20
3.31506
 30
0.0
 40
0.0393701
 41
0.0393701
  0
VERTEX
  8
0
 10
1.71213
 20
3.35969
 30
0.0
 40
0.0393701
 41
0.0393701
  0
VERTEX
  8
0
 10
1.71311
 20
3.40625
 30
0.0
 40
0.0393701
 41
0.0393701
  0
VERTEX
  8
0
 10
1.71311
 20
3.62278
 30
0.0
 40
0.0393701
 41
0.0393701
  0
SEQEND
 8
0
  0
ENDSEC
  0
EOF
