<?xml version="1.0" standalone="no"?>
<!DOCTYPE svg PUBLIC "-//W3C//DTD SVG 1.1//EN" "http://www.w3.org/Graphics/SVG/1.1/DTD/svg11.dtd">
<svg width="109.49999999999994mm" height="106.59999999999998mm"
 viewBox="0 0 109.49999999999994 106.59999999999998"
 xmlns="http://www.w3.org/2000/svg" version="1.1"
 xmlns:xlink="http://www.w3.org/1999/xlink">
<desc>Output from Flights of Ideas SVG Sketchup Plugin</desc>

  <path id="face0-cut"
 style="fill:none;stroke:#0000FF;stroke-width:1;stroke-miterlimit:4;stroke-dasharray:none;stroke-linejoin:round;stroke-linecap:round"
        d="M 10.0,10.0 L 10.0,96.59999999999998 L 99.49999999999994,96.59999999999998 L 99.49999999999994,10.0 L 10.0,10.0 M 43.51263118418785,14.873010706606067 L 63.512631184187796,14.873010706606024 L 63.512631184187796,23.873010706606067 L 69.0126311841878,23.87301070660611 L 69.0126311841878,25.373010706606138 L 92.0126311841878,25.373010706606124 L 92.0126311841878,81.373010706606 L 70.5126311841878,81.373010706606 L 69.36498256808193,81.65575401085654 L 68.32961848229559,82.22589638957614 L 67.47709727825503,83.04458358185992 L 66.86551686715785,84.05602340849832 L 66.53655544333571,85.19128791678928 L 66.51263118418785,86.37301070660608 L 66.51263118418785,91.87301070660605 L 46.512631184187796,91.87301070660605 L 46.512631184187796,82.87301070660611 L 41.01263118418785,82.87301070660611 L 41.01263118418785,81.37301070660611 L 18.012631184187853,81.37301070660605 L 18.012631184187853,25.37301070660611 L 39.51263118418785,25.37301070660611 L 40.660279800293665,25.09026740235562 L 41.695643886080006,24.520125023636027 L 42.54816509012056,23.70143783135221 L 43.15974550121774,22.68999800471387 L 43.48870692503982,21.554733496422855 L 43.51263118418785,20.373010706606024 L 43.51263118418785,14.873010706606067 "
  />
  <path id="face0-interior"
 style="fill:none;stroke:#FF0000;stroke-width:1;stroke-miterlimit:4;stroke-dasharray:none;stroke-linejoin:round;stroke-linecap:round"
        d="M 10.0,10.0 M 10.0,96.59999999999998 M 99.49999999999994,96.59999999999998 M 99.49999999999994,10.0 M 43.51263118418785,14.873010706606067 M 63.512631184187796,14.873010706606024 M 63.512631184187796,23.873010706606067 M 69.0126311841878,23.87301070660611 M 69.0126311841878,25.373010706606138 M 92.0126311841878,25.373010706606124 M 92.0126311841878,81.373010706606 M 70.5126311841878,81.373010706606 M 69.36498256808193,81.65575401085654 M 68.32961848229559,82.22589638957614 M 67.47709727825503,83.04458358185992 M 66.86551686715785,84.05602340849832 M 66.53655544333571,85.19128791678928 M 66.51263118418785,86.37301070660608 M 66.51263118418785,91.87301070660605 M 46.512631184187796,91.87301070660605 M 46.512631184187796,82.87301070660611 M 41.01263118418785,82.87301070660611 M 41.01263118418785,81.37301070660611 M 18.012631184187853,81.37301070660605 M 18.012631184187853,25.37301070660611 M 39.51263118418785,25.37301070660611 M 40.660279800293665,25.09026740235562 M 41.695643886080006,24.520125023636027 M 42.54816509012056,23.70143783135221 M 43.15974550121774,22.68999800471387 M 43.48870692503982,21.554733496422855 M 43.51263118418785,20.373010706606024 "
  />
  <path id="face0-interior"
 style="fill:none;stroke:#00FF00;stroke-width:1;stroke-miterlimit:4;stroke-dasharray:none;stroke-linejoin:round;stroke-linecap:round"
        d="M 10.0,10.0 M 10.0,96.59999999999998 M 99.49999999999994,96.59999999999998 M 99.49999999999994,10.0 M 43.51263118418785,14.873010706606067 M 63.512631184187796,14.873010706606024 M 63.512631184187796,23.873010706606067 M 69.0126311841878,23.87301070660611 M 69.0126311841878,25.373010706606138 M 92.0126311841878,25.373010706606124 M 92.0126311841878,81.373010706606 M 70.5126311841878,81.373010706606 M 69.36498256808193,81.65575401085654 M 68.32961848229559,82.22589638957614 M 67.47709727825503,83.04458358185992 M 66.86551686715785,84.05602340849832 M 66.53655544333571,85.19128791678928 M 66.51263118418785,86.37301070660608 M 66.51263118418785,91.87301070660605 M 46.512631184187796,91.87301070660605 M 46.512631184187796,82.87301070660611 M 41.01263118418785,82.87301070660611 M 41.01263118418785,81.37301070660611 M 18.012631184187853,81.37301070660605 M 18.012631184187853,25.37301070660611 M 39.51263118418785,25.37301070660611 M 40.660279800293665,25.09026740235562 M 41.695643886080006,24.520125023636027 M 42.54816509012056,23.70143783135221 M 43.15974550121774,22.68999800471387 M 43.48870692503982,21.554733496422855 M 43.51263118418785,20.373010706606024 "
  />
</svg>
