<?xml version="1.0" standalone="no"?>
<!DOCTYPE svg PUBLIC "-//W3C//DTD SVG 1.1//EN" "http://www.w3.org/Graphics/SVG/1.1/DTD/svg11.dtd">
<svg width="65.0mm" height="65.00000000000001mm"
 viewBox="0 0 65.0 65.00000000000001"
 xmlns="http://www.w3.org/2000/svg" version="1.1"
 xmlns:xlink="http://www.w3.org/1999/xlink">
<desc>Output from Flights of Ideas SVG Sketchup Plugin</desc>

  <path id="face0-cut"
 style="fill:none;stroke:#0000FF;stroke-width:1;stroke-miterlimit:4;stroke-dasharray:none;stroke-linejoin:round;stroke-linecap:round"
        d="M 55.0,55.000000000000014 L 55.0,10.000000000000005 L 10.0,10.0 L 10.0,55.000000000000014 L 55.0,55.000000000000014 M 32.50000000000006,47.50000000000006 L 28.617714323462224,46.98888739433606 L 25.000000000000057,45.49038105676663 L 21.893398282201815,43.10660171779828 L 19.50961894323342,40.00000000000005 L 18.011112605663982,36.38228567653789 L 17.5,32.50000000000003 L 18.011112605663982,28.61771432346221 L 19.50961894323342,25.000000000000014 L 21.893398282201815,21.893398282201787 L 25.0,19.509618943233434 L 28.617714323462224,18.011112605663996 L 32.5,17.50000000000003 L 36.38228567653783,18.01111260566401 L 40.00000000000006,19.50961894323344 L 43.10660171779824,21.893398282201794 L 45.49038105676658,25.00000000000003 L 46.988887394336075,28.617714323462202 L 47.50000000000006,32.500000000000036 L 46.988887394336075,36.38228567653786 L 45.49038105676658,40.00000000000004 L 43.10660171779824,43.10660171779828 L 40.00000000000006,45.49038105676663 L 36.38228567653783,46.98888739433606 L 32.50000000000006,47.50000000000006 "
  />
  <path id="face0-interior"
 style="fill:none;stroke:#FF0000;stroke-width:1;stroke-miterlimit:4;stroke-dasharray:none;stroke-linejoin:round;stroke-linecap:round"
        d="M 55.0,55.000000000000014 M 55.0,10.000000000000005 M 10.0,10.0 M 10.0,55.000000000000014 M 32.50000000000006,47.50000000000006 M 28.617714323462224,46.98888739433606 M 25.000000000000057,45.49038105676663 M 21.893398282201815,43.10660171779828 M 19.50961894323342,40.00000000000005 M 18.011112605663982,36.38228567653789 M 17.5,32.50000000000003 M 18.011112605663982,28.61771432346221 M 19.50961894323342,25.000000000000014 M 21.893398282201815,21.893398282201787 M 25.0,19.509618943233434 M 28.617714323462224,18.011112605663996 M 32.5,17.50000000000003 M 36.38228567653783,18.01111260566401 M 40.00000000000006,19.50961894323344 M 43.10660171779824,21.893398282201794 M 45.49038105676658,25.00000000000003 M 46.988887394336075,28.617714323462202 M 47.50000000000006,32.500000000000036 M 46.988887394336075,36.38228567653786 M 45.49038105676658,40.00000000000004 M 43.10660171779824,43.10660171779828 M 40.00000000000006,45.49038105676663 M 36.38228567653783,46.98888739433606 "
  />
  <path id="face0-interior"
 style="fill:none;stroke:#00FF00;stroke-width:1;stroke-miterlimit:4;stroke-dasharray:none;stroke-linejoin:round;stroke-linecap:round"
        d="M 55.0,55.000000000000014 M 55.0,10.000000000000005 M 10.0,10.0 M 10.0,55.000000000000014 M 32.50000000000006,47.50000000000006 M 28.617714323462224,46.98888739433606 M 25.000000000000057,45.49038105676663 M 21.893398282201815,43.10660171779828 M 19.50961894323342,40.00000000000005 M 18.011112605663982,36.38228567653789 M 17.5,32.50000000000003 M 18.011112605663982,28.61771432346221 M 19.50961894323342,25.000000000000014 M 21.893398282201815,21.893398282201787 M 25.0,19.509618943233434 M 28.617714323462224,18.011112605663996 M 32.5,17.50000000000003 M 36.38228567653783,18.01111260566401 M 40.00000000000006,19.50961894323344 M 43.10660171779824,21.893398282201794 M 45.49038105676658,25.00000000000003 M 46.988887394336075,28.617714323462202 M 47.50000000000006,32.500000000000036 M 46.988887394336075,36.38228567653786 M 45.49038105676658,40.00000000000004 M 43.10660171779824,43.10660171779828 M 40.00000000000006,45.49038105676663 M 36.38228567653783,46.98888739433606 "
  />
</svg>
