  0
SECTION
  2
HEADER
  9
$ACADVER
  1
AC1009
  9
$EXTMIN
 10
0.0
 20
0.0
 30
0.0
  9
$EXTMAX
 10
1000.0
 20
1000.0
 30
0.0
  9
$FILLMODE
 70
 0
  9
$SPLFRAME
 70
 1
  0
ENDSEC
  0
SECTION
  2
TABLES
  0
TABLE
  2
LAYER
 70
1
  0
LAYER
  2
0
 70
     0
 62
     7
  6
CONTINUOUS
  0
ENDTAB
  0
ENDSEC
  0
SECTION
  2
ENTITIES
  0
POLYLINE
  8
0
 62
     5
 66
     1
 10
0
 20
0
 30
0.0
 70
     1
 40
2.83465
 41
2.83465
  0
VERTEX
  8
0
 10
2.16536
 20
0.404081
 30
0.0
 40
0.0393701
 41
0.0393701
  0
VERTEX
  8
0
 10
2.16536
 20
2.17572
 30
0.0
 40
0.0393701
 41
0.0393701
  0
VERTEX
  8
0
 10
0.393718
 20
2.17572
 30
0.0
 40
0.0393701
 41
0.0393701
  0
VERTEX
  8
0
 10
0.393718
 20
0.404081
 30
0.0
 40
0.0393701
 41
0.0393701
  0
VERTEX
  8
0
 10
2.16536
 20
0.404081
 30
0.0
 40
0.0393701
 41
0.0393701
  0
SEQEND
 8
0
  0
POLYLINE
  8
0
 62
     5
 66
     1
 10
0
 20
0
 30
0.0
 70
     1
 40
2.83465
 41
2.83465
  0
VERTEX
  8
0
 10
1.27951
 20
0.699382
 30
0.0
 40
0.0393701
 41
0.0393701
  0
VERTEX
  8
0
 10
1.12668
 20
0.71951
 30
0.0
 40
0.0393701
 41
0.0393701
  0
VERTEX
  8
0
 10
0.984267
 20
0.778483
 30
0.0
 40
0.0393701
 41
0.0393701
  0
VERTEX
  8
0
 10
0.861925
 20
0.872342
 30
0.0
 40
0.0393701
 41
0.0393701
  0
VERTEX
  8
0
 10
0.768121
 20
0.994629
 30
0.0
 40
0.0393701
 41
0.0393701
  0
VERTEX
  8
0
 10
0.709093
 20
1.13704
 30
0.0
 40
0.0393701
 41
0.0393701
  0
VERTEX
  8
0
 10
0.688965
 20
1.28993
 30
0.0
 40
0.0393701
 41
0.0393701
  0
VERTEX
  8
0
 10
0.709093
 20
1.44276
 30
0.0
 40
0.0393701
 41
0.0393701
  0
VERTEX
  8
0
 10
0.768121
 20
1.58518
 30
0.0
 40
0.0393701
 41
0.0393701
  0
VERTEX
  8
0
 10
0.861925
 20
1.70751
 30
0.0
 40
0.0393701
 41
0.0393701
  0
VERTEX
  8
0
 10
0.984267
 20
1.80132
 30
0.0
 40
0.0393701
 41
0.0393701
  0
VERTEX
  8
0
 10
1.12668
 20
1.86035
 30
0.0
 40
0.0393701
 41
0.0393701
  0
VERTEX
  8
0
 10
1.27951
 20
1.88049
 30
0.0
 40
0.0393701
 41
0.0393701
  0
VERTEX
  8
0
 10
1.4324
 20
1.86035
 30
0.0
 40
0.0393701
 41
0.0393701
  0
VERTEX
  8
0
 10
1.57482
 20
1.80132
 30
0.0
 40
0.0393701
 41
0.0393701
  0
VERTEX
  8
0
 10
1.6971
 20
1.70751
 30
0.0
 40
0.0393701
 41
0.0393701
  0
VERTEX
  8
0
 10
1.79096
 20
1.58518
 30
0.0
 40
0.0393701
 41
0.0393701
  0
VERTEX
  8
0
 10
1.84993
 20
1.44276
 30
0.0
 40
0.0393701
 41
0.0393701
  0
VERTEX
  8
0
 10
1.87007
 20
1.28993
 30
0.0
 40
0.0393701
 41
0.0393701
  0
VERTEX
  8
0
 10
1.84993
 20
1.13704
 30
0.0
 40
0.0393701
 41
0.0393701
  0
VERTEX
  8
0
 10
1.79096
 20
0.994629
 30
0.0
 40
0.0393701
 41
0.0393701
  0
VERTEX
  8
0
 10
1.6971
 20
0.872342
 30
0.0
 40
0.0393701
 41
0.0393701
  0
VERTEX
  8
0
 10
1.57482
 20
0.778483
 30
0.0
 40
0.0393701
 41
0.0393701
  0
VERTEX
  8
0
 10
1.4324
 20
0.71951
 30
0.0
 40
0.0393701
 41
0.0393701
  0
VERTEX
  8
0
 10
1.27951
 20
0.699382
 30
0.0
 40
0.0393701
 41
0.0393701
  0
SEQEND
 8
0
  0
ENDSEC
  0
EOF
