<?xml version="1.0" standalone="no"?>
<!DOCTYPE svg PUBLIC "-//W3C//DTD SVG 1.1//EN" "http://www.w3.org/Graphics/SVG/1.1/DTD/svg11.dtd">
<svg width="41.00000000000003mm" height="41.0mm"
 viewBox="0 0 41.00000000000003 41.0"
 xmlns="http://www.w3.org/2000/svg" version="1.1"
 xmlns:xlink="http://www.w3.org/1999/xlink">
<desc>Output from Flights of Ideas SVG Sketchup Plugin</desc>

  <path id="face0-cut"
 style="fill:none;stroke:#0000FF;stroke-width:1;stroke-miterlimit:4;stroke-dasharray:none;stroke-linejoin:round;stroke-linecap:round"
        d="M 23.999999999999996,10.0 L 16.99999999999999,10.0 L 17.00000000000001,17.0 L 13.499999999999995,17.0 L 13.499999999999995,10.0 L 10.0,10.0 L 10.0,16.99999999999997 L 24.00000000000002,31.0 L 31.00000000000003,31.0 L 31.00000000000003,27.49999999999997 L 24.00000000000002,27.49999999999997 L 24.00000000000002,23.99999999999997 L 31.00000000000003,23.99999999999997 L 31.000000000000007,16.99999999999997 L 23.999999999999996,16.99999999999997 L 23.999999999999996,10.0 M 19.77530667371293,17.795407686390604 L 20.499999999999982,17.69999999999999 L 21.22469332628703,17.795407686390604 L 21.899999999999977,18.075128869403557 L 22.479898987322315,18.520101012677657 L 22.924871130596415,19.099999999999994 L 23.204592313609364,19.775306673712947 L 23.299999999999976,20.5 L 23.204592313609364,21.224693326287053 L 22.924871130596415,21.899999999999977 L 22.479898987322315,22.479898987322315 L 21.899999999999977,22.924871130596415 L 21.22469332628703,23.204592313609368 L 20.499999999999982,23.299999999999983 L 19.77530667371293,23.204592313609368 L 19.099999999999984,22.924871130596415 L 18.52010101267765,22.479898987322315 L 18.075128869403553,21.899999999999977 L 17.795407686390597,21.224693326287053 L 17.699999999999985,20.5 L 17.795407686390597,19.775306673712947 L 18.075128869403546,19.099999999999994 L 18.52010101267765,18.520101012677657 L 19.099999999999984,18.075128869403557 L 19.77530667371293,17.795407686390604 "
  />
  <path id="face0-interior"
 style="fill:none;stroke:#FF0000;stroke-width:1;stroke-miterlimit:4;stroke-dasharray:none;stroke-linejoin:round;stroke-linecap:round"
        d="M 23.999999999999996,10.0 M 16.99999999999999,10.0 M 17.00000000000001,17.0 M 13.499999999999995,17.0 M 13.499999999999995,10.0 M 10.0,10.0 M 10.0,16.99999999999997 M 24.00000000000002,31.0 M 31.00000000000003,31.0 M 31.00000000000003,27.49999999999997 M 24.00000000000002,27.49999999999997 M 24.00000000000002,23.99999999999997 M 31.00000000000003,23.99999999999997 M 31.000000000000007,16.99999999999997 M 23.999999999999996,16.99999999999997 M 19.77530667371293,17.795407686390604 M 20.499999999999982,17.69999999999999 M 21.22469332628703,17.795407686390604 M 21.899999999999977,18.075128869403557 M 22.479898987322315,18.520101012677657 M 22.924871130596415,19.099999999999994 M 23.204592313609364,19.775306673712947 M 23.299999999999976,20.5 M 23.204592313609364,21.224693326287053 M 22.924871130596415,21.899999999999977 M 22.479898987322315,22.479898987322315 M 21.899999999999977,22.924871130596415 M 21.22469332628703,23.204592313609368 M 20.499999999999982,23.299999999999983 M 19.77530667371293,23.204592313609368 M 19.099999999999984,22.924871130596415 M 18.52010101267765,22.479898987322315 M 18.075128869403553,21.899999999999977 M 17.795407686390597,21.224693326287053 M 17.699999999999985,20.5 M 17.795407686390597,19.775306673712947 M 18.075128869403546,19.099999999999994 M 18.52010101267765,18.520101012677657 M 19.099999999999984,18.075128869403557 "
  />
  <path id="face0-interior"
 style="fill:none;stroke:#00FF00;stroke-width:1;stroke-miterlimit:4;stroke-dasharray:none;stroke-linejoin:round;stroke-linecap:round"
        d="M 23.999999999999996,10.0 M 16.99999999999999,10.0 M 17.00000000000001,17.0 M 13.499999999999995,17.0 M 13.499999999999995,10.0 M 10.0,10.0 M 10.0,16.99999999999997 M 24.00000000000002,31.0 M 31.00000000000003,31.0 M 31.00000000000003,27.49999999999997 M 24.00000000000002,27.49999999999997 M 24.00000000000002,23.99999999999997 M 31.00000000000003,23.99999999999997 M 31.000000000000007,16.99999999999997 M 23.999999999999996,16.99999999999997 M 19.77530667371293,17.795407686390604 M 20.499999999999982,17.69999999999999 M 21.22469332628703,17.795407686390604 M 21.899999999999977,18.075128869403557 M 22.479898987322315,18.520101012677657 M 22.924871130596415,19.099999999999994 M 23.204592313609364,19.775306673712947 M 23.299999999999976,20.5 M 23.204592313609364,21.224693326287053 M 22.924871130596415,21.899999999999977 M 22.479898987322315,22.479898987322315 M 21.899999999999977,22.924871130596415 M 21.22469332628703,23.204592313609368 M 20.499999999999982,23.299999999999983 M 19.77530667371293,23.204592313609368 M 19.099999999999984,22.924871130596415 M 18.52010101267765,22.479898987322315 M 18.075128869403553,21.899999999999977 M 17.795407686390597,21.224693326287053 M 17.699999999999985,20.5 M 17.795407686390597,19.775306673712947 M 18.075128869403546,19.099999999999994 M 18.52010101267765,18.520101012677657 M 19.099999999999984,18.075128869403557 "
  />
</svg>
