<?xml version="1.0" standalone="no"?>
<!DOCTYPE svg PUBLIC "-//W3C//DTD SVG 1.1//EN" "http://www.w3.org/Graphics/SVG/1.1/DTD/svg11.dtd">
<svg width="55.0mm" height="41.0mm"
 viewBox="0 0 55.0 41.0"
 xmlns="http://www.w3.org/2000/svg" version="1.1"
 xmlns:xlink="http://www.w3.org/1999/xlink">
<desc>Output from Flights of Ideas SVG Sketchup Plugin</desc>

  <path id="face0-cut"
 style="fill:none;stroke:#0000FF;stroke-width:1;stroke-miterlimit:4;stroke-dasharray:none;stroke-linejoin:round;stroke-linecap:round"
        d="M 40.5,24.0 L 40.5,17.0 L 45.0,17.0 L 45.0,13.499999999999972 L 40.5,13.499999999999972 L 40.5,10.0 L 14.499999999999996,10.0 L 14.500000000000004,13.499999999999972 L 10.0,13.499999999999972 L 10.0,17.0 L 14.500000000000004,16.999999999999943 L 14.500000000000004,24.0 L 10.0,24.0 L 10.0,31.0 L 24.000000000000004,31.0 L 24.000000000000004,24.0 L 31.0,24.0 L 31.0,31.0 L 45.0,31.0 L 45.0,24.0 L 40.5,24.0 "
  />
  <path id="face0-interior"
 style="fill:none;stroke:#FF0000;stroke-width:1;stroke-miterlimit:4;stroke-dasharray:none;stroke-linejoin:round;stroke-linecap:round"
        d="M 40.5,24.0 M 40.5,17.0 M 45.0,17.0 M 45.0,13.499999999999972 M 40.5,13.499999999999972 M 40.5,10.0 M 14.499999999999996,10.0 M 14.500000000000004,13.499999999999972 M 10.0,13.499999999999972 M 10.0,17.0 M 14.500000000000004,16.999999999999943 M 14.500000000000004,24.0 M 10.0,24.0 M 10.0,31.0 M 24.000000000000004,31.0 M 24.000000000000004,24.0 M 31.0,24.0 M 31.0,31.0 M 45.0,31.0 M 45.0,24.0 "
  />
  <path id="face0-interior"
 style="fill:none;stroke:#00FF00;stroke-width:1;stroke-miterlimit:4;stroke-dasharray:none;stroke-linejoin:round;stroke-linecap:round"
        d="M 40.5,24.0 M 40.5,17.0 M 45.0,17.0 M 45.0,13.499999999999972 M 40.5,13.499999999999972 M 40.5,10.0 M 14.499999999999996,10.0 M 14.500000000000004,13.499999999999972 M 10.0,13.499999999999972 M 10.0,17.0 M 14.500000000000004,16.999999999999943 M 14.500000000000004,24.0 M 10.0,24.0 M 10.0,31.0 M 24.000000000000004,31.0 M 24.000000000000004,24.0 M 31.0,24.0 M 31.0,31.0 M 45.0,31.0 M 45.0,24.0 "
  />
</svg>
