<?xml version="1.0" standalone="no"?>
<!DOCTYPE svg PUBLIC "-//W3C//DTD SVG 1.1//EN" "http://www.w3.org/Graphics/SVG/1.1/DTD/svg11.dtd">
<svg width="54.999999999999986mm" height="41.00000000000003mm"
 viewBox="0 0 54.999999999999986 41.00000000000003"
 xmlns="http://www.w3.org/2000/svg" version="1.1"
 xmlns:xlink="http://www.w3.org/1999/xlink">
<desc>Output from Flights of Ideas SVG Sketchup Plugin</desc>

  <path id="face0-cut"
 style="fill:none;stroke:#0000FF;stroke-width:1;stroke-miterlimit:4;stroke-dasharray:none;stroke-linejoin:round;stroke-linecap:round"
        d="M 10.0,23.99999999999997 L 10.0,27.5 L 14.5,27.5 L 14.5,31.00000000000003 L 40.5,31.00000000000003 L 40.5,27.5 L 44.999999999999986,27.500000000000057 L 44.999999999999986,23.99999999999997 L 40.5,23.99999999999997 L 40.5,17.00000000000003 L 31.0,17.0 L 31.0,10.0 L 24.0,10.000000000000028 L 24.0,17.0 L 14.5,16.999999999999943 L 14.5,23.99999999999997 L 10.0,23.99999999999997 "
  />
  <path id="face0-interior"
 style="fill:none;stroke:#FF0000;stroke-width:1;stroke-miterlimit:4;stroke-dasharray:none;stroke-linejoin:round;stroke-linecap:round"
        d="M 10.0,23.99999999999997 M 10.0,27.5 M 14.5,27.5 M 14.5,31.00000000000003 M 40.5,31.00000000000003 M 40.5,27.5 M 44.999999999999986,27.500000000000057 M 44.999999999999986,23.99999999999997 M 40.5,23.99999999999997 M 40.5,17.00000000000003 M 31.0,17.0 M 31.0,10.0 M 24.0,10.000000000000028 M 24.0,17.0 M 14.5,16.999999999999943 M 14.5,23.99999999999997 "
  />
  <path id="face0-interior"
 style="fill:none;stroke:#00FF00;stroke-width:1;stroke-miterlimit:4;stroke-dasharray:none;stroke-linejoin:round;stroke-linecap:round"
        d="M 10.0,23.99999999999997 M 10.0,27.5 M 14.5,27.5 M 14.5,31.00000000000003 M 40.5,31.00000000000003 M 40.5,27.5 M 44.999999999999986,27.500000000000057 M 44.999999999999986,23.99999999999997 M 40.5,23.99999999999997 M 40.5,17.00000000000003 M 31.0,17.0 M 31.0,10.0 M 24.0,10.000000000000028 M 24.0,17.0 M 14.5,16.999999999999943 M 14.5,23.99999999999997 "
  />
</svg>
