solid support
facet normal -1.0 0.0 2.593864163841371e-16
outer loop
vertex 29.99999999999999 0.0 35.0
vertex 29.99999999999998 21.000000000000004 0.0
vertex 29.99999999999998 -1.767500359431725e-15 0.0
endloop
endfacet
facet normal -1.0 0.0 2.593864163841371e-16
outer loop
vertex 29.99999999999998 21.000000000000004 0.0
vertex 29.99999999999999 0.0 35.0
vertex 29.99999999999999 21.000000000000007 35.0
endloop
endfacet
facet normal 1.0 3.822866145232523e-15 -2.593864163841373e-16
outer loop
vertex 37.69999999999998 10.499999999999979 0.0
vertex 37.795407686390604 9.775306673712931 35.0
vertex 37.79540768639059 9.77530667371293 0.0
endloop
endfacet
facet normal 0.965925826289068 0.2588190451025217 -2.636184030096216e-16
outer loop
vertex 37.795407686390604 9.775306673712931 35.0
vertex 37.69999999999998 10.499999999999979 0.0
vertex 37.699999999999996 10.49999999999998 35.0
endloop
endfacet
facet normal 0.8660254037844392 -0.4999999999999994 -1.9938522085053202e-16
outer loop
vertex 38.07512886940355 11.899999999999977 0.0
vertex 37.7954076863906 11.224693326287031 35.0
vertex 37.79540768639059 11.22469332628703 0.0
endloop
endfacet
facet normal 0.965925826289069 -0.25881904510251796 -2.3747767413839447e-16
outer loop
vertex 37.7954076863906 11.224693326287031 35.0
vertex 38.07512886940355 11.899999999999977 0.0
vertex 38.075128869403564 11.899999999999979 35.0
endloop
endfacet
facet normal 0.4999999999999964 -0.8660254037844408 -8.595891640732462e-17
outer loop
vertex 39.09999999999999 12.924871130596413 35.0
vertex 38.52010101267765 12.479898987322313 0.0
vertex 39.09999999999998 12.92487113059641 0.0
endloop
endfacet
facet normal 0.7071067811865491 -0.7071067811865458 -1.477049942613631e-16
outer loop
vertex 38.52010101267765 12.479898987322313 0.0
vertex 39.09999999999999 12.924871130596413 35.0
vertex 38.52010101267766 12.479898987322315 35.0
endloop
endfacet
facet normal -5.346665937388144e-16 -1.0 5.0500010269478e-17
outer loop
vertex 40.49999999999999 13.299999999999976 35.0
vertex 39.77530667371292 13.204592313609362 0.0
vertex 40.49999999999998 13.299999999999972 0.0
endloop
endfacet
facet normal 0.25881904510251524 -0.9659258262890698 -1.8354880453953864e-17
outer loop
vertex 39.77530667371292 13.204592313609362 0.0
vertex 40.49999999999999 13.299999999999976 35.0
vertex 39.77530667371293 13.204592313609364 35.0
endloop
endfacet
facet normal -1.0742729457325322e-15 1.0 -5.050001026947759e-17
outer loop
vertex 29.99999999999998 21.000000000000004 0.0
vertex 51.0 21.00000000000003 34.99999999999999
vertex 50.999999999999986 21.000000000000025 -5.639932965095795e-15
endloop
endfacet
facet normal -1.0742729457325322e-15 1.0 -5.050001026947759e-17
outer loop
vertex 51.0 21.00000000000003 34.99999999999999
vertex 29.99999999999998 21.000000000000004 0.0
vertex 29.99999999999999 21.000000000000007 35.0
endloop
endfacet
facet normal 0.965925826289069 -0.25881904510251796 -2.3747767413839447e-16
outer loop
vertex 37.79540768639059 11.22469332628703 0.0
vertex 37.699999999999996 10.49999999999998 35.0
vertex 37.69999999999998 10.499999999999979 0.0
endloop
endfacet
facet normal 1.0 3.805043925441228e-15 -2.593864163841373e-16
outer loop
vertex 37.699999999999996 10.49999999999998 35.0
vertex 37.79540768639059 11.22469332628703 0.0
vertex 37.7954076863906 11.224693326287031 35.0
endloop
endfacet
facet normal 1.0 0.0 -2.5938641638413704e-16
outer loop
vertex 50.999999999999986 21.000000000000025 -5.639932965095795e-15
vertex 51.0 14.00000000000002 34.99999999999999
vertex 50.999999999999986 14.000000000000016 -5.639932965095795e-15
endloop
endfacet
facet normal 1.0 0.0 -2.5938641638413704e-16
outer loop
vertex 51.0 14.00000000000002 34.99999999999999
vertex 50.999999999999986 21.000000000000025 -5.639932965095795e-15
vertex 51.0 21.00000000000003 34.99999999999999
endloop
endfacet
facet normal 0.25881904510251524 -0.9659258262890698 -1.835488045395385e-17
outer loop
vertex 39.77530667371293 13.204592313609364 35.0
vertex 39.09999999999998 12.92487113059641 0.0
vertex 39.77530667371292 13.204592313609362 0.0
endloop
endfacet
facet normal 0.4999999999999964 -0.8660254037844408 -8.595891640732463e-17
outer loop
vertex 39.09999999999998 12.92487113059641 0.0
vertex 39.77530667371293 13.204592313609364 35.0
vertex 39.09999999999999 12.924871130596413 35.0
endloop
endfacet
facet normal -0.49999999999999434 -0.8660254037844419 1.7342749997681002e-16
outer loop
vertex 41.89999999999999 12.924871130596413 35.0
vertex 41.22469332628704 13.204592313609362 0.0
vertex 41.89999999999998 12.92487113059641 0.0
endloop
endfacet
facet normal -0.2588190451025157 -0.9659258262890698 1.159134087482578e-16
outer loop
vertex 41.22469332628704 13.204592313609362 0.0
vertex 41.89999999999999 12.924871130596413 35.0
vertex 41.22469332628705 13.204592313609364 35.0
endloop
endfacet
facet normal -2.5938641638413704e-16 -5.050001026947786e-17 -1.0
outer loop
vertex 29.99999999999998 21.000000000000004 0.0
vertex 38.07512886940355 11.899999999999977 0.0
vertex 29.99999999999998 -1.767500359431725e-15 0.0
endloop
endfacet
facet normal -2.5938641638413704e-16 -5.050001026947786e-17 -1.0
outer loop
vertex 38.07512886940355 11.899999999999977 0.0
vertex 29.99999999999998 21.000000000000004 0.0
vertex 38.52010101267765 12.479898987322313 0.0
endloop
endfacet
facet normal -2.5938641638413704e-16 -5.050001026947786e-17 -1.0
outer loop
vertex 38.52010101267765 12.479898987322313 0.0
vertex 29.99999999999998 21.000000000000004 0.0
vertex 39.09999999999998 12.92487113059641 0.0
endloop
endfacet
facet normal -2.5938641638413704e-16 -5.050001026947786e-17 -1.0
outer loop
vertex 39.09999999999998 12.92487113059641 0.0
vertex 29.99999999999998 21.000000000000004 0.0
vertex 50.999999999999986 21.000000000000025 -5.639932965095795e-15
endloop
endfacet
facet normal -2.5938641638413704e-16 -5.050001026947786e-17 -1.0
outer loop
vertex 29.99999999999998 -1.767500359431725e-15 0.0
vertex 38.07512886940355 11.899999999999977 0.0
vertex 37.79540768639059 11.22469332628703 0.0
endloop
endfacet
facet normal -2.5938641638413704e-16 -5.050001026947786e-17 -1.0
outer loop
vertex 29.99999999999998 -1.767500359431725e-15 0.0
vertex 37.79540768639059 11.22469332628703 0.0
vertex 37.69999999999998 10.499999999999979 0.0
endloop
endfacet
facet normal -2.5938641638413704e-16 -5.050001026947786e-17 -1.0
outer loop
vertex 29.99999999999998 -1.767500359431725e-15 0.0
vertex 37.69999999999998 10.499999999999979 0.0
vertex 36.99999999999998 -1.767500359431725e-15 0.0
endloop
endfacet
facet normal -2.5938641638413704e-16 -5.050001026947786e-17 -1.0
outer loop
vertex 39.09999999999998 12.92487113059641 0.0
vertex 50.999999999999986 21.000000000000025 -5.639932965095795e-15
vertex 39.77530667371292 13.204592313609362 0.0
endloop
endfacet
facet normal -2.5938641638413704e-16 -5.050001026947786e-17 -1.0
outer loop
vertex 39.77530667371292 13.204592313609362 0.0
vertex 50.999999999999986 21.000000000000025 -5.639932965095795e-15
vertex 40.49999999999998 13.299999999999972 0.0
endloop
endfacet
facet normal -2.5938641638413704e-16 -5.050001026947786e-17 -1.0
outer loop
vertex 40.49999999999998 13.299999999999972 0.0
vertex 50.999999999999986 21.000000000000025 -5.639932965095795e-15
vertex 41.22469332628704 13.204592313609362 0.0
endloop
endfacet
facet normal -2.5938641638413704e-16 -5.050001026947786e-17 -1.0
outer loop
vertex 41.22469332628704 13.204592313609362 0.0
vertex 50.999999999999986 21.000000000000025 -5.639932965095795e-15
vertex 41.89999999999998 12.92487113059641 0.0
endloop
endfacet
facet normal -2.5938641638413704e-16 -5.050001026947786e-17 -1.0
outer loop
vertex 41.89999999999998 12.92487113059641 0.0
vertex 50.999999999999986 21.000000000000025 -5.639932965095795e-15
vertex 42.479898987322315 12.479898987322313 0.0
endloop
endfacet
facet normal -2.5938641638413704e-16 -5.050001026947786e-17 -1.0
outer loop
vertex 42.479898987322315 12.479898987322313 0.0
vertex 50.999999999999986 21.000000000000025 -5.639932965095795e-15
vertex 42.92487113059641 11.899999999999977 0.0
endloop
endfacet
facet normal -2.5938641638413704e-16 -5.050001026947786e-17 -1.0
outer loop
vertex 42.92487113059641 11.899999999999977 0.0
vertex 50.999999999999986 21.000000000000025 -5.639932965095795e-15
vertex 43.204592313609375 11.22469332628703 0.0
endloop
endfacet
facet normal -2.5938641638413704e-16 -5.050001026947786e-17 -1.0
outer loop
vertex 43.204592313609375 11.22469332628703 0.0
vertex 50.999999999999986 21.000000000000025 -5.639932965095795e-15
vertex 43.29999999999998 10.499999999999979 0.0
endloop
endfacet
facet normal -2.5938641638413704e-16 -5.050001026947786e-17 -1.0
outer loop
vertex 36.99999999999998 -1.767500359431725e-15 0.0
vertex 41.899999999999984 8.075128869403548 0.0
vertex 50.999999999999986 14.000000000000016 -5.639932965095795e-15
endloop
endfacet
facet normal -2.5938641638413704e-16 -5.050001026947786e-17 -1.0
outer loop
vertex 41.899999999999984 8.075128869403548 0.0
vertex 36.99999999999998 -1.767500359431725e-15 0.0
vertex 41.224693326287046 7.795407686390596 0.0
endloop
endfacet
facet normal -2.5938641638413704e-16 -5.050001026947786e-17 -1.0
outer loop
vertex 41.224693326287046 7.795407686390596 0.0
vertex 36.99999999999998 -1.767500359431725e-15 0.0
vertex 40.49999999999998 7.699999999999984 0.0
endloop
endfacet
facet normal -2.5938641638413704e-16 -5.050001026947786e-17 -1.0
outer loop
vertex 40.49999999999998 7.699999999999984 0.0
vertex 36.99999999999998 -1.767500359431725e-15 0.0
vertex 39.775306673712926 7.795407686390596 0.0
endloop
endfacet
facet normal -2.5938641638413704e-16 -5.050001026947786e-17 -1.0
outer loop
vertex 39.775306673712926 7.795407686390596 0.0
vertex 36.99999999999998 -1.767500359431725e-15 0.0
vertex 39.09999999999999 8.075128869403548 0.0
endloop
endfacet
facet normal -2.5938641638413704e-16 -5.050001026947786e-17 -1.0
outer loop
vertex 39.09999999999999 8.075128869403548 0.0
vertex 36.99999999999998 -1.767500359431725e-15 0.0
vertex 38.52010101267765 8.520101012677646 0.0
endloop
endfacet
facet normal -2.5938641638413704e-16 -5.050001026947786e-17 -1.0
outer loop
vertex 38.52010101267765 8.520101012677646 0.0
vertex 36.99999999999998 -1.767500359431725e-15 0.0
vertex 38.07512886940356 9.099999999999982 0.0
endloop
endfacet
facet normal -2.5938641638413704e-16 -5.050001026947786e-17 -1.0
outer loop
vertex 38.07512886940356 9.099999999999982 0.0
vertex 36.99999999999998 -1.767500359431725e-15 0.0
vertex 37.79540768639059 9.77530667371293 0.0
endloop
endfacet
facet normal -2.5938641638413704e-16 -5.050001026947786e-17 -1.0
outer loop
vertex 37.79540768639059 9.77530667371293 0.0
vertex 36.99999999999998 -1.767500359431725e-15 0.0
vertex 37.69999999999998 10.499999999999979 0.0
endloop
endfacet
facet normal -2.5938641638413704e-16 -5.050001026947786e-17 -1.0
outer loop
vertex 50.999999999999986 14.000000000000016 -5.639932965095795e-15
vertex 41.899999999999984 8.075128869403548 0.0
vertex 42.479898987322315 8.520101012677646 0.0
endloop
endfacet
facet normal -2.5938641638413704e-16 -5.050001026947786e-17 -1.0
outer loop
vertex 50.999999999999986 14.000000000000016 -5.639932965095795e-15
vertex 42.479898987322315 8.520101012677646 0.0
vertex 42.92487113059641 9.099999999999982 0.0
endloop
endfacet
facet normal -2.5938641638413704e-16 -5.050001026947786e-17 -1.0
outer loop
vertex 50.999999999999986 14.000000000000016 -5.639932965095795e-15
vertex 42.92487113059641 9.099999999999982 0.0
vertex 43.204592313609375 9.77530667371293 0.0
endloop
endfacet
facet normal -2.5938641638413704e-16 -5.050001026947786e-17 -1.0
outer loop
vertex 50.999999999999986 14.000000000000016 -5.639932965095795e-15
vertex 43.204592313609375 9.77530667371293 0.0
vertex 43.29999999999998 10.499999999999979 0.0
endloop
endfacet
facet normal -2.5938641638413704e-16 -5.050001026947786e-17 -1.0
outer loop
vertex 50.999999999999986 14.000000000000016 -5.639932965095795e-15
vertex 43.29999999999998 10.499999999999979 0.0
vertex 50.999999999999986 21.000000000000025 -5.639932965095795e-15
endloop
endfacet
facet normal 0.7071067811865491 -0.7071067811865458 -1.477049942613631e-16
outer loop
vertex 38.52010101267765 12.479898987322313 0.0
vertex 38.075128869403564 11.899999999999979 35.0
vertex 38.07512886940355 11.899999999999977 0.0
endloop
endfacet
facet normal 0.8660254037844392 -0.4999999999999994 -1.9938522085053205e-16
outer loop
vertex 38.075128869403564 11.899999999999979 35.0
vertex 38.52010101267765 12.479898987322313 0.0
vertex 38.52010101267766 12.479898987322315 35.0
endloop
endfacet
facet normal 0.7071067811865478 -0.7071067811865472 -1.477049942613627e-16
outer loop
vertex 50.999999999999986 14.000000000000016 -5.639932965095795e-15
vertex 36.999999999999986 0.0 35.0
vertex 36.99999999999998 -1.767500359431725e-15 0.0
endloop
endfacet
facet normal 0.7071067811865478 -0.7071067811865472 -1.477049942613627e-16
outer loop
vertex 36.999999999999986 0.0 35.0
vertex 50.999999999999986 14.000000000000016 -5.639932965095795e-15
vertex 51.0 14.00000000000002 34.99999999999999
endloop
endfacet
facet normal -0.2588190451025157 -0.9659258262890698 1.159134087482578e-16
outer loop
vertex 41.22469332628705 13.204592313609364 35.0
vertex 40.49999999999998 13.299999999999972 0.0
vertex 41.22469332628704 13.204592313609362 0.0
endloop
endfacet
facet normal -4.81199934364933e-16 -1.0 5.050001026947799e-17
outer loop
vertex 40.49999999999998 13.299999999999972 0.0
vertex 41.22469332628705 13.204592313609364 35.0
vertex 40.49999999999999 13.299999999999976 35.0
endloop
endfacet
facet normal -0.7071067811865498 -0.7071067811865454 2.1912279368443926e-16
outer loop
vertex 42.47989898732233 12.479898987322315 35.0
vertex 41.89999999999998 12.92487113059641 0.0
vertex 42.479898987322315 12.479898987322313 0.0
endloop
endfacet
facet normal -0.49999999999999434 -0.8660254037844419 1.7342749997681002e-16
outer loop
vertex 41.89999999999998 12.92487113059641 0.0
vertex 42.47989898732233 12.479898987322315 35.0
vertex 41.89999999999999 12.924871130596413 35.0
endloop
endfacet
facet normal -0.8660254037844406 -0.4999999999999966 2.4988523112001005e-16
outer loop
vertex 42.92487113059642 11.899999999999979 35.0
vertex 42.479898987322315 12.479898987322313 0.0
vertex 42.92487113059641 11.899999999999977 0.0
endloop
endfacet
facet normal -0.7071067811865498 -0.7071067811865455 2.1912279368443926e-16
outer loop
vertex 42.479898987322315 12.479898987322313 0.0
vertex 42.92487113059642 11.899999999999979 35.0
vertex 42.47989898732233 12.479898987322315 35.0
endloop
endfacet
facet normal -1.0 0.0 2.5938641638413704e-16
outer loop
vertex 43.3 10.49999999999998 35.0
vertex 43.204592313609375 11.22469332628703 0.0
vertex 43.29999999999998 10.499999999999979 0.0
endloop
endfacet
facet normal -0.965925826289068 -0.2588190451025217 2.636184030096216e-16
outer loop
vertex 43.204592313609375 11.22469332628703 0.0
vertex 43.3 10.49999999999998 35.0
vertex 43.20459231360938 11.224693326287031 35.0
endloop
endfacet
facet normal 0.2588190451025157 0.9659258262890698 -1.159134087482578e-16
outer loop
vertex 39.77530667371294 7.795407686390597 35.0
vertex 40.49999999999998 7.699999999999984 0.0
vertex 39.775306673712926 7.795407686390596 0.0
endloop
endfacet
facet normal 5.346665937388144e-16 1.0 -5.0500010269478e-17
outer loop
vertex 40.49999999999998 7.699999999999984 0.0
vertex 39.77530667371294 7.795407686390597 35.0
vertex 40.49999999999999 7.699999999999986 35.0
endloop
endfacet
facet normal 0.7071067811865498 0.7071067811865455 -2.1912279368443926e-16
outer loop
vertex 38.52010101267766 8.520101012677648 35.0
vertex 39.09999999999999 8.075128869403548 0.0
vertex 38.52010101267765 8.520101012677646 0.0
endloop
endfacet
facet normal 0.49999999999999434 0.8660254037844419 -1.7342749997681002e-16
outer loop
vertex 39.09999999999999 8.075128869403548 0.0
vertex 38.52010101267766 8.520101012677648 35.0
vertex 39.099999999999994 8.07512886940355 35.0
endloop
endfacet
facet normal -0.4999999999999964 0.8660254037844408 8.595891640732463e-17
outer loop
vertex 41.9 8.07512886940355 35.0
vertex 42.479898987322315 8.520101012677646 0.0
vertex 41.899999999999984 8.075128869403548 0.0
endloop
endfacet
facet normal -0.7071067811865512 0.7071067811865439 1.4770499426136382e-16
outer loop
vertex 42.479898987322315 8.520101012677646 0.0
vertex 41.9 8.07512886940355 35.0
vertex 42.47989898732233 8.520101012677648 35.0
endloop
endfacet
facet normal 0.8660254037844406 0.4999999999999966 -2.4988523112001005e-16
outer loop
vertex 38.07512886940356 9.099999999999982 0.0
vertex 38.52010101267766 8.520101012677648 35.0
vertex 38.52010101267765 8.520101012677646 0.0
endloop
endfacet
facet normal 0.7071067811865498 0.7071067811865455 -2.1912279368443926e-16
outer loop
vertex 38.52010101267766 8.520101012677648 35.0
vertex 38.07512886940356 9.099999999999982 0.0
vertex 38.075128869403564 9.099999999999984 35.0
endloop
endfacet
facet normal -0.25881904510251524 0.9659258262890698 1.8354880453953864e-17
outer loop
vertex 41.22469332628705 7.795407686390597 35.0
vertex 41.899999999999984 8.075128869403548 0.0
vertex 41.224693326287046 7.795407686390596 0.0
endloop
endfacet
facet normal -0.4999999999999964 0.8660254037844408 8.595891640732462e-17
outer loop
vertex 41.899999999999984 8.075128869403548 0.0
vertex 41.22469332628705 7.795407686390597 35.0
vertex 41.9 8.07512886940355 35.0
endloop
endfacet
facet normal -0.965925826289068 -0.2588190451025217 2.636184030096216e-16
outer loop
vertex 43.20459231360938 11.224693326287031 35.0
vertex 42.92487113059641 11.899999999999977 0.0
vertex 43.204592313609375 11.22469332628703 0.0
endloop
endfacet
facet normal -0.8660254037844406 -0.4999999999999966 2.4988523112001005e-16
outer loop
vertex 42.92487113059641 11.899999999999977 0.0
vertex 43.20459231360938 11.224693326287031 35.0
vertex 42.92487113059642 11.899999999999979 35.0
endloop
endfacet
facet normal -0.965925826289068 0.2588190451025217 2.374776741383941e-16
outer loop
vertex 43.20459231360938 9.775306673712931 35.0
vertex 43.29999999999998 10.499999999999979 0.0
vertex 43.204592313609375 9.77530667371293 0.0
endloop
endfacet
facet normal -1.0 8.911109895646908e-18 2.59386416384137e-16
outer loop
vertex 43.29999999999998 10.499999999999979 0.0
vertex 43.20459231360938 9.775306673712931 35.0
vertex 43.3 10.49999999999998 35.0
endloop
endfacet
facet normal 4.81199934364933e-16 1.0 -5.050001026947799e-17
outer loop
vertex 40.49999999999999 7.699999999999986 35.0
vertex 41.224693326287046 7.795407686390596 0.0
vertex 40.49999999999998 7.699999999999984 0.0
endloop
endfacet
facet normal -0.25881904510251524 0.9659258262890698 1.835488045395385e-17
outer loop
vertex 41.224693326287046 7.795407686390596 0.0
vertex 40.49999999999999 7.699999999999986 35.0
vertex 41.22469332628705 7.795407686390597 35.0
endloop
endfacet
facet normal 2.5938641638413704e-16 5.050001026947786e-17 1.0
outer loop
vertex 36.999999999999986 0.0 35.0
vertex 37.795407686390604 9.775306673712931 35.0
vertex 37.699999999999996 10.49999999999998 35.0
endloop
endfacet
facet normal 2.5938641638413704e-16 5.050001026947786e-17 1.0
outer loop
vertex 37.795407686390604 9.775306673712931 35.0
vertex 36.999999999999986 0.0 35.0
vertex 38.075128869403564 9.099999999999984 35.0
endloop
endfacet
facet normal 2.5938641638413704e-16 5.050001026947786e-17 1.0
outer loop
vertex 38.075128869403564 9.099999999999984 35.0
vertex 36.999999999999986 0.0 35.0
vertex 38.52010101267766 8.520101012677648 35.0
endloop
endfacet
facet normal 2.5938641638413704e-16 5.050001026947786e-17 1.0
outer loop
vertex 38.52010101267766 8.520101012677648 35.0
vertex 36.999999999999986 0.0 35.0
vertex 39.099999999999994 8.07512886940355 35.0
endloop
endfacet
facet normal 2.5938641638413704e-16 5.050001026947786e-17 1.0
outer loop
vertex 39.099999999999994 8.07512886940355 35.0
vertex 36.999999999999986 0.0 35.0
vertex 39.77530667371294 7.795407686390597 35.0
endloop
endfacet
facet normal 2.5938641638413704e-16 5.050001026947786e-17 1.0
outer loop
vertex 39.77530667371294 7.795407686390597 35.0
vertex 36.999999999999986 0.0 35.0
vertex 40.49999999999999 7.699999999999986 35.0
endloop
endfacet
facet normal 2.5938641638413704e-16 5.050001026947786e-17 1.0
outer loop
vertex 40.49999999999999 7.699999999999986 35.0
vertex 36.999999999999986 0.0 35.0
vertex 41.22469332628705 7.795407686390597 35.0
endloop
endfacet
facet normal 2.5938641638413704e-16 5.050001026947786e-17 1.0
outer loop
vertex 41.22469332628705 7.795407686390597 35.0
vertex 36.999999999999986 0.0 35.0
vertex 41.9 8.07512886940355 35.0
endloop
endfacet
facet normal 2.5938641638413704e-16 5.050001026947786e-17 1.0
outer loop
vertex 41.9 8.07512886940355 35.0
vertex 36.999999999999986 0.0 35.0
vertex 51.0 14.00000000000002 34.99999999999999
endloop
endfacet
facet normal 2.5938641638413704e-16 5.050001026947786e-17 1.0
outer loop
vertex 41.9 8.07512886940355 35.0
vertex 51.0 14.00000000000002 34.99999999999999
vertex 42.47989898732233 8.520101012677648 35.0
endloop
endfacet
facet normal 2.5938641638413704e-16 5.050001026947786e-17 1.0
outer loop
vertex 42.47989898732233 8.520101012677648 35.0
vertex 51.0 14.00000000000002 34.99999999999999
vertex 42.92487113059642 9.099999999999984 35.0
endloop
endfacet
facet normal 2.5938641638413704e-16 5.050001026947786e-17 1.0
outer loop
vertex 42.92487113059642 9.099999999999984 35.0
vertex 51.0 14.00000000000002 34.99999999999999
vertex 43.20459231360938 9.775306673712931 35.0
endloop
endfacet
facet normal 2.5938641638413704e-16 5.050001026947786e-17 1.0
outer loop
vertex 43.20459231360938 9.775306673712931 35.0
vertex 51.0 14.00000000000002 34.99999999999999
vertex 43.3 10.49999999999998 35.0
endloop
endfacet
facet normal 2.5938641638413704e-16 5.050001026947786e-17 1.0
outer loop
vertex 36.999999999999986 0.0 35.0
vertex 29.99999999999999 21.000000000000007 35.0
vertex 29.99999999999999 0.0 35.0
endloop
endfacet
facet normal 2.5938641638413704e-16 5.050001026947786e-17 1.0
outer loop
vertex 29.99999999999999 21.000000000000007 35.0
vertex 36.999999999999986 0.0 35.0
vertex 37.699999999999996 10.49999999999998 35.0
endloop
endfacet
facet normal 2.5938641638413704e-16 5.050001026947786e-17 1.0
outer loop
vertex 29.99999999999999 21.000000000000007 35.0
vertex 37.699999999999996 10.49999999999998 35.0
vertex 37.7954076863906 11.224693326287031 35.0
endloop
endfacet
facet normal 2.5938641638413704e-16 5.050001026947786e-17 1.0
outer loop
vertex 29.99999999999999 21.000000000000007 35.0
vertex 37.7954076863906 11.224693326287031 35.0
vertex 38.075128869403564 11.899999999999979 35.0
endloop
endfacet
facet normal 2.5938641638413704e-16 5.050001026947786e-17 1.0
outer loop
vertex 29.99999999999999 21.000000000000007 35.0
vertex 38.075128869403564 11.899999999999979 35.0
vertex 38.52010101267766 12.479898987322315 35.0
endloop
endfacet
facet normal 2.5938641638413704e-16 5.050001026947786e-17 1.0
outer loop
vertex 29.99999999999999 21.000000000000007 35.0
vertex 38.52010101267766 12.479898987322315 35.0
vertex 39.09999999999999 12.924871130596413 35.0
endloop
endfacet
facet normal 2.5938641638413704e-16 5.050001026947786e-17 1.0
outer loop
vertex 29.99999999999999 21.000000000000007 35.0
vertex 39.09999999999999 12.924871130596413 35.0
vertex 51.0 21.00000000000003 34.99999999999999
endloop
endfacet
facet normal 2.5938641638413704e-16 5.050001026947786e-17 1.0
outer loop
vertex 51.0 21.00000000000003 34.99999999999999
vertex 39.09999999999999 12.924871130596413 35.0
vertex 39.77530667371293 13.204592313609364 35.0
endloop
endfacet
facet normal 2.5938641638413704e-16 5.050001026947786e-17 1.0
outer loop
vertex 51.0 21.00000000000003 34.99999999999999
vertex 39.77530667371293 13.204592313609364 35.0
vertex 40.49999999999999 13.299999999999976 35.0
endloop
endfacet
facet normal 2.5938641638413704e-16 5.050001026947786e-17 1.0
outer loop
vertex 51.0 21.00000000000003 34.99999999999999
vertex 40.49999999999999 13.299999999999976 35.0
vertex 41.22469332628705 13.204592313609364 35.0
endloop
endfacet
facet normal 2.5938641638413704e-16 5.050001026947786e-17 1.0
outer loop
vertex 51.0 21.00000000000003 34.99999999999999
vertex 41.22469332628705 13.204592313609364 35.0
vertex 41.89999999999999 12.924871130596413 35.0
endloop
endfacet
facet normal 2.5938641638413704e-16 5.050001026947786e-17 1.0
outer loop
vertex 51.0 21.00000000000003 34.99999999999999
vertex 41.89999999999999 12.924871130596413 35.0
vertex 42.47989898732233 12.479898987322315 35.0
endloop
endfacet
facet normal 2.5938641638413704e-16 5.050001026947786e-17 1.0
outer loop
vertex 51.0 21.00000000000003 34.99999999999999
vertex 42.47989898732233 12.479898987322315 35.0
vertex 42.92487113059642 11.899999999999979 35.0
endloop
endfacet
facet normal 2.5938641638413704e-16 5.050001026947786e-17 1.0
outer loop
vertex 51.0 21.00000000000003 34.99999999999999
vertex 42.92487113059642 11.899999999999979 35.0
vertex 43.20459231360938 11.224693326287031 35.0
endloop
endfacet
facet normal 2.5938641638413704e-16 5.050001026947786e-17 1.0
outer loop
vertex 51.0 21.00000000000003 34.99999999999999
vertex 43.20459231360938 11.224693326287031 35.0
vertex 43.3 10.49999999999998 35.0
endloop
endfacet
facet normal 2.5938641638413704e-16 5.050001026947786e-17 1.0
outer loop
vertex 51.0 21.00000000000003 34.99999999999999
vertex 43.3 10.49999999999998 35.0
vertex 51.0 14.00000000000002 34.99999999999999
endloop
endfacet
facet normal 0.49999999999999434 0.8660254037844419 -1.7342749997681005e-16
outer loop
vertex 39.099999999999994 8.07512886940355 35.0
vertex 39.775306673712926 7.795407686390596 0.0
vertex 39.09999999999999 8.075128869403548 0.0
endloop
endfacet
facet normal 0.25881904510251574 0.9659258262890698 -1.1591340874825782e-16
outer loop
vertex 39.775306673712926 7.795407686390596 0.0
vertex 39.099999999999994 8.07512886940355 35.0
vertex 39.77530667371294 7.795407686390597 35.0
endloop
endfacet
facet normal -0.7071067811865515 0.7071067811865437 1.4770499426136382e-16
outer loop
vertex 42.47989898732233 8.520101012677648 35.0
vertex 42.92487113059641 9.099999999999982 0.0
vertex 42.479898987322315 8.520101012677646 0.0
endloop
endfacet
facet normal -0.8660254037844406 0.4999999999999966 1.9938522085053252e-16
outer loop
vertex 42.92487113059641 9.099999999999982 0.0
vertex 42.47989898732233 8.520101012677648 35.0
vertex 42.92487113059642 9.099999999999984 35.0
endloop
endfacet
facet normal 0.965925826289068 0.2588190451025217 -2.636184030096216e-16
outer loop
vertex 37.79540768639059 9.77530667371293 0.0
vertex 38.075128869403564 9.099999999999984 35.0
vertex 38.07512886940356 9.099999999999982 0.0
endloop
endfacet
facet normal 0.8660254037844406 0.4999999999999966 -2.4988523112001005e-16
outer loop
vertex 38.075128869403564 9.099999999999984 35.0
vertex 37.79540768639059 9.77530667371293 0.0
vertex 37.795407686390604 9.775306673712931 35.0
endloop
endfacet
facet normal 0.0 -1.0 5.050001026947786e-17
outer loop
vertex 36.999999999999986 0.0 35.0
vertex 29.99999999999998 -1.767500359431725e-15 0.0
vertex 36.99999999999998 -1.767500359431725e-15 0.0
endloop
endfacet
facet normal 0.0 -1.0 5.050001026947786e-17
outer loop
vertex 29.99999999999998 -1.767500359431725e-15 0.0
vertex 36.999999999999986 0.0 35.0
vertex 29.99999999999999 0.0 35.0
endloop
endfacet
facet normal -0.8660254037844406 0.49999999999999656 1.9938522085053252e-16
outer loop
vertex 42.92487113059642 9.099999999999984 35.0
vertex 43.204592313609375 9.77530667371293 0.0
vertex 42.92487113059641 9.099999999999982 0.0
endloop
endfacet
facet normal -0.965925826289068 0.2588190451025217 2.374776741383941e-16
outer loop
vertex 43.204592313609375 9.77530667371293 0.0
vertex 42.92487113059642 9.099999999999984 35.0
vertex 43.20459231360938 9.775306673712931 35.0
endloop
endfacet
endsolid support
